<svg width="200" height="60" viewBox="0 0 200 60" xmlns="http://www.w3.org/2000/svg">
  <!-- Z icon -->
  <g fill="#c1f0c1">
    <path d="M30,15 L50,15 L30,45 L50,45 L50,50 L20,50 L40,20 L20,20 L20,15 Z" />
    <rect x="15" y="30" width="20" height="5" />
  </g>
  
  <!-- zappie text -->
  <path d="M70,40 L110,40 L70,20 L110,20 L110,15 L65,15 L105,35 L65,35 L65,40 Z" fill="#ffffff" />
  <path d="M115,15 L120,15 L120,40 L115,40 Z" fill="#ffffff" />
  <path d="M125,15 L130,15 L130,35 L145,35 L145,40 L125,40 Z" fill="#ffffff" />
  <path d="M150,15 L155,15 L155,35 L170,35 L170,40 L150,40 Z" fill="#ffffff" />
  <path d="M175,15 L180,15 L180,40 L175,40 Z" fill="#ffffff" />
  <path d="M185,15 L205,15 L205,20 L190,20 L190,25 L200,25 L200,30 L190,30 L190,40 L185,40 Z" fill="#ffffff" />
</svg>