<svg width="96" height="96" viewBox="0 0 96 96" fill="none" xmlns="http://www.w3.org/2000/svg">
<path opacity="0.4" d="M81.178 31.3196C83.6892 31.6573 85.9564 32.4 87.778 34.2218C89.6 36.0437 90.3428 38.3109 90.6804 40.822C91.0004 43.2012 91 46.198 91 49.792V62.208C91 65.802 91.0004 68.7988 90.6804 71.178C90.3428 73.6892 89.6 75.9564 87.778 77.778C85.9564 79.6 83.6892 80.3428 81.178 80.6804C78.7988 81.0004 75.802 81 72.208 81H35.792C32.1982 81 29.2012 81.0004 26.8221 80.6804C24.3109 80.3428 22.0437 79.6 20.2218 77.778C18.4 75.9564 17.6573 73.6892 17.3196 71.178C16.9998 68.7988 16.9999 65.802 17 62.208V42.806C17 41.9532 17.3632 41.1404 17.9988 40.5712C18.6343 40.002 19.4821 39.7305 20.33 39.8244C22.3253 40.0452 24.3772 39.3802 25.8787 37.8787C27.0503 36.7071 28.9498 36.7071 30.1213 37.8787L36.1213 43.8788C37.1589 44.9164 38.8411 44.9164 39.8787 43.8788C40.9164 42.8412 40.9164 41.1588 39.8787 40.1212L35.8787 36.1213C35.0207 35.2633 34.764 33.973 35.2284 32.852C35.6927 31.7309 36.7866 31 38 31H72.208C75.802 30.9999 78.7988 30.9998 81.178 31.3196Z" fill="#3BAB22"/>
<path d="M5 18C5 16.3432 6.34316 15 8 15H35.0294C39.0077 15 42.8228 16.5804 45.636 19.3934L57.2428 31H39.2426L44.1212 35.8787C47.502 39.2594 47.502 44.7408 44.1212 48.1212C40.7408 51.502 35.2594 51.502 31.8787 48.1212L27.7489 43.9916C24.514 45.97 20.5631 46.3984 17 45.1984V57H8C6.34316 57 5 55.6568 5 54V18Z" fill="#3BAB22"/>
<path d="M62 56C62 60.418 58.4184 64 54 64C49.5816 64 46 60.418 46 56C46 51.5816 49.5816 48 54 48C58.4184 48 62 51.5816 62 56Z" fill="#3BAB22"/>
</svg>
