<svg width="96" height="96" viewBox="0 0 96 96" fill="none" xmlns="http://www.w3.org/2000/svg">
<path d="M42.7156 12H42.2844C36.85 12 32.4669 11.9999 28.9506 12.3576C25.3209 12.7268 22.1732 13.51 19.3886 15.3706C17.2048 16.8298 15.3298 18.7048 13.8706 20.8886C12.01 23.6732 11.2268 26.8209 10.8576 30.4506C10.4999 33.9669 10.5 38.3495 10.5 43.784V68C10.5 70.2092 12.2909 72 14.5 72C16.7092 72 18.5 70.2092 18.5 68V44C18.5 38.2989 18.5048 34.3242 18.8165 31.2602C19.1214 28.2631 19.6865 26.5842 20.5224 25.3332C21.3979 24.0229 22.5229 22.8979 23.8332 22.0224C25.0842 21.1865 26.7631 20.6214 29.7602 20.3165C32.8242 20.0048 36.7989 20 42.5 20C48.2012 20 52.176 20.0048 55.2396 20.3165C58.2368 20.6214 59.916 21.1865 61.1668 22.0224C62.4772 22.8979 63.602 24.0229 64.4776 25.3332C65.3136 26.5842 65.8784 28.2631 66.1836 31.2602C66.4952 34.3242 66.5 38.2989 66.5 44V53H58.4948C57.8024 53.0008 57.1068 53.24 56.5416 53.7276C55.2864 54.8092 55.146 56.7036 56.2276 57.9588L62.694 65.4608C63.9208 66.8848 65.034 68.1764 66.062 69.086C67.1688 70.066 68.6056 71 70.5 71C72.3944 71 73.8316 70.066 74.9384 69.086C75.966 68.1764 77.0788 66.8848 78.3056 65.4612L84.7724 57.9588C85.854 56.7036 85.7136 54.8092 84.4588 53.7276C83.8916 53.2388 83.194 52.9996 82.5 53H74.5V43.784C74.5 38.3496 74.5 33.9669 74.1424 30.4506C73.7732 26.8209 72.99 23.6732 71.1292 20.8886C69.6704 18.7048 67.7952 16.8298 65.6116 15.3706C62.8268 13.51 59.6792 12.7268 56.0496 12.3576C52.5332 11.9999 48.15 12 42.7156 12Z" fill="#3BAB22"/>
<path opacity="0.4" fill-rule="evenodd" clip-rule="evenodd" d="M26.5 80C26.5 77.7908 28.2909 76 30.5 76H54.5C56.7092 76 58.5 77.7908 58.5 80C58.5 82.2092 56.7092 84 54.5 84H30.5C28.2909 84 26.5 82.2092 26.5 80Z" fill="#3BAB22"/>
</svg>
