<svg width="1408" height="1025" viewBox="0 0 1408 1025" fill="none" xmlns="http://www.w3.org/2000/svg">
<g clip-path="url(#clip0_1185_20383)">
<path d="M0 5.44294C0 -7.8119 10.7452 -18.557 24 -18.557H1384C1397.25 -18.557 1408 -7.81184 1408 5.44299V1054.47H0V5.44294Z" fill="#1C5210"/>
<path d="M-16.4701 -134.464C-16.4701 -134.655 -16.3156 -134.809 -16.1249 -134.809H1422.85C1423.04 -134.809 1423.19 -134.655 1423.19 -134.464C1423.19 -134.273 1423.04 -134.119 1422.85 -134.119H-16.1249C-16.3156 -134.119 -16.4701 -134.273 -16.4701 -134.464Z" fill="url(#paint0_radial_1185_20383)"/>
<path d="M-16.4701 -36.9347C-16.4701 -37.1254 -16.3156 -37.2799 -16.1249 -37.2799H1422.85C1423.04 -37.2799 1423.19 -37.1254 1423.19 -36.9347C1423.19 -36.744 1423.04 -36.5895 1422.85 -36.5895H-16.1249C-16.3156 -36.5895 -16.4701 -36.744 -16.4701 -36.9347Z" fill="url(#paint1_radial_1185_20383)"/>
<path d="M-16.1249 60.2492C-16.3156 60.2492 -16.4701 60.4038 -16.4701 60.5944C-16.4701 60.7851 -16.3156 60.9397 -16.1249 60.9397H1422.85C1423.04 60.9397 1423.19 60.7851 1423.19 60.5944C1423.19 60.4038 1423.04 60.2492 1422.85 60.2492H-16.1249Z" fill="url(#paint2_radial_1185_20383)"/>
<path d="M-16.4701 158.124C-16.4701 157.933 -16.3156 157.778 -16.1249 157.778H1422.85C1423.04 157.778 1423.19 157.933 1423.19 158.124C1423.19 158.314 1423.04 158.469 1422.85 158.469H-16.1249C-16.3156 158.469 -16.4701 158.314 -16.4701 158.124Z" fill="url(#paint3_radial_1185_20383)"/>
<path d="M-16.1249 255.307C-16.3156 255.307 -16.4701 255.462 -16.4701 255.653C-16.4701 255.843 -16.3156 255.998 -16.1249 255.998H1422.85C1423.04 255.998 1423.19 255.843 1423.19 255.653C1423.19 255.462 1423.04 255.307 1422.85 255.307H-16.1249Z" fill="url(#paint4_radial_1185_20383)"/>
<path d="M-16.4701 353.182C-16.4701 352.991 -16.3156 352.837 -16.1249 352.837H1422.85C1423.04 352.837 1423.19 352.991 1423.19 353.182C1423.19 353.373 1423.04 353.527 1422.85 353.527H-16.1249C-16.3156 353.527 -16.4701 353.373 -16.4701 353.182Z" fill="url(#paint5_radial_1185_20383)"/>
<path d="M-16.1249 450.366C-16.3156 450.366 -16.4701 450.52 -16.4701 450.711C-16.4701 450.902 -16.3156 451.056 -16.1249 451.056H1422.85C1423.04 451.056 1423.19 450.902 1423.19 450.711C1423.19 450.52 1423.04 450.366 1422.85 450.366H-16.1249Z" fill="url(#paint6_radial_1185_20383)"/>
<path d="M-16.4701 548.24C-16.4701 548.049 -16.3156 547.895 -16.1249 547.895H1422.85C1423.04 547.895 1423.19 548.049 1423.19 548.24C1423.19 548.431 1423.04 548.585 1422.85 548.585H-16.1249C-16.3156 548.585 -16.4701 548.431 -16.4701 548.24Z" fill="url(#paint7_radial_1185_20383)"/>
<path d="M-16.1249 645.424C-16.3156 645.424 -16.4701 645.579 -16.4701 645.769C-16.4701 645.96 -16.3156 646.114 -16.1249 646.114H1422.84C1423.03 646.114 1423.19 645.96 1423.19 645.769C1423.19 645.744 1423.18 645.72 1423.18 645.697C1423.17 645.662 1423.16 645.629 1423.14 645.598C1423.14 645.59 1423.13 645.582 1423.13 645.574C1423.12 645.559 1423.1 645.544 1423.09 645.531C1423.07 645.511 1423.05 645.494 1423.03 645.48C1423.02 645.47 1423 645.462 1422.98 645.455C1422.98 645.451 1422.97 645.447 1422.96 645.444C1422.95 645.441 1422.94 645.439 1422.93 645.437C1422.92 645.434 1422.91 645.431 1422.9 645.43C1422.9 645.428 1422.89 645.427 1422.88 645.427C1422.87 645.425 1422.86 645.424 1422.84 645.424H-16.1249Z" fill="url(#paint8_radial_1185_20383)"/>
<path d="M-16.4701 743.298C-16.4701 743.108 -16.3156 742.953 -16.1249 742.953H1422.84C1423.03 742.953 1423.19 743.108 1423.19 743.298C1423.19 743.489 1423.03 743.644 1422.84 743.644H-16.1249C-16.3156 743.644 -16.4701 743.489 -16.4701 743.298Z" fill="url(#paint9_radial_1185_20383)"/>
<path d="M-16.1249 840.482C-16.3156 840.482 -16.4701 840.637 -16.4701 840.827C-16.4701 841.018 -16.3156 841.173 -16.1249 841.173H1422.84C1423.03 841.173 1423.19 841.018 1423.19 840.827C1423.19 840.637 1423.03 840.482 1422.84 840.482H-16.1249Z" fill="url(#paint10_radial_1185_20383)"/>
<path d="M-16.4701 938.357C-16.4701 938.166 -16.3156 938.011 -16.1249 938.011H1422.84C1423.03 938.011 1423.19 938.166 1423.19 938.357C1423.19 938.547 1423.03 938.702 1422.84 938.702H-16.1249C-16.3156 938.702 -16.4701 938.547 -16.4701 938.357Z" fill="url(#paint11_radial_1185_20383)"/>
<path d="M-16.1249 1035.54C-16.3156 1035.54 -16.4701 1035.7 -16.4701 1035.89C-16.4701 1036.08 -16.3156 1036.23 -16.1249 1036.23H1422.84C1423.03 1036.23 1423.19 1036.08 1423.19 1035.89C1423.19 1035.7 1423.03 1035.54 1422.84 1035.54H-16.1249Z" fill="url(#paint12_radial_1185_20383)"/>
<path d="M-16.4701 1133.41C-16.4701 1133.22 -16.3156 1133.07 -16.1249 1133.07H1422.84C1423.03 1133.07 1423.19 1133.22 1423.19 1133.41C1423.19 1133.61 1423.03 1133.76 1422.84 1133.76H-16.1249C-16.3156 1133.76 -16.4701 1133.61 -16.4701 1133.41Z" fill="url(#paint13_radial_1185_20383)"/>
<path d="M-16.1249 1230.6C-16.3156 1230.6 -16.4701 1230.75 -16.4701 1230.94C-16.4701 1231.13 -16.3156 1231.29 -16.1249 1231.29H1422.84C1423.03 1231.29 1423.19 1231.13 1423.19 1230.94C1423.19 1230.75 1423.03 1230.6 1422.84 1230.6H-16.1249Z" fill="url(#paint14_radial_1185_20383)"/>
<path d="M-16.4701 1328.47C-16.4701 1328.28 -16.3156 1328.13 -16.1249 1328.13H1422.84C1423.03 1328.13 1423.19 1328.28 1423.19 1328.47C1423.19 1328.66 1423.03 1328.82 1422.84 1328.82H-16.1249C-16.3156 1328.82 -16.4701 1328.66 -16.4701 1328.47Z" fill="url(#paint15_radial_1185_20383)"/>
<path d="M-16.1249 1425.66C-16.3156 1425.66 -16.4701 1425.81 -16.4701 1426C-16.4701 1426.19 -16.3156 1426.35 -16.1249 1426.35H1422.84C1423.03 1426.35 1423.19 1426.19 1423.19 1426C1423.19 1425.81 1423.03 1425.66 1422.84 1425.66H-16.1249Z" fill="url(#paint16_radial_1185_20383)"/>
<path d="M-76.6533 1366C-76.844 1366 -76.9985 1365.85 -76.9985 1365.65V-73.319C-76.9985 -73.5096 -76.844 -73.6642 -76.6533 -73.6642C-76.4626 -73.6642 -76.308 -73.5096 -76.308 -73.319V1365.65C-76.308 1365.85 -76.4626 1366 -76.6533 1366Z" fill="url(#paint17_radial_1185_20383)"/>
<path d="M20.8758 1366C20.6852 1366 20.5306 1365.85 20.5306 1365.65V-73.319C20.5306 -73.5096 20.6852 -73.6642 20.8758 -73.6642C21.0665 -73.6642 21.2211 -73.5096 21.2211 -73.319V1365.65C21.2211 1365.85 21.0665 1366 20.8758 1366Z" fill="url(#paint18_radial_1185_20383)"/>
<path d="M118.06 1365.65C118.06 1365.85 118.214 1366 118.405 1366C118.596 1366 118.75 1365.85 118.75 1365.65V-73.319C118.75 -73.5096 118.596 -73.6642 118.405 -73.6642C118.214 -73.6642 118.06 -73.5096 118.06 -73.319V1365.65Z" fill="url(#paint19_radial_1185_20383)"/>
<path d="M215.934 1366C215.743 1366 215.589 1365.85 215.589 1365.65V-73.319C215.589 -73.5096 215.743 -73.6642 215.934 -73.6642C216.125 -73.6642 216.279 -73.5096 216.279 -73.319V1365.65C216.279 1365.85 216.125 1366 215.934 1366Z" fill="url(#paint20_radial_1185_20383)"/>
<path d="M313.118 1365.65C313.118 1365.85 313.273 1366 313.463 1366C313.654 1366 313.809 1365.85 313.809 1365.65V-73.319C313.809 -73.5096 313.654 -73.6642 313.463 -73.6642C313.273 -73.6642 313.118 -73.5096 313.118 -73.319V1365.65Z" fill="url(#paint21_radial_1185_20383)"/>
<path d="M410.992 1366C410.802 1366 410.647 1365.85 410.647 1365.65V-73.319C410.647 -73.5096 410.802 -73.6642 410.992 -73.6642C411.183 -73.6642 411.338 -73.5096 411.338 -73.319V1365.65C411.338 1365.85 411.183 1366 410.992 1366Z" fill="url(#paint22_radial_1185_20383)"/>
<path d="M508.176 1365.65C508.176 1365.85 508.331 1366 508.522 1366C508.712 1366 508.867 1365.85 508.867 1365.65V-73.319C508.867 -73.5096 508.712 -73.6642 508.522 -73.6642C508.331 -73.6642 508.176 -73.5096 508.176 -73.319V1365.65Z" fill="url(#paint23_radial_1185_20383)"/>
<path d="M606.051 1366C605.86 1366 605.705 1365.85 605.705 1365.65V-73.319C605.705 -73.5096 605.86 -73.6642 606.051 -73.6642C606.241 -73.6642 606.396 -73.5096 606.396 -73.319V1365.65C606.396 1365.85 606.241 1366 606.051 1366Z" fill="url(#paint24_radial_1185_20383)"/>
<path d="M703.234 1365.65C703.234 1365.85 703.389 1366 703.58 1366C703.77 1366 703.925 1365.85 703.925 1365.65V-73.3123C703.925 -73.5029 703.77 -73.6575 703.58 -73.6575C703.555 -73.6575 703.531 -73.6548 703.507 -73.6498C703.472 -73.6423 703.439 -73.6295 703.409 -73.6123C703.401 -73.6077 703.393 -73.6027 703.385 -73.5973C703.37 -73.5867 703.355 -73.5748 703.341 -73.5619C703.322 -73.5435 703.305 -73.5228 703.29 -73.5004C703.281 -73.4858 703.272 -73.4706 703.265 -73.4547C703.261 -73.4464 703.258 -73.438 703.255 -73.4293C703.252 -73.4213 703.249 -73.4131 703.247 -73.4048C703.244 -73.3947 703.242 -73.3844 703.24 -73.374C703.239 -73.3677 703.238 -73.3612 703.237 -73.3547C703.235 -73.3408 703.234 -73.3267 703.234 -73.3123V1365.65Z" fill="url(#paint25_radial_1185_20383)"/>
<path d="M801.109 1366C800.918 1366 800.764 1365.85 800.764 1365.65V-73.3123C800.764 -73.5029 800.918 -73.6575 801.109 -73.6575C801.3 -73.6575 801.454 -73.5029 801.454 -73.3123V1365.65C801.454 1365.85 801.3 1366 801.109 1366Z" fill="url(#paint26_radial_1185_20383)"/>
<path d="M898.293 1365.65C898.293 1365.85 898.447 1366 898.638 1366C898.829 1366 898.983 1365.85 898.983 1365.65V-73.3123C898.983 -73.5029 898.829 -73.6575 898.638 -73.6575C898.447 -73.6575 898.293 -73.5029 898.293 -73.3123V1365.65Z" fill="url(#paint27_radial_1185_20383)"/>
<path d="M996.167 1366C995.976 1366 995.822 1365.85 995.822 1365.65V-73.3123C995.822 -73.5029 995.976 -73.6575 996.167 -73.6575C996.358 -73.6575 996.512 -73.5029 996.512 -73.3123V1365.65C996.512 1365.85 996.358 1366 996.167 1366Z" fill="url(#paint28_radial_1185_20383)"/>
<path d="M1093.35 1365.65C1093.35 1365.85 1093.51 1366 1093.7 1366C1093.89 1366 1094.04 1365.85 1094.04 1365.65V-73.3123C1094.04 -73.5029 1093.89 -73.6575 1093.7 -73.6575C1093.51 -73.6575 1093.35 -73.5029 1093.35 -73.3123V1365.65Z" fill="url(#paint29_radial_1185_20383)"/>
<path d="M1191.23 1366C1191.03 1366 1190.88 1365.85 1190.88 1365.65V-73.3123C1190.88 -73.5029 1191.03 -73.6575 1191.23 -73.6575C1191.42 -73.6575 1191.57 -73.5029 1191.57 -73.3123V1365.65C1191.57 1365.85 1191.42 1366 1191.23 1366Z" fill="url(#paint30_radial_1185_20383)"/>
<path d="M1288.41 1365.65C1288.41 1365.85 1288.56 1366 1288.75 1366C1288.95 1366 1289.1 1365.85 1289.1 1365.65V-73.3123C1289.1 -73.5029 1288.95 -73.6575 1288.75 -73.6575C1288.56 -73.6575 1288.41 -73.5029 1288.41 -73.3123V1365.65Z" fill="url(#paint31_radial_1185_20383)"/>
<path d="M1386.28 1366C1386.09 1366 1385.94 1365.85 1385.94 1365.65V-73.3123C1385.94 -73.5029 1386.09 -73.6575 1386.28 -73.6575C1386.47 -73.6575 1386.63 -73.5029 1386.63 -73.3123V1365.65C1386.63 1365.85 1386.47 1366 1386.28 1366Z" fill="url(#paint32_radial_1185_20383)"/>
<path d="M1483.47 1365.65C1483.47 1365.85 1483.62 1366 1483.81 1366C1484 1366 1484.16 1365.85 1484.16 1365.65V-73.3123C1484.16 -73.5029 1484 -73.6575 1483.81 -73.6575C1483.62 -73.6575 1483.47 -73.5029 1483.47 -73.3123V1365.65Z" fill="url(#paint33_radial_1185_20383)"/>
<path d="M0 0H1408V1025H0V0Z" fill="url(#paint34_radial_1185_20383)"/>
</g>
<defs>
<radialGradient id="paint0_radial_1185_20383" cx="0" cy="0" r="1" gradientUnits="userSpaceOnUse" gradientTransform="translate(974.789 646.169) rotate(-90) scale(681.237 806.261)">
<stop stop-color="#3BAB22"/>
<stop offset="1" stop-color="#3BAB22" stop-opacity="0.3"/>
</radialGradient>
<radialGradient id="paint1_radial_1185_20383" cx="0" cy="0" r="1" gradientUnits="userSpaceOnUse" gradientTransform="translate(974.789 646.169) rotate(-90) scale(681.237 806.261)">
<stop stop-color="#3BAB22"/>
<stop offset="1" stop-color="#3BAB22" stop-opacity="0.3"/>
</radialGradient>
<radialGradient id="paint2_radial_1185_20383" cx="0" cy="0" r="1" gradientUnits="userSpaceOnUse" gradientTransform="translate(974.789 646.169) rotate(-90) scale(681.237 806.261)">
<stop stop-color="#3BAB22"/>
<stop offset="1" stop-color="#3BAB22" stop-opacity="0.3"/>
</radialGradient>
<radialGradient id="paint3_radial_1185_20383" cx="0" cy="0" r="1" gradientUnits="userSpaceOnUse" gradientTransform="translate(974.789 646.169) rotate(-90) scale(681.237 806.261)">
<stop stop-color="#3BAB22"/>
<stop offset="1" stop-color="#3BAB22" stop-opacity="0.3"/>
</radialGradient>
<radialGradient id="paint4_radial_1185_20383" cx="0" cy="0" r="1" gradientUnits="userSpaceOnUse" gradientTransform="translate(974.789 646.169) rotate(-90) scale(681.237 806.261)">
<stop stop-color="#3BAB22"/>
<stop offset="1" stop-color="#3BAB22" stop-opacity="0.3"/>
</radialGradient>
<radialGradient id="paint5_radial_1185_20383" cx="0" cy="0" r="1" gradientUnits="userSpaceOnUse" gradientTransform="translate(974.789 646.169) rotate(-90) scale(681.237 806.261)">
<stop stop-color="#3BAB22"/>
<stop offset="1" stop-color="#3BAB22" stop-opacity="0.3"/>
</radialGradient>
<radialGradient id="paint6_radial_1185_20383" cx="0" cy="0" r="1" gradientUnits="userSpaceOnUse" gradientTransform="translate(974.789 646.169) rotate(-90) scale(681.237 806.261)">
<stop stop-color="#3BAB22"/>
<stop offset="1" stop-color="#3BAB22" stop-opacity="0.3"/>
</radialGradient>
<radialGradient id="paint7_radial_1185_20383" cx="0" cy="0" r="1" gradientUnits="userSpaceOnUse" gradientTransform="translate(974.789 646.169) rotate(-90) scale(681.237 806.261)">
<stop stop-color="#3BAB22"/>
<stop offset="1" stop-color="#3BAB22" stop-opacity="0.3"/>
</radialGradient>
<radialGradient id="paint8_radial_1185_20383" cx="0" cy="0" r="1" gradientUnits="userSpaceOnUse" gradientTransform="translate(974.789 646.169) rotate(-90) scale(681.237 806.261)">
<stop stop-color="#3BAB22"/>
<stop offset="1" stop-color="#3BAB22" stop-opacity="0.3"/>
</radialGradient>
<radialGradient id="paint9_radial_1185_20383" cx="0" cy="0" r="1" gradientUnits="userSpaceOnUse" gradientTransform="translate(974.789 646.169) rotate(-90) scale(681.237 806.261)">
<stop stop-color="#3BAB22"/>
<stop offset="1" stop-color="#3BAB22" stop-opacity="0.3"/>
</radialGradient>
<radialGradient id="paint10_radial_1185_20383" cx="0" cy="0" r="1" gradientUnits="userSpaceOnUse" gradientTransform="translate(974.789 646.169) rotate(-90) scale(681.237 806.261)">
<stop stop-color="#3BAB22"/>
<stop offset="1" stop-color="#3BAB22" stop-opacity="0.3"/>
</radialGradient>
<radialGradient id="paint11_radial_1185_20383" cx="0" cy="0" r="1" gradientUnits="userSpaceOnUse" gradientTransform="translate(974.789 646.169) rotate(-90) scale(681.237 806.261)">
<stop stop-color="#3BAB22"/>
<stop offset="1" stop-color="#3BAB22" stop-opacity="0.3"/>
</radialGradient>
<radialGradient id="paint12_radial_1185_20383" cx="0" cy="0" r="1" gradientUnits="userSpaceOnUse" gradientTransform="translate(974.789 646.169) rotate(-90) scale(681.237 806.261)">
<stop stop-color="#3BAB22"/>
<stop offset="1" stop-color="#3BAB22" stop-opacity="0.3"/>
</radialGradient>
<radialGradient id="paint13_radial_1185_20383" cx="0" cy="0" r="1" gradientUnits="userSpaceOnUse" gradientTransform="translate(974.789 646.169) rotate(-90) scale(681.237 806.261)">
<stop stop-color="#3BAB22"/>
<stop offset="1" stop-color="#3BAB22" stop-opacity="0.3"/>
</radialGradient>
<radialGradient id="paint14_radial_1185_20383" cx="0" cy="0" r="1" gradientUnits="userSpaceOnUse" gradientTransform="translate(974.789 646.169) rotate(-90) scale(681.237 806.261)">
<stop stop-color="#3BAB22"/>
<stop offset="1" stop-color="#3BAB22" stop-opacity="0.3"/>
</radialGradient>
<radialGradient id="paint15_radial_1185_20383" cx="0" cy="0" r="1" gradientUnits="userSpaceOnUse" gradientTransform="translate(974.789 646.169) rotate(-90) scale(681.237 806.261)">
<stop stop-color="#3BAB22"/>
<stop offset="1" stop-color="#3BAB22" stop-opacity="0.3"/>
</radialGradient>
<radialGradient id="paint16_radial_1185_20383" cx="0" cy="0" r="1" gradientUnits="userSpaceOnUse" gradientTransform="translate(974.789 646.169) rotate(-90) scale(681.237 806.261)">
<stop stop-color="#3BAB22"/>
<stop offset="1" stop-color="#3BAB22" stop-opacity="0.3"/>
</radialGradient>
<radialGradient id="paint17_radial_1185_20383" cx="0" cy="0" r="1" gradientUnits="userSpaceOnUse" gradientTransform="translate(974.789 646.169) rotate(-90) scale(681.237 806.261)">
<stop stop-color="#3BAB22"/>
<stop offset="1" stop-color="#3BAB22" stop-opacity="0.3"/>
</radialGradient>
<radialGradient id="paint18_radial_1185_20383" cx="0" cy="0" r="1" gradientUnits="userSpaceOnUse" gradientTransform="translate(974.789 646.169) rotate(-90) scale(681.237 806.261)">
<stop stop-color="#3BAB22"/>
<stop offset="1" stop-color="#3BAB22" stop-opacity="0.3"/>
</radialGradient>
<radialGradient id="paint19_radial_1185_20383" cx="0" cy="0" r="1" gradientUnits="userSpaceOnUse" gradientTransform="translate(974.789 646.169) rotate(-90) scale(681.237 806.261)">
<stop stop-color="#3BAB22"/>
<stop offset="1" stop-color="#3BAB22" stop-opacity="0.3"/>
</radialGradient>
<radialGradient id="paint20_radial_1185_20383" cx="0" cy="0" r="1" gradientUnits="userSpaceOnUse" gradientTransform="translate(974.789 646.169) rotate(-90) scale(681.237 806.261)">
<stop stop-color="#3BAB22"/>
<stop offset="1" stop-color="#3BAB22" stop-opacity="0.3"/>
</radialGradient>
<radialGradient id="paint21_radial_1185_20383" cx="0" cy="0" r="1" gradientUnits="userSpaceOnUse" gradientTransform="translate(974.789 646.169) rotate(-90) scale(681.237 806.261)">
<stop stop-color="#3BAB22"/>
<stop offset="1" stop-color="#3BAB22" stop-opacity="0.3"/>
</radialGradient>
<radialGradient id="paint22_radial_1185_20383" cx="0" cy="0" r="1" gradientUnits="userSpaceOnUse" gradientTransform="translate(974.789 646.169) rotate(-90) scale(681.237 806.261)">
<stop stop-color="#3BAB22"/>
<stop offset="1" stop-color="#3BAB22" stop-opacity="0.3"/>
</radialGradient>
<radialGradient id="paint23_radial_1185_20383" cx="0" cy="0" r="1" gradientUnits="userSpaceOnUse" gradientTransform="translate(974.789 646.169) rotate(-90) scale(681.237 806.261)">
<stop stop-color="#3BAB22"/>
<stop offset="1" stop-color="#3BAB22" stop-opacity="0.3"/>
</radialGradient>
<radialGradient id="paint24_radial_1185_20383" cx="0" cy="0" r="1" gradientUnits="userSpaceOnUse" gradientTransform="translate(974.789 646.169) rotate(-90) scale(681.237 806.261)">
<stop stop-color="#3BAB22"/>
<stop offset="1" stop-color="#3BAB22" stop-opacity="0.3"/>
</radialGradient>
<radialGradient id="paint25_radial_1185_20383" cx="0" cy="0" r="1" gradientUnits="userSpaceOnUse" gradientTransform="translate(974.789 646.169) rotate(-90) scale(681.237 806.261)">
<stop stop-color="#3BAB22"/>
<stop offset="1" stop-color="#3BAB22" stop-opacity="0.3"/>
</radialGradient>
<radialGradient id="paint26_radial_1185_20383" cx="0" cy="0" r="1" gradientUnits="userSpaceOnUse" gradientTransform="translate(974.789 646.169) rotate(-90) scale(681.237 806.261)">
<stop stop-color="#3BAB22"/>
<stop offset="1" stop-color="#3BAB22" stop-opacity="0.3"/>
</radialGradient>
<radialGradient id="paint27_radial_1185_20383" cx="0" cy="0" r="1" gradientUnits="userSpaceOnUse" gradientTransform="translate(974.789 646.169) rotate(-90) scale(681.237 806.261)">
<stop stop-color="#3BAB22"/>
<stop offset="1" stop-color="#3BAB22" stop-opacity="0.3"/>
</radialGradient>
<radialGradient id="paint28_radial_1185_20383" cx="0" cy="0" r="1" gradientUnits="userSpaceOnUse" gradientTransform="translate(974.789 646.169) rotate(-90) scale(681.237 806.261)">
<stop stop-color="#3BAB22"/>
<stop offset="1" stop-color="#3BAB22" stop-opacity="0.3"/>
</radialGradient>
<radialGradient id="paint29_radial_1185_20383" cx="0" cy="0" r="1" gradientUnits="userSpaceOnUse" gradientTransform="translate(974.789 646.169) rotate(-90) scale(681.237 806.261)">
<stop stop-color="#3BAB22"/>
<stop offset="1" stop-color="#3BAB22" stop-opacity="0.3"/>
</radialGradient>
<radialGradient id="paint30_radial_1185_20383" cx="0" cy="0" r="1" gradientUnits="userSpaceOnUse" gradientTransform="translate(974.789 646.169) rotate(-90) scale(681.237 806.261)">
<stop stop-color="#3BAB22"/>
<stop offset="1" stop-color="#3BAB22" stop-opacity="0.3"/>
</radialGradient>
<radialGradient id="paint31_radial_1185_20383" cx="0" cy="0" r="1" gradientUnits="userSpaceOnUse" gradientTransform="translate(974.789 646.169) rotate(-90) scale(681.237 806.261)">
<stop stop-color="#3BAB22"/>
<stop offset="1" stop-color="#3BAB22" stop-opacity="0.3"/>
</radialGradient>
<radialGradient id="paint32_radial_1185_20383" cx="0" cy="0" r="1" gradientUnits="userSpaceOnUse" gradientTransform="translate(974.789 646.169) rotate(-90) scale(681.237 806.261)">
<stop stop-color="#3BAB22"/>
<stop offset="1" stop-color="#3BAB22" stop-opacity="0.3"/>
</radialGradient>
<radialGradient id="paint33_radial_1185_20383" cx="0" cy="0" r="1" gradientUnits="userSpaceOnUse" gradientTransform="translate(974.789 646.169) rotate(-90) scale(681.237 806.261)">
<stop stop-color="#3BAB22"/>
<stop offset="1" stop-color="#3BAB22" stop-opacity="0.3"/>
</radialGradient>
<radialGradient id="paint34_radial_1185_20383" cx="0" cy="0" r="1" gradientUnits="userSpaceOnUse" gradientTransform="translate(731.378 888.146) rotate(-153.346) scale(885.078 1129.52)">
<stop stop-color="#1C5210" stop-opacity="0.07"/>
<stop offset="1" stop-color="#1C5210"/>
</radialGradient>
<clipPath id="clip0_1185_20383">
<rect width="1408" height="1025" rx="32" fill="white"/>
</clipPath>
</defs>
</svg>
