<svg width="72" height="72" viewBox="0 0 72 72" fill="none" xmlns="http://www.w3.org/2000/svg">
<g clip-path="url(#clip0_269_3990)" filter="url(#filter0_i_269_3990)">
<path d="M36 72C55.8823 72 72 55.8823 72 36C72 16.1177 55.8823 0 36 0C16.1177 0 0 16.1177 0 36C0 55.8823 16.1177 72 36 72Z" fill="#D80027"/>
<path d="M19.7021 21.9043L22.8099 31.4668H32.8646L24.7364 37.3871L27.8442 46.9496L19.7021 41.0433L11.5599 46.9496L14.6817 37.3871L6.53955 31.4668H16.5942L19.7021 21.9043Z" fill="#FFDA44"/>
<path d="M42.6787 55.7538L40.3021 52.8288L36.7865 54.1929L38.8256 51.0288L36.449 48.0897L40.0912 49.0601L42.1443 45.896L42.3412 49.6647L45.9975 50.6351L42.4678 51.9851L42.6787 55.7538Z" fill="#FFDA44"/>
<path d="M47.4053 47.1762L48.5303 43.5762L45.4506 41.3965L49.2194 41.3402L50.3303 37.7402L51.5537 41.3121L55.3225 41.2699L52.2991 43.5199L53.5084 47.0918L50.4287 44.9121L47.4053 47.1762Z" fill="#FFDA44"/>
<path d="M53.7761 26.4197L52.1167 29.8088L54.8167 32.4385L51.0901 31.9041L49.4308 35.2791L48.7839 31.5666L45.0433 31.0322L48.3902 29.2744L47.7433 25.5479L50.4433 28.1775L53.7761 26.4197Z" fill="#FFDA44"/>
<path d="M42.7775 16.1553L42.4962 19.91L45.9978 21.3303L42.3275 22.2303L42.0603 25.999L40.0775 22.7928L36.4072 23.6928L38.84 20.81L36.8431 17.6178L40.3447 19.0381L42.7775 16.1553Z" fill="#FFDA44"/>
</g>
<defs>
<filter id="filter0_i_269_3990" x="0" y="0" width="72" height="72" filterUnits="userSpaceOnUse" color-interpolation-filters="sRGB">
<feFlood flood-opacity="0" result="BackgroundImageFix"/>
<feBlend mode="normal" in="SourceGraphic" in2="BackgroundImageFix" result="shape"/>
<feColorMatrix in="SourceAlpha" type="matrix" values="0 0 0 0 0 0 0 0 0 0 0 0 0 0 0 0 0 0 127 0" result="hardAlpha"/>
<feOffset/>
<feGaussianBlur stdDeviation="2"/>
<feComposite in2="hardAlpha" operator="arithmetic" k2="-1" k3="1"/>
<feColorMatrix type="matrix" values="0 0 0 0 0 0 0 0 0 0 0 0 0 0 0 0 0 0 0.25 0"/>
<feBlend mode="normal" in2="shape" result="effect1_innerShadow_269_3990"/>
</filter>
<clipPath id="clip0_269_3990">
<rect width="72" height="72" fill="white"/>
</clipPath>
</defs>
</svg>
