<svg width="24" height="24" viewBox="0 0 24 24" fill="none" xmlns="http://www.w3.org/2000/svg">
<path opacity="0.4" d="M18.8366 8.25664C19.234 8.2245 19.6363 8.30935 19.9853 8.50526C20.2362 8.64608 20.4235 8.83505 20.5588 8.99009C20.6336 9.07569 20.7346 9.20386 20.8082 9.2971C21.2642 9.85097 21.7304 10.4205 22.0041 10.8091C22.2868 11.2104 22.5009 11.5927 22.6193 12.0259C22.7939 12.6652 22.7939 13.3348 22.6193 13.9741C22.4562 14.5711 22.1278 15.0849 21.8002 15.5137C21.6018 15.7733 21.3613 16.052 21.1494 16.2975C21.0335 16.4318 20.8685 16.6265 20.7814 16.7323C20.5403 17.0265 20.3023 17.3168 19.9853 17.4947C19.6363 17.6906 19.234 17.7755 18.8366 17.7434C18.4789 17.7144 17.9881 17.4904 17.6252 17.3243C17.2691 17.1652 16.5975 16.8652 16.3417 16.1081C16.2487 15.8327 16.2494 15.5384 16.2501 15.2645V10.7355C16.2494 10.4616 16.2487 10.1672 16.3417 9.89191C16.5975 9.13482 17.2691 8.83478 17.6252 8.67566C17.9881 8.50958 18.4789 8.28557 18.8366 8.25664Z" fill="#3BAB22"/>
<path opacity="0.4" d="M5.16338 8.25664C4.76601 8.2245 4.36371 8.30935 4.01467 8.50526C3.76377 8.64608 3.57649 8.83505 3.44115 8.99009C3.36641 9.07569 3.26534 9.20386 3.19182 9.2971C2.73581 9.85097 2.2696 10.4205 1.99587 10.8091C1.71321 11.2104 1.49908 11.5927 1.38074 12.0259C1.2061 12.6652 1.2061 13.3348 1.38074 13.9741C1.54383 14.5711 1.87216 15.0849 2.19981 15.5137C2.39817 15.7733 2.63869 16.052 2.85056 16.2975C2.96646 16.4318 3.13146 16.6265 3.21863 16.7323C3.45968 17.0265 3.69767 17.3168 4.01467 17.4947C4.36371 17.6906 4.76601 17.7755 5.16338 17.7434C5.52108 17.7144 6.01186 17.4904 6.37477 17.3243C6.73092 17.1652 7.40247 16.8652 7.65826 16.1081C7.75128 15.8327 7.75055 15.5384 7.74987 15.2645V10.7355C7.75055 10.4616 7.75128 10.1672 7.65826 9.89191C7.40247 9.13482 6.73092 8.83478 6.37477 8.67566C6.01186 8.50958 5.52109 8.28557 5.16338 8.25664Z" fill="#3BAB22"/>
<path d="M18 17.4931V17.8018C18 18.8201 16.8766 20.0018 15 20.0018H13C12.4477 20.0018 12 20.4495 12 21.0018C12 21.554 12.4477 22.0018 13 22.0018H15C17.5417 22.0018 20 20.3181 20 17.8018V17.4883C19.9952 17.491 19.9904 17.4938 19.9855 17.4965C19.6365 17.6924 19.2342 17.7773 18.8368 17.7451C18.5923 17.7253 18.2856 17.6144 18 17.4931Z" fill="#3BAB22"/>
<path d="M6.02857 8.52053C6.31502 6.09481 8.74895 4 12.0003 4C15.2517 4 17.6857 6.09492 17.972 8.52072C18.2655 8.39481 18.5845 8.27707 18.8371 8.25664C19.2326 8.22465 19.633 8.30855 19.9809 8.5025C19.6869 4.74945 16.0897 2 12.0003 2C7.91075 2 4.3135 4.74958 4.01965 8.50277C4.36766 8.30863 4.76823 8.22464 5.16391 8.25664C5.41642 8.27706 5.73523 8.39469 6.02857 8.52053Z" fill="#3BAB22"/>
</svg>
