<svg width="682" height="427" viewBox="0 0 682 427" fill="none" xmlns="http://www.w3.org/2000/svg">
<path d="M620.004 66.4287L590.057 66.2397C588.613 66.2303 587.223 66.795 586.195 67.81L574.14 79.717C573.111 80.732 571.724 81.2967 570.277 81.2873L494.615 80.809C493.172 80.7997 491.788 80.2163 490.774 79.1897L475.692 63.9087C472.587 60.7633 467.232 62.4293 466.453 66.7787L464.776 76.1633C464.577 77.2717 464.041 78.2913 463.241 79.0823L431.192 110.739C430.163 111.754 428.775 112.318 427.329 112.311L387.352 112.057C385.909 112.048 384.518 112.612 383.49 113.63L345.726 150.93C344.698 151.945 344.115 153.329 344.108 154.773L344.024 168.188C344.014 169.632 344.579 171.023 345.596 172.052L360.232 186.88C361.247 187.909 362.628 188.49 364.074 188.499L381.367 188.609C386.221 188.639 388.612 194.524 385.16 197.935L383.466 199.608C382.438 200.623 381.05 201.188 379.604 201.179L359.01 201.048C356.001 201.029 353.578 198.575 353.599 195.565L353.638 189.477C353.657 186.467 351.233 184.012 348.227 183.994L330.101 183.879C327.092 183.861 324.638 186.285 324.619 189.293L324.561 198.477C324.552 199.921 323.969 201.305 322.942 202.32L305.367 219.682C304.338 220.697 303.755 222.081 303.748 223.525L303.641 240.589C303.631 242.033 304.196 243.424 305.213 244.453L318.914 258.334C319.929 259.363 321.31 259.946 322.756 259.953L348.612 260.116C351.621 260.135 354.044 262.59 354.023 265.6L353.946 277.626C353.937 279.07 354.501 280.461 355.516 281.49L366.488 292.603C367.503 293.632 368.067 295.021 368.06 296.467L367.869 326.74C367.85 329.75 370.274 332.205 373.283 332.223L380.908 332.272C382.351 332.282 383.742 331.717 384.77 330.7L410.906 304.884C411.935 303.869 412.516 302.485 412.525 301.041L412.644 282.122C412.653 280.678 413.236 279.294 414.263 278.279L424.973 267.7C428.426 264.288 426.032 258.404 421.181 258.373C419.737 258.364 418.354 257.781 417.339 256.754L406.451 245.722C405.436 244.693 404.872 243.305 404.881 241.858L404.93 233.995C404.961 229.139 410.843 226.747 414.253 230.201L424.673 240.757C425.687 241.786 427.07 242.369 428.514 242.378L434.644 242.418C437.653 242.437 440.107 240.012 440.126 237.005L440.142 234.377C440.161 231.367 442.614 228.943 445.623 228.964L461.501 229.064C462.944 229.074 464.328 229.657 465.342 230.684L479.613 245.141C481.726 247.283 485.176 247.304 487.317 245.19L504.085 228.626C506.227 226.512 509.674 226.533 511.79 228.675L527.31 244.399C530.72 247.852 536.603 245.458 536.633 240.605L536.694 231.169C536.703 229.725 537.286 228.341 538.313 227.326L584.144 182.055C585.173 181.04 585.754 179.656 585.763 178.212L585.905 155.723C585.924 152.713 583.5 150.258 580.494 150.24L572.209 150.188C569.2 150.17 566.776 147.715 566.797 144.705L566.839 138.258C566.849 136.814 567.432 135.43 568.458 134.415L579.328 123.679C582.78 120.268 588.632 122.737 588.602 127.59L588.564 133.566C588.555 135.01 589.12 136.401 590.137 137.43L598.058 145.454C601.468 148.907 607.35 146.513 607.381 141.66L607.495 123.733C607.504 122.289 608.088 120.905 609.114 119.89L623.622 105.561C624.651 104.546 625.234 103.162 625.241 101.718L625.43 71.9167C625.448 68.9067 623.025 66.452 620.018 66.4333L620.004 66.4287Z" fill="url(#paint0_linear_193_62531)"/>
<path d="M621.776 319.53L605.679 303.222C603.424 300.936 599.528 302.52 599.51 305.733C599.489 308.946 595.596 310.53 593.34 308.244L592.606 307.499C592.02 306.907 591.659 306.13 591.582 305.301L590.32 291.808C590.147 289.962 588.605 288.55 586.753 288.539L574.704 288.462C573.747 288.455 572.828 288.83 572.147 289.502L544.675 316.637C543.994 317.309 543.609 318.223 543.602 319.18L543.469 340.203C543.448 343.416 547.322 345.05 549.606 342.793L554.733 337.73C555.414 337.058 556.333 336.685 557.289 336.689L581.3 336.841C583.292 336.853 584.894 338.479 584.883 340.469L584.796 353.972C584.785 355.965 586.387 357.589 588.379 357.601L604.889 357.706C605.845 357.713 606.764 357.337 607.445 356.665L621.629 342.656C622.31 341.984 622.695 341.069 622.702 340.112L622.816 322.085C622.823 321.128 622.448 320.209 621.776 319.528V319.53Z" fill="url(#paint1_linear_193_62531)"/>
<path d="M277.636 277.222L227.554 245.463C224.168 243.316 219.75 243.79 216.897 246.609L194.372 268.857C190.99 272.198 190.955 277.651 194.295 281.035L212.02 298.99C215.36 302.373 215.325 307.826 211.943 311.167L208.677 314.394C207.052 316 206.133 318.184 206.119 320.468L205.811 369.022C205.797 371.307 206.69 373.502 208.292 375.126L215.414 382.341C220.802 387.801 230.099 384.016 230.148 376.344L230.258 358.896C230.272 356.611 231.193 354.427 232.817 352.822L278.97 307.233C280.593 305.628 281.515 303.444 281.529 301.16L281.634 284.544C281.652 281.576 280.141 278.806 277.633 277.215L277.636 277.222Z" fill="url(#paint2_linear_193_62531)"/>
<path d="M253.533 163.997L240.277 150.569C237.684 147.941 233.45 147.913 230.824 150.508L227.05 154.237C224.423 156.831 220.19 156.806 217.596 154.176L204.028 140.43C201.434 137.803 201.46 133.568 204.088 130.973L216.924 118.296C219.551 115.702 223.784 115.727 226.378 118.357L237.859 129.989C240.452 132.616 244.686 132.644 247.312 130.049L251.994 125.425C254.62 122.83 254.648 118.595 252.054 115.968L212.245 75.636C209.651 73.0087 205.418 72.9807 202.792 75.5753L186.634 91.5353C184.008 94.13 179.774 94.1043 177.181 91.4747L140.95 54.769C138.356 52.1417 134.122 52.1137 131.496 54.7083L86.3454 99.3053C83.719 101.9 83.691 106.135 86.2848 108.762L93.5902 116.164C96.184 118.791 96.1583 123.026 93.5296 125.621L91.9505 127.179C87.7123 131.365 90.6489 138.587 96.6038 138.624C98.3766 138.636 100.082 137.941 101.344 136.695L109.869 128.274C112.495 125.679 116.729 125.705 119.323 128.334L128.037 137.164C129.282 138.426 129.975 140.132 129.966 141.905L129.833 162.784C129.821 164.557 129.107 166.253 127.846 167.499L125.814 169.506C123.188 172.101 123.16 176.336 125.753 178.963L136.11 189.454C137.355 190.716 138.048 192.422 138.039 194.195L137.817 229.083C137.803 231.423 139.011 233.603 141.006 234.825L162.138 247.792C163.034 248.342 164.049 248.671 165.098 248.758L179.702 249.934L180.985 250.092C187.278 250.874 191.019 243.272 186.564 238.757L184.892 237.063C183.646 235.801 181.951 235.087 180.178 235.075L177.477 235.059C173.784 235.035 170.81 232.023 170.834 228.329L170.841 227.111C170.864 223.418 173.875 220.443 177.568 220.466L202.927 220.627C204.7 220.639 206.405 219.943 207.667 218.697L253.472 173.452C256.099 170.857 256.127 166.622 253.533 163.995V163.997Z" fill="url(#paint3_linear_193_62531)"/>
<path d="M328.341 62.735L312.489 46.6746C310.156 44.311 306.347 44.2876 303.985 46.621L295.424 55.077C293.061 57.4103 289.255 57.387 286.92 55.0233L267.63 35.4793C265.297 33.1156 261.488 33.0923 259.126 35.4256L241.611 52.725C240.79 53.5346 239.756 54.0923 238.628 54.3303L223.487 57.527C218.834 58.5093 217.108 64.254 220.45 67.6396L230.958 78.2843C233.291 80.648 237.1 80.6713 239.463 78.338L264.222 53.88C266.585 51.5466 270.392 51.57 272.727 53.9336C275.059 56.2973 275.036 60.1053 272.673 62.441L264.213 70.7966C261.85 73.13 261.827 76.9403 264.159 79.304L269.613 84.827C270.732 85.9633 271.357 87.4963 271.348 89.0923L271.098 128.512C271.063 133.871 277.525 136.594 281.336 132.831L308.801 105.703C309.937 104.583 310.579 103.057 310.59 101.461L310.656 91.1363C310.665 89.5403 311.309 88.0143 312.445 86.8943L328.292 71.2423C330.655 68.909 330.678 65.0986 328.345 62.735H328.341Z" fill="url(#paint4_linear_193_62531)"/>
<path d="M469.985 168.321C511.919 168.321 545.913 134.321 545.913 92.3799C545.913 50.4391 511.919 16.4393 469.985 16.4393C428.051 16.4393 394.057 50.4391 394.057 92.3799C394.057 134.321 428.051 168.321 469.985 168.321Z" fill="#3BAB22"/>
<path d="M469.985 152.601C436.786 152.601 409.775 125.586 409.775 92.3822C409.775 59.1789 436.786 32.1636 469.985 32.1636C503.183 32.1636 530.194 59.1789 530.194 92.3822C530.194 125.586 503.183 152.601 469.985 152.601ZM469.985 33.1902C437.353 33.1902 410.804 59.7436 410.804 92.3822C410.804 125.021 437.353 151.574 469.985 151.574C502.616 151.574 529.165 125.021 529.165 92.3822C529.165 59.7436 502.616 33.1902 469.985 33.1902Z" fill="white"/>
<path d="M464.322 128.501C457.764 127.397 452.517 124.634 448.582 120.214C444.716 115.795 442.645 110.235 442.369 103.537H457.281C457.626 107.266 458.938 110.201 461.216 112.342C463.563 114.482 466.669 115.553 470.535 115.553C474.056 115.553 476.852 114.828 478.923 113.378C480.994 111.927 482.03 109.856 482.03 107.162C482.03 105.298 481.408 103.813 480.166 102.708C478.992 101.534 477.508 100.636 475.713 100.015C473.918 99.3931 471.364 98.668 468.05 97.8393C463.149 96.6653 459.11 95.4222 455.934 94.1101C452.828 92.7289 450.136 90.5535 447.857 87.584C445.579 84.6144 444.44 80.54 444.44 75.3605C444.44 70.112 446.235 65.6923 449.825 62.1012C453.484 58.4411 458.316 56.1621 464.322 55.2643V45.7342H477.68V55.7823C483.272 57.0944 487.691 59.6841 490.935 63.5514C494.249 67.3497 495.975 72.0457 496.113 77.6395H481.408C481.063 74.739 479.855 72.4601 477.784 70.8026C475.713 69.0762 472.986 68.2129 469.603 68.2129C466.497 68.2129 464.046 68.869 462.251 70.1811C460.456 71.4932 459.559 73.2197 459.559 75.3605C459.559 77.3632 460.18 78.9516 461.423 80.1256C462.665 81.2996 464.253 82.2319 466.186 82.9225C468.119 83.544 470.777 84.2346 474.16 84.9943C479.13 86.1683 483.169 87.3768 486.275 88.6199C489.382 89.8629 492.04 91.9692 494.249 94.9388C496.527 97.8393 497.666 101.845 497.666 106.955C497.666 112.618 495.871 117.348 492.281 121.147C488.692 124.876 483.825 127.293 477.68 128.398V139.068L464.322 138.964V128.501Z" fill="white"/>
<path d="M604.084 160.173L607.254 181.364L609.041 181.462C609.041 181.462 604.982 194.116 594.416 195.866C583.849 197.613 584.955 185.459 584.955 185.459L591.145 182.654L589.032 165.577L604.084 160.173Z" fill="white"/>
<path d="M591.145 183.17C590.889 183.17 590.667 182.979 590.637 182.72L588.524 165.642C588.493 165.404 588.633 165.175 588.86 165.094L603.911 159.69C604.056 159.638 604.217 159.652 604.347 159.732C604.48 159.811 604.569 159.944 604.592 160.098L607.762 181.289C607.804 181.569 607.611 181.831 607.331 181.873C607.053 181.917 606.79 181.721 606.748 181.441L603.671 160.868L589.597 165.922L591.659 182.591C591.694 182.874 591.493 183.13 591.213 183.165C591.192 183.168 591.171 183.17 591.15 183.17H591.145Z" fill="black"/>
<path d="M578.43 145.956C576.448 144.602 574.901 142.514 574.519 140.146C574.059 137.304 575.344 134.343 577.476 132.411C579.608 130.479 582.487 129.503 585.356 129.293C588.225 129.083 591.103 129.592 593.883 130.329C596.678 131.071 599.451 132.065 601.804 133.745C604.158 135.425 606.073 137.861 606.654 140.696C607.979 140.351 609.299 141.277 610.204 142.304C612.732 145.174 613.721 149.327 612.763 153.03C611.804 156.733 608.923 159.883 605.322 161.167C601.116 162.665 596.262 161.598 592.61 159.029C589.629 156.934 587.392 153.938 585.801 150.688C585.045 149.141 585.069 148.324 583.317 147.934C581.582 147.549 579.907 146.964 578.428 145.956H578.43Z" fill="black"/>
<path d="M603.808 157.515C604.321 156.32 605.973 155.914 607.141 156.488C608.31 157.06 608.989 158.355 609.159 159.643C609.388 161.384 608.756 163.255 607.398 164.368C606.041 165.479 603.967 165.705 602.486 164.765C599.752 167.681 595.889 169.511 591.901 169.781C589.659 169.933 587.271 169.555 585.526 168.136C584.311 167.147 583.501 165.724 583.042 164.226C582.582 162.728 582.449 161.148 582.4 159.582C582.265 155.065 582.83 150.529 584.068 146.182C584.269 145.48 584.495 144.763 584.95 144.192C585.591 143.384 586.604 142.967 587.593 142.675C589.853 142.01 591.278 144.609 593.562 145.186C595.845 145.762 598.973 144.36 600.226 146.355C601.427 148.268 601.772 150.615 601.655 152.872C601.534 155.161 601.03 156.792 599.957 157.765L603.808 157.515Z" fill="white"/>
<path d="M590.991 170.325C589.181 170.325 586.96 169.961 585.204 168.533C584.005 167.558 583.088 166.12 582.552 164.375C582.043 162.721 581.931 161.031 581.889 159.596C581.752 155.011 582.318 150.452 583.576 146.042C583.788 145.298 584.038 144.516 584.548 143.874C585.318 142.908 586.503 142.463 587.45 142.185C589.036 141.721 590.233 142.586 591.394 143.424C592.113 143.944 592.857 144.481 593.689 144.691C594.457 144.885 595.383 144.829 596.276 144.775C597.965 144.672 599.712 144.57 600.664 146.084C601.79 147.876 602.31 150.233 602.171 152.9C602.108 154.108 601.86 155.732 601.1 157.146L603.491 157.018C603.789 156.523 604.267 156.141 604.865 155.919C605.679 155.618 606.614 155.658 607.37 156.026C608.597 156.628 609.457 157.956 609.672 159.575C609.931 161.547 609.168 163.584 607.727 164.765C606.273 165.952 604.179 166.195 602.583 165.406C599.78 168.248 595.924 170.024 591.938 170.292C591.639 170.313 591.322 170.325 590.991 170.325ZM588.318 143.083C588.131 143.083 587.937 143.109 587.739 143.167C586.937 143.403 585.943 143.769 585.353 144.509C584.959 145.004 584.756 145.648 584.565 146.32C583.338 150.629 582.783 155.084 582.916 159.564C582.955 160.931 583.06 162.536 583.534 164.072C583.865 165.154 584.537 166.666 585.85 167.735C587.667 169.212 590.128 169.382 591.865 169.266C595.728 169.004 599.462 167.236 602.11 164.41C602.278 164.23 602.553 164.195 602.761 164.328C604.025 165.129 605.837 164.979 607.071 163.969C608.244 163.008 608.863 161.337 608.648 159.708C608.517 158.721 607.992 157.478 606.912 156.948C606.416 156.703 605.765 156.68 605.217 156.88C604.771 157.046 604.438 157.342 604.277 157.716C604.2 157.895 604.027 158.014 603.831 158.026L600.146 158.224C599.945 158.236 599.756 158.129 599.663 157.951C599.57 157.774 599.588 157.557 599.71 157.398C600.764 156.031 601.067 154.167 601.137 152.844C601.265 150.389 600.799 148.24 599.787 146.628C599.159 145.629 597.848 145.706 596.332 145.797C595.36 145.855 594.354 145.916 593.431 145.683C592.409 145.424 591.583 144.829 590.786 144.252C589.927 143.632 589.164 143.081 588.311 143.081L588.318 143.083Z" fill="black"/>
<path d="M602.5 162.387C602.329 162.387 602.164 162.303 602.068 162.151C601.914 161.913 601.984 161.594 602.222 161.442C603.311 160.742 604.758 160.672 605.907 161.262C606.159 161.393 606.26 161.701 606.131 161.955C606.003 162.207 605.693 162.308 605.441 162.177C604.622 161.757 603.554 161.808 602.78 162.308C602.693 162.364 602.598 162.389 602.502 162.389L602.5 162.387Z" fill="black"/>
<path d="M572.339 284.005C571.558 266.209 571.042 262.081 571.023 261.785L639.956 260.987L647.075 284.32L572.341 284.005H572.339Z" fill="black"/>
<path d="M608.437 174.394L595.797 178.727L593.476 181.595L590.565 177.967L589.033 182.657L572.486 184.176C564.515 184.906 557.051 188.434 551.465 194.169C543.504 202.345 531.314 213.433 522.754 214.626C509.03 216.537 504.089 203.083 500.397 194.51C496.705 185.94 491.844 178.184 478.833 177.967C468.668 177.799 461.395 177.115 457.504 175.897C455.496 175.267 453.285 176.191 452.494 178.142C452.191 178.893 452.084 179.675 452.392 180.379C452.392 180.379 455.337 189.029 468.749 191.787C470.802 192.209 472.376 193.859 472.752 195.922C474.97 208.102 485.233 247.169 525.761 248.366L559.773 245.255C559.773 245.255 575.812 273.881 604.087 274.681C613.811 274.956 629.194 261.04 629.194 261.04L640.294 261.061L643.996 238.659C643.996 238.659 646.615 232.627 647.649 230.705C653.139 220.499 657.548 193.952 639.459 186.397C625.394 180.522 611.042 181.6 611.042 181.6L608.437 174.399V174.394Z" fill="white"/>
<path d="M604.373 275.197C604.271 275.197 604.173 275.197 604.07 275.192C577.37 274.436 561.301 248.828 559.493 245.794L525.807 248.877C525.786 248.877 525.765 248.879 525.746 248.877C484.815 247.668 474.45 208.106 472.246 196.01C471.903 194.127 470.489 192.667 468.644 192.289C455.102 189.503 452.03 180.909 451.904 180.545C451.586 179.822 451.619 178.935 452.018 177.95C452.886 175.806 455.363 174.688 457.658 175.407C461.451 176.595 468.576 177.283 478.84 177.453C492.564 177.682 497.406 186.273 500.865 194.307C501.057 194.748 501.248 195.203 501.446 195.667C505.078 204.196 510.049 215.874 522.679 214.117C530.941 212.967 542.692 202.439 551.094 193.81C556.741 188.012 564.319 184.407 572.434 183.662L588.645 182.174L590.072 177.806C590.131 177.626 590.282 177.493 590.469 177.46C590.653 177.425 590.842 177.498 590.961 177.645L593.471 180.776L595.391 178.403C595.451 178.328 595.533 178.272 595.624 178.24L608.266 173.907C608.532 173.816 608.821 173.953 608.917 174.217L611.392 181.058C613.804 180.942 626.924 180.601 639.655 185.916C645.192 188.229 649.071 192.424 651.184 198.386C655.138 209.539 651.76 224.139 648.101 230.943C647.142 232.723 644.765 238.174 644.492 238.799L640.8 261.138C640.76 261.386 640.543 261.568 640.294 261.568L629.389 261.549C627.703 263.052 613.787 275.192 604.373 275.194V275.197ZM559.773 244.737C559.957 244.737 560.13 244.838 560.221 245.001C560.38 245.286 576.451 273.384 604.1 274.165C604.191 274.168 604.282 274.17 604.373 274.17C613.797 274.17 628.697 260.793 628.848 260.658C628.944 260.571 629.065 260.525 629.193 260.525L639.858 260.543L643.487 238.573C643.494 238.531 643.506 238.491 643.522 238.451C643.629 238.204 646.162 232.378 647.193 230.46C650.765 223.824 654.063 209.593 650.214 198.733C648.201 193.056 644.516 189.064 639.258 186.868C625.475 181.112 611.219 182.097 611.077 182.108C610.853 182.129 610.634 181.987 610.554 181.77L608.122 175.045L596.097 179.166L593.87 181.919C593.772 182.041 593.625 182.111 593.471 182.111C593.315 182.111 593.168 182.041 593.072 181.919L590.756 179.031L589.517 182.818C589.454 183.014 589.279 183.151 589.077 183.17L572.53 184.689C564.657 185.412 557.308 188.905 551.831 194.531C543.317 203.274 531.372 213.947 522.821 215.139C521.916 215.265 521.049 215.326 520.216 215.326C508.698 215.326 503.811 203.848 500.502 196.076C500.303 195.614 500.112 195.159 499.923 194.72C496.59 186.98 491.934 178.704 478.823 178.487C468.462 178.314 461.236 177.61 457.35 176.394C455.561 175.836 453.639 176.69 452.97 178.342C452.678 179.063 452.643 179.682 452.86 180.181C452.904 180.305 455.918 188.63 468.849 191.29C471.107 191.754 472.836 193.537 473.253 195.835C475.42 207.735 485.606 246.651 525.742 247.857L559.722 244.749C559.738 244.749 559.752 244.749 559.768 244.749L559.773 244.737Z" fill="black"/>
<path d="M559.051 245.318L559.774 245.253C559.774 245.253 575.812 273.878 604.087 274.679C613.811 274.954 629.194 261.038 629.194 261.038L640.295 261.059L643.996 238.657C643.996 238.657 646.616 232.625 647.649 230.702C653.14 220.496 657.548 193.95 639.46 186.395C625.394 180.519 611.043 181.597 611.043 181.597L608.437 174.397L595.797 178.73L593.476 181.597L590.565 177.969L589.033 182.659L572.486 184.178C568.521 184.542 564.681 185.599 561.136 187.272L559.051 245.321V245.318Z" fill="white"/>
<path d="M604.374 275.197C604.271 275.197 604.173 275.197 604.07 275.192C577.37 274.436 561.301 248.828 559.494 245.794L559.095 245.832C558.82 245.86 558.563 245.65 558.537 245.367C558.512 245.085 558.719 244.835 559.001 244.81L559.725 244.744C559.923 244.723 560.121 244.828 560.219 245.006C560.378 245.29 576.449 273.388 604.098 274.17C613.501 274.41 628.695 260.798 628.846 260.662C628.94 260.576 629.063 260.529 629.191 260.529L639.856 260.548L643.485 238.577C643.492 238.535 643.504 238.496 643.52 238.456C643.627 238.209 646.161 232.382 647.192 230.464C650.763 223.828 654.061 209.597 650.212 198.738C648.199 193.061 644.514 189.069 639.256 186.873C625.473 181.117 611.217 182.101 611.075 182.113C610.851 182.134 610.632 181.992 610.552 181.775L608.12 175.05L596.095 179.171L593.868 181.924C593.77 182.045 593.623 182.115 593.469 182.115C593.313 182.115 593.166 182.045 593.07 181.924L590.754 179.035L589.515 182.822C589.452 183.018 589.277 183.156 589.075 183.175L572.528 184.694C568.635 185.051 564.875 186.077 561.35 187.741C561.094 187.862 560.788 187.753 560.667 187.496C560.546 187.239 560.655 186.934 560.912 186.812C564.544 185.095 568.42 184.038 572.432 183.669L588.643 182.181L590.071 177.813C590.129 177.633 590.28 177.5 590.467 177.467C590.651 177.432 590.84 177.505 590.959 177.652L593.469 180.783L595.389 178.41C595.449 178.335 595.531 178.279 595.622 178.247L608.264 173.914C608.53 173.823 608.819 173.96 608.915 174.224L611.39 181.065C613.802 180.949 626.924 180.608 639.653 185.923C645.19 188.236 649.069 192.431 651.182 198.393C655.136 209.546 651.759 224.146 648.099 230.95C647.14 232.73 644.763 238.181 644.49 238.806L640.798 261.145C640.758 261.393 640.542 261.575 640.292 261.575L629.387 261.556C627.701 263.059 613.785 275.199 604.371 275.201L604.374 275.197Z" fill="black"/>
<path d="M608.435 174.394L595.793 178.727L593.475 181.595L590.564 177.967L589.031 182.657L608.435 174.394Z" fill="white"/>
<path d="M589.031 183.17C588.977 183.17 588.924 183.161 588.872 183.144C588.602 183.056 588.455 182.766 588.543 182.496L590.076 177.806C590.134 177.626 590.286 177.493 590.472 177.46C590.657 177.425 590.846 177.498 590.965 177.645L593.474 180.776L595.394 178.403C595.455 178.328 595.536 178.272 595.627 178.24L608.269 173.907C608.538 173.813 608.829 173.958 608.923 174.226C609.014 174.495 608.871 174.786 608.603 174.88L596.101 179.164L593.873 181.917C593.775 182.038 593.628 182.108 593.474 182.108C593.318 182.108 593.171 182.038 593.076 181.917L590.759 179.028L589.521 182.815C589.451 183.032 589.248 183.17 589.033 183.17H589.031Z" fill="black"/>
<path d="M597.741 189.073C597.526 189.073 597.328 188.938 597.255 188.728L596.161 185.569C596.068 185.3 596.21 185.006 596.479 184.915C596.747 184.822 597.038 184.964 597.132 185.233L598.065 187.93C602.499 186.607 606.758 184.738 610.733 182.365C610.978 182.22 611.292 182.3 611.437 182.542C611.582 182.785 611.502 183.102 611.26 183.247C607.071 185.746 602.569 187.701 597.883 189.055C597.836 189.069 597.787 189.076 597.741 189.076V189.073Z" fill="black"/>
<path d="M590.89 187.893C590.734 187.893 590.58 187.823 590.479 187.687L588.319 184.808C588.149 184.582 588.196 184.26 588.422 184.089C588.648 183.919 588.97 183.966 589.14 184.192L591.3 187.071C591.471 187.298 591.424 187.62 591.198 187.79C591.104 187.86 590.997 187.893 590.89 187.893Z" fill="black"/>
<path d="M582.127 226.526L591.788 186.906L591.954 182.722L593.477 182.846L595.595 183.016L594.466 187.384L588.042 230.273L582.127 226.526Z" fill="#3BAB22"/>
<path d="M493.259 236.375C493.136 236.375 493.014 236.33 492.914 236.242C478.506 223.247 473.659 203.778 472.246 196.01C471.903 194.127 470.489 192.667 468.644 192.289C455.102 189.503 452.03 180.909 451.904 180.545C451.586 179.822 451.619 178.935 452.018 177.95C452.886 175.806 455.363 174.688 457.658 175.407C461.451 176.595 468.576 177.283 478.84 177.453C485.599 177.565 490.794 179.705 494.719 183.996C494.911 184.206 494.897 184.53 494.687 184.722C494.477 184.913 494.153 184.899 493.961 184.689C490.236 180.62 485.284 178.587 478.823 178.48C468.462 178.307 461.236 177.603 457.35 176.387C455.561 175.829 453.639 176.683 452.97 178.335C452.678 179.056 452.643 179.675 452.86 180.174C452.904 180.298 455.918 188.623 468.849 191.283C471.107 191.747 472.836 193.53 473.253 195.828C474.648 203.491 479.425 222.697 493.6 235.479C493.81 235.668 493.826 235.994 493.637 236.204C493.534 236.316 493.397 236.375 493.254 236.375H493.259Z" fill="black"/>
<path d="M466.984 186.733C466.963 186.733 466.944 186.733 466.923 186.728C462.09 186.152 457.411 184.799 453.017 182.703C452.832 182.615 452.718 182.428 452.723 182.225C452.73 182.022 452.856 181.84 453.042 181.763L453.236 181.686C453.497 181.579 453.798 181.705 453.905 181.968C453.908 181.975 453.91 181.982 453.912 181.989C458.071 183.914 462.487 185.165 467.042 185.706C467.324 185.739 467.525 185.996 467.492 186.278C467.462 186.539 467.24 186.731 466.981 186.731L466.984 186.733Z" fill="black"/>
<path d="M475.768 203.944C475.605 203.944 475.444 203.864 475.344 203.72C475.183 203.486 475.244 203.164 475.479 203.006C482.537 198.185 490.118 194.078 498.011 190.798C498.275 190.688 498.573 190.814 498.683 191.075C498.793 191.337 498.667 191.638 498.406 191.747C490.578 195 483.058 199.074 476.058 203.855C475.969 203.916 475.869 203.944 475.768 203.944Z" fill="black"/>
<path d="M481.098 214.171C480.942 214.171 480.788 214.101 480.687 213.965C480.517 213.739 480.562 213.417 480.788 213.244C487.258 208.368 494.207 204.042 501.435 200.388C501.687 200.259 501.997 200.362 502.126 200.614C502.254 200.868 502.151 201.176 501.899 201.305C494.725 204.931 487.83 209.224 481.406 214.063C481.313 214.133 481.205 214.166 481.098 214.166V214.171Z" fill="black"/>
<path d="M578.186 279.845V242.35C578.186 240.049 576.32 238.183 574.02 238.183H519.357C517.056 238.183 515.191 240.049 515.191 242.35V279.845C515.191 282.146 517.056 284.012 519.357 284.012H574.02C576.32 284.012 578.186 282.146 578.186 279.845Z" fill="#3BAB22"/>
<path d="M572.693 272.441H558.913C558.646 272.441 558.43 272.657 558.43 272.924V278.494C558.43 278.76 558.646 278.977 558.913 278.977H572.693C572.96 278.977 573.176 278.76 573.176 278.494V272.924C573.176 272.657 572.96 272.441 572.693 272.441Z" fill="white"/>
<path d="M545.152 243.447H521.034C520.767 243.447 520.551 243.663 520.551 243.93V248.473C520.551 248.74 520.767 248.956 521.034 248.956H545.152C545.419 248.956 545.635 248.74 545.635 248.473V243.93C545.635 243.663 545.419 243.447 545.152 243.447Z" fill="white"/>
<path d="M531.447 257.974H525.429C524.88 257.974 524.436 258.419 524.436 258.968V263.229C524.436 263.778 524.88 264.223 525.429 264.223H531.447C531.996 264.223 532.441 263.778 532.441 263.229V258.968C532.441 258.419 531.996 257.974 531.447 257.974Z" fill="white"/>
<path d="M539.448 263.819C539.31 263.819 539.175 263.766 539.075 263.658C538.881 263.451 538.891 263.126 539.096 262.933C539.618 262.44 539.908 261.775 539.908 261.059C539.908 260.38 539.644 259.741 539.168 259.255C538.97 259.052 538.972 258.728 539.175 258.527C539.376 258.329 539.702 258.331 539.903 258.532C540.57 259.211 540.939 260.107 540.939 261.057C540.939 262.006 540.526 263 539.803 263.679C539.702 263.773 539.576 263.819 539.45 263.819H539.448Z" fill="white"/>
<path d="M537.604 263.357C537.467 263.357 537.331 263.304 537.229 263.194C537.035 262.986 537.045 262.662 537.252 262.468C537.649 262.097 537.868 261.596 537.868 261.057C537.868 260.55 537.672 260.07 537.313 259.703C537.115 259.5 537.117 259.176 537.32 258.975C537.523 258.777 537.847 258.779 538.048 258.982C538.596 259.54 538.897 260.277 538.897 261.054C538.897 261.831 538.554 262.657 537.957 263.217C537.856 263.311 537.73 263.355 537.604 263.355V263.357Z" fill="white"/>
<path d="M535.756 262.898C535.618 262.898 535.48 262.842 535.38 262.734C535.187 262.527 535.198 262.2 535.406 262.009C535.674 261.759 535.823 261.421 535.823 261.059C535.823 260.721 535.693 260.401 535.455 260.156C535.257 259.953 535.261 259.626 535.464 259.428C535.667 259.23 535.994 259.234 536.192 259.44C536.616 259.876 536.85 260.452 536.85 261.059C536.85 261.701 536.579 262.321 536.106 262.762C536.008 262.853 535.882 262.9 535.756 262.9V262.898Z" fill="white"/>
<path d="M533.911 262.438C533.771 262.438 533.634 262.382 533.531 262.27C533.34 262.06 533.354 261.736 533.564 261.544C533.704 261.416 533.781 261.243 533.781 261.057C533.781 260.886 533.715 260.725 533.596 260.602C533.401 260.396 533.407 260.072 533.613 259.876C533.818 259.68 534.142 259.687 534.34 259.892C534.641 260.207 534.809 260.623 534.809 261.057C534.809 261.528 534.609 261.983 534.257 262.303C534.159 262.394 534.035 262.438 533.911 262.438Z" fill="white"/>
<path d="M539.342 274.378H520.825C520.558 274.378 520.342 274.594 520.342 274.861V276.317C520.342 276.583 520.558 276.8 520.825 276.8H539.342C539.609 276.8 539.825 276.583 539.825 276.317V274.861C539.825 274.594 539.609 274.378 539.342 274.378Z" fill="white"/>
<path d="M550.479 274.378H541.883C541.617 274.378 541.4 274.594 541.4 274.861V276.317C541.4 276.583 541.617 276.8 541.883 276.8H550.479C550.745 276.8 550.961 276.583 550.961 276.317V274.861C550.961 274.594 550.745 274.378 550.479 274.378Z" fill="white"/>
<path d="M534.034 267.116H526.407C526.14 267.116 525.924 267.333 525.924 267.599V269.417C525.924 269.684 526.14 269.9 526.407 269.9H534.034C534.301 269.9 534.517 269.684 534.517 269.417V267.599C534.517 267.333 534.301 267.116 534.034 267.116Z" fill="#3BAB22"/>
<path d="M545.048 267.116H537.42C537.154 267.116 536.938 267.333 536.938 267.599V269.417C536.938 269.684 537.154 269.9 537.42 269.9H545.048C545.314 269.9 545.531 269.684 545.531 269.417V267.599C545.531 267.333 545.314 267.116 545.048 267.116Z" fill="#3BAB22"/>
<path d="M556.059 267.116H548.432C548.165 267.116 547.949 267.333 547.949 267.599V269.417C547.949 269.684 548.165 269.9 548.432 269.9H556.059C556.326 269.9 556.542 269.684 556.542 269.417V267.599C556.542 267.333 556.326 267.116 556.059 267.116Z" fill="#3BAB22"/>
<path d="M567.071 267.116H559.444C559.177 267.116 558.961 267.333 558.961 267.599V269.417C558.961 269.684 559.177 269.9 559.444 269.9H567.071C567.338 269.9 567.554 269.684 567.554 269.417V267.599C567.554 267.333 567.338 267.116 567.071 267.116Z" fill="#3BAB22"/>
<path d="M572.494 222.365L564.701 219.899C544.371 214.593 534.924 225.765 530.175 240.159C529.307 242.791 528.556 245.167 528.036 246.994C527.434 249.112 529.596 250.946 531.591 250.015C533.27 249.234 534.996 247.456 535.873 243.615C535.873 243.615 534.215 251.385 537.59 251.385C540.59 251.385 542.332 246.583 542.332 246.583C542.332 246.583 541.427 251.385 544.051 251.385C546.974 251.385 548.875 246.17 548.875 246.17C548.875 246.17 547.61 251.385 550.214 251.77C551.571 251.971 552.884 251.166 554.529 248.279C555.599 246.401 557.608 245.248 559.772 245.248C563.038 245.248 565.946 243.176 567.008 240.085C568.941 234.457 571.829 225.798 572.494 222.361V222.365Z" fill="white"/>
<path d="M550.599 252.316C550.447 252.316 550.295 252.304 550.141 252.281C549.516 252.188 549.019 251.875 548.665 251.348C548.233 250.706 548.077 249.824 548.056 248.963C547.142 250.403 545.777 251.901 544.056 251.901C543.391 251.901 542.827 251.644 542.425 251.159C541.959 250.596 541.761 249.789 541.695 249.003C540.816 250.389 539.435 251.901 537.595 251.901C536.888 251.901 536.284 251.616 535.85 251.077C535.174 250.242 534.961 248.867 534.952 247.514C534.143 248.891 533.093 249.885 531.815 250.48C530.707 250.995 529.44 250.825 528.51 250.034C527.584 249.243 527.215 248.025 527.549 246.851C528.034 245.148 528.755 242.843 529.692 239.996C532.445 231.652 536.242 225.837 541.301 222.221C547.398 217.864 555.315 216.915 564.836 219.4L572.655 221.875C572.904 221.955 573.054 222.207 573.005 222.463C572.354 225.826 569.65 233.995 567.5 240.257C566.366 243.552 563.264 245.766 559.779 245.766C557.797 245.766 555.959 246.828 554.984 248.538C553.507 251.126 552.138 252.316 550.606 252.316H550.599ZM548.877 245.659C548.926 245.659 548.977 245.666 549.026 245.682C549.288 245.762 549.442 246.03 549.376 246.296C549.164 247.171 548.779 249.682 549.514 250.776C549.705 251.061 549.952 251.217 550.288 251.266C551.121 251.387 552.311 251.135 554.081 248.03C555.238 246 557.416 244.74 559.77 244.74C562.816 244.74 565.529 242.805 566.52 239.924C568.202 235.028 571.071 226.472 571.897 222.718L564.547 220.391C547.636 215.979 536.545 222.496 530.665 240.323C529.732 243.155 529.013 245.449 528.533 247.138C528.307 247.932 528.547 248.725 529.172 249.257C529.793 249.784 530.637 249.899 531.376 249.553C533.322 248.648 534.665 246.613 535.374 243.505C535.437 243.23 535.712 243.057 535.985 243.118C536.261 243.179 536.435 243.452 536.377 243.727C536.079 245.132 535.544 249.075 536.645 250.435C536.888 250.736 537.189 250.876 537.592 250.876C539.757 250.876 541.401 247.654 541.852 246.413C541.943 246.161 542.215 246.023 542.47 246.093C542.729 246.163 542.89 246.42 542.838 246.683C542.696 247.449 542.484 249.628 543.214 250.508C543.421 250.76 543.69 250.876 544.053 250.876C546.15 250.876 547.897 247.355 548.394 246C548.469 245.792 548.667 245.661 548.877 245.661V245.659Z" fill="black"/>
<path d="M535.907 244.007C535.87 244.007 535.832 244.002 535.795 243.995C535.517 243.935 535.342 243.659 535.405 243.382C535.863 241.324 536.513 239.298 537.341 237.362C537.453 237.1 537.757 236.979 538.015 237.091C538.277 237.203 538.398 237.504 538.286 237.765C537.484 239.641 536.852 241.606 536.408 243.603C536.355 243.844 536.142 244.007 535.907 244.007Z" fill="black"/>
<path d="M542.425 246.94C542.395 246.94 542.362 246.938 542.332 246.931C542.052 246.879 541.867 246.611 541.919 246.333C542.434 243.529 543.092 240.719 543.878 237.985C543.955 237.712 544.24 237.553 544.512 237.632C544.785 237.712 544.944 237.996 544.865 238.267C544.09 240.971 543.44 243.748 542.929 246.52C542.882 246.767 542.667 246.942 542.425 246.942V246.94Z" fill="black"/>
<path d="M548.879 246.688C548.84 246.688 548.798 246.683 548.756 246.674C548.481 246.606 548.313 246.326 548.38 246.051C548.765 244.49 549.295 242.822 549.808 241.207C550.064 240.397 550.316 239.606 550.538 238.867C550.619 238.596 550.902 238.44 551.177 238.521C551.45 238.603 551.604 238.888 551.522 239.161C551.301 239.907 551.046 240.703 550.787 241.52C550.279 243.118 549.754 244.772 549.376 246.298C549.318 246.532 549.108 246.688 548.877 246.688H548.879Z" fill="black"/>
<path d="M605.673 242.868C605.591 242.868 605.51 242.85 605.433 242.808C605.181 242.675 605.088 242.362 605.221 242.112L617.702 218.602C618.472 217.153 618.595 215.433 618.045 213.888C617.949 213.62 618.089 213.326 618.355 213.23C618.623 213.135 618.917 213.275 619.013 213.541C619.661 215.358 619.517 217.377 618.612 219.082L606.13 242.593C606.037 242.766 605.86 242.866 605.675 242.866L605.673 242.868Z" fill="black"/>
<path d="M608.062 244.455C608.062 244.455 586.99 227.744 572.498 222.368L608.062 244.455Z" fill="white"/>
<path d="M608.061 244.968C607.949 244.968 607.837 244.931 607.741 244.856C607.531 244.691 586.567 228.133 572.318 222.846C572.052 222.748 571.916 222.452 572.014 222.186C572.112 221.92 572.409 221.784 572.674 221.882C587.078 227.226 608.168 243.881 608.381 244.049C608.602 244.226 608.639 244.548 608.465 244.77C608.364 244.898 608.213 244.964 608.061 244.964V244.968Z" fill="black"/>
<path d="M628.979 261.801C628.881 261.801 628.78 261.773 628.694 261.715C628.458 261.558 628.393 261.239 628.552 261.001L643.412 238.727C643.571 238.491 643.888 238.426 644.126 238.584C644.361 238.741 644.427 239.06 644.268 239.298L629.408 261.572C629.307 261.722 629.146 261.801 628.979 261.801Z" fill="black"/>
<path d="M579.052 239.476C578.994 239.476 578.936 239.466 578.88 239.445C578.611 239.35 578.474 239.056 578.569 238.787C579.757 235.465 580.459 232.032 580.662 228.586C580.678 228.304 580.918 228.084 581.205 228.103C581.487 228.119 581.704 228.362 581.688 228.647C581.48 232.191 580.757 235.719 579.537 239.135C579.463 239.345 579.265 239.476 579.055 239.476H579.052Z" fill="black"/>
<path d="M247.415 82.4073C247.38 82.4073 247.345 82.405 247.31 82.3956C247.033 82.3373 246.853 82.0666 246.911 81.7866C248.32 75.0083 250.438 68.321 253.207 61.9113C264.06 36.7766 284.05 17.375 309.49 7.27863C334.933 -2.8177 362.781 -2.3977 387.907 8.4593C392.213 10.319 396.419 12.4866 400.405 14.897C400.647 15.044 400.724 15.359 400.577 15.604C400.43 15.8466 400.116 15.9236 399.873 15.779C395.926 13.392 391.763 11.2476 387.499 9.4043C362.625 -1.34537 335.057 -1.75837 309.871 8.2353C284.684 18.229 264.897 37.437 254.152 62.3196C251.411 68.6663 249.314 75.2883 247.919 81.999C247.868 82.2416 247.655 82.4073 247.415 82.4073Z" fill="black"/>
<path d="M247.375 82.5239C247.198 82.5239 247.023 82.4306 246.93 82.2649L242.043 73.7506C241.901 73.5033 241.987 73.1906 242.232 73.0483C242.479 72.9059 242.792 72.9923 242.934 73.2373L247.564 81.3059L255.63 76.6743C255.877 76.5319 256.19 76.6183 256.332 76.8633C256.475 77.1106 256.388 77.4233 256.143 77.5656L247.632 82.4539C247.55 82.5006 247.464 82.5216 247.375 82.5216V82.5239Z" fill="black"/>
<path d="M353.109 230.373C343.121 230.373 333.138 228.896 323.425 225.938C323.155 225.856 323.001 225.569 323.082 225.296C323.166 225.025 323.453 224.869 323.724 224.953C363.349 237.019 407.195 223.236 432.83 190.66C433.004 190.438 433.329 190.399 433.55 190.574C433.774 190.749 433.812 191.073 433.637 191.295C420.941 207.43 403.827 219.267 384.15 225.527C373.999 228.756 363.549 230.371 353.109 230.371V230.373Z" fill="black"/>
<path d="M435.171 201.092C434.931 201.092 434.714 200.922 434.667 200.677L432.897 191.544L423.767 193.315C423.49 193.369 423.219 193.187 423.166 192.909C423.112 192.632 423.294 192.361 423.571 192.307L433.205 190.438C433.485 190.387 433.753 190.567 433.807 190.844L435.675 200.481C435.729 200.759 435.547 201.029 435.269 201.083C435.236 201.09 435.204 201.092 435.171 201.092Z" fill="black"/>
<path d="M204.893 287.393C255.642 287.393 296.783 246.245 296.783 195.485C296.783 144.726 255.642 103.578 204.893 103.578C154.144 103.578 113.004 144.726 113.004 195.485C113.004 246.245 154.144 287.393 204.893 287.393Z" fill="#3BAB22"/>
<path d="M204.893 268.257C164.774 268.257 132.135 235.612 132.135 195.485C132.135 155.359 164.774 122.713 204.893 122.713C245.012 122.713 277.651 155.359 277.651 195.485C277.651 235.612 245.012 268.257 204.893 268.257ZM204.893 123.742C165.34 123.742 133.163 155.926 133.163 195.485C133.163 235.045 165.343 267.228 204.893 267.228C244.443 267.228 276.622 235.045 276.622 195.485C276.622 155.926 244.443 123.742 204.893 123.742Z" fill="white"/>
<path d="M165.539 215.534H152.344V202.867H165.539V188.467H152.344V175.801H165.539V148.867H186.865L202.593 175.801H224.318V148.867H244.311V175.801H257.507V188.467H244.311V202.867H257.507V215.534H244.311V242.201H222.986L207.391 215.534H185.532V242.201H165.539V215.534ZM199.927 202.867L191.53 188.467H185.532V202.867H199.927ZM218.454 202.867H224.318V188.467H210.057L218.454 202.867Z" fill="white"/>
<path d="M131.24 287.643L127.589 286.789L133.971 270.651C129.241 263.014 111.896 266.848 111.896 266.848C111.896 266.848 104.269 276.002 100.035 284.829C109.092 284.698 120.426 285.225 131.237 287.643H131.24Z" fill="white"/>
<path d="M131.24 288.156C131.203 288.156 131.166 288.151 131.128 288.144C122.069 286.119 111.612 285.176 100.045 285.344C99.8655 285.344 99.6999 285.258 99.6043 285.106C99.5087 284.957 99.497 284.768 99.574 284.607C103.784 275.822 111.425 266.61 111.502 266.519C111.575 266.43 111.675 266.37 111.787 266.346C112.51 266.188 129.544 262.524 134.41 270.381C134.496 270.518 134.51 270.689 134.452 270.84L128.29 286.422L131.359 287.141C131.634 287.206 131.807 287.479 131.744 287.757C131.69 287.995 131.478 288.156 131.243 288.156H131.24ZM102.623 284.297C111.554 284.297 119.802 284.971 127.226 286.31L133.398 270.71C128.973 264.139 113.956 266.955 112.181 267.315C111.248 268.453 104.794 276.452 100.869 284.306C101.456 284.301 102.042 284.297 102.625 284.297H102.623Z" fill="black"/>
<path d="M110.413 272.457L88.6504 222.946C88.6504 222.946 119.034 187.956 124.615 182.934C130.197 177.913 140.064 161.22 138.067 156.957C136.367 153.329 130.741 159.3 129.012 161.619C127.284 163.941 124.685 166.172 125.332 158.327C125.978 150.482 135.511 134.893 135.511 134.893C135.511 134.893 129.385 132.709 124.275 137.822C123.41 138.687 121.476 142.46 119.587 147.339C116.291 155.84 112.234 160.553 106.242 166.148C96.1704 175.552 70.949 194.704 63.5619 203.962C40.2251 233.215 71.1379 288.182 71.1379 288.182L110.417 272.455L110.413 272.457Z" fill="white"/>
<path d="M71.1342 288.697C70.9546 288.697 70.7797 288.602 70.6864 288.436C70.6094 288.298 62.8724 274.441 58.1001 257.181C51.7603 234.251 53.5074 215.739 63.157 203.645C67.8757 197.73 79.8415 187.79 90.4008 179.019C96.477 173.972 102.217 169.203 105.889 165.775C111.986 160.082 115.897 155.429 119.105 147.155C120.898 142.528 122.918 138.452 123.91 137.46C129.19 132.177 135.619 134.387 135.682 134.41C135.948 134.506 136.088 134.8 135.992 135.066C135.899 135.334 135.603 135.472 135.337 135.379C135.099 135.295 129.445 133.374 124.635 138.186C123.879 138.942 122.02 142.47 120.061 147.526C116.782 155.984 112.795 160.728 106.588 166.524C102.896 169.973 97.1441 174.749 91.0562 179.808C80.5366 188.546 68.6128 198.451 63.9594 204.284C52.0449 219.222 54.732 241.135 59.0844 256.887C63.3739 272.411 70.0799 285.165 71.3651 287.535L109.728 272.175L88.1802 223.152C88.1009 222.97 88.1312 222.757 88.2619 222.608C88.3878 222.463 101.023 207.915 111.379 196.365C111.571 196.153 111.895 196.136 112.105 196.325C112.317 196.514 112.333 196.841 112.144 197.051C102.535 207.77 90.9606 221.073 89.2508 223.037L110.883 272.25C110.939 272.378 110.941 272.523 110.887 272.651C110.834 272.779 110.731 272.882 110.603 272.933L71.3231 288.66C71.2602 288.686 71.1949 288.697 71.1319 288.697H71.1342Z" fill="black"/>
<path d="M123.956 180.004C123.781 180.004 123.608 179.913 123.513 179.752C117.182 169.058 110.017 166.33 109.945 166.305C109.679 166.207 109.541 165.913 109.639 165.644C109.737 165.378 110.031 165.241 110.299 165.339C110.605 165.451 117.882 168.223 124.397 179.229C124.541 179.474 124.46 179.789 124.217 179.934C124.136 179.983 124.045 180.006 123.956 180.006V180.004Z" fill="black"/>
<path d="M116.592 186.959C116.417 186.959 116.245 186.868 116.149 186.707C109.819 176.014 102.653 173.286 102.583 173.26C102.317 173.162 102.18 172.866 102.278 172.6C102.376 172.334 102.67 172.199 102.938 172.294C103.243 172.406 110.521 175.178 117.036 186.182C117.18 186.427 117.098 186.742 116.856 186.887C116.774 186.936 116.683 186.959 116.595 186.959H116.592Z" fill="black"/>
<path d="M272.15 258.147C261.647 269.622 248.811 276.296 248.811 276.296C248.113 271.687 255.111 269.207 253.271 263.826C251.43 258.446 243.777 268.575 239.742 272.457C236.745 275.341 228.947 280.934 220.014 287.027C203.028 298.609 181.935 311.998 181.935 311.998C181.935 311.998 159.688 299.69 144.158 291.199C140.127 288.994 136.596 288.107 133.489 288.175C109.574 282.187 82.0804 286.014 82.0804 286.014L41.3477 426.488H154.652L143.624 337.655C168.794 354.007 186.579 348.767 198.641 339.776C208.778 332.221 238.256 306.596 249.788 296.521C252.583 294.08 260.047 287.157 262.885 284.768C277.489 272.471 275.42 254.577 272.15 258.149V258.147Z" fill="white"/>
<path d="M154.652 427.001C154.396 427.001 154.174 426.81 154.144 426.551L143.116 337.718C143.09 337.52 143.183 337.326 143.353 337.219C143.521 337.114 143.738 337.114 143.906 337.224C164.22 350.421 182.533 351.142 198.335 339.363C208.393 331.869 237.433 306.634 249.453 296.131C250.619 295.112 252.618 293.296 254.733 291.374C257.623 288.746 260.901 285.767 262.557 284.371C272.192 276.258 274.611 265.555 273.886 260.34C273.68 258.866 273.263 258.31 273.051 258.212C272.792 258.096 272.677 257.792 272.794 257.533C272.911 257.274 273.214 257.16 273.475 257.277C274.378 257.683 274.751 259.092 274.905 260.2C275.661 265.642 273.174 276.779 263.219 285.16C261.577 286.544 258.309 289.514 255.426 292.137C253.306 294.064 251.305 295.882 250.131 296.908C238.103 307.418 209.039 332.671 198.954 340.189C191.31 345.887 183.097 348.736 174.381 348.736C164.92 348.736 154.864 345.386 144.275 338.68L155.168 426.425C155.203 426.707 155.002 426.964 154.722 426.999C154.701 427.001 154.68 427.003 154.659 427.003L154.652 427.001Z" fill="black"/>
<path d="M41.3472 427.001C41.3005 427.001 41.2515 426.994 41.2025 426.98C40.9296 426.901 40.7734 426.616 40.8527 426.343L81.5854 285.872C81.6413 285.678 81.8069 285.533 82.0075 285.505C82.2828 285.466 109.825 281.739 133.547 287.659C136.887 287.598 140.549 288.639 144.405 290.746C158.845 298.64 179.343 309.975 181.918 311.401C184.379 309.835 203.933 297.37 219.708 286.614C219.943 286.455 220.263 286.513 220.421 286.749C220.582 286.985 220.522 287.304 220.286 287.463C203.49 298.917 182.422 312.299 182.21 312.432C182.051 312.532 181.851 312.539 181.685 312.448C181.464 312.325 159.263 300.042 143.91 291.649C140.19 289.614 136.689 288.618 133.5 288.688C133.456 288.69 133.409 288.683 133.365 288.674C111.225 283.13 85.6649 286.079 82.481 286.481L41.8416 426.63C41.7763 426.854 41.5711 427.001 41.3495 427.001H41.3472Z" fill="black"/>
<path d="M247.73 294.542C247.539 294.542 247.354 294.435 247.266 294.253C241.868 283.1 234.938 279.751 234.869 279.719C234.612 279.597 234.5 279.292 234.621 279.035C234.743 278.778 235.046 278.666 235.302 278.785C235.599 278.923 242.617 282.292 248.189 293.805C248.313 294.062 248.206 294.367 247.952 294.491C247.879 294.526 247.802 294.542 247.728 294.542H247.73Z" fill="black"/>
<path d="M239.81 300.861C239.619 300.861 239.437 300.754 239.346 300.572C233.948 289.418 227.019 286.07 226.949 286.037C226.692 285.916 226.58 285.61 226.701 285.354C226.823 285.097 227.126 284.985 227.382 285.104C227.679 285.242 234.697 288.611 240.27 300.121C240.393 300.378 240.286 300.684 240.032 300.807C239.959 300.842 239.882 300.859 239.808 300.859L239.81 300.861Z" fill="black"/>
<path d="M142.519 337.42C142.431 337.42 142.342 337.396 142.26 337.35C141.575 336.948 139.991 335.7 138.311 334.377C136.735 333.136 135.104 331.852 134.479 331.484C133.824 331.099 133.082 330.662 132.324 330.604C131.699 330.553 130.964 330.854 130.791 331.432C130.71 331.703 130.425 331.859 130.152 331.778C129.879 331.696 129.725 331.411 129.807 331.138C130.141 330.021 131.398 329.503 132.405 329.577C133.399 329.654 134.25 330.154 135.002 330.595C135.687 330.996 137.271 332.244 138.95 333.567C140.527 334.809 142.158 336.092 142.783 336.461C143.028 336.605 143.109 336.92 142.967 337.163C142.871 337.326 142.699 337.417 142.524 337.417L142.519 337.42Z" fill="black"/>
<path d="M138.391 231.79C136.462 229.44 133.421 228.887 130.561 229.543C128.781 229.951 127.603 231.519 126.297 232.674C125.758 233.15 125.166 233.621 124.468 233.843C123.811 234.051 123.067 234.044 122.39 233.95C120.881 233.745 119.502 232.982 117.982 232.84C115.971 232.651 113.942 233.654 112.505 235.007C111.122 236.309 110.196 238.006 108.959 239.438C107.873 240.696 106.597 241.748 105.071 242.423C103.48 243.127 101.775 243.573 100.255 244.436C98.8784 245.218 97.6911 246.289 96.8304 247.621C95.1697 250.19 94.7591 253.326 94.225 256.273C93.9498 257.795 93.6489 259.316 93.18 260.788C92.7112 262.254 92.0861 263.824 91.1018 265.026C88.8439 267.777 85.1189 268.841 81.8697 269.893C78.0747 271.123 74.4686 272.838 71.0211 274.844C67.3451 276.982 63.8533 279.537 61.0356 282.743C58.3113 285.841 56.3799 289.584 55.3606 293.579C54.3577 297.508 54.2527 301.689 55.2347 305.635C56.205 309.532 58.267 313.076 61.1289 315.888C66.7293 321.394 74.7578 323.364 82.4225 322.584C85.9376 322.227 89.3757 321.231 92.5246 319.623C95.5172 318.095 98.1833 316.014 100.63 313.72C117.837 297.587 123.092 276.335 125.982 265.649C127.214 261.092 131.321 259.475 132.04 254.873C132.917 249.257 132.854 248.949 137.148 245.227C139.156 243.487 141.029 239.203 140.204 236.008C139.961 234.471 139.385 232.994 138.396 231.79H138.391Z" fill="black"/>
<path d="M136.013 242.784C136.013 242.784 126.466 246.263 127.355 251.026C128.244 255.788 128.272 258.196 126.044 260.224C126.044 260.224 117.719 257.624 116.807 263.399C115.895 269.174 122.074 271.377 126.664 269.688C126.664 269.688 131.581 274.863 139.262 271.062C146.943 267.261 142.663 254.733 136.018 242.782L136.013 242.784Z" fill="white"/>
<path d="M133.745 272.961C129.909 272.961 127.322 270.969 126.538 270.278C123.646 271.232 120.373 270.754 118.304 269.055C116.641 267.688 115.927 265.653 116.296 263.322C116.529 261.845 117.227 260.737 118.372 260.028C120.891 258.464 124.796 259.353 125.901 259.652C127.739 257.827 127.683 255.59 126.848 251.124C125.892 245.993 135.43 242.451 135.835 242.304C136.073 242.217 136.337 242.315 136.461 242.537C142.644 253.655 144.977 261.864 143.397 266.939C142.749 269.02 141.433 270.565 139.486 271.529C137.363 272.579 135.432 272.966 133.743 272.966L133.745 272.961ZM126.662 269.174C126.799 269.174 126.935 269.23 127.035 269.335C127.226 269.534 131.8 274.184 139.031 270.602C140.741 269.755 141.849 268.456 142.418 266.629C143.871 261.96 141.578 253.942 135.782 243.426C134.016 244.142 127.161 247.18 127.861 250.932C128.78 255.858 128.784 258.425 126.389 260.606C126.253 260.73 126.065 260.77 125.89 260.716C125.845 260.702 121.406 259.349 118.913 260.9C118.022 261.453 117.5 262.298 117.311 263.483C116.998 265.467 117.567 267.121 118.955 268.262C120.795 269.774 123.891 270.164 126.482 269.209C126.54 269.188 126.599 269.177 126.659 269.177L126.662 269.174Z" fill="black"/>
<path d="M125.979 266.164C125.864 266.164 125.75 266.127 125.654 266.05C124.36 264.998 122.452 264.715 120.908 265.352C120.644 265.46 120.346 265.336 120.236 265.072C120.129 264.809 120.252 264.51 120.516 264.4C122.398 263.623 124.724 263.966 126.303 265.25C126.522 265.429 126.557 265.751 126.377 265.973C126.275 266.099 126.128 266.162 125.979 266.162V266.164Z" fill="black"/>
<path d="M680.32 414.928H506.31C506.025 414.928 505.797 414.697 505.797 414.415C505.797 414.133 506.028 413.902 506.31 413.902H679.807V284.376H640.94C640.656 284.376 640.427 284.145 640.427 283.863C640.427 283.58 640.658 283.349 640.94 283.349H680.32C680.605 283.349 680.833 283.58 680.833 283.863V414.417C680.833 414.702 680.603 414.931 680.32 414.931V414.928Z" fill="black"/>
<path d="M376.425 414.928H165.46C165.176 414.928 164.947 414.697 164.947 414.415C164.947 414.133 165.178 413.902 165.46 413.902H376.425C376.709 413.902 376.938 414.133 376.938 414.415C376.938 414.697 376.707 414.928 376.425 414.928Z" fill="black"/>
<path d="M405.082 426.145C411.872 426.145 417.376 420.628 417.376 413.822C417.376 407.017 411.872 401.5 405.082 401.5C398.292 401.5 392.787 407.017 392.787 413.822C392.787 420.628 398.292 426.145 405.082 426.145Z" fill="#3BAB22"/>
<path d="M440.961 426.145C447.751 426.145 453.255 420.628 453.255 413.822C453.255 407.017 447.751 401.5 440.961 401.5C434.171 401.5 428.666 407.017 428.666 413.822C428.666 420.628 434.171 426.145 440.961 426.145Z" fill="#CBECC3"/>
<path d="M476.84 426.145C483.63 426.145 489.134 420.628 489.134 413.822C489.134 407.017 483.63 401.5 476.84 401.5C470.049 401.5 464.545 407.017 464.545 413.822C464.545 420.628 470.049 426.145 476.84 426.145Z" fill="white"/>
<path d="M476.839 426.658C469.776 426.658 464.031 420.899 464.031 413.822C464.031 406.745 469.776 400.987 476.839 400.987C483.902 400.987 489.647 406.745 489.647 413.822C489.647 420.899 483.902 426.658 476.839 426.658ZM476.839 402.016C470.343 402.016 465.058 407.312 465.058 413.822C465.058 420.332 470.343 425.629 476.839 425.629C483.335 425.629 488.621 420.332 488.621 413.822C488.621 407.312 483.335 402.016 476.839 402.016Z" fill="black"/>
<path d="M75.1478 138.072H7.64449C3.75222 138.072 0.59375 141.227 0.59375 145.118V164.421C0.59375 168.312 3.74984 171.467 7.64449 171.467H54.0288L65.2212 184.205C66.1568 185.271 67.9142 184.609 67.9142 183.191V171.47C73.7751 171.527 81.8209 172.595 82.1985 164.423V145.121C82.1985 141.229 79.0424 138.074 75.1478 138.074V138.072Z" fill="#3BAB22"/>
<path d="M23.1807 154.964C23.1593 159.546 16.1893 159.546 16.168 154.964C16.1893 150.382 23.1593 150.382 23.1807 154.964Z" fill="#D1F9B2"/>
<path d="M43.9249 154.964C43.9035 159.546 36.9335 159.546 36.9121 154.964C36.9335 150.382 43.9035 150.382 43.9249 154.964Z" fill="#D1F9B2"/>
<path d="M64.667 154.964C64.6457 159.546 57.6757 159.546 57.6543 154.964C57.6757 150.382 64.6457 150.382 64.667 154.964Z" fill="#D1F9B2"/>
<path d="M681.404 113.515C680.606 160.206 611.125 160.199 610.334 113.515C611.132 66.8261 680.613 66.8333 681.404 113.515Z" fill="#3BAB22"/>
<path d="M637.539 114.965C635.685 113.339 632.595 107.342 629.513 110.127L627.288 112.095C626.129 113.121 626.019 114.892 627.045 116.053L636.799 127.072C637.824 128.23 639.596 128.339 640.757 127.314C643.184 125.151 665.944 105.053 668.944 102.389C671.299 100.196 668.768 97.8902 667.217 96.2093C666.191 95.0507 664.42 94.9415 663.258 95.9671L641.498 115.21C640.339 116.236 638.565 116.126 637.539 114.968V114.965Z" fill="white"/>
<defs>
<linearGradient id="paint0_linear_193_62531" x1="464.535" y1="62.2827" x2="464.535" y2="332.272" gradientUnits="userSpaceOnUse">
<stop stop-color="#3BAB22"/>
<stop offset="1" stop-color="#3BAB22" stop-opacity="0"/>
</linearGradient>
<linearGradient id="paint1_linear_193_62531" x1="583.143" y1="288.462" x2="583.143" y2="357.706" gradientUnits="userSpaceOnUse">
<stop stop-color="#3BAB22"/>
<stop offset="1" stop-color="#3BAB22" stop-opacity="0"/>
</linearGradient>
<linearGradient id="paint2_linear_193_62531" x1="236.723" y1="244.124" x2="236.723" y2="384.919" gradientUnits="userSpaceOnUse">
<stop stop-color="#3BAB22"/>
<stop offset="1" stop-color="#3BAB22" stop-opacity="0"/>
</linearGradient>
<linearGradient id="paint3_linear_193_62531" x1="169.909" y1="52.7803" x2="169.909" y2="250.148" gradientUnits="userSpaceOnUse">
<stop stop-color="#3BAB22"/>
<stop offset="1" stop-color="#3BAB22" stop-opacity="0"/>
</linearGradient>
<linearGradient id="paint4_linear_193_62531" x1="274.395" y1="33.691" x2="274.395" y2="134.577" gradientUnits="userSpaceOnUse">
<stop stop-color="#3BAB22"/>
<stop offset="1" stop-color="#3BAB22" stop-opacity="0"/>
</linearGradient>
</defs>
</svg>
