<svg width="591" height="536" viewBox="0 0 591 536" fill="none" xmlns="http://www.w3.org/2000/svg">
<g filter="url(#filter0_d_139_2874)">
<rect x="307.5" y="248.5" width="234.9" height="234.9" rx="117.45" stroke="url(#paint0_linear_139_2874)" shape-rendering="crispEdges"/>
</g>
<rect x="27.8077" y="34" width="235.897" height="235.897" rx="117.949" fill="#3BAB22"/>
<path d="M140.813 182.892C135.12 181.945 130.565 179.577 127.15 175.789C123.794 172.001 121.996 167.235 121.756 161.494H134.7C135 164.69 136.138 167.206 138.116 169.041C140.153 170.876 142.85 171.793 146.206 171.793C149.262 171.793 151.689 171.172 153.487 169.929C155.285 168.686 156.183 166.91 156.183 164.601C156.183 163.003 155.644 161.73 154.565 160.783C153.547 159.777 152.258 159.008 150.7 158.475C149.142 157.942 146.925 157.321 144.049 156.61C139.794 155.604 136.288 154.538 133.532 153.414C130.835 152.23 128.498 150.365 126.521 147.82C124.543 145.275 123.554 141.782 123.554 137.343C123.554 132.844 125.112 129.056 128.228 125.978C131.404 122.84 135.599 120.887 140.813 120.117V111.949H152.408V120.561C157.262 121.686 161.097 123.906 163.914 127.221C166.79 130.476 168.288 134.501 168.408 139.296H155.644C155.344 136.81 154.296 134.857 152.498 133.436C150.7 131.956 148.333 131.216 145.397 131.216C142.7 131.216 140.573 131.779 139.015 132.903C137.457 134.028 136.678 135.508 136.678 137.343C136.678 139.059 137.217 140.421 138.296 141.427C139.374 142.433 140.753 143.232 142.431 143.824C144.109 144.357 146.416 144.949 149.352 145.6C153.667 146.607 157.172 147.642 159.869 148.708C162.565 149.773 164.873 151.579 166.79 154.124C168.768 156.61 169.756 160.043 169.756 164.424C169.756 169.278 168.198 173.332 165.082 176.588C161.966 179.784 157.741 181.856 152.408 182.803V191.949L140.813 191.86V182.892Z" fill="white"/>
<rect x="327.103" y="258.103" width="235.897" height="235.897" rx="117.949" fill="#1A1A1B"/>
<path d="M397.987 403.627C393.283 403.627 389.011 402.643 385.171 400.675C381.331 398.707 378.283 395.779 376.027 391.891C373.771 388.003 372.643 383.323 372.643 377.851C372.643 372.379 373.771 367.699 376.027 363.811C378.331 359.923 381.403 356.995 385.243 355.027C389.131 353.059 393.379 352.075 397.987 352.075C402.163 352.075 405.931 352.819 409.291 354.307C412.651 355.795 415.387 357.907 417.499 360.643C419.611 363.379 420.883 366.547 421.315 370.147H409.939C409.603 367.507 408.307 365.395 406.051 363.811C403.843 362.179 401.131 361.363 397.915 361.363C395.179 361.363 392.731 362.011 390.571 363.307C388.411 364.555 386.707 366.427 385.459 368.923C384.211 371.371 383.587 374.347 383.587 377.851C383.587 381.355 384.211 384.355 385.459 386.851C386.707 389.299 388.411 391.147 390.571 392.395C392.731 393.643 395.179 394.267 397.915 394.267C401.131 394.267 403.867 393.475 406.123 391.891C408.427 390.259 409.795 388.147 410.227 385.555H421.099C420.763 389.107 419.563 392.251 417.499 394.987C415.483 397.723 412.771 399.859 409.363 401.395C406.003 402.883 402.211 403.627 397.987 403.627ZM426.593 352.651H438.113L458.345 385.987V352.651H469.145V403.051H457.625L437.393 369.715V403.051H426.593V352.651ZM490.426 382.171L473.29 352.651H484.882L495.898 372.091L506.914 352.651H518.506L501.298 382.171V403.051H490.426V382.171Z" fill="white"/>
<path fill-rule="evenodd" clip-rule="evenodd" d="M365.9 144.98C346.037 143.121 321.298 143.103 293.192 143.103C282.335 143.103 273.534 134.302 273.534 123.445C273.534 112.588 282.335 103.787 293.192 103.787L293.917 103.787C321.158 103.786 347.672 103.786 369.563 105.835C380.661 106.874 391.275 108.494 400.644 111.164C409.835 113.784 419.282 117.814 426.749 124.602C438.832 135.586 445.147 147.624 448.005 163.994C450.461 178.058 450.459 196.242 450.457 219.718C450.457 220.386 450.457 221.059 450.457 221.735C450.457 228.548 446.93 234.876 441.134 238.458C435.339 242.039 428.102 242.365 422.008 239.318L382.692 219.66C372.981 214.805 369.045 202.997 373.9 193.286C378.755 183.575 390.564 179.639 400.274 184.494L410.864 189.79C410.618 181.847 410.152 175.78 409.275 170.756C407.815 162.394 405.493 158.412 400.302 153.694C399.132 152.63 396.169 150.771 389.866 148.975C383.741 147.229 375.776 145.904 365.9 144.98Z" fill="url(#paint1_linear_139_2874)"/>
<path fill-rule="evenodd" clip-rule="evenodd" d="M145.251 283.645C151.046 280.064 158.283 279.738 164.377 282.785L203.693 302.443C213.404 307.298 217.34 319.106 212.484 328.817C207.629 338.528 195.821 342.464 186.11 337.608L175.52 332.313C175.767 340.256 176.233 346.323 177.11 351.347C178.57 359.709 180.891 363.691 186.082 368.409C187.252 369.473 190.215 371.332 196.518 373.128C202.643 374.874 210.608 376.198 220.484 377.123C240.347 378.982 265.086 379 293.192 379C304.049 379 312.85 387.801 312.85 398.658C312.85 409.515 304.049 418.316 293.192 418.316H292.468C265.227 418.316 238.712 418.317 216.821 416.268C205.723 415.229 195.109 413.609 185.74 410.939C176.549 408.319 167.102 404.289 159.635 397.501C147.553 386.517 141.238 374.479 138.379 358.109C135.924 344.045 135.925 325.862 135.927 302.385C135.927 301.717 135.927 301.044 135.927 300.368C135.927 293.555 139.455 287.227 145.251 283.645Z" fill="url(#paint2_linear_139_2874)"/>
<g filter="url(#filter1_d_139_2874)">
<rect x="48.5" y="44.5" width="234.9" height="234.9" rx="117.45" stroke="url(#paint3_linear_139_2874)" shape-rendering="crispEdges"/>
</g>
<defs>
<filter id="filter0_d_139_2874" x="259" y="204" width="331.9" height="331.9" filterUnits="userSpaceOnUse" color-interpolation-filters="sRGB">
<feFlood flood-opacity="0" result="BackgroundImageFix"/>
<feColorMatrix in="SourceAlpha" type="matrix" values="0 0 0 0 0 0 0 0 0 0 0 0 0 0 0 0 0 0 127 0" result="hardAlpha"/>
<feOffset dy="4"/>
<feGaussianBlur stdDeviation="24"/>
<feComposite in2="hardAlpha" operator="out"/>
<feColorMatrix type="matrix" values="0 0 0 0 0.101961 0 0 0 0 0.101961 0 0 0 0 0.105882 0 0 0 0.07 0"/>
<feBlend mode="normal" in2="BackgroundImageFix" result="effect1_dropShadow_139_2874"/>
<feBlend mode="normal" in="SourceGraphic" in2="effect1_dropShadow_139_2874" result="shape"/>
</filter>
<filter id="filter1_d_139_2874" x="0" y="0" width="331.9" height="331.9" filterUnits="userSpaceOnUse" color-interpolation-filters="sRGB">
<feFlood flood-opacity="0" result="BackgroundImageFix"/>
<feColorMatrix in="SourceAlpha" type="matrix" values="0 0 0 0 0 0 0 0 0 0 0 0 0 0 0 0 0 0 127 0" result="hardAlpha"/>
<feOffset dy="4"/>
<feGaussianBlur stdDeviation="24"/>
<feComposite in2="hardAlpha" operator="out"/>
<feColorMatrix type="matrix" values="0 0 0 0 0.101961 0 0 0 0 0.101961 0 0 0 0 0.105882 0 0 0 0.07 0"/>
<feBlend mode="normal" in2="BackgroundImageFix" result="effect1_dropShadow_139_2874"/>
<feBlend mode="normal" in="SourceGraphic" in2="effect1_dropShadow_139_2874" result="shape"/>
</filter>
<linearGradient id="paint0_linear_139_2874" x1="349.284" y1="365.95" x2="500.616" y2="365.95" gradientUnits="userSpaceOnUse">
<stop stop-color="#1A1A1B"/>
<stop offset="1" stop-color="#1A1A1B" stop-opacity="0"/>
</linearGradient>
<linearGradient id="paint1_linear_139_2874" x1="402.295" y1="146.789" x2="319.731" y2="113.615" gradientUnits="userSpaceOnUse">
<stop stop-color="#3BAB22"/>
<stop offset="1" stop-color="#3BAB22" stop-opacity="0"/>
</linearGradient>
<linearGradient id="paint2_linear_139_2874" x1="187.776" y1="387.109" x2="266.654" y2="409.961" gradientUnits="userSpaceOnUse">
<stop stop-color="#3BAB22"/>
<stop offset="1" stop-color="#3BAB22" stop-opacity="0"/>
</linearGradient>
<linearGradient id="paint3_linear_139_2874" x1="283.9" y1="161.95" x2="132.568" y2="161.95" gradientUnits="userSpaceOnUse">
<stop stop-color="#3BAB22"/>
<stop offset="1" stop-color="#3BAB22" stop-opacity="0"/>
</linearGradient>
</defs>
</svg>
