<svg width="72" height="72" viewBox="0 0 72 72" fill="none" xmlns="http://www.w3.org/2000/svg">
<g filter="url(#filter0_i_269_3925)">
<path d="M54.8331 5.821C49.3618 2.38789 42.8954 0.395508 35.9597 0.395508C29.0239 0.395508 22.5575 2.38789 17.087 5.821C7.06426 12.1111 0.395599 23.2537 0.395599 35.9596C0.395599 48.6654 7.06426 59.808 17.087 66.0981C22.5575 69.5313 29.0239 71.5236 35.9597 71.5236C42.8954 71.5236 49.3618 69.5313 54.8331 66.0981C64.8559 59.808 71.5237 48.6654 71.5237 35.9596C71.5237 23.2537 64.8559 12.1111 54.8331 5.821Z" fill="#000099"/>
<path d="M63.6206 34.9638L60.5937 34.9401L59.7244 32.1187L58.7602 34.9954L55.8123 34.948L58.2465 36.7499L57.2902 39.5397L59.756 37.7773L62.119 39.5555L61.2022 36.6629L63.6206 34.9638Z" fill="#FFCC00"/>
<path d="M54.0894 27.5982L56.5552 25.8437L58.9182 27.614L58.0015 24.7215L60.4198 23.0302L57.3929 22.9986L56.5236 20.1851L55.5673 23.0539L52.6115 23.0065L55.0457 24.8084L54.0894 27.5982Z" fill="#FFCC00"/>
<path d="M48.0277 11.5625L47.0715 14.4392L44.1236 14.3918L46.5499 16.1858L45.6015 18.9835L48.0594 17.2211L50.4224 18.9914L49.5135 16.1068L51.924 14.4076L48.8971 14.3839L48.0277 11.5625Z" fill="#FFCC00"/>
<path d="M36.0861 8.24316L35.1298 11.112L32.182 11.0646L34.6161 12.8665L33.6599 15.6563L36.1177 13.9018L38.4808 15.6721L37.5719 12.7875L39.9824 11.0883L36.9634 11.0567L36.0861 8.24316Z" fill="#FFCC00"/>
<path d="M24.2709 11.4438L23.3147 14.3127L20.3589 14.2653L22.793 16.0672L21.8368 18.857L24.3025 17.1025L26.6656 18.8728L25.7567 15.9881L28.1672 14.289L25.1403 14.2574L24.2709 11.4438Z" fill="#FFCC00"/>
<path d="M15.4115 20.0586L14.4473 22.9274L11.4995 22.88L13.9336 24.6819L12.9774 27.4796L15.4431 25.7172L17.8062 27.4875L16.8894 24.6029L19.3078 22.9037L16.2809 22.88L15.4115 20.0586Z" fill="#FFCC00"/>
<path d="M12.2424 37.6586L14.6054 39.4289L13.6887 36.5443L16.107 34.8451L13.0801 34.8214L12.2108 32L11.2466 34.8688L8.29874 34.8214L10.7329 36.6233L9.77662 39.421L12.2424 37.6586Z" fill="#FFCC00"/>
<path d="M16.2809 47.0079L15.4115 44.1865L14.4473 47.0554L11.4995 47.0079L13.9336 48.8099L12.9774 51.5997L15.4431 49.8452L17.8062 51.6155L16.8894 48.7308L19.3078 47.0316L16.2809 47.0079Z" fill="#FFCC00"/>
<path d="M24.8953 55.8673L24.0259 53.0459L23.0618 55.9147L20.1139 55.8752L22.5481 57.6692L21.5918 60.4669L24.0576 58.7045L26.4206 60.4748L25.5038 57.5902L27.9222 55.891L24.8953 55.8673Z" fill="#FFCC00"/>
<path d="M36.8369 59.0685L35.9676 56.2471L35.0034 59.1238L32.0555 59.0764L34.4897 60.8783L33.5334 63.6681L35.9992 61.9057L38.3622 63.676L37.4454 60.7914L39.8638 59.0922L36.8369 59.0685Z" fill="#FFCC00"/>
<path d="M48.7785 55.8673L47.9092 53.0459L46.945 55.9147L43.9971 55.8752L46.4313 57.6692L45.475 60.4669L47.9408 58.7045L50.3038 60.4748L49.3871 57.5902L51.8054 55.891L48.7785 55.8673Z" fill="#FFCC00"/>
<path d="M57.6379 47.0079L56.7686 44.1865L55.8123 47.0554L52.8565 47.0079L55.2907 48.8099L54.3344 51.5997L56.8002 49.8452L59.1632 51.6155L58.2544 48.7308L60.6648 47.0316L57.6379 47.0079Z" fill="#FFCC00"/>
</g>
<defs>
<filter id="filter0_i_269_3925" x="0.395599" y="0.395508" width="71.1281" height="71.1279" filterUnits="userSpaceOnUse" color-interpolation-filters="sRGB">
<feFlood flood-opacity="0" result="BackgroundImageFix"/>
<feBlend mode="normal" in="SourceGraphic" in2="BackgroundImageFix" result="shape"/>
<feColorMatrix in="SourceAlpha" type="matrix" values="0 0 0 0 0 0 0 0 0 0 0 0 0 0 0 0 0 0 127 0" result="hardAlpha"/>
<feOffset/>
<feGaussianBlur stdDeviation="2"/>
<feComposite in2="hardAlpha" operator="arithmetic" k2="-1" k3="1"/>
<feColorMatrix type="matrix" values="0 0 0 0 0 0 0 0 0 0 0 0 0 0 0 0 0 0 0.25 0"/>
<feBlend mode="normal" in2="shape" result="effect1_innerShadow_269_3925"/>
</filter>
</defs>
</svg>
