<svg width="96" height="96" viewBox="0 0 96 96" fill="none" xmlns="http://www.w3.org/2000/svg">
<path fill-rule="evenodd" clip-rule="evenodd" d="M48.0008 4C45.0848 4 42.4044 4.75292 39.439 6.04828C36.563 7.30448 33.2278 9.16056 29.033 11.4951L12.4643 20.7157C10.1587 21.9988 8.22904 23.6104 6.90348 25.7834C5.57124 27.9672 5.00064 30.4692 5.00064 33.2763L5.00032 33.5406C4.99848 34.5624 4.9966 35.5989 5.24288 36.526C5.86272 38.8592 7.3398 40.3632 9.1488 41.1688C10.7784 41.8952 12.5488 42 13.8778 42H82.1236C83.4524 42 85.2228 41.8952 86.8524 41.1688C88.6616 40.3632 90.1384 38.8592 90.7584 36.526C91.0048 35.5989 91.0028 34.5624 91.0008 33.5406V33.2763C91.0008 30.4692 90.43 27.9672 89.098 25.7834C87.7724 23.6104 85.8428 21.9988 83.5368 20.7157L66.9684 11.4952C62.7736 9.16056 59.4384 7.30448 56.5624 6.04824C53.5968 4.75292 50.9168 4 48.0008 4ZM47.9844 23C45.7752 23 43.9844 24.7909 43.9844 27C43.9844 29.2091 45.7752 31 47.9844 31H48.0204C50.2296 31 52.0204 29.2091 52.0204 27C52.0204 24.7909 50.2296 23 48.0204 23H47.9844Z" fill="#1A1A1B"/>
<path d="M5 86C5 79.3724 11.7157 74 20 74H76C84.2844 74 91 79.3724 91 86C91 88.2092 88.7616 90 86 90H10C7.23856 90 5 88.2092 5 86Z" fill="#1A1A1B"/>
<g opacity="0.4">
<path d="M19.9998 69H33.4005C34.1547 69 34.5319 69 34.7662 68.7656C35.0005 68.5312 35.0005 68.1544 35.0005 67.4V48.6C35.0005 47.8456 35.0005 47.4688 34.7662 47.2344C34.5319 47 34.1547 47 33.4005 47H13.8783C13.8136 47 13.7813 47 13.7621 47.0008C13.3408 47.0212 13.0216 47.3404 13.0014 47.7616C13.0005 47.7808 13.0005 47.8084 13.0005 47.864V67.9532C13.0005 68.9776 13.0005 69.4896 13.307 69.73C13.6136 69.9704 14.1432 69.84 15.2024 69.5792C16.7394 69.2008 18.3462 69 19.9998 69Z" fill="#1A1A1B"/>
<path d="M76 69C77.654 69 79.2612 69.2008 80.7984 69.5792C81.8576 69.8404 82.3872 69.9708 82.694 69.7304C83.0004 69.4904 83.0004 68.978 83.0004 67.9536V47.8628C83.0004 47.8084 83.0004 47.7812 82.9996 47.7624C82.98 47.3404 82.66 47.0208 82.238 47.0008C82.2192 47 82.1876 47 82.124 47H62.6004C61.8464 47 61.4692 47 61.2348 47.2344C61.0004 47.4688 61.0004 47.8456 61.0004 48.6V67.4C61.0004 68.1544 61.0004 68.5312 61.2348 68.7656C61.4692 69 61.8464 69 62.6004 69H76Z" fill="#1A1A1B"/>
</g>
</svg>
