<svg width="56" height="56" viewBox="0 0 56 56" fill="none" xmlns="http://www.w3.org/2000/svg">
<path fill-rule="evenodd" clip-rule="evenodd" d="M15.7484 20.9169C15.7945 22.2048 14.7879 23.2861 13.5 23.3322C9.7246 23.4673 6.91235 26.2302 7.00213 29.5337C7.0215 30.2458 7.30817 31.2389 8.23098 34.1833C10.2282 40.5557 13.3114 45.2844 19.8978 46.4469C21.0958 46.6583 22.479 46.6671 25.8292 46.6671H30.1706C33.5208 46.6671 34.904 46.6583 36.102 46.4469C42.6885 45.2844 45.7718 40.5557 47.7689 34.1833C48.6917 31.2389 48.9782 30.2458 48.9976 29.5337C49.0874 26.2302 46.2753 23.4673 42.4997 23.3322C41.212 23.2861 40.2054 22.2048 40.2513 20.917C40.2975 19.6291 41.3788 18.6225 42.6666 18.6685C48.4938 18.8769 53.8351 23.316 53.6626 29.6606C53.6232 31.115 53.0963 32.7931 52.3452 35.1862C52.3046 35.315 52.2636 35.4459 52.222 35.5789C50.0341 42.56 46.0835 49.4237 36.9133 51.0426C35.2615 51.334 33.442 51.334 30.4294 51.3338C30.3442 51.3338 30.2579 51.3338 30.1706 51.3338H25.8292C25.742 51.3338 25.6556 51.3338 25.5702 51.3338C22.5579 51.334 20.7382 51.334 19.0866 51.0426C9.9163 49.4237 5.96585 42.56 3.77789 35.5789C3.73619 35.4459 3.6951 35.315 3.65464 35.186C2.90354 32.7931 2.37672 31.115 2.33719 29.6606C2.16474 23.316 7.50599 18.8769 13.3332 18.6685C14.621 18.6225 15.7024 19.6291 15.7484 20.9169Z" fill="#3BAB22"/>
<path opacity="0.4" fill-rule="evenodd" clip-rule="evenodd" d="M30.3471 7.00033C30.3471 5.71165 29.3022 4.66699 28.0137 4.66699C26.725 4.66699 25.6804 5.71165 25.6804 7.00033V24.5004H24.2937C23.884 24.5002 23.3807 24.4997 22.969 24.5513L22.9612 24.5522C22.6661 24.5891 21.322 24.7566 20.6819 26.0763C20.0403 27.3989 20.7448 28.566 20.8972 28.8185L20.9029 28.8278C21.1181 29.1848 21.4311 29.5836 21.6885 29.9116L21.7439 29.9821C22.4314 30.859 23.3227 31.9888 24.2104 32.9011C24.6533 33.3566 25.1603 33.826 25.6991 34.1966C26.1779 34.526 26.995 35.0004 28 35.0004C29.0049 35.0004 29.8221 34.526 30.3009 34.1966C30.8396 33.826 31.3467 33.3566 31.7895 32.9011C32.6774 31.9888 33.5685 30.859 34.2561 29.9821L34.3114 29.9116C34.5688 29.5836 34.8819 29.1848 35.097 28.8278L35.1026 28.8185C35.255 28.566 35.9597 27.3989 35.318 26.0763C34.678 24.7566 33.3337 24.5891 33.0388 24.5522L33.0309 24.5513C32.6193 24.4997 32.116 24.5002 31.7062 24.5004H30.3471V7.00033Z" fill="#3BAB22"/>
</svg>
