<svg width="72" height="72" viewBox="0 0 72 72" fill="none" xmlns="http://www.w3.org/2000/svg">
<g clip-path="url(#clip0_269_3972)" filter="url(#filter0_i_269_3972)">
<path d="M36 72C55.8823 72 72 55.8823 72 36C72 16.1177 55.8823 0 36 0C16.1177 0 0 16.1177 0 36C0 55.8823 16.1177 72 36 72Z" fill="white"/>
<g filter="url(#filter1_i_269_3972)">
<path d="M7.44206 14.0786C4.61423 17.7578 2.48193 21.9983 1.24036 26.6051H19.9685L7.44206 14.0786Z" fill="#0052B4"/>
<path d="M70.761 26.6059C69.5195 21.9993 67.387 17.7588 64.5593 14.0796L52.0331 26.6059H70.761Z" fill="#0052B4"/>
<path d="M1.24036 45.3906C2.48208 49.9972 4.61437 54.2378 7.44206 57.9168L19.9681 45.3906H1.24036Z" fill="#0052B4"/>
<path d="M57.9166 7.43915C54.2375 4.61132 49.9971 2.47902 45.3903 1.2373V19.9653L57.9166 7.43915Z" fill="#0052B4"/>
<path d="M14.0818 64.5529C17.761 67.3807 22.0016 69.513 26.6082 70.7547V52.0269L14.0818 64.5529Z" fill="#0052B4"/>
<path d="M26.608 1.2373C22.0014 2.47902 17.7609 4.61132 14.0818 7.439L26.608 19.9652V1.2373Z" fill="#0052B4"/>
<path d="M45.3903 70.7547C49.9969 69.513 54.2375 67.3807 57.9165 64.553L45.3903 52.0269V70.7547Z" fill="#0052B4"/>
<path d="M52.0331 45.3906L64.5593 57.9169C67.387 54.2379 69.5195 49.9972 70.761 45.3906H52.0331Z" fill="#0052B4"/>
</g>
<path d="M71.6953 31.3044H40.6959H40.6958V0.304734C39.1586 0.104625 37.5915 0 36 0C34.4083 0 32.8414 0.104625 31.3044 0.304734V31.3041V31.3043H0.304734C0.104625 32.8414 0 34.4085 0 36C0 37.5917 0.104625 39.1586 0.304734 40.6956H31.3041H31.3043V71.6953C32.8414 71.8954 34.4083 72 36 72C37.5915 72 39.1586 71.8955 40.6956 71.6953V40.6959V40.6958H71.6953C71.8954 39.1586 72 37.5917 72 36C72 34.4085 71.8954 32.8414 71.6953 31.3044Z" fill="#D80027"/>
<path d="M45.3913 45.3937L61.4557 61.4581C62.1946 60.7196 62.8994 59.9474 63.5719 59.147L49.8185 45.3936H45.3913V45.3937Z" fill="#D80027"/>
<path d="M26.6086 45.3936H26.6083L10.544 61.4579C11.2826 62.1967 12.0547 62.9015 12.8552 63.574L26.6086 49.8203V45.3936Z" fill="#D80027"/>
<path d="M26.6081 26.6073V26.6071L10.5437 10.5425C9.80483 11.281 9.10002 12.0532 8.42755 12.8537L22.1811 26.6072H26.6081V26.6073Z" fill="#D80027"/>
<path d="M45.3913 26.6104L61.4559 10.5457C60.7173 9.80683 59.9451 9.10202 59.1447 8.42969L45.3913 22.1832V26.6104Z" fill="#D80027"/>
</g>
<defs>
<filter id="filter0_i_269_3972" x="0" y="0" width="72" height="72" filterUnits="userSpaceOnUse" color-interpolation-filters="sRGB">
<feFlood flood-opacity="0" result="BackgroundImageFix"/>
<feBlend mode="normal" in="SourceGraphic" in2="BackgroundImageFix" result="shape"/>
<feColorMatrix in="SourceAlpha" type="matrix" values="0 0 0 0 0 0 0 0 0 0 0 0 0 0 0 0 0 0 127 0" result="hardAlpha"/>
<feOffset/>
<feGaussianBlur stdDeviation="2"/>
<feComposite in2="hardAlpha" operator="arithmetic" k2="-1" k3="1"/>
<feColorMatrix type="matrix" values="0 0 0 0 0 0 0 0 0 0 0 0 0 0 0 0 0 0 0.25 0"/>
<feBlend mode="normal" in2="shape" result="effect1_innerShadow_269_3972"/>
</filter>
<filter id="filter1_i_269_3972" x="1.24036" y="1.2373" width="69.5207" height="69.5176" filterUnits="userSpaceOnUse" color-interpolation-filters="sRGB">
<feFlood flood-opacity="0" result="BackgroundImageFix"/>
<feBlend mode="normal" in="SourceGraphic" in2="BackgroundImageFix" result="shape"/>
<feColorMatrix in="SourceAlpha" type="matrix" values="0 0 0 0 0 0 0 0 0 0 0 0 0 0 0 0 0 0 127 0" result="hardAlpha"/>
<feOffset/>
<feGaussianBlur stdDeviation="2"/>
<feComposite in2="hardAlpha" operator="arithmetic" k2="-1" k3="1"/>
<feColorMatrix type="matrix" values="0 0 0 0 0 0 0 0 0 0 0 0 0 0 0 0 0 0 0.25 0"/>
<feBlend mode="normal" in2="shape" result="effect1_innerShadow_269_3972"/>
</filter>
<clipPath id="clip0_269_3972">
<rect width="72" height="72" fill="white"/>
</clipPath>
</defs>
</svg>
