<svg width="97" height="96" viewBox="0 0 97 96" fill="none" xmlns="http://www.w3.org/2000/svg">
<path opacity="0.4" d="M70.1969 7C72.7389 6.99992 74.9045 6.9998 76.6781 7.20952C78.5745 7.43372 80.3229 7.9244 81.9057 9.10596C83.4801 10.281 84.4645 11.8218 85.2553 13.5822C86.0021 15.244 86.6825 17.3581 87.4893 19.8655L90.2745 28.5182L90.3341 28.7042C91.0385 30.8891 91.6033 32.6407 91.1897 35.2893C91.0185 36.387 90.7997 37.2877 90.4289 38.1218C90.0801 38.9064 89.6453 39.5075 89.3117 39.9682L89.2625 40.0368C85.3257 45.4872 78.1077 49 71.3505 49C67.0317 49 63.0421 47.5732 59.8397 45.1692C56.6369 47.5748 52.6489 49 48.3289 49C44.0113 49 40.0228 47.574 36.821 45.1712C33.6183 47.5756 29.6315 49 25.3128 49C18.5557 49 11.3376 45.4872 7.40094 40.0368L7.35146 39.9682C7.01818 39.5076 6.5833 38.9065 6.23446 38.1218C5.86362 37.2877 5.64482 36.387 5.4735 35.2892C5.06018 32.6407 5.62478 30.8891 6.32906 28.7041L6.38898 28.5182L9.12386 20.0212L9.17398 19.8656C9.98094 17.3581 10.6613 15.244 11.4079 13.5822C12.1986 11.8218 13.1833 10.281 14.7574 9.10596C16.3403 7.9244 18.0889 7.43372 19.9852 7.20952C21.7588 6.9998 23.9243 6.99992 26.4663 7H70.1969Z" fill="#1A1A1B"/>
<path fill-rule="evenodd" clip-rule="evenodd" d="M24.3333 70C24.3333 67.7908 26.1241 66 28.3333 66H44.3333C46.5425 66 48.3333 67.7908 48.3333 70C48.3333 72.2092 46.5425 74 44.3333 74H28.3333C26.1241 74 24.3333 72.2092 24.3333 70Z" fill="#1A1A1B"/>
<path d="M8.33326 41.2224V61.2836C8.33314 66.7 8.33302 71.1667 8.8083 74.7015C9.30726 78.4128 10.3951 81.6908 13.0196 84.3152C15.644 86.9396 18.9217 88.0271 22.633 88.5263C26.1681 89.0015 30.6345 89.0015 36.051 89.0011H60.6157C66.0321 89.0015 70.4985 89.0015 74.0337 88.5263C77.7449 88.0271 81.0225 86.9396 83.6469 84.3152C86.2712 81.6908 87.3593 78.4128 87.8585 74.7015C88.3336 71.1663 88.3333 66.7 88.3333 61.2836V41.2188C86.2205 43.692 83.4161 45.6924 80.3333 47.0452V61.0012C80.3333 66.7712 80.3249 70.6963 79.9296 73.6355C79.55 76.4599 78.8805 77.7679 77.9901 78.6579C77.0996 79.5483 75.7916 80.218 72.9677 80.5976C70.0285 80.9928 66.1033 81.0011 60.3333 81.0011H36.3333C30.5633 81.0011 26.6383 80.9928 23.699 80.5976C20.8748 80.218 19.5667 79.5483 18.6764 78.6579C17.7861 77.7679 17.1167 76.4599 16.7369 73.6355C16.3418 70.6963 16.3333 66.7712 16.3333 61.0012V47.0467C13.2509 45.6943 10.4465 43.6952 8.33326 41.2224Z" fill="#1A1A1B"/>
</svg>
