<svg width="844" height="340" viewBox="0 0 844 340" fill="none" xmlns="http://www.w3.org/2000/svg">
<g filter="url(#filter0_d_302_31302)">
<path d="M746 116H339C311.386 116 289 138.386 289 166C289 193.614 311.386 216 339 216H746C773.614 216 796 193.614 796 166C796 138.386 773.614 116 746 116Z" fill="#1A1A1B"/>
<path d="M451 166C451 152.745 440.255 142 427 142C413.745 142 403 152.745 403 166C403 179.255 413.745 190 427 190C440.255 190 451 179.255 451 166Z" fill="white"/>
<path fill-rule="evenodd" clip-rule="evenodd" d="M437.901 157.017C438.444 157.515 438.48 158.358 437.983 158.901L423.316 174.901C423.07 175.169 422.726 175.325 422.362 175.333C421.999 175.341 421.648 175.2 421.391 174.943L415.391 168.943C414.87 168.422 414.87 167.578 415.391 167.057C415.911 166.536 416.755 166.536 417.276 167.057L422.291 172.072L436.017 157.099C436.515 156.556 437.358 156.519 437.901 157.017Z" fill="#3BAB22"/>
<path d="M468.464 155V145.2H472.258C473.228 145.2 473.998 145.475 474.568 146.026C475.137 146.567 475.422 147.277 475.422 148.154C475.422 149.031 475.137 149.745 474.568 150.296C473.998 150.837 473.228 151.108 472.258 151.108H469.92V155H468.464ZM472.216 149.848C472.804 149.848 473.242 149.689 473.532 149.372C473.821 149.055 473.966 148.649 473.966 148.154C473.966 147.659 473.821 147.253 473.532 146.936C473.242 146.619 472.804 146.46 472.216 146.46H469.92V149.848H472.216ZM479.553 147.02L477.957 151.234H481.149L479.553 147.02ZM475.031 155L478.881 145.2H480.225L484.075 155H482.563L481.625 152.508H477.481L476.543 155H475.031ZM486.652 155V150.912L483.222 145.2H484.846L487.38 149.526L489.928 145.2H491.552L488.108 150.912V155H486.652ZM496.456 155.112C495.056 155.112 493.894 154.636 492.97 153.684C492.046 152.732 491.584 151.537 491.584 150.1C491.584 148.663 492.046 147.468 492.97 146.516C493.894 145.564 495.056 145.088 496.456 145.088C497.847 145.088 499.004 145.564 499.928 146.516C500.852 147.468 501.314 148.663 501.314 150.1C501.314 151.537 500.852 152.732 499.928 153.684C499.004 154.636 497.847 155.112 496.456 155.112ZM496.442 153.824C497.422 153.824 498.229 153.474 498.864 152.774C499.508 152.065 499.83 151.173 499.83 150.1C499.83 149.027 499.508 148.14 498.864 147.44C498.229 146.731 497.422 146.376 496.442 146.376C495.471 146.376 494.664 146.731 494.02 147.44C493.385 148.14 493.068 149.027 493.068 150.1C493.068 151.173 493.385 152.065 494.02 152.774C494.664 153.474 495.471 153.824 496.442 153.824ZM509.438 154.174C508.757 154.799 507.847 155.112 506.708 155.112C505.57 155.112 504.655 154.799 503.964 154.174C503.283 153.539 502.942 152.671 502.942 151.57V145.2H504.342V151.612C504.342 152.303 504.557 152.844 504.986 153.236C505.416 153.619 505.99 153.81 506.708 153.81C507.427 153.81 508.001 153.619 508.43 153.236C508.86 152.844 509.074 152.303 509.074 151.612V145.2H510.46V151.57C510.46 152.671 510.12 153.539 509.438 154.174ZM514.71 155V146.488H511.644V145.2H519.232V146.488H516.166V155H514.71ZM523.288 155V145.2H527.124C528.104 145.2 528.879 145.471 529.448 146.012C530.017 146.544 530.302 147.253 530.302 148.14C530.302 149.129 529.821 149.867 528.86 150.352C529.625 150.8 530.036 151.514 530.092 152.494L530.288 155H528.874L528.678 152.62C528.641 152.181 528.487 151.827 528.216 151.556C527.945 151.276 527.605 151.136 527.194 151.136H524.744V155H523.288ZM527.082 149.848C527.679 149.848 528.123 149.685 528.412 149.358C528.701 149.031 528.846 148.625 528.846 148.14C528.846 147.655 528.701 147.253 528.412 146.936C528.123 146.619 527.679 146.46 527.082 146.46H524.744V149.848H527.082ZM532.202 155V145.2H538.488V146.488H533.658V149.302H537.564V150.59H533.658V153.712H538.642V155H532.202ZM544.251 155.112C542.907 155.112 541.773 154.678 540.849 153.81C539.935 152.933 539.477 151.696 539.477 150.1C539.477 149.288 539.608 148.56 539.869 147.916C540.131 147.263 540.485 146.735 540.933 146.334C541.381 145.923 541.885 145.615 542.445 145.41C543.015 145.195 543.617 145.088 544.251 145.088C545.362 145.088 546.314 145.391 547.107 145.998C547.91 146.605 548.377 147.389 548.507 148.35H546.981C546.897 147.781 546.599 147.309 546.085 146.936C545.572 146.563 544.961 146.376 544.251 146.376C543.271 146.376 542.478 146.703 541.871 147.356C541.265 148.009 540.961 148.924 540.961 150.1C540.961 151.285 541.26 152.205 541.857 152.858C542.464 153.502 543.262 153.824 544.251 153.824C544.979 153.824 545.6 153.642 546.113 153.278C546.636 152.905 546.935 152.429 547.009 151.85H548.493C548.391 152.811 547.943 153.595 547.149 154.202C546.356 154.809 545.39 155.112 544.251 155.112ZM550.112 155V145.2H556.398V146.488H551.568V149.302H555.474V150.59H551.568V153.712H556.552V155H550.112ZM558.192 155V145.2H559.648V155H558.192ZM564.6 155L560.946 145.2H562.43L565.314 153.25L568.226 145.2H569.71L566.056 155H564.6ZM571.016 155V145.2H577.302V146.488H572.472V149.302H576.378V150.59H572.472V153.712H577.456V155H571.016ZM579.097 155V145.2H582.107C583.535 145.2 584.715 145.634 585.649 146.502C586.582 147.361 587.049 148.56 587.049 150.1C587.049 151.64 586.582 152.844 585.649 153.712C584.715 154.571 583.535 155 582.107 155H579.097ZM582.023 153.712C583.021 153.712 583.857 153.413 584.529 152.816C585.21 152.219 585.551 151.313 585.551 150.1C585.551 148.887 585.21 147.981 584.529 147.384C583.857 146.787 583.021 146.488 582.023 146.488H580.553V153.712H582.023Z" fill="white" fill-opacity="0.8"/>
<path d="M476.499 188.256C474.173 188.256 472.232 187.584 470.675 186.24C469.139 184.896 468.371 183.136 468.371 180.96H471.635C471.635 182.283 472.093 183.339 473.011 184.128C473.928 184.917 475.091 185.312 476.499 185.312C477.949 185.312 479.091 184.981 479.923 184.32C480.776 183.637 481.203 182.709 481.203 181.536C481.203 180.363 480.787 179.456 479.955 178.816C479.123 178.176 477.971 177.856 476.499 177.856H474.611V175.008H476.467C477.64 175.008 478.579 174.688 479.283 174.048C479.987 173.387 480.339 172.544 480.339 171.52C480.339 170.517 479.965 169.728 479.219 169.152C478.493 168.576 477.523 168.288 476.307 168.288C475.112 168.288 474.152 168.619 473.427 169.28C472.701 169.92 472.307 170.859 472.243 172.096H469.043C469.107 170.048 469.821 168.416 471.187 167.2C472.573 165.963 474.291 165.344 476.339 165.344C478.451 165.344 480.2 165.909 481.587 167.04C482.973 168.171 483.667 169.589 483.667 171.296C483.667 172.363 483.379 173.344 482.803 174.24C482.227 175.136 481.491 175.797 480.595 176.224C481.789 176.629 482.749 177.301 483.475 178.24C484.2 179.179 484.563 180.288 484.563 181.568C484.563 183.637 483.784 185.269 482.227 186.464C480.669 187.659 478.76 188.256 476.499 188.256ZM498.8 188V182.752H486.992V179.808L498.352 165.6H502.128V179.808H505.36V182.752H502.128V188H498.8ZM490.416 179.808H498.8V169.408L490.416 179.808ZM505.855 189.952C506.324 189.952 506.698 189.792 506.975 189.472C507.252 189.152 507.391 188.725 507.391 188.192V184.576H510.559V188.416C510.559 189.675 510.186 190.688 509.439 191.456C508.714 192.224 507.764 192.608 506.591 192.608H505.311V189.952H505.855ZM520.804 188.256C518.713 188.256 516.953 187.627 515.524 186.368C514.094 185.109 513.294 183.509 513.124 181.568H516.292C516.441 182.763 516.91 183.691 517.7 184.352C518.51 184.992 519.545 185.312 520.804 185.312C522.318 185.312 523.513 184.896 524.388 184.064C525.284 183.211 525.732 182.059 525.732 180.608C525.732 179.157 525.284 177.995 524.388 177.12C523.513 176.224 522.329 175.776 520.836 175.776C518.553 175.776 517.06 176.565 516.356 178.144H513.54L515.332 165.6H527.556V168.544H517.828L516.932 174.592C518.126 173.504 519.598 172.96 521.348 172.96C523.63 172.96 525.497 173.675 526.948 175.104C528.398 176.533 529.124 178.368 529.124 180.608C529.124 182.869 528.345 184.715 526.788 186.144C525.23 187.552 523.236 188.256 520.804 188.256ZM534.732 188C534.754 185.973 534.988 184.096 535.436 182.368C535.906 180.64 536.802 178.709 538.124 176.576L543.116 168.544H530.572V165.6H546.86V168.256L540.844 178.08C539.756 179.872 539.02 181.515 538.636 183.008C538.274 184.501 538.082 186.165 538.06 188H534.732ZM556.756 188.256C554.068 188.256 552.084 187.371 550.804 185.6C549.546 183.808 548.916 181.163 548.916 177.664V175.936C548.916 172.437 549.546 169.803 550.804 168.032C552.084 166.24 554.068 165.344 556.756 165.344H557.908C560.618 165.344 562.602 166.24 563.86 168.032C565.119 169.803 565.748 172.437 565.748 175.936V177.664C565.748 181.163 565.119 183.808 563.86 185.6C562.602 187.371 560.618 188.256 557.908 188.256H556.756ZM557.812 185.312C560.884 185.312 562.42 182.976 562.42 178.304V175.296C562.42 170.624 560.884 168.288 557.812 168.288H556.884C553.812 168.288 552.276 170.624 552.276 175.296V178.304C552.276 182.976 553.812 185.312 556.884 185.312H557.812ZM568.607 184.576H572.063V188H568.607V184.576ZM575.602 173.056C575.517 170.688 576.168 168.811 577.554 167.424C578.941 166.037 580.818 165.344 583.186 165.344C585.405 165.344 587.208 165.973 588.594 167.232C589.981 168.469 590.674 170.101 590.674 172.128C590.674 175.093 588.925 177.472 585.426 179.264L582.13 180.928C581.17 181.397 580.349 181.995 579.666 182.72C579.005 183.424 578.674 184.203 578.674 185.056H590.738V188H575.41V185.6C575.41 184.405 575.709 183.285 576.306 182.24C576.904 181.195 577.565 180.373 578.29 179.776C579.037 179.157 579.848 178.635 580.722 178.208L584.21 176.448C586.258 175.403 587.282 173.952 587.282 172.096C587.282 170.923 586.898 169.984 586.13 169.28C585.384 168.555 584.402 168.192 583.186 168.192C581.842 168.192 580.786 168.64 580.018 169.536C579.272 170.411 578.93 171.584 578.994 173.056H575.602ZM600.537 165.6V188H597.209V170.784C596.804 171.317 596.047 171.584 594.937 171.584H592.953V168.64H594.681C595.492 168.64 596.111 168.427 596.537 168C596.964 167.552 597.22 166.752 597.305 165.6H600.537ZM627.716 186.112C626.159 187.541 624.079 188.256 621.476 188.256C618.873 188.256 616.783 187.541 615.204 186.112C613.647 184.661 612.868 182.677 612.868 180.16V165.6H616.068V180.256C616.068 181.835 616.559 183.072 617.54 183.968C618.521 184.843 619.833 185.28 621.476 185.28C623.119 185.28 624.431 184.843 625.412 183.968C626.393 183.072 626.884 181.835 626.884 180.256V165.6H630.052V180.16C630.052 182.677 629.273 184.661 627.716 186.112ZM642.07 188.256C639.574 188.256 637.558 187.563 636.022 186.176C634.486 184.768 633.654 182.901 633.526 180.576H636.758C636.886 182.027 637.409 183.179 638.326 184.032C639.265 184.885 640.513 185.312 642.07 185.312C643.564 185.312 644.748 185.024 645.622 184.448C646.497 183.851 646.934 182.965 646.934 181.792C646.934 181.067 646.7 180.459 646.23 179.968C645.761 179.477 645.153 179.093 644.406 178.816C643.66 178.539 642.838 178.283 641.942 178.048C641.046 177.813 640.15 177.547 639.254 177.248C638.358 176.949 637.537 176.587 636.79 176.16C636.044 175.712 635.436 175.083 634.966 174.272C634.497 173.461 634.262 172.501 634.262 171.392C634.262 169.6 634.966 168.149 636.374 167.04C637.804 165.909 639.649 165.344 641.91 165.344C644.193 165.344 646.06 165.963 647.51 167.2C648.961 168.416 649.75 170.048 649.878 172.096H646.678C646.55 170.944 646.06 170.027 645.206 169.344C644.353 168.64 643.254 168.288 641.91 168.288C640.566 168.288 639.5 168.565 638.71 169.12C637.942 169.675 637.558 170.432 637.558 171.392C637.558 172.117 637.793 172.725 638.262 173.216C638.732 173.707 639.34 174.08 640.086 174.336C640.854 174.592 641.686 174.827 642.582 175.04C643.5 175.253 644.406 175.509 645.302 175.808C646.22 176.107 647.052 176.48 647.798 176.928C648.566 177.355 649.185 177.984 649.654 178.816C650.124 179.627 650.358 180.608 650.358 181.76C650.358 183.765 649.59 185.355 648.054 186.528C646.518 187.68 644.524 188.256 642.07 188.256ZM654.216 188V165.6H661.096C664.36 165.6 667.059 166.592 669.192 168.576C671.326 170.539 672.392 173.28 672.392 176.8C672.392 180.32 671.326 183.072 669.192 185.056C667.059 187.019 664.36 188 661.096 188H654.216ZM660.904 185.056C663.187 185.056 665.096 184.373 666.632 183.008C668.19 181.643 668.968 179.573 668.968 176.8C668.968 174.027 668.19 171.957 666.632 170.592C665.096 169.227 663.187 168.544 660.904 168.544H657.544V185.056H660.904Z" fill="white"/>
</g>
<g filter="url(#filter1_d_302_31302)">
<path d="M329 116H98C70.3858 116 48 138.386 48 166C48 193.614 70.3858 216 98 216H329C356.614 216 379 193.614 379 166C379 138.386 356.614 116 329 116Z" fill="white"/>
<path d="M120 166C120 152.745 109.255 142 96 142C82.7452 142 72 152.745 72 166C72 179.255 82.7452 190 96 190C109.255 190 120 179.255 120 166Z" fill="#3BAB22" fill-opacity="0.15"/>
<path d="M104.868 152.632C106.128 152.247 107.367 152.134 108.41 152.908C109.457 153.687 109.692 154.906 109.667 156.215C109.643 157.505 109.356 159.208 108.999 161.324L107.698 169.037C107.467 170.406 107.276 171.539 107 172.402C106.71 173.309 106.273 174.092 105.437 174.582C104.603 175.07 103.704 175.07 102.765 174.887C101.879 174.714 100.8 174.342 99.4948 173.89L99.4857 173.903L98.3712 175.509C98.3633 175.52 98.3553 175.531 98.3469 175.542L98.2989 175.606C97.3425 176.868 96.5632 177.898 95.9004 178.571C95.2801 179.201 94.4176 179.886 93.3537 179.602C92.2248 179.301 91.9139 178.212 91.7929 177.371C91.6642 176.476 91.6643 175.232 91.6643 173.724V171.182L102.664 159.333L88.6643 170.138C87.1307 169.593 85.8677 169.108 84.9101 168.619C83.5626 167.931 82.4164 167.035 82.3353 165.57C82.2541 164.105 83.2955 163.089 84.5593 162.26C85.8456 161.415 87.7558 160.512 90.1671 159.372L100.088 154.683C102.049 153.757 103.623 153.012 104.868 152.632Z" fill="#3BAB22"/>
<path d="M137.495 155V145.2H141.289C142.26 145.2 143.03 145.475 143.599 146.026C144.168 146.567 144.453 147.277 144.453 148.154C144.453 149.031 144.168 149.745 143.599 150.296C143.03 150.837 142.26 151.108 141.289 151.108H138.951V155H137.495ZM141.247 149.848C141.835 149.848 142.274 149.689 142.563 149.372C142.852 149.055 142.997 148.649 142.997 148.154C142.997 147.659 142.852 147.253 142.563 146.936C142.274 146.619 141.835 146.46 141.247 146.46H138.951V149.848H141.247ZM148.584 147.02L146.988 151.234H150.18L148.584 147.02ZM144.062 155L147.912 145.2H149.256L153.106 155H151.594L150.656 152.508H146.512L145.574 155H144.062ZM155.684 155V150.912L152.254 145.2H153.878L156.412 149.526L158.96 145.2H160.584L157.14 150.912V155H155.684ZM165.487 155.112C164.087 155.112 162.925 154.636 162.001 153.684C161.077 152.732 160.615 151.537 160.615 150.1C160.615 148.663 161.077 147.468 162.001 146.516C162.925 145.564 164.087 145.088 165.487 145.088C166.878 145.088 168.035 145.564 168.959 146.516C169.883 147.468 170.345 148.663 170.345 150.1C170.345 151.537 169.883 152.732 168.959 153.684C168.035 154.636 166.878 155.112 165.487 155.112ZM165.473 153.824C166.453 153.824 167.261 153.474 167.895 152.774C168.539 152.065 168.861 151.173 168.861 150.1C168.861 149.027 168.539 148.14 167.895 147.44C167.261 146.731 166.453 146.376 165.473 146.376C164.503 146.376 163.695 146.731 163.051 147.44C162.417 148.14 162.099 149.027 162.099 150.1C162.099 151.173 162.417 152.065 163.051 152.774C163.695 153.474 164.503 153.824 165.473 153.824ZM178.47 154.174C177.788 154.799 176.878 155.112 175.74 155.112C174.601 155.112 173.686 154.799 172.995 154.174C172.314 153.539 171.974 152.671 171.974 151.57V145.2H173.374V151.612C173.374 152.303 173.588 152.844 174.018 153.236C174.447 153.619 175.021 153.81 175.74 153.81C176.458 153.81 177.032 153.619 177.462 153.236C177.891 152.844 178.106 152.303 178.106 151.612V145.2H179.492V151.57C179.492 152.671 179.151 153.539 178.47 154.174ZM183.741 155V146.488H180.675V145.2H188.263V146.488H185.197V155H183.741ZM195.427 155.112C194.335 155.112 193.453 154.809 192.781 154.202C192.109 153.586 191.745 152.769 191.689 151.752H193.103C193.159 152.387 193.388 152.891 193.789 153.264C194.2 153.637 194.746 153.824 195.427 153.824C196.081 153.824 196.599 153.698 196.981 153.446C197.364 153.185 197.555 152.797 197.555 152.284C197.555 151.967 197.453 151.701 197.247 151.486C197.042 151.271 196.776 151.103 196.449 150.982C196.123 150.861 195.763 150.749 195.371 150.646C194.979 150.543 194.587 150.427 194.195 150.296C193.803 150.165 193.444 150.007 193.117 149.82C192.791 149.624 192.525 149.349 192.319 148.994C192.114 148.639 192.011 148.219 192.011 147.734C192.011 146.95 192.319 146.315 192.935 145.83C193.561 145.335 194.368 145.088 195.357 145.088C196.356 145.088 197.173 145.359 197.807 145.9C198.442 146.432 198.787 147.146 198.843 148.042H197.443C197.387 147.538 197.173 147.137 196.799 146.838C196.426 146.53 195.945 146.376 195.357 146.376C194.769 146.376 194.303 146.497 193.957 146.74C193.621 146.983 193.453 147.314 193.453 147.734C193.453 148.051 193.556 148.317 193.761 148.532C193.967 148.747 194.233 148.91 194.559 149.022C194.895 149.134 195.259 149.237 195.651 149.33C196.053 149.423 196.449 149.535 196.841 149.666C197.243 149.797 197.607 149.96 197.933 150.156C198.269 150.343 198.54 150.618 198.745 150.982C198.951 151.337 199.053 151.766 199.053 152.27C199.053 153.147 198.717 153.843 198.045 154.356C197.373 154.86 196.501 155.112 195.427 155.112ZM200.741 155V145.2H207.027V146.488H202.197V149.302H206.103V150.59H202.197V153.712H207.181V155H200.741ZM208.821 155V145.2H210.445L215.163 152.746V145.2H216.619V155H215.009L210.277 147.468V155H208.821ZM220.956 155V146.488H217.89V145.2H225.478V146.488H222.412V155H220.956Z" fill="#454745"/>
<path d="M145.499 188.256C143.173 188.256 141.232 187.584 139.675 186.24C138.139 184.896 137.371 183.136 137.371 180.96H140.635C140.635 182.283 141.093 183.339 142.011 184.128C142.928 184.917 144.091 185.312 145.499 185.312C146.949 185.312 148.091 184.981 148.923 184.32C149.776 183.637 150.203 182.709 150.203 181.536C150.203 180.363 149.787 179.456 148.955 178.816C148.123 178.176 146.971 177.856 145.499 177.856H143.611V175.008H145.467C146.64 175.008 147.579 174.688 148.283 174.048C148.987 173.387 149.339 172.544 149.339 171.52C149.339 170.517 148.965 169.728 148.219 169.152C147.493 168.576 146.523 168.288 145.307 168.288C144.112 168.288 143.152 168.619 142.427 169.28C141.701 169.92 141.307 170.859 141.243 172.096H138.043C138.107 170.048 138.821 168.416 140.187 167.2C141.573 165.963 143.291 165.344 145.339 165.344C147.451 165.344 149.2 165.909 150.587 167.04C151.973 168.171 152.667 169.589 152.667 171.296C152.667 172.363 152.379 173.344 151.803 174.24C151.227 175.136 150.491 175.797 149.595 176.224C150.789 176.629 151.749 177.301 152.475 178.24C153.2 179.179 153.563 180.288 153.563 181.568C153.563 183.637 152.784 185.269 151.227 186.464C149.669 187.659 147.76 188.256 145.499 188.256ZM167.8 188V182.752H155.992V179.808L167.352 165.6H171.128V179.808H174.36V182.752H171.128V188H167.8ZM159.416 179.808H167.8V169.408L159.416 179.808ZM174.855 189.952C175.324 189.952 175.698 189.792 175.975 189.472C176.252 189.152 176.391 188.725 176.391 188.192V184.576H179.559V188.416C179.559 189.675 179.186 190.688 178.439 191.456C177.714 192.224 176.764 192.608 175.591 192.608H174.311V189.952H174.855ZM189.804 188.256C187.713 188.256 185.953 187.627 184.524 186.368C183.094 185.109 182.294 183.509 182.124 181.568H185.292C185.441 182.763 185.91 183.691 186.7 184.352C187.51 184.992 188.545 185.312 189.804 185.312C191.318 185.312 192.513 184.896 193.388 184.064C194.284 183.211 194.732 182.059 194.732 180.608C194.732 179.157 194.284 177.995 193.388 177.12C192.513 176.224 191.329 175.776 189.836 175.776C187.553 175.776 186.06 176.565 185.356 178.144H182.54L184.332 165.6H196.556V168.544H186.828L185.932 174.592C187.126 173.504 188.598 172.96 190.348 172.96C192.63 172.96 194.497 173.675 195.948 175.104C197.398 176.533 198.124 178.368 198.124 180.608C198.124 182.869 197.345 184.715 195.788 186.144C194.23 187.552 192.236 188.256 189.804 188.256ZM203.732 188C203.754 185.973 203.988 184.096 204.436 182.368C204.906 180.64 205.802 178.709 207.124 176.576L212.116 168.544H199.572V165.6H215.86V168.256L209.844 178.08C208.756 179.872 208.02 181.515 207.636 183.008C207.274 184.501 207.082 186.165 207.06 188H203.732ZM225.756 188.256C223.068 188.256 221.084 187.371 219.804 185.6C218.546 183.808 217.916 181.163 217.916 177.664V175.936C217.916 172.437 218.546 169.803 219.804 168.032C221.084 166.24 223.068 165.344 225.756 165.344H226.908C229.618 165.344 231.602 166.24 232.86 168.032C234.119 169.803 234.748 172.437 234.748 175.936V177.664C234.748 181.163 234.119 183.808 232.86 185.6C231.602 187.371 229.618 188.256 226.908 188.256H225.756ZM226.812 185.312C229.884 185.312 231.42 182.976 231.42 178.304V175.296C231.42 170.624 229.884 168.288 226.812 168.288H225.884C222.812 168.288 221.276 170.624 221.276 175.296V178.304C221.276 182.976 222.812 185.312 225.884 185.312H226.812ZM237.607 184.576H241.063V188H237.607V184.576ZM244.602 173.056C244.517 170.688 245.168 168.811 246.554 167.424C247.941 166.037 249.818 165.344 252.186 165.344C254.405 165.344 256.208 165.973 257.594 167.232C258.981 168.469 259.674 170.101 259.674 172.128C259.674 175.093 257.925 177.472 254.426 179.264L251.13 180.928C250.17 181.397 249.349 181.995 248.666 182.72C248.005 183.424 247.674 184.203 247.674 185.056H259.738V188H244.41V185.6C244.41 184.405 244.709 183.285 245.306 182.24C245.904 181.195 246.565 180.373 247.29 179.776C248.037 179.157 248.848 178.635 249.722 178.208L253.21 176.448C255.258 175.403 256.282 173.952 256.282 172.096C256.282 170.923 255.898 169.984 255.13 169.28C254.384 168.555 253.402 168.192 252.186 168.192C250.842 168.192 249.786 168.64 249.018 169.536C248.272 170.411 247.93 171.584 247.994 173.056H244.602ZM269.537 165.6V188H266.209V170.784C265.804 171.317 265.047 171.584 263.937 171.584H261.953V168.64H263.681C264.492 168.64 265.111 168.427 265.537 168C265.964 167.552 266.22 166.752 266.305 165.6H269.537ZM296.716 186.112C295.159 187.541 293.079 188.256 290.476 188.256C287.873 188.256 285.783 187.541 284.204 186.112C282.647 184.661 281.868 182.677 281.868 180.16V165.6H285.068V180.256C285.068 181.835 285.559 183.072 286.54 183.968C287.521 184.843 288.833 185.28 290.476 185.28C292.119 185.28 293.431 184.843 294.412 183.968C295.393 183.072 295.884 181.835 295.884 180.256V165.6H299.052V180.16C299.052 182.677 298.273 184.661 296.716 186.112ZM311.07 188.256C308.574 188.256 306.558 187.563 305.022 186.176C303.486 184.768 302.654 182.901 302.526 180.576H305.758C305.886 182.027 306.409 183.179 307.326 184.032C308.265 184.885 309.513 185.312 311.07 185.312C312.564 185.312 313.748 185.024 314.622 184.448C315.497 183.851 315.934 182.965 315.934 181.792C315.934 181.067 315.7 180.459 315.23 179.968C314.761 179.477 314.153 179.093 313.406 178.816C312.66 178.539 311.838 178.283 310.942 178.048C310.046 177.813 309.15 177.547 308.254 177.248C307.358 176.949 306.537 176.587 305.79 176.16C305.044 175.712 304.436 175.083 303.966 174.272C303.497 173.461 303.262 172.501 303.262 171.392C303.262 169.6 303.966 168.149 305.374 167.04C306.804 165.909 308.649 165.344 310.91 165.344C313.193 165.344 315.06 165.963 316.51 167.2C317.961 168.416 318.75 170.048 318.878 172.096H315.678C315.55 170.944 315.06 170.027 314.206 169.344C313.353 168.64 312.254 168.288 310.91 168.288C309.566 168.288 308.5 168.565 307.71 169.12C306.942 169.675 306.558 170.432 306.558 171.392C306.558 172.117 306.793 172.725 307.262 173.216C307.732 173.707 308.34 174.08 309.086 174.336C309.854 174.592 310.686 174.827 311.582 175.04C312.5 175.253 313.406 175.509 314.302 175.808C315.22 176.107 316.052 176.48 316.798 176.928C317.566 177.355 318.185 177.984 318.654 178.816C319.124 179.627 319.358 180.608 319.358 181.76C319.358 183.765 318.59 185.355 317.054 186.528C315.518 187.68 313.524 188.256 311.07 188.256ZM323.216 188V165.6H330.096C333.36 165.6 336.059 166.592 338.192 168.576C340.326 170.539 341.392 173.28 341.392 176.8C341.392 180.32 340.326 183.072 338.192 185.056C336.059 187.019 333.36 188 330.096 188H323.216ZM329.904 185.056C332.187 185.056 334.096 184.373 335.632 183.008C337.19 181.643 337.968 179.573 337.968 176.8C337.968 174.027 337.19 171.957 335.632 170.592C334.096 169.227 332.187 168.544 329.904 168.544H326.544V185.056H329.904Z" fill="#1A1A1B"/>
</g>
<path d="M796 166C796 138.386 773.614 116 746 116C718.386 116 696 138.386 696 166C696 193.614 718.386 216 746 216C773.614 216 796 193.614 796 166Z" fill="#3BAB22"/>
<path d="M743.837 179.925C741.346 179.498 739.354 178.433 737.86 176.728C736.391 175.023 735.605 172.879 735.5 170.295H741.163C741.294 171.734 741.792 172.866 742.657 173.691C743.549 174.517 744.728 174.93 746.197 174.93C747.534 174.93 748.596 174.65 749.382 174.091C750.169 173.532 750.562 172.733 750.562 171.694C750.562 170.974 750.326 170.402 749.854 169.976C749.408 169.523 748.845 169.176 748.163 168.937C747.481 168.697 746.511 168.417 745.253 168.098C743.391 167.645 741.858 167.165 740.652 166.659C739.472 166.127 738.449 165.287 737.584 164.142C736.719 162.997 736.287 161.425 736.287 159.427C736.287 157.403 736.968 155.698 738.331 154.313C739.721 152.901 741.556 152.022 743.837 151.676V148H748.91V151.876C751.034 152.382 752.712 153.381 753.944 154.872C755.202 156.337 755.858 158.149 755.91 160.306H750.326C750.195 159.188 749.736 158.309 748.949 157.669C748.163 157.003 747.127 156.67 745.843 156.67C744.663 156.67 743.732 156.923 743.051 157.43C742.369 157.936 742.028 158.602 742.028 159.427C742.028 160.2 742.264 160.812 742.736 161.265C743.208 161.718 743.811 162.078 744.545 162.344C745.279 162.584 746.288 162.85 747.573 163.143C749.461 163.596 750.994 164.062 752.174 164.542C753.354 165.021 754.363 165.834 755.202 166.979C756.067 168.098 756.5 169.643 756.5 171.614C756.5 173.798 755.818 175.623 754.455 177.088C753.092 178.526 751.243 179.458 748.91 179.885V184L743.837 183.96V179.925Z" fill="white"/>
<g filter="url(#filter2_d_302_31302)">
<path d="M617 44H237C217.118 44 201 60.1177 201 80C201 99.8823 217.118 116 237 116H617C636.882 116 653 99.8823 653 80C653 60.1177 636.882 44 617 44Z" fill="url(#paint0_linear_302_31302)"/>
</g>
<path d="M653 80C653 60.1177 636.882 44 617 44C597.118 44 581 60.1177 581 80C581 99.8823 597.118 116 617 116C636.882 116 653 99.8823 653 80Z" fill="white"/>
<g filter="url(#filter3_d_302_31302)">
<path d="M524 216H144C124.118 216 108 232.118 108 252C108 271.882 124.118 288 144 288H524C543.882 288 560 271.882 560 252C560 232.118 543.882 216 524 216Z" fill="url(#paint1_linear_302_31302)"/>
</g>
<path d="M560 252C560 232.118 543.882 216 524 216C504.118 216 488 232.118 488 252C488 271.882 504.118 288 524 288C543.882 288 560 271.882 560 252Z" fill="white"/>
<defs>
<filter id="filter0_d_302_31302" x="241" y="72" width="603" height="196" filterUnits="userSpaceOnUse" color-interpolation-filters="sRGB">
<feFlood flood-opacity="0" result="BackgroundImageFix"/>
<feColorMatrix in="SourceAlpha" type="matrix" values="0 0 0 0 0 0 0 0 0 0 0 0 0 0 0 0 0 0 127 0" result="hardAlpha"/>
<feOffset dy="4"/>
<feGaussianBlur stdDeviation="24"/>
<feComposite in2="hardAlpha" operator="out"/>
<feColorMatrix type="matrix" values="0 0 0 0 0.101961 0 0 0 0 0.101961 0 0 0 0 0.105882 0 0 0 0.07 0"/>
<feBlend mode="normal" in2="BackgroundImageFix" result="effect1_dropShadow_302_31302"/>
<feBlend mode="normal" in="SourceGraphic" in2="effect1_dropShadow_302_31302" result="shape"/>
</filter>
<filter id="filter1_d_302_31302" x="0" y="72" width="427" height="196" filterUnits="userSpaceOnUse" color-interpolation-filters="sRGB">
<feFlood flood-opacity="0" result="BackgroundImageFix"/>
<feColorMatrix in="SourceAlpha" type="matrix" values="0 0 0 0 0 0 0 0 0 0 0 0 0 0 0 0 0 0 127 0" result="hardAlpha"/>
<feOffset dy="4"/>
<feGaussianBlur stdDeviation="24"/>
<feComposite in2="hardAlpha" operator="out"/>
<feColorMatrix type="matrix" values="0 0 0 0 0.101961 0 0 0 0 0.101961 0 0 0 0 0.105882 0 0 0 0.07 0"/>
<feBlend mode="normal" in2="BackgroundImageFix" result="effect1_dropShadow_302_31302"/>
<feBlend mode="normal" in="SourceGraphic" in2="effect1_dropShadow_302_31302" result="shape"/>
</filter>
<filter id="filter2_d_302_31302" x="153" y="0" width="548" height="168" filterUnits="userSpaceOnUse" color-interpolation-filters="sRGB">
<feFlood flood-opacity="0" result="BackgroundImageFix"/>
<feColorMatrix in="SourceAlpha" type="matrix" values="0 0 0 0 0 0 0 0 0 0 0 0 0 0 0 0 0 0 127 0" result="hardAlpha"/>
<feOffset dy="4"/>
<feGaussianBlur stdDeviation="24"/>
<feComposite in2="hardAlpha" operator="out"/>
<feColorMatrix type="matrix" values="0 0 0 0 0.101961 0 0 0 0 0.101961 0 0 0 0 0.105882 0 0 0 0.07 0"/>
<feBlend mode="normal" in2="BackgroundImageFix" result="effect1_dropShadow_302_31302"/>
<feBlend mode="normal" in="SourceGraphic" in2="effect1_dropShadow_302_31302" result="shape"/>
</filter>
<filter id="filter3_d_302_31302" x="60" y="172" width="548" height="168" filterUnits="userSpaceOnUse" color-interpolation-filters="sRGB">
<feFlood flood-opacity="0" result="BackgroundImageFix"/>
<feColorMatrix in="SourceAlpha" type="matrix" values="0 0 0 0 0 0 0 0 0 0 0 0 0 0 0 0 0 0 127 0" result="hardAlpha"/>
<feOffset dy="4"/>
<feGaussianBlur stdDeviation="24"/>
<feComposite in2="hardAlpha" operator="out"/>
<feColorMatrix type="matrix" values="0 0 0 0 0.101961 0 0 0 0 0.101961 0 0 0 0 0.105882 0 0 0 0.07 0"/>
<feBlend mode="normal" in2="BackgroundImageFix" result="effect1_dropShadow_302_31302"/>
<feBlend mode="normal" in="SourceGraphic" in2="effect1_dropShadow_302_31302" result="shape"/>
</filter>
<linearGradient id="paint0_linear_302_31302" x1="305" y1="80" x2="653" y2="80" gradientUnits="userSpaceOnUse">
<stop stop-color="#3BAB22" stop-opacity="0"/>
<stop offset="1" stop-color="#3BAB22"/>
</linearGradient>
<linearGradient id="paint1_linear_302_31302" x1="212" y1="252" x2="560" y2="252" gradientUnits="userSpaceOnUse">
<stop stop-color="#3BAB22" stop-opacity="0"/>
<stop offset="1" stop-color="#3BAB22"/>
</linearGradient>
</defs>
</svg>
