<svg width="904" height="365" viewBox="0 0 904 365" fill="none" xmlns="http://www.w3.org/2000/svg">
<g style="mix-blend-mode:multiply" opacity="0.17">
<path d="M91.1638 324.472C66.0202 320.233 45.9054 309.638 30.8192 292.685C15.9978 275.732 8.0577 254.408 6.99902 228.714H64.1676C65.4909 243.018 70.5196 254.276 79.2537 262.487C88.2524 270.699 100.163 274.805 114.984 274.805C128.482 274.805 139.201 272.023 147.141 266.461C155.081 260.898 159.051 252.951 159.051 242.62C159.051 235.468 156.669 229.773 151.905 225.535C147.406 221.032 141.716 217.588 134.834 215.204C127.953 212.82 118.16 210.039 105.456 206.86C86.6644 202.357 71.1813 197.589 59.0065 192.556C47.0964 187.258 36.7743 178.914 28.0402 167.524C19.3061 156.134 14.9391 140.505 14.9391 120.638C14.9391 100.506 21.8205 83.5535 35.5833 69.7792C49.6108 55.7399 68.1376 46.9985 91.1638 43.5549V7H142.377V45.5416C163.816 50.5746 180.754 60.508 193.194 75.3419C205.898 89.9109 212.515 107.923 213.044 129.38H156.669C155.346 118.254 150.714 109.513 142.774 103.155C134.834 96.5331 124.38 93.222 111.411 93.222C99.5009 93.222 90.1051 95.7384 83.2237 100.771C76.3423 105.804 72.9016 112.427 72.9016 120.638C72.9016 128.32 75.2837 134.412 80.0477 138.916C84.8118 143.419 90.8991 146.995 98.3099 149.644C105.721 152.028 115.91 154.677 128.879 157.59C147.935 162.094 163.419 166.729 175.329 171.497C187.239 176.265 197.428 184.344 205.898 195.735C214.632 206.86 218.999 222.224 218.999 241.826C218.999 263.547 212.118 281.692 198.355 296.261C184.592 310.565 165.933 319.836 142.377 324.074V365L91.1638 364.603V324.472Z" fill="#1C5210"/>
</g>
<path d="M84.1638 317.472C59.0202 313.233 38.9054 302.638 23.8192 285.685C8.99778 268.732 1.0577 247.408 -0.000976562 221.714H57.1676C58.4909 236.018 63.5196 247.276 72.2537 255.487C81.2524 263.699 93.1626 267.805 107.984 267.805C121.482 267.805 132.201 265.023 140.141 259.461C148.081 253.898 152.051 245.951 152.051 235.62C152.051 228.468 149.669 222.773 144.905 218.535C140.406 214.032 134.716 210.588 127.834 208.204C120.953 205.82 111.16 203.039 98.4559 199.86C79.6644 195.357 64.1813 190.589 52.0065 185.556C40.0964 180.258 29.7743 171.914 21.0402 160.524C12.3061 149.134 7.9391 133.505 7.9391 113.638C7.9391 93.5065 14.8205 76.5535 28.5833 62.7792C42.6108 48.7399 61.1376 39.9985 84.1638 36.5549V0H135.377V38.5416C156.816 43.5746 173.754 53.508 186.194 68.3419C198.898 82.9109 205.515 100.923 206.044 122.38H149.669C148.346 111.254 143.714 102.513 135.774 96.1554C127.834 89.5331 117.38 86.222 104.411 86.222C92.5009 86.222 83.1051 88.7384 76.2237 93.7714C69.3423 98.8043 65.9016 105.427 65.9016 113.638C65.9016 121.32 68.2837 127.412 73.0477 131.916C77.8118 136.419 83.8991 139.995 91.3099 142.644C98.7206 145.028 108.91 147.677 121.879 150.59C140.935 155.094 156.419 159.729 168.329 164.497C180.239 169.265 190.428 177.344 198.898 188.735C207.632 199.86 211.999 215.224 211.999 234.826C211.999 256.547 205.118 274.692 191.355 289.261C177.592 303.565 158.933 312.836 135.377 317.074V358L84.1638 357.603V317.472Z" fill="white"/>
<g style="mix-blend-mode:multiply" opacity="0.17">
<path d="M412.41 346.086C498.046 346.086 567.468 276.648 567.468 190.992C567.468 105.337 498.046 35.8987 412.41 35.8987C326.773 35.8987 257.352 105.337 257.352 190.992C257.352 276.648 326.773 346.086 412.41 346.086Z" fill="#1C5210"/>
</g>
<path d="M516.153 291.524C578.467 229.195 578.467 128.14 516.153 65.8114C453.838 3.48247 352.806 3.48246 290.492 65.8114C228.177 128.14 228.177 229.195 290.492 291.524C352.806 353.853 453.838 353.853 516.153 291.524Z" fill="#1C5210"/>
<path fill-rule="evenodd" clip-rule="evenodd" d="M308 103.822C308 98.2987 312.477 93.8215 318 93.8215H353C358.523 93.8215 363 98.2987 363 103.822V138.666C363 144.189 358.523 148.666 353 148.666C347.477 148.666 343 144.189 343 138.666V125.748C330.545 139.857 323 158.381 323 178.667C323 222.849 358.817 258.667 403 258.667C409.124 258.667 415.076 257.98 420.787 256.684C426.173 255.462 431.53 258.838 432.752 264.224C433.974 269.609 430.599 274.966 425.213 276.188C418.059 277.812 410.623 278.667 403 278.667C347.771 278.667 303 233.895 303 178.667C303 153.919 311.993 131.275 326.873 113.822H318C312.477 113.822 308 109.344 308 103.822Z" fill="white"/>
<path opacity="0.4" fill-rule="evenodd" clip-rule="evenodd" d="M403 98.6665C396.876 98.6665 390.924 99.3528 385.213 100.649C379.827 101.871 374.47 98.4955 373.248 93.1095C372.026 87.7236 375.401 82.3667 380.787 81.1446C387.941 79.5214 395.377 78.6665 403 78.6665C458.229 78.6665 503 123.438 503 178.667C503 203.487 493.953 226.193 478.994 243.667H488C493.523 243.667 498 248.144 498 253.667C498 259.189 493.523 263.667 488 263.667H452.767C447.244 263.667 442.767 259.189 442.767 253.667V218.667C442.767 213.144 447.244 208.667 452.767 208.667C458.29 208.667 462.767 213.144 462.767 218.667V231.848C475.361 217.706 483 199.078 483 178.667C483 134.484 447.183 98.6665 403 98.6665Z" fill="white"/>
<g style="mix-blend-mode:multiply" opacity="0.17">
<path d="M904.001 250.085C901.322 279.284 889.863 302.674 869.624 320.253C849.682 337.832 824.085 346.621 792.834 346.621H770.511C736.58 346.621 709.495 337.981 689.256 320.7C669.016 303.418 655.772 278.093 649.521 244.722H608.001V202.711H645.503V169.638H608.001V127.627H649.521C655.772 94.5543 669.016 69.5264 689.256 52.5431C709.495 35.2617 736.58 26.6213 770.511 26.6213H792.834C823.49 26.6213 848.789 35.113 868.731 52.0962C888.672 69.0794 900.131 91.5745 903.108 119.582H835.693C833.312 108.856 827.954 100.364 819.621 94.1074C811.585 87.5522 801.763 84.275 790.155 84.275H773.636C758.159 84.275 745.509 87.9991 735.687 95.4482C726.162 102.897 719.615 113.623 716.043 127.627H801.316V169.638H712.472V202.711H801.316V244.722H715.597C719.168 259.024 725.865 269.899 735.687 277.348C745.509 284.797 758.159 288.521 773.636 288.521H790.155C802.656 288.521 813.073 285.094 821.407 278.241C829.74 271.091 834.949 261.705 837.033 250.085H904.001Z" fill="#1C5210"/>
</g>
<path d="M896.001 242.085C893.322 271.284 881.863 294.674 861.624 312.253C841.682 329.832 816.085 338.621 784.834 338.621H762.511C728.58 338.621 701.495 329.981 681.256 312.7C661.016 295.418 647.772 270.093 641.521 236.722H600.001V194.711H637.503V161.638H600.001V119.627H641.521C647.772 86.5543 661.016 61.5264 681.256 44.5431C701.495 27.2617 728.58 18.6213 762.511 18.6213H784.834C815.49 18.6213 840.789 27.113 860.731 44.0962C880.672 61.0794 892.131 83.5745 895.108 111.582H827.693C825.312 100.856 819.954 92.3643 811.621 86.1074C803.585 79.5522 793.763 76.275 782.155 76.275H765.636C750.159 76.275 737.509 79.9991 727.687 87.4482C718.162 94.8972 711.615 105.623 708.043 119.627H793.316V161.638H704.472V194.711H793.316V236.722H707.597C711.168 251.024 717.865 261.899 727.687 269.348C737.509 276.797 750.159 280.521 765.636 280.521H782.155C794.656 280.521 805.073 277.094 813.407 270.241C821.74 263.091 826.949 253.705 829.033 242.085H896.001Z" fill="#F7F7F7"/>
</svg>
