<svg width="56" height="56" viewBox="0 0 56 56" fill="none" xmlns="http://www.w3.org/2000/svg">
<path fill-rule="evenodd" clip-rule="evenodd" d="M28 6.99967C16.4021 6.99967 7.00004 16.4017 7.00004 27.9997C7.00004 39.5977 16.4021 48.9997 28 48.9997C39.598 48.9997 49 39.5977 49 27.9997C49 16.4017 39.598 6.99967 28 6.99967ZM2.33337 27.9997C2.33337 13.8244 13.8247 2.33301 28 2.33301C42.1754 2.33301 53.6667 13.8244 53.6667 27.9997C53.6667 42.175 42.1754 53.6663 28 53.6663C13.8247 53.6663 2.33337 42.175 2.33337 27.9997Z" fill="#3BAB22"/>
<path fill-rule="evenodd" clip-rule="evenodd" d="M29.65 3.01643L28 4.66634L26.3501 3.01643C27.2613 2.1052 28.7387 2.1052 29.65 3.01643ZM28 51.333C26.3501 52.9829 26.3495 52.9823 26.3488 52.9816L26.3436 52.9763L26.3336 52.9663L26.3037 52.9359C26.2795 52.911 26.2465 52.877 26.2056 52.834C26.1236 52.7479 26.0094 52.6258 25.8674 52.4686C25.5837 52.1545 25.1886 51.6998 24.7197 51.1135C23.7829 49.9426 22.5443 48.2384 21.3075 46.074C18.8394 41.7548 16.3334 35.5218 16.3334 27.9997C16.3334 20.4775 18.8394 14.2445 21.3075 9.92535C22.5443 7.76092 23.7829 6.05679 24.7197 4.8858C25.1886 4.29959 25.5837 3.84487 25.8674 3.53073C26.0094 3.37359 26.1236 3.25143 26.2056 3.16538C26.2465 3.12235 26.2795 3.08833 26.3037 3.06346L26.3336 3.03303L26.3436 3.023L26.3473 3.01928C26.348 3.0186 26.3501 3.01643 28 4.66634C29.65 3.01643 29.6493 3.01575 29.65 3.01643L29.6528 3.01928L29.6565 3.023L29.6665 3.03303L29.6963 3.06346C29.7206 3.08833 29.7535 3.12235 29.7945 3.16538C29.8765 3.25143 29.9907 3.37359 30.1327 3.53073C30.4164 3.84487 30.8114 4.29959 31.2804 4.8858C32.2172 6.05679 33.4558 7.76092 34.6926 9.92535C37.1607 14.2445 39.6667 20.4775 39.6667 27.9997C39.6667 35.5218 37.1607 41.7548 34.6926 46.074C33.4558 48.2384 32.2172 49.9426 31.2804 51.1135C30.8114 51.6998 30.4164 52.1545 30.1327 52.4686C29.9907 52.6258 29.8765 52.7479 29.7945 52.834C29.7535 52.877 29.7206 52.911 29.6963 52.9359L29.6665 52.9663L29.6565 52.9763L29.6528 52.9801C29.6521 52.9807 29.65 52.9829 28 51.333ZM28 51.333L26.3488 52.9816C27.26 53.8928 28.7387 53.8941 29.65 52.9829L28 51.333ZM28 47.7346C28.7613 46.745 29.7004 45.4044 30.6408 43.7587C32.8394 39.9112 35 34.4775 35 27.9997C35 21.5218 32.8394 16.0882 30.6408 12.2407C29.7004 10.595 28.7613 9.25433 28 8.26472C27.2387 9.25433 26.2997 10.595 25.3593 12.2407C23.1607 16.0882 21 21.5218 21 27.9997C21 34.4775 23.1607 39.9112 25.3593 43.7587C26.2997 45.4044 27.2387 46.745 28 47.7346ZM26.347 6.3131C26.3464 6.31248 26.3465 6.3126 26.347 6.3131V6.3131ZM29.6529 6.31328C29.6534 6.31279 29.6535 6.31267 29.6529 6.31328V6.31328Z" fill="#3BAB22"/>
<path opacity="0.4" fill-rule="evenodd" clip-rule="evenodd" d="M4.66663 21.0003C4.66663 19.7117 5.71129 18.667 6.99996 18.667H49C50.2886 18.667 51.3333 19.7117 51.3333 21.0003C51.3333 22.289 50.2886 23.3337 49 23.3337H6.99996C5.71129 23.3337 4.66663 22.289 4.66663 21.0003Z" fill="#3BAB22"/>
<path opacity="0.4" fill-rule="evenodd" clip-rule="evenodd" d="M4.66663 35.0003C4.66663 33.7117 5.71129 32.667 6.99996 32.667H49C50.2886 32.667 51.3333 33.7117 51.3333 35.0003C51.3333 36.289 50.2886 37.3337 49 37.3337H6.99996C5.71129 37.3337 4.66663 36.289 4.66663 35.0003Z" fill="#3BAB22"/>
</svg>
