<svg width="97" height="96" viewBox="0 0 97 96" fill="none" xmlns="http://www.w3.org/2000/svg">
<path d="M8.7865 58.5195C8.7865 58.6395 8.70654 58.7996 8.70654 58.9196C12.3865 66.2796 18.3865 72.3195 25.7465 75.9595C25.8665 75.9595 26.0265 75.8795 26.1465 75.8795C24.7865 71.2395 23.7465 66.4795 22.9865 61.7195C18.1865 60.9195 13.4265 59.8795 8.7865 58.5195Z" fill="#1A1A1B"/>
<path d="M76.9464 25.7217C73.1864 17.8417 66.8263 11.4817 58.9863 7.76172C60.4263 12.5217 61.6264 17.4017 62.4264 22.2817C67.3064 23.0817 72.1864 24.2417 76.9464 25.7217Z" fill="#1A1A1B"/>
<path d="M8.38672 25.7181C13.1867 24.2781 18.0668 23.0782 22.9468 22.2782C23.7468 17.5182 24.7467 12.7982 26.1067 8.1582C25.9867 8.1582 25.8268 8.07812 25.7068 8.07812C18.1868 11.7981 12.0667 18.0781 8.38672 25.7181Z" fill="#1A1A1B"/>
<path opacity="0.4" d="M55.9468 21.4409C54.9868 16.2409 53.7868 11.041 52.0668 6.00098C51.9868 5.72098 51.9868 5.48101 51.9468 5.16101C48.9868 4.44101 45.8667 3.96094 42.6667 3.96094C39.4267 3.96094 36.3468 4.40101 33.3468 5.16101C33.3068 5.44101 33.3467 5.68098 33.2667 6.00098C31.5867 11.041 30.3467 16.2409 29.3867 21.4409C38.2267 20.4809 47.1068 20.4809 55.9468 21.4409Z" fill="#1A1A1B"/>
<path opacity="0.4" d="M22.1064 28.7188C16.8664 29.6787 11.7065 30.8788 6.6665 32.5988C6.3865 32.6788 6.14654 32.6788 5.82654 32.7188C5.10654 35.6788 4.62646 38.7988 4.62646 41.9988C4.62646 45.2388 5.06654 48.3187 5.82654 51.3187C6.10654 51.3587 6.3465 51.3188 6.6665 51.3988C11.7065 53.0788 16.8664 54.3188 22.1064 55.2788C21.1464 46.4388 21.1464 37.5588 22.1064 28.7188Z" fill="#1A1A1B"/>
<path opacity="0.4" d="M79.4666 32.7188C79.1866 32.7188 78.9465 32.6788 78.6265 32.5988C73.5865 30.9188 68.3865 29.6787 63.1865 28.7188C64.1865 37.5588 64.1865 46.4388 63.1865 55.2388C68.3865 54.2788 73.5865 53.0788 78.6265 51.3588C78.9065 51.2788 79.1466 51.3188 79.4666 51.2788C80.1866 48.2788 80.6665 45.1987 80.6665 41.9587C80.6665 38.7987 80.2266 35.7188 79.4666 32.7188Z" fill="#1A1A1B"/>
<path opacity="0.4" d="M29.3867 62.5586C30.3467 67.7986 31.5467 72.9585 33.2667 77.9985C33.3467 78.2785 33.3068 78.5185 33.3468 78.8385C36.3468 79.5585 39.4267 80.0386 42.6667 80.0386C45.8667 80.0386 48.9868 79.5985 51.9468 78.8385C51.9868 78.5585 51.9868 78.3185 52.0668 77.9985C53.7468 72.9585 54.9868 67.7986 55.9468 62.5586C51.5468 63.0386 47.1067 63.3986 42.6667 63.3986C38.2267 63.3586 33.7867 63.0386 29.3867 62.5586Z" fill="#1A1A1B"/>
<path d="M28.4664 27.7984C27.2664 37.2384 27.2664 46.7584 28.4664 56.2384C37.9064 57.4384 47.4263 57.4384 56.9063 56.2384C58.1063 46.7984 58.1063 37.2784 56.9063 27.7984C47.4263 26.5984 37.9064 26.5984 28.4664 27.7984Z" fill="#1A1A1B"/>
<path fill-rule="evenodd" clip-rule="evenodd" d="M79.2665 51.8004C81.0337 50.4748 83.5409 50.8328 84.8665 52.6004L90.8665 60.6004C91.7757 61.8124 91.9217 63.434 91.2441 64.7892C90.5665 66.1444 89.1817 67.0004 87.6665 67.0004H63.6665C63.6665 69.2092 61.8757 71.0004 59.6665 71.0004C57.4573 71.0004 55.6665 69.2092 55.6665 67.0004V63.0004C55.6665 60.7912 57.4573 59.0004 59.6665 59.0004H79.6665L78.4665 57.4004C77.1409 55.6328 77.4993 53.1256 79.2665 51.8004ZM87.6665 71.0004C89.8757 71.0004 91.6665 72.7912 91.6665 75.0004V79.0004C91.6665 81.2092 89.8757 83.0004 87.6665 83.0004H67.6665L68.8665 84.6004C70.1921 86.3676 69.8337 88.8748 68.0665 90.2004C66.2993 91.5256 63.7921 91.1676 62.4665 89.4004L56.4665 81.4004C55.5573 80.188 55.4113 78.5664 56.0889 77.2112C56.7665 75.8564 58.1513 75.0004 59.6665 75.0004H83.6665C83.6665 72.7912 85.4573 71.0004 87.6665 71.0004Z" fill="#1A1A1B"/>
</svg>
