<svg width="57" height="56" viewBox="0 0 57 56" fill="none" xmlns="http://www.w3.org/2000/svg">
<path fill-rule="evenodd" clip-rule="evenodd" d="M16.9987 2.92017C9.58887 2.92017 3.58203 8.92701 3.58203 16.3368C3.58203 20.9346 5.89558 24.9902 9.41537 27.4062L9.41518 41.9195C9.41361 43.5496 9.41238 44.8397 9.9038 46.0262C10.3952 47.2124 11.3083 48.1238 12.4621 49.2753L15.7613 52.5742C16.4447 53.2576 17.5527 53.2576 18.2361 52.5742L23.1552 47.6551L23.2 47.6105C23.3815 47.4294 23.5752 47.236 23.7425 47.0171C24.1749 46.4515 24.4521 45.7828 24.5461 45.077C24.5825 44.804 24.5823 44.4162 24.582 44.1597C24.5823 43.9516 24.5825 43.7292 24.558 43.5052C24.4948 42.9263 24.3086 42.3677 24.0118 41.8665C23.8968 41.6726 23.7633 41.4948 23.6383 41.3285L21.5195 38.5035L22.5015 37.1945C23.2945 36.1387 23.9215 35.3043 24.2528 34.3105C24.5839 33.3167 24.5832 32.2728 24.5823 30.9524L24.582 27.4062C28.1019 24.9902 30.4154 20.9346 30.4154 16.3368C30.4154 8.92701 24.4084 2.92017 16.9987 2.92017ZM16.983 12.8368C15.0587 12.8368 13.4987 14.4038 13.4987 16.3368C13.4987 18.2698 15.0587 19.8368 16.983 19.8368H17.0144C18.9387 19.8368 20.4987 18.2698 20.4987 16.3368C20.4987 14.4038 18.9387 12.8368 17.0144 12.8368H16.983Z" fill="#3BAB22"/>
<path opacity="0.4" d="M32.8595 25.0329C32.2365 26.1662 31.925 26.733 32.1283 27.0765C32.3317 27.4202 32.9377 27.4202 34.1501 27.4202H45.0608C46.0979 27.4202 46.9636 27.4202 47.6743 27.3716C48.4142 27.3212 49.1133 27.2125 49.7909 26.9318C51.3631 26.2806 52.6121 25.0313 53.2634 23.4591C53.5441 22.7815 53.653 22.0826 53.7034 21.3427C53.752 20.6319 53.752 19.7662 53.752 18.7292V18.6112C53.752 17.5742 53.752 16.7084 53.7034 15.9977C53.653 15.2578 53.5441 14.5589 53.2634 13.8813C52.6121 12.309 51.3631 11.0599 49.7909 10.4086C49.1133 10.128 48.4142 10.0191 47.6743 9.96863C46.9636 9.92014 46.0979 9.92014 45.061 9.92017H35.9426C35.041 9.92017 34.5902 9.92017 34.3802 10.1907C34.1699 10.4612 34.2882 10.9254 34.5251 11.8537C34.8907 13.2873 35.0851 14.7893 35.0851 16.3368C35.0851 19.4905 34.2766 22.4543 32.8595 25.0329Z" fill="#3BAB22"/>
<path opacity="0.4" d="M45.059 30.9202C46.096 30.9202 46.9616 30.9202 47.6724 30.9687C48.4123 31.0191 49.1113 31.1281 49.7887 31.4085C51.3611 32.0598 52.6102 33.309 53.2614 34.8812C53.5421 35.5588 53.6511 36.2577 53.7015 36.9976C53.75 37.7083 53.75 38.5744 53.75 39.6111V39.7294C53.75 40.7664 53.75 41.632 53.7015 42.3428C53.6511 43.0827 53.5421 43.7815 53.2614 44.4591C52.6102 46.0313 51.3611 47.2806 49.7887 47.9318C49.1113 48.2125 48.4123 48.3212 47.6724 48.3716C46.9616 48.4202 46.096 48.4202 45.0588 48.4202H30.65C29.9899 48.4202 29.66 48.4202 29.4549 48.2151C29.25 48.0102 29.25 47.68 29.25 47.0202V32.3202C29.25 31.6603 29.25 31.3301 29.4549 31.1253C29.66 30.9202 29.9899 30.9202 30.65 30.9202H45.059Z" fill="#3BAB22"/>
</svg>
