<svg width="131" height="36" viewBox="0 0 131 36" fill="none" xmlns="http://www.w3.org/2000/svg">
                <path d="M29.9986 27.1172L13.6458 17.9882L0 26.1646L15.2493 36.0001L29.9986 27.1172Z" fill="url(#paint0_linear_122_227601)"/>
                <path d="M29.9986 27.1172L13.6458 17.9882L0 26.1646L15.2493 36.0001L29.9986 27.1172Z" fill="url(#paint1_linear_122_227601)"/>
                <path d="M29.3476 8.54947L15.2176 0L0 9.90691V26.1644L29.3476 8.54947Z" fill="url(#paint2_linear_122_227601)"/>
                <path d="M50.6695 28.9427C47.8911 28.9427 45.5493 28.0377 43.6521 26.2358C41.7548 24.4338 40.8022 21.8777 40.8022 18.5754C40.8022 16.8925 41.0721 15.3842 41.6119 14.0426C42.1517 12.7011 42.8821 11.6135 43.8108 10.7721C44.7396 9.93063 45.7875 9.29558 46.9544 8.85897C48.1213 8.42237 49.3597 8.20804 50.6774 8.20804C52.9716 8.20804 54.9482 8.83516 56.5993 10.0894C58.2505 11.3436 59.211 12.963 59.4809 14.9555H56.3215C56.1468 13.7807 55.5277 12.8043 54.4719 12.0343C53.4082 11.2643 52.146 10.8753 50.6774 10.8753C48.6532 10.8753 47.0099 11.55 45.7557 12.8995C44.5015 14.249 43.8743 16.1383 43.8743 18.5754C43.8743 21.0124 44.4935 22.9255 45.7398 24.2671C46.9861 25.6086 48.6293 26.2754 50.6774 26.2754C52.1857 26.2754 53.4717 25.8944 54.5433 25.1323C55.615 24.3703 56.2262 23.3939 56.385 22.1952H59.4571C59.2428 24.1798 58.3219 25.8071 56.6787 27.0613C55.0355 28.3156 53.043 28.9427 50.6853 28.9427H50.6695Z" fill="white"/>
                <path d="M67.1177 28.9425C64.9188 28.9425 63.1962 28.2439 61.9658 26.8547C60.7275 25.4656 60.1162 23.6477 60.1162 21.4091C60.1162 19.1705 60.7354 17.3765 61.9658 15.9794C63.2042 14.5822 64.9109 13.8837 67.0939 13.8837C68.0227 13.8837 68.9118 14.0901 69.7612 14.4949C70.6105 14.8998 71.2535 15.4237 71.6981 16.0587V14.1218H74.5082V28.7123H71.6981V26.7436C71.3488 27.3787 70.7534 27.9105 69.904 28.3233C69.0547 28.7361 68.1259 28.9425 67.1257 28.9425H67.1177ZM64.1806 25.0925C64.9982 26.0212 66.0858 26.4816 67.4353 26.4816C68.7848 26.4816 69.8723 26.0212 70.6899 25.0925C71.5076 24.1637 71.9204 22.9412 71.9204 21.4171C71.9204 19.8929 71.5076 18.6704 70.6899 17.7417C69.8723 16.8129 68.7848 16.3525 67.4353 16.3525C66.0858 16.3525 64.9982 16.8129 64.1806 17.7417C63.3629 18.6704 62.9502 19.8929 62.9502 21.4171C62.9502 22.9412 63.3629 24.1637 64.1806 25.0925Z" fill="white"/>
                <path d="M77.1602 34.6186V14.1221H79.9703V16.2972C80.4148 15.5669 81.0499 14.9795 81.8834 14.5428C82.709 14.1062 83.6298 13.8919 84.63 13.8919C86.7892 13.8919 88.488 14.5905 89.7105 15.9876C90.933 17.3847 91.5522 19.1947 91.5522 21.4174C91.5522 23.6401 90.9171 25.45 89.6549 26.8471C88.3928 28.2442 86.6702 28.9428 84.4871 28.9428C83.5187 28.9428 82.6375 28.7364 81.8199 28.3236C81.0023 27.9108 80.391 27.3552 79.9703 26.6566V34.6186H77.1602ZM80.9705 25.0928C81.7881 26.0215 82.8757 26.4819 84.2252 26.4819C85.5747 26.4819 86.6622 26.0215 87.4799 25.0928C88.2975 24.164 88.7103 22.9415 88.7103 21.4174C88.7103 19.8932 88.2975 18.6707 87.4799 17.742C86.6622 16.8132 85.5747 16.3528 84.2252 16.3528C82.8757 16.3528 81.7881 16.8132 80.9705 17.742C80.1529 18.6707 79.7401 19.8932 79.7401 21.4174C79.7401 22.9415 80.1529 24.164 80.9705 25.0928Z" fill="white"/>
                <path d="M99.6252 28.9428C97.4422 28.9428 95.6799 28.1966 94.3304 26.7122C92.9809 25.2277 92.3062 23.4337 92.3062 21.33C92.3062 19.2264 92.9333 17.4324 94.1875 16.0194C95.4418 14.5984 97.1564 13.8919 99.3394 13.8919C101.522 13.8919 103.197 14.5587 104.42 15.8923C105.642 17.226 106.262 18.8612 106.262 20.8141C106.262 21.203 106.246 21.5682 106.206 21.9175H95.0607C95.1798 23.3067 95.6481 24.4259 96.4817 25.2753C97.3072 26.1247 98.363 26.5455 99.6331 26.5455C101.832 26.5455 103.142 25.6881 103.571 23.9655H106.381C106.111 25.4738 105.365 26.6804 104.15 27.5854C102.935 28.4903 101.427 28.9428 99.6331 28.9428H99.6252ZM95.1401 19.8535H103.42C103.324 18.7342 102.92 17.8372 102.205 17.1625C101.491 16.4877 100.538 16.1464 99.3394 16.1464C96.9818 16.1464 95.5846 17.3847 95.1401 19.8535Z" fill="white"/>
                <path d="M114.421 16.5511C112.064 16.5511 110.889 18.4007 110.889 22.1078V28.7045H108.079V14.114H110.889V16.9242C111.214 15.9398 111.691 15.2254 112.31 14.7808C112.929 14.3363 113.747 14.114 114.771 14.114H116.533V16.5431H114.421V16.5511Z" fill="white"/>
                <path d="M123.074 28.9425C120.875 28.9425 119.153 28.2439 117.922 26.8547C116.684 25.4656 116.073 23.6477 116.073 21.4091C116.073 19.1705 116.692 17.3765 117.922 15.9794C119.161 14.5822 120.867 13.8837 123.05 13.8837C123.979 13.8837 124.868 14.0901 125.718 14.4949C126.567 14.8998 127.21 15.4237 127.655 16.0587V14.1218H130.465V28.7123H127.655V26.7436C127.305 27.3787 126.71 27.9105 125.861 28.3233C125.011 28.7361 124.082 28.9425 123.082 28.9425H123.074ZM120.137 25.0925C120.955 26.0212 122.042 26.4816 123.392 26.4816C124.741 26.4816 125.829 26.0212 126.646 25.0925C127.464 24.1637 127.877 22.9412 127.877 21.4171C127.877 19.8929 127.464 18.6704 126.646 17.7417C125.829 16.8129 124.741 16.3525 123.392 16.3525C122.042 16.3525 120.955 16.8129 120.137 17.7417C119.319 18.6704 118.907 19.8929 118.907 21.4171C118.907 22.9412 119.319 24.1637 120.137 25.0925Z" fill="white"/>
                <defs>
                <linearGradient id="paint0_linear_122_227601" x1="0" y1="26.9981" x2="29.9986" y2="26.9981" gradientUnits="userSpaceOnUse">
                <stop stop-color="#1246BB"/>
                <stop offset="1" stop-color="#00AEED"/>
                </linearGradient>
                <linearGradient id="paint1_linear_122_227601" x1="0" y1="26.9981" x2="29.9986" y2="26.9981" gradientUnits="userSpaceOnUse">
                <stop stop-color="#008232"/>
                <stop offset="1" stop-color="#5FC518"/>
                </linearGradient>
                <linearGradient id="paint2_linear_122_227601" x1="0" y1="13.0822" x2="52.2733" y2="13.0822" gradientUnits="userSpaceOnUse">
                <stop stop-color="#252525"/>
                <stop offset="1" stop-color="#4E4E4E"/>
                </linearGradient>
                </defs>
</svg>