<svg width="131" height="36" viewBox="0 0 131 36" fill="none" xmlns="http://www.w3.org/2000/svg">
<path d="M29.9986 27.1172L13.6458 17.9883L0 26.1647L15.2493 36.0001L29.9986 27.1172Z" fill="url(#paint0_linear_236_4212)"/>
<path d="M29.9986 27.1172L13.6458 17.9883L0 26.1647L15.2493 36.0001L29.9986 27.1172Z" fill="url(#paint1_linear_236_4212)"/>
<path d="M29.3476 8.54947L15.2176 0L0 9.90691V26.1644L29.3476 8.54947Z" fill="url(#paint2_linear_236_4212)"/>
<path d="M50.67 28.9427C47.8916 28.9427 45.5498 28.0377 43.6526 26.2357C41.7553 24.4338 40.8027 21.8776 40.8027 18.5753C40.8027 16.8924 41.0726 15.3842 41.6124 14.0426C42.1522 12.701 42.8825 11.6135 43.8113 10.7721C44.7401 9.9306 45.7879 9.29555 46.9549 8.85894C48.1218 8.42234 49.3601 8.20801 50.6779 8.20801C52.972 8.20801 54.9487 8.83513 56.5998 10.0894C58.251 11.3436 59.2115 12.963 59.4814 14.9555H56.322C56.1473 13.7806 55.5282 12.8042 54.4724 12.0342C53.4086 11.2642 52.1465 10.8753 50.6779 10.8753C48.6536 10.8753 47.0104 11.55 45.7562 12.8995C44.5019 14.249 43.8748 16.1383 43.8748 18.5753C43.8748 21.0124 44.494 22.9255 45.7403 24.267C46.9866 25.6086 48.6298 26.2754 50.6779 26.2754C52.1862 26.2754 53.4721 25.8944 54.5438 25.1323C55.6155 24.3702 56.2267 23.3938 56.3855 22.1952H59.4576C59.2432 24.1797 58.3224 25.8071 56.6792 27.0613C55.036 28.3155 53.0435 28.9427 50.6858 28.9427H50.67Z" fill="#1A1A1B"/>
<path d="M67.1177 28.9426C64.9188 28.9426 63.1962 28.2441 61.9658 26.8549C60.7275 25.4657 60.1162 23.6478 60.1162 21.4092C60.1162 19.1707 60.7354 17.3766 61.9658 15.9795C63.2042 14.5824 64.9109 13.8838 67.0939 13.8838C68.0227 13.8838 68.9118 14.0902 69.7612 14.495C70.6105 14.8999 71.2535 15.4238 71.6981 16.0589V14.1219H74.5082V28.7124H71.6981V26.7437C71.3488 27.3788 70.7534 27.9106 69.904 28.3234C69.0547 28.7362 68.1259 28.9426 67.1257 28.9426H67.1177ZM64.1806 25.0926C64.9982 26.0213 66.0858 26.4818 67.4353 26.4818C68.7848 26.4818 69.8723 26.0213 70.6899 25.0926C71.5076 24.1638 71.9204 22.9413 71.9204 21.4172C71.9204 19.893 71.5076 18.6705 70.6899 17.7418C69.8723 16.813 68.7848 16.3526 67.4353 16.3526C66.0858 16.3526 64.9982 16.813 64.1806 17.7418C63.3629 18.6705 62.9502 19.893 62.9502 21.4172C62.9502 22.9413 63.3629 24.1638 64.1806 25.0926Z" fill="#1A1A1B"/>
<path d="M77.1611 34.6188V14.1223H79.9713V16.2974C80.4158 15.5671 81.0509 14.9796 81.8844 14.543C82.71 14.1064 83.6308 13.8921 84.631 13.8921C86.7902 13.8921 88.489 14.5907 89.7115 15.9878C90.934 17.3849 91.5531 19.1948 91.5531 21.4175C91.5531 23.6402 90.9181 25.4502 89.6559 26.8473C88.3937 28.2444 86.6711 28.943 84.4881 28.943C83.5197 28.943 82.6385 28.7366 81.8209 28.3238C81.0032 27.911 80.392 27.3553 79.9713 26.6568V34.6188H77.1611ZM80.9715 25.0929C81.7891 26.0217 82.8767 26.4821 84.2262 26.4821C85.5757 26.4821 86.6632 26.0217 87.4808 25.0929C88.2985 24.1642 88.7113 22.9417 88.7113 21.4175C88.7113 19.8934 88.2985 18.6709 87.4808 17.7421C86.6632 16.8134 85.5757 16.3529 84.2262 16.3529C82.8767 16.3529 81.7891 16.8134 80.9715 17.7421C80.1538 18.6709 79.7411 19.8934 79.7411 21.4175C79.7411 22.9417 80.1538 24.1642 80.9715 25.0929Z" fill="#1A1A1B"/>
<path d="M99.6257 28.943C97.4427 28.943 95.6804 28.1968 94.3309 26.7123C92.9814 25.2279 92.3066 23.4338 92.3066 21.3302C92.3066 19.2266 92.9338 17.4325 94.188 16.0195C95.4422 14.5986 97.1569 13.8921 99.3399 13.8921C101.523 13.8921 103.198 14.5589 104.42 15.8925C105.643 17.2261 106.262 18.8614 106.262 20.8142C106.262 21.2032 106.246 21.5684 106.206 21.9176H95.0612C95.1803 23.3068 95.6486 24.4261 96.4822 25.2755C97.3077 26.1249 98.3635 26.5456 99.6336 26.5456C101.833 26.5456 103.142 25.6883 103.571 23.9657H106.381C106.111 25.474 105.365 26.6806 104.15 27.5855C102.936 28.4905 101.428 28.943 99.6336 28.943H99.6257ZM95.1406 19.8537H103.42C103.325 18.7344 102.92 17.8374 102.206 17.1626C101.491 16.4879 100.539 16.1465 99.3399 16.1465C96.9823 16.1465 95.5851 17.3849 95.1406 19.8537Z" fill="#1A1A1B"/>
<path d="M114.422 16.5508C112.064 16.5508 110.889 18.4004 110.889 22.1076V28.7042H108.079V14.1138H110.889V16.9239C111.215 15.9396 111.691 15.2251 112.31 14.7806C112.929 14.336 113.747 14.1138 114.771 14.1138H116.533V16.5429H114.422V16.5508Z" fill="#1A1A1B"/>
<path d="M123.075 28.9426C120.876 28.9426 119.153 28.2441 117.923 26.8549C116.684 25.4657 116.073 23.6478 116.073 21.4092C116.073 19.1707 116.692 17.3766 117.923 15.9795C119.161 14.5824 120.868 13.8838 123.051 13.8838C123.98 13.8838 124.869 14.0902 125.718 14.495C126.568 14.8999 127.211 15.4238 127.655 16.0589V14.1219H130.465V28.7124H127.655V26.7437C127.306 27.3788 126.71 27.9106 125.861 28.3234C125.012 28.7362 124.083 28.9426 123.083 28.9426H123.075ZM120.138 25.0926C120.955 26.0213 122.043 26.4818 123.392 26.4818C124.742 26.4818 125.829 26.0213 126.647 25.0926C127.465 24.1638 127.877 22.9413 127.877 21.4172C127.877 19.893 127.465 18.6705 126.647 17.7418C125.829 16.813 124.742 16.3526 123.392 16.3526C122.043 16.3526 120.955 16.813 120.138 17.7418C119.32 18.6705 118.907 19.893 118.907 21.4172C118.907 22.9413 119.32 24.1638 120.138 25.0926Z" fill="#1A1A1B"/>
<defs>
<linearGradient id="paint0_linear_236_4212" x1="0" y1="26.9982" x2="29.9986" y2="26.9982" gradientUnits="userSpaceOnUse">
<stop stop-color="#1246BB"/>
<stop offset="1" stop-color="#00AEED"/>
</linearGradient>
<linearGradient id="paint1_linear_236_4212" x1="0" y1="26.9982" x2="29.9986" y2="26.9982" gradientUnits="userSpaceOnUse">
<stop stop-color="#008232"/>
<stop offset="1" stop-color="#5FC518"/>
</linearGradient>
<linearGradient id="paint2_linear_236_4212" x1="0" y1="13.0822" x2="52.2733" y2="13.0822" gradientUnits="userSpaceOnUse">
<stop stop-color="#252525"/>
<stop offset="1" stop-color="#4E4E4E"/>
</linearGradient>
</defs>
</svg>
