<svg width="131" height="36" viewBox="0 0 131 36" fill="none" xmlns="http://www.w3.org/2000/svg">
<path d="M29.9986 27.1172L13.6458 17.9882L0 26.1646L15.2493 36.0001L29.9986 27.1172Z" fill="url(#paint0_linear_37_2192)"/>
<path d="M29.9986 27.1172L13.6458 17.9882L0 26.1646L15.2493 36.0001L29.9986 27.1172Z" fill="url(#paint1_linear_37_2192)"/>
<path d="M29.3476 8.54948L15.2176 3.8147e-06L0 9.90692V26.1644L29.3476 8.54948Z" fill="url(#paint2_linear_37_2192)"/>
<path d="M50.6696 28.9427C47.8912 28.9427 45.5494 28.0377 43.6522 26.2358C41.755 24.4338 40.8024 21.8777 40.8024 18.5754C40.8024 16.8925 41.0723 15.3842 41.6121 14.0426C42.1519 12.7011 42.8822 11.6135 43.811 10.7721C44.7397 9.93064 45.7876 9.29558 46.9545 8.85898C48.1214 8.42238 49.3598 8.20805 50.6775 8.20805C52.9717 8.20805 54.9483 8.83517 56.5994 10.0894C58.2506 11.3436 59.2111 12.963 59.481 14.9555H56.3216C56.147 13.7807 55.5278 12.8043 54.472 12.0343C53.4083 11.2643 52.1461 10.8753 50.6775 10.8753C48.6533 10.8753 47.0101 11.55 45.7558 12.8995C44.5016 14.249 43.8745 16.1383 43.8745 18.5754C43.8745 21.0124 44.4936 22.9255 45.7399 24.2671C46.9862 25.6086 48.6295 26.2755 50.6775 26.2755C52.1858 26.2755 53.4718 25.8944 54.5434 25.1324C55.6151 24.3703 56.2263 23.3939 56.3851 22.1952H59.4572C59.2429 24.1798 58.322 25.8071 56.6788 27.0613C55.0356 28.3156 53.0431 28.9427 50.6855 28.9427H50.6696Z" fill="white"/>
<path d="M67.1177 28.9425C64.9188 28.9425 63.1962 28.2439 61.9658 26.8548C60.7275 25.4656 60.1162 23.6477 60.1162 21.4091C60.1162 19.1705 60.7354 17.3765 61.9658 15.9794C63.2042 14.5822 64.9109 13.8837 67.0939 13.8837C68.0227 13.8837 68.9118 14.0901 69.7612 14.4949C70.6105 14.8998 71.2535 15.4237 71.6981 16.0588V14.1218H74.5082V28.7123H71.6981V26.7436C71.3488 27.3787 70.7534 27.9105 69.904 28.3233C69.0547 28.7361 68.1259 28.9425 67.1257 28.9425H67.1177ZM64.1806 25.0925C64.9982 26.0212 66.0858 26.4817 67.4353 26.4817C68.7848 26.4817 69.8723 26.0212 70.6899 25.0925C71.5076 24.1637 71.9204 22.9412 71.9204 21.4171C71.9204 19.8929 71.5076 18.6704 70.6899 17.7417C69.8723 16.8129 68.7848 16.3525 67.4353 16.3525C66.0858 16.3525 64.9982 16.8129 64.1806 17.7417C63.3629 18.6704 62.9502 19.8929 62.9502 21.4171C62.9502 22.9412 63.3629 24.1637 64.1806 25.0925Z" fill="white"/>
<path d="M77.1604 34.6186V14.1221H79.9705V16.2972C80.4151 15.5669 81.0501 14.9795 81.8837 14.5429C82.7092 14.1063 83.6301 13.8919 84.6303 13.8919C86.7895 13.8919 88.4883 14.5905 89.7107 15.9876C90.9332 17.3847 91.5524 19.1947 91.5524 21.4174C91.5524 23.6401 90.9174 25.45 89.6552 26.8471C88.393 28.2442 86.6704 28.9428 84.4874 28.9428C83.5189 28.9428 82.6378 28.7364 81.8201 28.3236C81.0025 27.9108 80.3913 27.3552 79.9705 26.6566V34.6186H77.1604ZM80.9708 25.0928C81.7884 26.0215 82.8759 26.482 84.2254 26.482C85.5749 26.482 86.6625 26.0215 87.4801 25.0928C88.2977 24.164 88.7105 22.9415 88.7105 21.4174C88.7105 19.8932 88.2977 18.6707 87.4801 17.742C86.6625 16.8132 85.5749 16.3528 84.2254 16.3528C82.8759 16.3528 81.7884 16.8132 80.9708 17.742C80.1531 18.6707 79.7403 19.8932 79.7403 21.4174C79.7403 22.9415 80.1531 24.164 80.9708 25.0928Z" fill="white"/>
<path d="M99.6251 28.9428C97.4421 28.9428 95.6798 28.1966 94.3303 26.7122C92.9808 25.2277 92.306 23.4337 92.306 21.33C92.306 19.2264 92.9332 17.4324 94.1874 16.0194C95.4416 14.5984 97.1563 13.8919 99.3393 13.8919C101.522 13.8919 103.197 14.5587 104.42 15.8924C105.642 17.226 106.261 18.8613 106.261 20.8141C106.261 21.203 106.246 21.5682 106.206 21.9175H95.0606C95.1797 23.3067 95.648 24.426 96.4815 25.2753C97.3071 26.1247 98.3629 26.5455 99.633 26.5455C101.832 26.5455 103.142 25.6881 103.57 23.9655H106.381C106.111 25.4738 105.364 26.6804 104.15 27.5854C102.935 28.4903 101.427 28.9428 99.633 28.9428H99.6251ZM95.14 19.8535H103.42C103.324 18.7342 102.919 17.8372 102.205 17.1625C101.491 16.4877 100.538 16.1464 99.3393 16.1464C96.9816 16.1464 95.5845 17.3847 95.14 19.8535Z" fill="white"/>
<path d="M114.421 16.5511C112.064 16.5511 110.889 18.4007 110.889 22.1078V28.7045H108.079V14.114H110.889V16.9242C111.214 15.9398 111.691 15.2254 112.31 14.7808C112.929 14.3363 113.747 14.114 114.771 14.114H116.533V16.5431H114.421V16.5511Z" fill="white"/>
<path d="M123.075 28.9425C120.876 28.9425 119.153 28.2439 117.923 26.8548C116.684 25.4656 116.073 23.6477 116.073 21.4091C116.073 19.1705 116.692 17.3765 117.923 15.9794C119.161 14.5822 120.868 13.8837 123.051 13.8837C123.98 13.8837 124.869 14.0901 125.718 14.4949C126.567 14.8998 127.21 15.4237 127.655 16.0588V14.1218H130.465V28.7123H127.655V26.7436C127.306 27.3787 126.71 27.9105 125.861 28.3233C125.012 28.7361 124.083 28.9425 123.083 28.9425H123.075ZM120.137 25.0925C120.955 26.0212 122.043 26.4817 123.392 26.4817C124.742 26.4817 125.829 26.0212 126.647 25.0925C127.464 24.1637 127.877 22.9412 127.877 21.4171C127.877 19.8929 127.464 18.6704 126.647 17.7417C125.829 16.8129 124.742 16.3525 123.392 16.3525C122.043 16.3525 120.955 16.8129 120.137 17.7417C119.32 18.6704 118.907 19.8929 118.907 21.4171C118.907 22.9412 119.32 24.1637 120.137 25.0925Z" fill="white"/>
<defs>
<linearGradient id="paint0_linear_37_2192" x1="0" y1="26.9981" x2="29.9986" y2="26.9981" gradientUnits="userSpaceOnUse">
<stop stop-color="#1246BB"/>
<stop offset="1" stop-color="#00AEED"/>
</linearGradient>
<linearGradient id="paint1_linear_37_2192" x1="0" y1="26.9981" x2="29.9986" y2="26.9981" gradientUnits="userSpaceOnUse">
<stop stop-color="#008232"/>
<stop offset="1" stop-color="#5FC518"/>
</linearGradient>
<linearGradient id="paint2_linear_37_2192" x1="0" y1="13.0822" x2="52.2733" y2="13.0822" gradientUnits="userSpaceOnUse">
<stop stop-color="#252525"/>
<stop offset="1" stop-color="#4E4E4E"/>
</linearGradient>
</defs>
</svg>
