<svg width="72" height="72" viewBox="0 0 72 72" fill="none" xmlns="http://www.w3.org/2000/svg">
<g clip-path="url(#clip0_277_5980)" filter="url(#filter0_i_277_5980)">
<path d="M36 72C55.8823 72 72 55.8823 72 36C72 16.1177 55.8823 0 36 0C16.1177 0 0 16.1177 0 36C0 55.8823 16.1177 72 36 72Z" fill="white"/>
<path d="M-0.00123596 36.0009C-0.00123596 51.4798 9.76826 64.6752 23.4771 69.7619V2.24023C9.76826 7.32664 -0.00123596 20.5223 -0.00123596 36.0009Z" fill="#6DA544"/>
<path d="M71.9998 36.0009C71.9998 20.5223 62.2303 7.32664 48.5215 2.24023V69.762C62.2303 64.6752 71.9998 51.4798 71.9998 36.0009Z" fill="#6DA544"/>
</g>
<defs>
<filter id="filter0_i_277_5980" x="0" y="0" width="72" height="72" filterUnits="userSpaceOnUse" color-interpolation-filters="sRGB">
<feFlood flood-opacity="0" result="BackgroundImageFix"/>
<feBlend mode="normal" in="SourceGraphic" in2="BackgroundImageFix" result="shape"/>
<feColorMatrix in="SourceAlpha" type="matrix" values="0 0 0 0 0 0 0 0 0 0 0 0 0 0 0 0 0 0 127 0" result="hardAlpha"/>
<feOffset/>
<feGaussianBlur stdDeviation="2"/>
<feComposite in2="hardAlpha" operator="arithmetic" k2="-1" k3="1"/>
<feColorMatrix type="matrix" values="0 0 0 0 0 0 0 0 0 0 0 0 0 0 0 0 0 0 0.25 0"/>
<feBlend mode="normal" in2="shape" result="effect1_innerShadow_277_5980"/>
</filter>
<clipPath id="clip0_277_5980">
<rect width="72" height="72" fill="white"/>
</clipPath>
</defs>
</svg>
