<svg width="592" height="536" viewBox="0 0 592 536" fill="none" xmlns="http://www.w3.org/2000/svg">
<g filter="url(#filter0_d_184_62203)">
<rect x="308.097" y="248.5" width="234.9" height="234.9" rx="117.45" stroke="url(#paint0_linear_184_62203)" shape-rendering="crispEdges"/>
</g>
<rect x="28.4043" y="34" width="235.897" height="235.897" rx="117.949" fill="#3BAB22"/>
<path d="M141.409 182.892C135.716 181.945 131.162 179.577 127.746 175.789C124.39 172.001 122.592 167.235 122.353 161.494H135.296C135.596 164.69 136.735 167.206 138.712 169.041C140.75 170.876 143.446 171.793 146.802 171.793C149.858 171.793 152.285 171.172 154.083 169.929C155.881 168.686 156.78 166.91 156.78 164.601C156.78 163.003 156.24 161.73 155.162 160.783C154.143 159.777 152.854 159.008 151.296 158.475C149.738 157.942 147.521 157.321 144.645 156.61C140.39 155.604 136.884 154.538 134.128 153.414C131.431 152.23 129.094 150.365 127.117 147.82C125.139 145.275 124.15 141.782 124.15 137.343C124.15 132.844 125.708 129.056 128.824 125.978C132 122.84 136.195 120.887 141.409 120.117V111.949H153.004V120.561C157.858 121.686 161.693 123.906 164.51 127.221C167.386 130.476 168.884 134.501 169.004 139.296H156.24C155.941 136.81 154.892 134.857 153.094 133.436C151.296 131.956 148.929 131.216 145.993 131.216C143.296 131.216 141.169 131.779 139.611 132.903C138.053 134.028 137.274 135.508 137.274 137.343C137.274 139.059 137.813 140.421 138.892 141.427C139.971 142.433 141.349 143.232 143.027 143.824C144.705 144.357 147.012 144.949 149.948 145.6C154.263 146.607 157.768 147.642 160.465 148.708C163.162 149.773 165.469 151.579 167.386 154.124C169.364 156.61 170.353 160.043 170.353 164.424C170.353 169.278 168.794 173.332 165.678 176.588C162.562 179.784 158.338 181.856 153.004 182.803V191.949L141.409 191.86V182.892Z" fill="white"/>
<rect x="327.699" y="258.103" width="235.897" height="235.897" rx="117.949" fill="#1A1A1B"/>
<path d="M398.583 403.627C393.879 403.627 389.607 402.643 385.767 400.675C381.927 398.707 378.879 395.779 376.623 391.891C374.367 388.003 373.239 383.323 373.239 377.851C373.239 372.379 374.367 367.699 376.623 363.811C378.927 359.923 381.999 356.995 385.839 355.027C389.727 353.059 393.975 352.075 398.583 352.075C402.759 352.075 406.527 352.819 409.887 354.307C413.247 355.795 415.983 357.907 418.095 360.643C420.207 363.379 421.479 366.547 421.911 370.147H410.535C410.199 367.507 408.903 365.395 406.647 363.811C404.439 362.179 401.727 361.363 398.511 361.363C395.775 361.363 393.327 362.011 391.167 363.307C389.007 364.555 387.303 366.427 386.055 368.923C384.807 371.371 384.183 374.347 384.183 377.851C384.183 381.355 384.807 384.355 386.055 386.851C387.303 389.299 389.007 391.147 391.167 392.395C393.327 393.643 395.775 394.267 398.511 394.267C401.727 394.267 404.463 393.475 406.719 391.891C409.023 390.259 410.391 388.147 410.823 385.555H421.695C421.359 389.107 420.159 392.251 418.095 394.987C416.079 397.723 413.367 399.859 409.959 401.395C406.599 402.883 402.807 403.627 398.583 403.627ZM427.189 352.651H438.709L458.941 385.987V352.651H469.741V403.051H458.221L437.989 369.715V403.051H427.189V352.651ZM491.022 382.171L473.886 352.651H485.478L496.494 372.091L507.51 352.651H519.102L501.894 382.171V403.051H491.022V382.171Z" fill="white"/>
<path fill-rule="evenodd" clip-rule="evenodd" d="M366.497 144.98C346.634 143.121 321.895 143.103 293.789 143.103C282.932 143.103 274.131 134.302 274.131 123.445C274.131 112.588 282.932 103.787 293.789 103.787L294.513 103.787C321.754 103.786 348.269 103.786 370.16 105.835C381.258 106.874 391.872 108.494 401.24 111.164C410.432 113.784 419.879 117.814 427.346 124.602C439.428 135.586 445.743 147.624 448.602 163.994C451.058 178.058 451.056 196.241 451.054 219.718C451.054 220.386 451.054 221.059 451.054 221.735C451.054 228.548 447.526 234.876 441.731 238.457C435.935 242.039 428.698 242.365 422.604 239.318L383.288 219.66C373.578 214.805 369.641 202.996 374.497 193.286C379.352 183.575 391.16 179.639 400.871 184.494L411.461 189.789C411.214 181.847 410.749 175.78 409.872 170.756C408.411 162.394 406.09 158.412 400.899 153.694C399.729 152.63 396.766 150.771 390.463 148.974C384.338 147.229 376.373 145.904 366.497 144.98Z" fill="url(#paint1_linear_184_62203)"/>
<path fill-rule="evenodd" clip-rule="evenodd" d="M145.847 283.646C151.642 280.064 158.879 279.738 164.973 282.785L204.289 302.443C214 307.299 217.936 319.107 213.081 328.817C208.225 338.528 196.417 342.464 186.707 337.609L176.117 332.314C176.363 340.256 176.829 346.323 177.706 351.347C179.166 359.709 181.488 363.691 186.678 368.41C187.849 369.473 190.811 371.332 197.114 373.129C203.239 374.875 211.204 376.199 221.08 377.123C240.943 378.982 265.682 379 293.789 379C304.645 379 313.447 387.802 313.447 398.658C313.447 409.515 304.645 418.317 293.789 418.317H293.064C265.823 418.317 239.308 418.317 217.417 416.268C206.319 415.23 195.705 413.609 186.337 410.939C177.145 408.319 167.698 404.289 160.231 397.501C148.149 386.517 141.834 374.479 138.976 358.109C136.52 344.045 136.522 325.862 136.524 302.385C136.524 301.717 136.524 301.045 136.524 300.368C136.524 293.555 140.051 287.227 145.847 283.646Z" fill="url(#paint2_linear_184_62203)"/>
<g filter="url(#filter1_d_184_62203)">
<rect x="49.0967" y="44.5" width="234.9" height="234.9" rx="117.45" stroke="url(#paint3_linear_184_62203)" shape-rendering="crispEdges"/>
</g>
<defs>
<filter id="filter0_d_184_62203" x="259.597" y="204" width="331.9" height="331.9" filterUnits="userSpaceOnUse" color-interpolation-filters="sRGB">
<feFlood flood-opacity="0" result="BackgroundImageFix"/>
<feColorMatrix in="SourceAlpha" type="matrix" values="0 0 0 0 0 0 0 0 0 0 0 0 0 0 0 0 0 0 127 0" result="hardAlpha"/>
<feOffset dy="4"/>
<feGaussianBlur stdDeviation="24"/>
<feComposite in2="hardAlpha" operator="out"/>
<feColorMatrix type="matrix" values="0 0 0 0 0.101961 0 0 0 0 0.101961 0 0 0 0 0.105882 0 0 0 0.07 0"/>
<feBlend mode="normal" in2="BackgroundImageFix" result="effect1_dropShadow_184_62203"/>
<feBlend mode="normal" in="SourceGraphic" in2="effect1_dropShadow_184_62203" result="shape"/>
</filter>
<filter id="filter1_d_184_62203" x="0.59668" y="0" width="331.9" height="331.9" filterUnits="userSpaceOnUse" color-interpolation-filters="sRGB">
<feFlood flood-opacity="0" result="BackgroundImageFix"/>
<feColorMatrix in="SourceAlpha" type="matrix" values="0 0 0 0 0 0 0 0 0 0 0 0 0 0 0 0 0 0 127 0" result="hardAlpha"/>
<feOffset dy="4"/>
<feGaussianBlur stdDeviation="24"/>
<feComposite in2="hardAlpha" operator="out"/>
<feColorMatrix type="matrix" values="0 0 0 0 0.101961 0 0 0 0 0.101961 0 0 0 0 0.105882 0 0 0 0.07 0"/>
<feBlend mode="normal" in2="BackgroundImageFix" result="effect1_dropShadow_184_62203"/>
<feBlend mode="normal" in="SourceGraphic" in2="effect1_dropShadow_184_62203" result="shape"/>
</filter>
<linearGradient id="paint0_linear_184_62203" x1="349.881" y1="365.95" x2="501.213" y2="365.95" gradientUnits="userSpaceOnUse">
<stop stop-color="#1A1A1B"/>
<stop offset="1" stop-color="#1A1A1B" stop-opacity="0"/>
</linearGradient>
<linearGradient id="paint1_linear_184_62203" x1="402.892" y1="146.788" x2="320.328" y2="113.615" gradientUnits="userSpaceOnUse">
<stop stop-color="#3BAB22"/>
<stop offset="1" stop-color="#3BAB22" stop-opacity="0"/>
</linearGradient>
<linearGradient id="paint2_linear_184_62203" x1="188.372" y1="387.109" x2="267.25" y2="409.962" gradientUnits="userSpaceOnUse">
<stop stop-color="#3BAB22"/>
<stop offset="1" stop-color="#3BAB22" stop-opacity="0"/>
</linearGradient>
<linearGradient id="paint3_linear_184_62203" x1="284.497" y1="161.95" x2="133.165" y2="161.95" gradientUnits="userSpaceOnUse">
<stop stop-color="#3BAB22"/>
<stop offset="1" stop-color="#3BAB22" stop-opacity="0"/>
</linearGradient>
</defs>
</svg>
