<svg width="681" height="428" viewBox="0 0 681 428" fill="none" xmlns="http://www.w3.org/2000/svg">
<path d="M619.6 66.9272L589.653 66.7382C588.209 66.7289 586.819 67.2935 585.79 68.3085L573.736 80.2155C572.707 81.2305 571.319 81.7952 569.873 81.7859L494.211 81.3075C492.767 81.2982 491.384 80.7149 490.369 79.6882L475.287 64.4072C472.183 61.2619 466.827 62.9279 466.048 67.2772L464.371 76.6619C464.173 77.7702 463.636 78.7899 462.836 79.5809L430.788 111.237C429.759 112.252 428.371 112.817 426.925 112.81L386.948 112.556C385.504 112.546 384.114 113.111 383.085 114.128L345.322 151.429C344.293 152.444 343.71 153.828 343.703 155.272L343.619 168.686C343.61 170.131 344.174 171.521 345.191 172.55L359.828 187.379C360.843 188.408 362.223 188.989 363.67 188.998L380.963 189.108C385.817 189.138 388.208 195.023 384.755 198.434L383.062 200.107C382.033 201.122 380.646 201.687 379.199 201.677L358.606 201.547C355.597 201.528 353.173 199.073 353.194 196.063L353.234 189.976C353.253 186.966 350.829 184.511 347.822 184.492L329.697 184.378C326.688 184.359 324.234 186.784 324.215 189.791L324.157 198.975C324.147 200.42 323.564 201.803 322.538 202.818L304.963 220.181C303.934 221.196 303.351 222.579 303.344 224.024L303.236 241.087C303.227 242.532 303.792 243.922 304.809 244.951L318.51 258.832C319.524 259.861 320.905 260.445 322.351 260.452L348.207 260.615C351.216 260.634 353.64 263.088 353.619 266.098L353.542 278.124C353.532 279.569 354.097 280.959 355.112 281.988L366.084 293.102C367.098 294.131 367.663 295.519 367.656 296.966L367.465 327.239C367.446 330.249 369.869 332.703 372.878 332.722L380.503 332.771C381.947 332.78 383.337 332.216 384.366 331.198L410.502 305.382C411.53 304.367 412.111 302.984 412.121 301.539L412.24 282.621C412.249 281.176 412.832 279.793 413.858 278.778L424.569 268.198C428.021 264.787 425.628 258.902 420.777 258.872C419.333 258.863 417.95 258.279 416.935 257.253L406.047 246.221C405.032 245.192 404.468 243.803 404.477 242.357L404.526 234.493C404.556 229.638 410.439 227.246 413.849 230.699L424.268 241.255C425.283 242.284 426.666 242.868 428.11 242.877L434.24 242.917C437.249 242.935 439.703 240.511 439.721 237.503L439.738 234.876C439.756 231.866 442.21 229.442 445.219 229.463L461.096 229.563C462.54 229.572 463.923 230.156 464.938 231.182L479.208 245.64C481.322 247.782 484.771 247.803 486.913 245.689L503.681 229.124C505.822 227.01 509.27 227.031 511.385 229.173L526.906 244.898C530.316 248.351 536.199 245.957 536.229 241.104L536.29 231.668C536.299 230.223 536.882 228.84 537.908 227.825L583.74 182.553C584.769 181.538 585.349 180.155 585.359 178.71L585.501 156.222C585.52 153.212 583.096 150.757 580.09 150.738L571.805 150.687C568.796 150.668 566.372 148.214 566.393 145.204L566.435 138.757C566.444 137.312 567.028 135.929 568.054 134.914L578.923 124.178C582.375 120.767 588.228 123.235 588.197 128.089L588.16 134.064C588.151 135.509 588.715 136.899 589.732 137.928L597.653 145.953C601.064 149.406 606.946 147.012 606.976 142.159L607.091 124.232C607.1 122.787 607.683 121.404 608.71 120.389L623.218 106.06C624.246 105.045 624.83 103.661 624.837 102.217L625.026 72.4152C625.044 69.4052 622.621 66.9505 619.614 66.9319L619.6 66.9272Z" fill="#CBECC3"/>
<path d="M621.373 320.028L605.276 303.721C603.021 301.434 599.125 303.018 599.107 306.231C599.086 309.444 595.193 311.029 592.937 308.742L592.202 307.998C591.617 307.405 591.255 306.628 591.178 305.8L589.917 292.306C589.744 290.46 588.202 289.049 586.35 289.037L574.3 288.96C573.344 288.953 572.425 289.329 571.744 290.001L544.272 317.135C543.59 317.807 543.206 318.722 543.199 319.678L543.066 340.702C543.045 343.915 546.919 345.548 549.202 343.292L554.329 338.228C555.01 337.556 555.929 337.183 556.886 337.188L580.897 337.339C582.889 337.351 584.491 338.977 584.479 340.968L584.393 354.471C584.382 356.463 585.984 358.087 587.976 358.099L604.485 358.204C605.442 358.211 606.361 357.835 607.042 357.163L621.226 343.154C621.907 342.482 622.292 341.567 622.299 340.611L622.413 322.583C622.42 321.627 622.045 320.707 621.373 320.026V320.028Z" fill="#CBECC3"/>
<path d="M277.231 277.721L227.15 245.962C223.763 243.815 219.345 244.289 216.493 247.107L193.967 269.356C190.585 272.697 190.55 278.15 193.891 281.533L211.615 299.488C214.955 302.872 214.92 308.325 211.538 311.666L208.273 314.893C206.647 316.498 205.728 318.682 205.714 320.967L205.406 369.521C205.392 371.805 206.285 374.001 207.888 375.625L215.009 382.84C220.397 388.3 229.695 384.515 229.744 376.843L229.853 359.394C229.867 357.11 230.789 354.926 232.412 353.321L278.565 307.732C280.189 306.127 281.11 303.943 281.124 301.658L281.229 285.043C281.248 282.075 279.736 279.305 277.229 277.714L277.231 277.721Z" fill="#CBECC3"/>
<path d="M253.129 164.496L239.874 151.067C237.28 148.44 233.046 148.412 230.42 151.007L226.646 154.735C224.02 157.33 219.786 157.304 217.192 154.675L203.624 140.929C201.03 138.302 201.056 134.067 203.685 131.472L216.521 118.795C219.147 116.2 223.381 116.226 225.974 118.856L237.455 130.487C240.049 133.115 244.282 133.143 246.909 130.548L251.59 125.923C254.216 123.329 254.244 119.094 251.651 116.466L211.842 76.1345C209.248 73.5072 205.014 73.4792 202.388 76.0739L186.231 92.0339C183.604 94.6285 179.371 94.6029 176.777 91.9732L140.546 55.2675C137.952 52.6402 133.719 52.6122 131.092 55.2069L85.9418 99.8039C83.3153 102.399 83.2874 106.634 85.8811 109.261L93.1866 116.662C95.7803 119.29 95.7547 123.525 93.1259 126.119L91.5468 127.678C87.3086 131.864 90.2453 139.086 96.2002 139.123C97.9729 139.135 99.6779 138.439 100.94 137.193L109.465 128.772C112.092 126.178 116.325 126.203 118.919 128.833L127.633 137.662C128.879 138.925 129.571 140.63 129.562 142.404L129.429 163.282C129.417 165.056 128.704 166.752 127.442 167.998L125.41 170.005C122.784 172.599 122.756 176.834 125.35 179.462L135.706 189.952C136.952 191.215 137.644 192.92 137.635 194.694L137.413 229.582C137.399 231.922 138.608 234.101 140.602 235.324L161.734 248.29C162.63 248.841 163.645 249.17 164.694 249.256L179.298 250.432L180.581 250.591C186.874 251.373 190.616 243.771 186.161 239.256L184.488 237.562C183.243 236.299 181.547 235.585 179.774 235.574L177.073 235.557C173.381 235.534 170.407 232.522 170.43 228.828L170.437 227.61C170.46 223.916 173.472 220.941 177.164 220.965L202.523 221.126C204.296 221.137 206.001 220.442 207.263 219.196L253.069 173.95C255.695 171.356 255.723 167.121 253.129 164.493V164.496Z" fill="#CBECC3"/>
<path d="M327.938 63.2334L312.086 47.1731C309.754 44.8094 305.945 44.7861 303.582 47.1194L295.021 55.5754C292.659 57.9088 288.852 57.8854 286.517 55.5218L267.227 35.9778C264.895 33.6141 261.086 33.5908 258.723 35.9241L241.208 53.2234C240.387 54.0331 239.354 54.5908 238.225 54.8288L223.084 58.0254C218.431 59.0078 216.705 64.7524 220.047 68.1381L230.555 78.7828C232.888 81.1464 236.697 81.1698 239.06 78.8364L263.819 54.3784C266.182 52.0451 269.989 52.0684 272.324 54.4321C274.656 56.7958 274.633 60.6038 272.27 62.9394L263.81 71.2951C261.447 73.6284 261.424 77.4388 263.756 79.8024L269.21 85.3254C270.329 86.4618 270.954 87.9948 270.945 89.5908L270.696 129.01C270.661 134.37 277.122 137.093 280.933 133.329L308.398 106.202C309.534 105.082 310.176 103.556 310.187 101.96L310.253 91.6348C310.262 90.0388 310.906 88.5128 312.042 87.3928L327.889 71.7408C330.252 69.4074 330.275 65.5971 327.942 63.2334H327.938Z" fill="#CBECC3"/>
<path d="M469.58 168.819C511.514 168.819 545.508 134.82 545.508 92.8787C545.508 50.9378 511.514 16.938 469.58 16.938C427.646 16.938 393.652 50.9378 393.652 92.8787C393.652 134.82 427.646 168.819 469.58 168.819Z" fill="#3BAB22"/>
<path d="M469.58 153.099C436.381 153.099 409.371 126.084 409.371 92.8808C409.371 59.6774 436.381 32.6621 469.58 32.6621C502.778 32.6621 529.789 59.6774 529.789 92.8808C529.789 126.084 502.778 153.099 469.58 153.099ZM469.58 33.6888C436.948 33.6888 410.399 60.2421 410.399 92.8808C410.399 125.519 436.948 152.073 469.58 152.073C502.212 152.073 528.76 125.519 528.76 92.8808C528.76 60.2421 502.212 33.6888 469.58 33.6888Z" fill="white"/>
<path d="M463.917 129C457.359 127.895 452.112 125.133 448.177 120.713C444.311 116.293 442.24 110.734 441.964 104.035H456.876C457.221 107.765 458.532 110.7 460.81 112.84C463.158 114.981 466.264 116.052 470.13 116.052C473.651 116.052 476.447 115.327 478.518 113.876C480.589 112.426 481.625 110.354 481.625 107.661C481.625 105.796 481.003 104.312 479.761 103.207C478.587 102.033 477.103 101.135 475.308 100.513C473.513 99.8918 470.959 99.1667 467.645 98.338C462.743 97.164 458.705 95.9209 455.529 94.6088C452.423 93.2276 449.73 91.0522 447.452 88.0827C445.174 85.1132 444.035 81.0387 444.035 75.8592C444.035 70.6108 445.83 66.191 449.42 62.5999C453.079 58.9398 457.911 56.6608 463.917 55.7631V46.2329H477.275V56.281C482.867 57.5931 487.285 60.1828 490.53 64.0502C493.844 67.8484 495.57 72.5444 495.708 78.1382H481.003C480.658 75.2377 479.45 72.9588 477.379 71.3014C475.308 69.5749 472.581 68.7116 469.198 68.7116C466.092 68.7116 463.641 69.3677 461.846 70.6798C460.051 71.9919 459.154 73.7184 459.154 75.8592C459.154 77.862 459.775 79.4503 461.018 80.6243C462.26 81.7983 463.848 82.7306 465.781 83.4212C467.714 84.0428 470.372 84.7333 473.755 85.493C478.725 86.667 482.764 87.8755 485.87 89.1186C488.977 90.3617 491.635 92.468 493.844 95.4375C496.122 98.338 497.261 102.343 497.261 107.454C497.261 113.117 495.466 117.847 491.876 121.645C488.286 125.375 483.419 127.792 477.275 128.897V139.566L463.917 139.463V129Z" fill="white"/>
<path d="M603.678 160.671L606.848 181.862L608.635 181.96C608.635 181.96 604.576 194.614 594.01 196.364C583.444 198.112 584.549 185.957 584.549 185.957L590.74 183.153L588.627 166.075L603.678 160.671Z" fill="white"/>
<path d="M590.74 183.668C590.483 183.668 590.262 183.477 590.231 183.218L588.118 166.14C588.088 165.902 588.228 165.674 588.454 165.592L603.506 160.188C603.65 160.137 603.811 160.151 603.942 160.23C604.075 160.309 604.164 160.442 604.187 160.596L607.357 181.788C607.399 182.068 607.205 182.329 606.925 182.371C606.648 182.415 606.384 182.219 606.342 181.939L603.266 161.366L589.191 166.42L591.253 183.09C591.288 183.372 591.087 183.629 590.808 183.664C590.787 183.666 590.766 183.668 590.745 183.668H590.74Z" fill="black"/>
<path d="M578.025 146.454C576.043 145.101 574.496 143.012 574.114 140.644C573.654 137.802 574.939 134.841 577.071 132.909C579.203 130.977 582.082 130.002 584.951 129.792C587.82 129.582 590.698 130.09 593.478 130.828C596.273 131.57 599.046 132.564 601.399 134.244C603.753 135.924 605.668 138.36 606.249 141.195C607.574 140.849 608.894 141.776 609.799 142.802C612.327 145.672 613.316 149.826 612.358 153.529C611.399 157.232 608.518 160.382 604.917 161.665C600.711 163.163 595.857 162.097 592.205 159.528C589.224 157.432 586.987 154.436 585.396 151.186C584.64 149.639 584.664 148.822 582.912 148.433C581.177 148.048 579.502 147.462 578.023 146.454H578.025Z" fill="black"/>
<path d="M603.403 158.013C603.916 156.819 605.568 156.413 606.736 156.987C607.905 157.558 608.584 158.853 608.754 160.141C608.982 161.882 608.35 163.753 606.993 164.866C605.635 165.977 603.562 166.203 602.081 165.263C599.347 168.18 595.484 170.009 591.496 170.28C589.254 170.431 586.866 170.053 585.121 168.635C583.906 167.645 583.096 166.222 582.637 164.724C582.177 163.226 582.044 161.646 581.995 160.081C581.86 155.563 582.424 151.027 583.663 146.68C583.864 145.978 584.09 145.262 584.545 144.69C585.186 143.883 586.198 143.465 587.187 143.173C589.448 142.508 590.873 145.108 593.156 145.684C595.44 146.26 598.568 144.858 599.82 146.853C601.022 148.766 601.367 151.114 601.25 153.37C601.129 155.659 600.625 157.29 599.552 158.263L603.403 158.013Z" fill="white"/>
<path d="M590.586 170.824C588.776 170.824 586.555 170.46 584.799 169.032C583.6 168.056 582.683 166.619 582.147 164.874C581.638 163.219 581.527 161.53 581.485 160.095C581.347 155.51 581.914 150.951 583.171 146.541C583.383 145.796 583.633 145.015 584.144 144.373C584.913 143.407 586.098 142.961 587.045 142.684C588.631 142.219 589.828 143.085 590.99 143.923C591.708 144.443 592.452 144.98 593.285 145.19C594.052 145.383 594.978 145.327 595.871 145.274C597.56 145.171 599.307 145.068 600.259 146.583C601.386 148.375 601.906 150.731 601.766 153.398C601.703 154.607 601.455 156.231 600.695 157.645L603.086 157.517C603.384 157.022 603.863 156.639 604.46 156.418C605.274 156.117 606.209 156.156 606.965 156.525C608.192 157.127 609.052 158.455 609.267 160.074C609.526 162.046 608.763 164.083 607.322 165.263C605.869 166.451 603.774 166.694 602.179 165.905C599.375 168.747 595.519 170.523 591.533 170.791C591.234 170.812 590.917 170.824 590.586 170.824ZM587.913 143.582C587.726 143.582 587.533 143.608 587.334 143.666C586.532 143.902 585.538 144.268 584.948 145.008C584.554 145.502 584.351 146.146 584.16 146.818C582.933 151.128 582.378 155.582 582.511 160.062C582.55 161.43 582.655 163.035 583.129 164.57C583.46 165.653 584.132 167.165 585.445 168.234C587.262 169.711 589.723 169.881 591.461 169.764C595.323 169.503 599.058 167.734 601.705 164.909C601.873 164.729 602.148 164.694 602.356 164.827C603.62 165.627 605.432 165.478 606.666 164.468C607.84 163.506 608.458 161.836 608.243 160.207C608.113 159.22 607.588 157.976 606.508 157.447C606.011 157.202 605.36 157.178 604.812 157.379C604.366 157.545 604.033 157.841 603.872 158.214C603.795 158.394 603.622 158.513 603.426 158.525L599.741 158.723C599.54 158.735 599.352 158.627 599.258 158.45C599.165 158.273 599.184 158.056 599.305 157.897C600.359 156.53 600.662 154.665 600.732 153.342C600.861 150.888 600.394 148.739 599.382 147.126C598.754 146.128 597.444 146.205 595.927 146.296C594.955 146.354 593.949 146.415 593.026 146.181C592.004 145.922 591.178 145.327 590.381 144.751C589.522 144.13 588.76 143.58 587.906 143.58L587.913 143.582Z" fill="black"/>
<path d="M602.095 162.886C601.924 162.886 601.759 162.802 601.663 162.65C601.509 162.412 601.579 162.092 601.817 161.941C602.906 161.241 604.353 161.171 605.502 161.761C605.754 161.892 605.855 162.2 605.726 162.454C605.598 162.706 605.288 162.806 605.036 162.676C604.217 162.256 603.149 162.307 602.375 162.806C602.288 162.862 602.193 162.888 602.097 162.888L602.095 162.886Z" fill="black"/>
<path d="M571.933 284.504C571.151 266.707 570.636 262.58 570.617 262.283L639.55 261.485L646.669 284.819L571.935 284.504H571.933Z" fill="black"/>
<path d="M608.031 174.893L595.391 179.226L593.07 182.094L590.159 178.465L588.627 183.155L572.08 184.674C564.11 185.405 556.646 188.933 551.059 194.668C543.098 202.844 530.909 213.932 522.348 215.124C508.624 217.035 503.683 203.581 499.991 195.009C496.299 186.438 491.438 178.682 478.427 178.465C468.262 178.297 460.989 177.614 457.098 176.396C455.09 175.766 452.879 176.69 452.088 178.64C451.785 179.392 451.678 180.173 451.986 180.878C451.986 180.878 454.932 189.528 468.344 192.286C470.396 192.708 471.971 194.358 472.346 196.42C474.564 208.6 484.827 247.667 525.355 248.864L559.368 245.754C559.368 245.754 575.406 274.379 603.681 275.18C613.405 275.455 628.788 261.539 628.788 261.539L639.888 261.56L643.59 239.158C643.59 239.158 646.209 233.126 647.243 231.203C652.734 220.997 657.142 194.451 639.053 186.896C624.988 181.02 610.636 182.098 610.636 182.098L608.031 174.898V174.893Z" fill="white"/>
<path d="M603.968 275.695C603.865 275.695 603.767 275.695 603.664 275.691C576.964 274.935 560.895 249.326 559.088 246.293L525.402 249.375C525.381 249.375 525.36 249.378 525.341 249.375C484.41 248.167 474.044 208.605 471.84 196.509C471.497 194.626 470.084 193.165 468.239 192.787C454.696 190.001 451.624 181.408 451.498 181.044C451.181 180.32 451.214 179.434 451.612 178.449C452.48 176.305 454.957 175.187 457.252 175.906C461.045 177.093 468.171 177.782 478.434 177.952C492.159 178.181 497.001 186.772 500.46 194.806C500.651 195.247 500.842 195.702 501.041 196.166C504.672 204.694 509.643 216.373 522.274 214.616C530.535 213.465 542.287 202.937 550.688 194.309C556.335 188.51 563.914 184.905 572.029 184.161L588.24 182.672L589.667 178.304C589.725 178.125 589.877 177.992 590.063 177.959C590.248 177.924 590.437 177.996 590.556 178.143L593.065 181.275L594.985 178.902C595.046 178.827 595.127 178.771 595.218 178.738L607.861 174.405C608.126 174.314 608.416 174.452 608.511 174.716L610.986 181.557C613.398 181.44 626.518 181.1 639.249 186.415C644.787 188.727 648.666 192.923 650.779 198.884C654.732 210.038 651.355 224.637 647.695 231.441C646.737 233.222 644.36 238.672 644.087 239.298L640.394 261.637C640.355 261.884 640.138 262.066 639.888 262.066L628.984 262.048C627.297 263.55 613.382 275.691 603.968 275.693V275.695ZM559.368 245.236C559.552 245.236 559.724 245.336 559.815 245.5C559.974 245.784 576.045 273.882 603.695 274.664C603.786 274.666 603.877 274.669 603.968 274.669C613.391 274.669 628.291 261.292 628.443 261.156C628.538 261.07 628.66 261.023 628.788 261.023L639.452 261.042L643.082 239.071C643.089 239.029 643.1 238.99 643.117 238.95C643.224 238.703 645.757 232.876 646.788 230.958C650.359 224.322 653.657 210.091 649.809 199.232C647.796 193.555 644.11 189.563 638.853 187.367C625.07 181.611 610.814 182.595 610.671 182.607C610.447 182.628 610.228 182.486 610.149 182.269L607.716 175.544L595.692 179.665L593.464 182.418C593.366 182.539 593.219 182.609 593.065 182.609C592.909 182.609 592.762 182.539 592.667 182.418L590.35 179.529L589.112 183.316C589.049 183.512 588.874 183.65 588.671 183.669L572.124 185.188C564.252 185.911 556.902 189.404 551.425 195.03C542.912 203.773 530.967 214.445 522.416 215.638C521.511 215.764 520.643 215.824 519.811 215.824C508.293 215.824 503.406 204.347 500.096 196.574C499.898 196.112 499.707 195.657 499.518 195.219C496.184 187.479 491.529 179.203 478.418 178.986C468.057 178.813 460.831 178.108 456.945 176.893C455.156 176.335 453.234 177.189 452.564 178.841C452.273 179.562 452.238 180.18 452.454 180.68C452.499 180.803 455.512 189.129 468.444 191.789C470.702 192.253 472.43 194.036 472.848 196.334C475.015 208.234 485.201 247.149 525.336 248.356L559.316 245.248C559.333 245.248 559.347 245.248 559.363 245.248L559.368 245.236Z" fill="black"/>
<path d="M558.645 245.817L559.368 245.752C559.368 245.752 575.406 274.377 603.681 275.177C613.405 275.453 628.788 261.537 628.788 261.537L639.888 261.558L643.59 239.156C643.59 239.156 646.209 233.124 647.243 231.201C652.734 220.995 657.142 194.449 639.053 186.894C624.988 181.018 610.636 182.096 610.636 182.096L608.031 174.896L595.391 179.229L593.07 182.096L590.159 178.468L588.627 183.158L572.08 184.677C568.115 185.041 564.275 186.098 560.73 187.771L558.645 245.82V245.817Z" fill="white"/>
<path d="M603.968 275.695C603.865 275.695 603.767 275.695 603.664 275.691C576.964 274.935 560.895 249.326 559.088 246.293L558.689 246.33C558.414 246.358 558.157 246.148 558.131 245.866C558.106 245.584 558.313 245.334 558.596 245.308L559.319 245.243C559.517 245.222 559.715 245.327 559.813 245.504C559.972 245.789 576.043 273.887 603.692 274.669C613.095 274.909 628.289 261.296 628.44 261.161C628.534 261.075 628.657 261.028 628.786 261.028L639.45 261.047L643.079 239.076C643.086 239.034 643.098 238.994 643.114 238.955C643.221 238.707 645.755 232.881 646.786 230.963C650.357 224.327 653.655 210.096 649.806 199.237C647.793 193.56 644.108 189.567 638.85 187.372C625.068 181.615 610.811 182.6 610.669 182.612C610.445 182.633 610.226 182.49 610.146 182.273L607.714 175.549L595.69 179.669L593.462 182.423C593.364 182.544 593.217 182.614 593.063 182.614C592.907 182.614 592.76 182.544 592.664 182.423L590.348 179.534L589.109 183.321C589.047 183.517 588.872 183.655 588.669 183.673L572.122 185.192C568.229 185.549 564.469 186.576 560.944 188.24C560.688 188.361 560.382 188.251 560.261 187.995C560.14 187.738 560.249 187.432 560.506 187.311C564.138 185.594 568.014 184.537 572.026 184.168L588.237 182.679L589.665 178.311C589.723 178.132 589.875 177.999 590.061 177.966C590.245 177.931 590.434 178.003 590.553 178.15L593.063 181.282L594.983 178.909C595.043 178.834 595.125 178.778 595.216 178.745L607.858 174.412C608.124 174.321 608.413 174.459 608.509 174.723L610.984 181.564C613.396 181.447 626.518 181.107 639.247 186.422C644.784 188.734 648.663 192.93 650.776 198.891C654.73 210.045 651.353 224.644 647.693 231.448C646.734 233.229 644.357 238.679 644.085 239.305L640.392 261.644C640.352 261.891 640.136 262.073 639.886 262.073L628.981 262.055C627.295 263.557 613.379 275.698 603.965 275.7L603.968 275.695Z" fill="black"/>
<path d="M608.031 174.893L595.389 179.226L593.07 182.094L590.159 178.465L588.627 183.155L608.031 174.893Z" fill="white"/>
<path d="M588.627 183.669C588.573 183.669 588.519 183.659 588.468 183.643C588.197 183.554 588.051 183.265 588.139 182.994L589.672 178.304C589.73 178.125 589.882 177.992 590.068 177.959C590.252 177.924 590.441 177.996 590.56 178.143L593.07 181.275L594.99 178.902C595.05 178.827 595.132 178.771 595.223 178.738L607.865 174.405C608.133 174.312 608.425 174.457 608.518 174.725C608.609 174.993 608.467 175.285 608.199 175.378L595.697 179.662L593.469 182.416C593.371 182.537 593.224 182.607 593.07 182.607C592.914 182.607 592.767 182.537 592.671 182.416L590.355 179.527L589.117 183.314C589.047 183.531 588.844 183.669 588.629 183.669H588.627Z" fill="black"/>
<path d="M597.336 189.572C597.122 189.572 596.923 189.437 596.851 189.227L595.757 186.067C595.664 185.799 595.806 185.505 596.074 185.414C596.343 185.321 596.634 185.463 596.728 185.731L597.661 188.429C602.095 187.106 606.354 185.237 610.328 182.864C610.573 182.719 610.888 182.798 611.033 183.041C611.177 183.284 611.098 183.601 610.856 183.746C606.666 186.245 602.165 188.2 597.479 189.553C597.432 189.567 597.383 189.574 597.336 189.574V189.572Z" fill="black"/>
<path d="M590.486 188.391C590.329 188.391 590.175 188.321 590.075 188.186L587.915 185.307C587.745 185.08 587.792 184.758 588.018 184.588C588.244 184.418 588.566 184.464 588.736 184.691L590.896 187.57C591.066 187.796 591.02 188.118 590.794 188.289C590.7 188.359 590.593 188.391 590.486 188.391Z" fill="black"/>
<path d="M581.722 227.024L591.384 187.404L591.549 183.221L593.072 183.344L595.19 183.515L594.061 187.883L587.638 230.772L581.722 227.024Z" fill="#3BAB22"/>
<path d="M492.854 236.873C492.73 236.873 492.609 236.829 492.508 236.74C478.1 223.746 473.254 204.276 471.84 196.509C471.497 194.626 470.084 193.165 468.239 192.787C454.696 190.001 451.624 181.407 451.498 181.043C451.181 180.32 451.214 179.433 451.612 178.449C452.48 176.304 454.957 175.187 457.252 175.905C461.045 177.093 468.171 177.781 478.434 177.952C485.194 178.064 490.388 180.203 494.314 184.494C494.505 184.704 494.491 185.029 494.281 185.22C494.071 185.411 493.747 185.397 493.556 185.187C489.831 181.118 484.879 179.086 478.418 178.978C468.057 178.806 460.831 178.101 456.945 176.885C455.156 176.328 453.234 177.182 452.564 178.834C452.273 179.555 452.238 180.173 452.454 180.672C452.499 180.796 455.512 189.121 468.444 191.781C470.702 192.246 472.43 194.028 472.848 196.327C474.243 203.989 479.019 223.195 493.194 235.977C493.404 236.166 493.42 236.493 493.232 236.703C493.129 236.815 492.991 236.873 492.849 236.873H492.854Z" fill="black"/>
<path d="M466.578 187.231C466.557 187.231 466.538 187.231 466.517 187.227C461.684 186.65 457.005 185.297 452.611 183.202C452.426 183.113 452.312 182.926 452.317 182.723C452.324 182.52 452.45 182.338 452.636 182.261L452.83 182.184C453.091 182.077 453.392 182.203 453.499 182.467C453.502 182.474 453.504 182.481 453.506 182.488C457.665 184.413 462.081 185.663 466.636 186.205C466.918 186.237 467.119 186.494 467.086 186.776C467.056 187.038 466.834 187.229 466.576 187.229L466.578 187.231Z" fill="black"/>
<path d="M475.362 204.442C475.199 204.442 475.038 204.363 474.938 204.218C474.777 203.985 474.837 203.663 475.073 203.504C482.131 198.683 489.712 194.577 497.605 191.296C497.869 191.186 498.167 191.312 498.277 191.574C498.386 191.835 498.26 192.136 497.999 192.246C490.171 195.498 482.651 199.572 475.651 204.353C475.563 204.414 475.462 204.442 475.362 204.442Z" fill="black"/>
<path d="M480.692 214.669C480.536 214.669 480.382 214.599 480.281 214.464C480.111 214.237 480.155 213.915 480.382 213.743C486.852 208.866 493.801 204.54 501.029 200.886C501.281 200.758 501.591 200.86 501.72 201.112C501.848 201.367 501.745 201.675 501.493 201.803C494.318 205.429 487.424 209.722 481 214.562C480.906 214.632 480.799 214.664 480.692 214.664V214.669Z" fill="black"/>
<path d="M577.78 280.343V242.849C577.78 240.547 575.915 238.682 573.615 238.682H518.952C516.651 238.682 514.786 240.547 514.786 242.849V280.343C514.786 282.645 516.651 284.511 518.952 284.511H573.615C575.915 284.511 577.78 282.645 577.78 280.343Z" fill="#3BAB22"/>
<path d="M572.287 272.939H558.507C558.24 272.939 558.024 273.156 558.024 273.422V278.992C558.024 279.259 558.24 279.475 558.507 279.475H572.287C572.554 279.475 572.77 279.259 572.77 278.992V273.422C572.77 273.156 572.554 272.939 572.287 272.939Z" fill="white"/>
<path d="M544.747 243.946H520.629C520.363 243.946 520.146 244.162 520.146 244.429V248.972C520.146 249.239 520.363 249.455 520.629 249.455H544.747C545.014 249.455 545.23 249.239 545.23 248.972V244.429C545.23 244.162 545.014 243.946 544.747 243.946Z" fill="white"/>
<path d="M531.042 258.473H525.024C524.475 258.473 524.03 258.918 524.03 259.467V263.728C524.03 264.277 524.475 264.722 525.024 264.722H531.042C531.59 264.722 532.035 264.277 532.035 263.728V259.467C532.035 258.918 531.59 258.473 531.042 258.473Z" fill="white"/>
<path d="M539.044 264.318C538.907 264.318 538.772 264.264 538.671 264.157C538.478 263.949 538.487 263.625 538.692 263.431C539.215 262.939 539.504 262.274 539.504 261.557C539.504 260.878 539.24 260.239 538.765 259.754C538.566 259.551 538.569 259.226 538.772 259.026C538.972 258.827 539.299 258.83 539.499 259.03C540.166 259.709 540.535 260.605 540.535 261.555C540.535 262.505 540.122 263.499 539.399 264.178C539.299 264.271 539.173 264.318 539.047 264.318H539.044Z" fill="white"/>
<path d="M537.199 263.856C537.062 263.856 536.926 263.802 536.824 263.692C536.63 263.485 536.64 263.16 536.847 262.967C537.244 262.596 537.463 262.094 537.463 261.555C537.463 261.049 537.267 260.568 536.908 260.202C536.71 259.999 536.712 259.674 536.915 259.474C537.118 259.275 537.442 259.278 537.643 259.481C538.191 260.038 538.492 260.776 538.492 261.553C538.492 262.33 538.149 263.156 537.552 263.716C537.451 263.809 537.325 263.853 537.199 263.853V263.856Z" fill="white"/>
<path d="M535.352 263.396C535.214 263.396 535.077 263.34 534.976 263.233C534.783 263.025 534.795 262.698 535.002 262.507C535.27 262.257 535.42 261.919 535.42 261.557C535.42 261.219 535.289 260.899 535.051 260.654C534.853 260.451 534.858 260.125 535.06 259.926C535.263 259.728 535.59 259.733 535.788 259.938C536.213 260.374 536.446 260.951 536.446 261.557C536.446 262.199 536.175 262.82 535.702 263.261C535.604 263.352 535.478 263.398 535.352 263.398V263.396Z" fill="white"/>
<path d="M533.507 262.936C533.367 262.936 533.229 262.88 533.127 262.768C532.936 262.558 532.95 262.234 533.159 262.043C533.299 261.914 533.376 261.742 533.376 261.555C533.376 261.385 533.311 261.224 533.192 261.1C532.996 260.895 533.003 260.57 533.208 260.374C533.414 260.178 533.738 260.185 533.936 260.391C534.237 260.706 534.405 261.121 534.405 261.555C534.405 262.026 534.204 262.481 533.852 262.801C533.754 262.892 533.631 262.936 533.507 262.936Z" fill="white"/>
<path d="M538.937 274.876H520.419C520.153 274.876 519.936 275.093 519.936 275.359V276.815C519.936 277.082 520.153 277.298 520.419 277.298H538.937C539.204 277.298 539.42 277.082 539.42 276.815V275.359C539.42 275.093 539.204 274.876 538.937 274.876Z" fill="white"/>
<path d="M550.073 274.876H541.477C541.211 274.876 540.994 275.093 540.994 275.359V276.815C540.994 277.082 541.211 277.298 541.477 277.298H550.073C550.339 277.298 550.555 277.082 550.555 276.815V275.359C550.555 275.093 550.339 274.876 550.073 274.876Z" fill="white"/>
<path d="M533.628 267.615H526.001C525.734 267.615 525.518 267.831 525.518 268.098V269.915C525.518 270.182 525.734 270.398 526.001 270.398H533.628C533.895 270.398 534.111 270.182 534.111 269.915V268.098C534.111 267.831 533.895 267.615 533.628 267.615Z" fill="#3BAB22"/>
<path d="M544.642 267.615H537.015C536.748 267.615 536.532 267.831 536.532 268.098V269.915C536.532 270.182 536.748 270.398 537.015 270.398H544.642C544.909 270.398 545.125 270.182 545.125 269.915V268.098C545.125 267.831 544.909 267.615 544.642 267.615Z" fill="#3BAB22"/>
<path d="M555.654 267.615H548.027C547.76 267.615 547.544 267.831 547.544 268.098V269.915C547.544 270.182 547.76 270.398 548.027 270.398H555.654C555.921 270.398 556.137 270.182 556.137 269.915V268.098C556.137 267.831 555.921 267.615 555.654 267.615Z" fill="#3BAB22"/>
<path d="M566.666 267.615H559.039C558.772 267.615 558.556 267.831 558.556 268.098V269.915C558.556 270.182 558.772 270.398 559.039 270.398H566.666C566.933 270.398 567.149 270.182 567.149 269.915V268.098C567.149 267.831 566.933 267.615 566.666 267.615Z" fill="#3BAB22"/>
<path d="M572.089 222.864L564.296 220.398C543.966 215.092 534.519 226.264 529.77 240.658C528.903 243.29 528.152 245.665 527.631 247.492C527.03 249.611 529.192 251.445 531.186 250.514C532.866 249.732 534.592 247.954 535.469 244.114C535.469 244.114 533.81 251.884 537.185 251.884C540.185 251.884 541.927 247.082 541.927 247.082C541.927 247.082 541.022 251.884 543.646 251.884C546.569 251.884 548.47 246.669 548.47 246.669C548.47 246.669 547.206 251.884 549.809 252.269C551.167 252.469 552.48 251.664 554.124 248.778C555.195 246.9 557.203 245.747 559.368 245.747C562.633 245.747 565.542 243.675 566.603 240.583C568.537 234.955 571.424 226.296 572.089 222.859V222.864Z" fill="white"/>
<path d="M550.194 252.814C550.042 252.814 549.891 252.803 549.737 252.779C549.112 252.686 548.615 252.373 548.26 251.846C547.829 251.204 547.672 250.322 547.651 249.461C546.737 250.901 545.373 252.399 543.651 252.399C542.986 252.399 542.422 252.142 542.021 251.657C541.554 251.095 541.356 250.287 541.291 249.501C540.411 250.887 539.03 252.399 537.19 252.399C536.483 252.399 535.879 252.114 535.445 251.575C534.769 250.74 534.557 249.366 534.547 248.012C533.738 249.389 532.688 250.383 531.41 250.978C530.302 251.494 529.036 251.323 528.105 250.532C527.179 249.741 526.81 248.523 527.144 247.35C527.629 245.646 528.35 243.341 529.288 240.494C532.04 232.15 535.837 226.336 540.896 222.719C546.994 218.363 554.91 217.413 564.432 219.898L572.25 222.374C572.5 222.453 572.649 222.705 572.6 222.962C571.949 226.324 569.246 234.493 567.095 240.756C565.962 244.05 562.859 246.265 559.375 246.265C557.392 246.265 555.554 247.326 554.579 249.037C553.103 251.624 551.733 252.814 550.201 252.814H550.194ZM548.472 246.157C548.521 246.157 548.573 246.164 548.622 246.181C548.883 246.26 549.037 246.528 548.972 246.794C548.759 247.669 548.375 250.18 549.109 251.274C549.301 251.559 549.548 251.715 549.884 251.764C550.716 251.886 551.906 251.634 553.676 248.528C554.833 246.498 557.012 245.238 559.365 245.238C562.412 245.238 565.124 243.304 566.116 240.422C567.797 235.527 570.666 226.97 571.492 223.216L564.142 220.89C547.232 216.477 536.14 222.994 530.26 240.821C529.327 243.654 528.609 245.947 528.128 247.637C527.902 248.43 528.142 249.223 528.767 249.755C529.388 250.283 530.232 250.397 530.972 250.052C532.917 249.146 534.26 247.112 534.97 244.004C535.033 243.728 535.308 243.556 535.581 243.616C535.856 243.677 536.031 243.95 535.973 244.225C535.674 245.63 535.14 249.573 536.241 250.934C536.483 251.235 536.784 251.375 537.188 251.375C539.352 251.375 540.997 248.152 541.447 246.911C541.538 246.659 541.811 246.521 542.065 246.591C542.324 246.661 542.485 246.918 542.434 247.182C542.291 247.947 542.079 250.126 542.809 251.006C543.017 251.258 543.285 251.375 543.649 251.375C545.746 251.375 547.493 247.854 547.99 246.498C548.064 246.29 548.263 246.16 548.472 246.16V246.157Z" fill="black"/>
<path d="M535.501 244.506C535.464 244.506 535.427 244.501 535.389 244.494C535.112 244.433 534.937 244.158 535 243.88C535.457 241.822 536.108 239.797 536.936 237.86C537.048 237.599 537.351 237.478 537.61 237.59C537.871 237.702 537.992 238.003 537.881 238.264C537.078 240.14 536.446 242.105 536.003 244.102C535.949 244.342 535.737 244.506 535.501 244.506Z" fill="black"/>
<path d="M542.021 247.438C541.99 247.438 541.958 247.436 541.927 247.429C541.648 247.378 541.463 247.109 541.515 246.832C542.03 244.027 542.688 241.218 543.474 238.483C543.551 238.21 543.835 238.051 544.108 238.131C544.381 238.21 544.54 238.495 544.46 238.765C543.686 241.47 543.035 244.246 542.525 247.018C542.478 247.266 542.263 247.441 542.021 247.441V247.438Z" fill="black"/>
<path d="M548.475 247.186C548.435 247.186 548.393 247.182 548.351 247.172C548.076 247.105 547.908 246.825 547.976 246.549C548.36 244.988 548.89 243.32 549.403 241.705C549.66 240.896 549.912 240.105 550.133 239.365C550.215 239.094 550.497 238.938 550.772 239.02C551.045 239.101 551.199 239.386 551.117 239.659C550.896 240.406 550.642 241.201 550.383 242.018C549.874 243.616 549.349 245.271 548.972 246.797C548.913 247.03 548.703 247.186 548.472 247.186H548.475Z" fill="black"/>
<path d="M605.267 243.367C605.185 243.367 605.104 243.348 605.027 243.306C604.775 243.173 604.681 242.861 604.814 242.611L617.296 219.1C618.065 217.651 618.189 215.932 617.639 214.387C617.543 214.119 617.683 213.825 617.949 213.729C618.217 213.633 618.511 213.773 618.607 214.039C619.255 215.857 619.11 217.875 618.205 219.581L605.724 243.092C605.631 243.264 605.453 243.365 605.269 243.365L605.267 243.367Z" fill="black"/>
<path d="M607.655 244.954C607.655 244.954 586.583 228.242 572.091 222.866L607.655 244.954Z" fill="white"/>
<path d="M607.655 245.467C607.543 245.467 607.431 245.43 607.336 245.355C607.126 245.189 586.161 228.632 571.912 223.345C571.646 223.247 571.511 222.95 571.609 222.684C571.707 222.418 572.003 222.283 572.269 222.381C586.672 227.724 607.763 244.38 607.975 244.548C608.196 244.725 608.234 245.047 608.059 245.269C607.959 245.397 607.807 245.462 607.655 245.462V245.467Z" fill="black"/>
<path d="M628.573 262.3C628.475 262.3 628.375 262.272 628.289 262.213C628.053 262.057 627.988 261.737 628.146 261.499L643.007 239.225C643.166 238.99 643.483 238.924 643.721 239.083C643.956 239.239 644.022 239.559 643.863 239.797L629.003 262.071C628.902 262.22 628.741 262.3 628.573 262.3Z" fill="black"/>
<path d="M578.646 239.974C578.588 239.974 578.529 239.965 578.473 239.944C578.205 239.848 578.067 239.554 578.163 239.286C579.35 235.963 580.052 232.531 580.255 229.085C580.272 228.802 580.512 228.583 580.799 228.602C581.081 228.618 581.298 228.861 581.282 229.145C581.074 232.69 580.351 236.218 579.131 239.634C579.056 239.844 578.858 239.974 578.648 239.974H578.646Z" fill="black"/>
<path d="M247.011 82.9058C246.976 82.9058 246.941 82.9035 246.906 82.8942C246.629 82.8358 246.449 82.5652 246.507 82.2852C247.916 75.5068 250.034 68.8195 252.803 62.4098C263.656 37.2752 283.646 17.8735 309.086 7.77716C334.53 -2.31917 362.377 -1.89917 387.503 8.95783C391.809 10.8175 396.015 12.9852 400.001 15.3955C400.243 15.5425 400.32 15.8575 400.173 16.1025C400.027 16.3452 399.712 16.4222 399.469 16.2775C395.522 13.8905 391.359 11.7462 387.095 9.90283C362.221 -0.846835 334.653 -1.25984 309.467 8.73383C284.28 18.7275 264.493 37.9355 253.748 62.8182C251.007 69.1648 248.91 75.7868 247.515 82.4975C247.464 82.7402 247.251 82.9058 247.011 82.9058Z" fill="black"/>
<path d="M246.972 83.0224C246.794 83.0224 246.619 82.9291 246.526 82.7634L241.639 74.2491C241.497 74.0018 241.583 73.6891 241.828 73.5468C242.076 73.4044 242.388 73.4908 242.53 73.7358L247.16 81.8044L255.226 77.1728C255.474 77.0304 255.786 77.1168 255.928 77.3618C256.071 77.6091 255.984 77.9218 255.739 78.0641L247.228 82.9524C247.147 82.9991 247.06 83.0201 246.972 83.0201V83.0224Z" fill="black"/>
<path d="M352.704 230.872C342.717 230.872 332.733 229.395 323.021 226.436C322.75 226.355 322.596 226.068 322.678 225.795C322.762 225.524 323.049 225.368 323.319 225.452C362.944 237.517 406.791 223.734 432.425 191.159C432.6 190.937 432.924 190.897 433.146 191.072C433.37 191.247 433.407 191.572 433.232 191.793C420.536 207.928 403.423 219.765 383.746 226.026C373.594 229.255 363.145 230.87 352.704 230.87V230.872Z" fill="black"/>
<path d="M434.767 201.591C434.527 201.591 434.31 201.421 434.263 201.176L432.493 192.043L423.363 193.814C423.086 193.868 422.815 193.686 422.762 193.408C422.708 193.13 422.89 192.86 423.167 192.806L432.801 190.937C433.081 190.886 433.349 191.065 433.403 191.343L435.271 200.98C435.325 201.257 435.143 201.528 434.865 201.582C434.832 201.589 434.8 201.591 434.767 201.591Z" fill="black"/>
<path d="M204.49 287.892C255.239 287.892 296.379 246.743 296.379 195.984C296.379 145.225 255.239 104.076 204.49 104.076C153.74 104.076 112.6 145.225 112.6 195.984C112.6 246.743 153.74 287.892 204.49 287.892Z" fill="#3BAB22"/>
<path d="M204.49 268.756C164.37 268.756 131.731 236.11 131.731 195.984C131.731 155.858 164.37 123.212 204.49 123.212C244.609 123.212 277.248 155.858 277.248 195.984C277.248 236.11 244.609 268.756 204.49 268.756ZM204.49 124.241C164.937 124.241 132.76 156.425 132.76 195.984C132.76 235.543 164.939 267.727 204.49 267.727C244.04 267.727 276.219 235.543 276.219 195.984C276.219 156.425 244.04 124.241 204.49 124.241Z" fill="white"/>
<path d="M165.136 216.033H151.941V203.366H165.136V188.966H151.941V176.3H165.136V149.366H186.462L202.19 176.3H223.915V149.366H243.908V176.3H257.104V188.966H243.908V203.366H257.104V216.033H243.908V242.7H222.583L206.988 216.033H185.129V242.7H165.136V216.033ZM199.524 203.366L191.127 188.966H185.129V203.366H199.524ZM218.051 203.366H223.915V188.966H209.654L218.051 203.366Z" fill="white"/>
<path d="M130.836 288.141L127.185 287.287L133.567 271.15C128.837 263.513 111.492 267.346 111.492 267.346C111.492 267.346 103.865 276.5 99.6312 285.327C108.688 285.196 120.022 285.724 130.833 288.141H130.836Z" fill="white"/>
<path d="M130.836 288.654C130.798 288.654 130.761 288.65 130.724 288.643C121.664 286.617 111.208 285.675 99.6406 285.843C99.461 285.843 99.2954 285.756 99.1997 285.605C99.1041 285.455 99.0924 285.266 99.1694 285.105C103.38 276.32 111.021 267.108 111.098 267.017C111.17 266.929 111.271 266.868 111.382 266.845C112.106 266.686 129.14 263.023 134.006 270.879C134.092 271.017 134.106 271.187 134.048 271.339L127.885 286.921L130.955 287.639C131.23 287.705 131.402 287.978 131.339 288.255C131.286 288.493 131.074 288.654 130.838 288.654H130.836ZM102.218 284.795C111.149 284.795 119.397 285.469 126.821 286.809L132.993 271.208C128.568 264.637 113.552 267.454 111.777 267.813C110.844 268.952 104.39 276.95 100.464 284.804C101.052 284.8 101.637 284.795 102.22 284.795H102.218Z" fill="black"/>
<path d="M110.009 272.956L88.2463 223.445C88.2463 223.445 118.63 188.454 124.211 183.433C129.793 178.412 139.66 161.719 137.663 157.456C135.963 153.828 130.336 159.799 128.608 162.118C126.88 164.44 124.281 166.67 124.927 158.826C125.574 150.981 135.106 135.392 135.106 135.392C135.106 135.392 128.981 133.208 123.871 138.32C123.005 139.186 121.072 142.959 119.182 147.838C115.887 156.338 111.83 161.052 105.838 166.647C95.7663 176.05 70.5448 195.202 63.1577 204.461C39.8209 233.714 70.7337 288.68 70.7337 288.68L110.013 272.954L110.009 272.956Z" fill="white"/>
<path d="M70.7291 289.196C70.5495 289.196 70.3745 289.1 70.2812 288.934C70.2043 288.797 62.4673 274.939 57.695 257.679C51.3552 234.75 53.1023 216.237 62.7519 204.143C67.4706 198.228 79.4364 188.288 89.9957 179.517C96.0719 174.47 101.812 169.701 105.484 166.273C111.581 160.58 115.492 155.927 118.7 147.653C120.493 143.026 122.513 138.95 123.505 137.958C128.785 132.676 135.214 134.885 135.277 134.909C135.543 135.004 135.683 135.298 135.587 135.564C135.494 135.833 135.197 135.97 134.932 135.877C134.694 135.793 129.04 133.873 124.23 138.684C123.474 139.44 121.615 142.968 119.656 148.024C116.376 156.483 112.39 161.226 106.183 167.022C102.491 170.471 96.739 175.247 90.6511 180.306C80.1314 189.044 68.2076 198.949 63.5543 204.783C51.6398 219.721 54.3268 241.633 58.6793 257.385C62.9688 272.909 69.6748 285.663 70.96 288.034L109.323 272.673L87.7751 223.65C87.6958 223.468 87.7261 223.256 87.8567 223.106C87.9827 222.962 100.618 208.413 110.974 196.863C111.166 196.651 111.49 196.635 111.7 196.824C111.912 197.013 111.928 197.339 111.739 197.549C102.129 208.269 90.5555 221.571 88.8457 223.536L110.477 272.748C110.533 272.876 110.536 273.021 110.482 273.149C110.428 273.278 110.326 273.38 110.198 273.432L70.918 289.158C70.855 289.184 70.7897 289.196 70.7268 289.196H70.7291Z" fill="black"/>
<path d="M123.551 180.502C123.376 180.502 123.204 180.411 123.108 180.25C116.778 169.557 109.612 166.829 109.54 166.803C109.274 166.705 109.136 166.411 109.234 166.143C109.332 165.877 109.626 165.739 109.894 165.837C110.2 165.949 117.477 168.721 123.992 179.728C124.137 179.973 124.055 180.288 123.812 180.432C123.731 180.481 123.64 180.505 123.551 180.505V180.502Z" fill="black"/>
<path d="M116.187 187.458C116.013 187.458 115.84 187.367 115.744 187.206C109.414 176.512 102.248 173.785 102.178 173.759C101.912 173.661 101.775 173.365 101.873 173.099C101.971 172.833 102.265 172.697 102.533 172.793C102.838 172.905 110.116 175.677 116.631 186.681C116.775 186.926 116.694 187.241 116.451 187.386C116.369 187.435 116.278 187.458 116.19 187.458H116.187Z" fill="black"/>
<path d="M271.745 258.646C261.242 270.121 248.406 276.794 248.406 276.794C247.709 272.186 254.706 269.706 252.866 264.325C251.025 258.944 243.373 269.073 239.337 272.956C236.34 275.84 228.542 281.433 219.609 287.525C202.623 299.108 181.531 312.497 181.531 312.497C181.531 312.497 159.283 300.188 143.753 291.697C139.723 289.492 136.191 288.606 133.084 288.673C109.169 282.686 81.6756 286.513 81.6756 286.513L40.9429 426.986H154.247L143.219 338.154C168.389 354.506 186.175 349.265 198.236 340.275C208.373 332.72 237.851 307.095 249.383 297.02C252.178 294.579 259.642 287.656 262.48 285.267C277.084 272.97 275.015 255.076 271.745 258.648V258.646Z" fill="white"/>
<path d="M154.247 427.5C153.991 427.5 153.769 427.308 153.739 427.049L142.711 338.217C142.685 338.019 142.778 337.825 142.948 337.718C143.116 337.613 143.333 337.613 143.501 337.722C163.815 350.92 182.128 351.641 197.93 339.862C207.988 332.367 237.028 307.132 249.048 296.63C250.214 295.61 252.213 293.795 254.328 291.872C257.218 289.245 260.495 286.265 262.152 284.87C271.787 276.757 274.206 266.054 273.481 260.839C273.275 259.364 272.858 258.809 272.646 258.711C272.387 258.594 272.272 258.291 272.389 258.032C272.506 257.773 272.809 257.659 273.07 257.775C273.973 258.181 274.346 259.591 274.5 260.699C275.256 266.14 272.769 277.277 262.814 285.659C261.172 287.042 257.904 290.013 255.021 292.635C252.901 294.563 250.9 296.38 249.726 297.407C237.697 307.916 208.634 333.17 198.549 340.688C190.905 346.386 182.692 349.235 173.976 349.235C164.515 349.235 154.459 345.884 143.87 339.178L154.763 426.923C154.798 427.206 154.597 427.462 154.317 427.497C154.296 427.499 154.275 427.502 154.254 427.502L154.247 427.5Z" fill="black"/>
<path d="M40.9429 427.499C40.8962 427.499 40.8473 427.492 40.7983 427.478C40.5254 427.399 40.3691 427.114 40.4484 426.841L81.1811 286.37C81.2371 286.176 81.4027 286.032 81.6033 286.004C81.8785 285.964 109.421 282.238 133.143 288.157C136.483 288.097 140.145 289.137 144 291.244C158.441 299.138 178.939 310.473 181.514 311.899C183.975 310.333 203.528 297.869 219.303 287.112C219.539 286.953 219.858 287.012 220.017 287.247C220.178 287.483 220.117 287.803 219.882 287.961C203.085 299.416 182.018 312.797 181.806 312.93C181.647 313.031 181.447 313.038 181.281 312.947C181.059 312.823 158.858 300.54 143.506 292.147C139.786 290.113 136.284 289.116 133.096 289.186C133.052 289.189 133.005 289.182 132.961 289.172C110.82 283.628 85.2607 286.578 82.0768 286.979L41.4374 427.128C41.3721 427.352 41.1668 427.499 40.9452 427.499H40.9429Z" fill="black"/>
<path d="M247.326 295.041C247.135 295.041 246.951 294.934 246.862 294.752C241.465 283.598 234.535 280.25 234.465 280.217C234.208 280.096 234.096 279.79 234.217 279.534C234.339 279.277 234.642 279.165 234.898 279.284C235.195 279.422 242.213 282.791 247.786 294.304C247.909 294.56 247.802 294.866 247.548 294.99C247.475 295.025 247.398 295.041 247.324 295.041H247.326Z" fill="black"/>
<path d="M239.405 301.359C239.214 301.359 239.032 301.252 238.941 301.07C233.543 289.917 226.613 286.568 226.543 286.536C226.287 286.414 226.175 286.109 226.296 285.852C226.417 285.595 226.721 285.483 226.977 285.602C227.273 285.74 234.292 289.109 239.864 300.62C239.988 300.876 239.881 301.182 239.626 301.306C239.554 301.341 239.477 301.357 239.403 301.357L239.405 301.359Z" fill="black"/>
<path d="M142.116 337.918C142.027 337.918 141.938 337.895 141.857 337.848C141.171 337.447 139.587 336.199 137.908 334.876C136.331 333.634 134.701 332.351 134.076 331.982C133.42 331.597 132.678 331.161 131.92 331.103C131.295 331.051 130.56 331.352 130.388 331.931C130.306 332.202 130.022 332.358 129.749 332.276C129.476 332.195 129.322 331.91 129.404 331.637C129.737 330.519 130.994 330.001 132.002 330.076C132.996 330.153 133.847 330.652 134.598 331.093C135.284 331.495 136.868 332.743 138.547 334.066C140.124 335.307 141.754 336.591 142.379 336.959C142.624 337.104 142.706 337.419 142.564 337.662C142.468 337.825 142.295 337.916 142.12 337.916L142.116 337.918Z" fill="black"/>
<path d="M137.987 232.288C136.058 229.939 133.017 229.386 130.157 230.041C128.377 230.45 127.199 232.018 125.893 233.173C125.354 233.649 124.762 234.12 124.064 234.342C123.407 234.549 122.663 234.542 121.986 234.449C120.477 234.244 119.098 233.481 117.578 233.338C115.567 233.149 113.538 234.153 112.101 235.506C110.718 236.808 109.792 238.504 108.555 239.937C107.469 241.195 106.193 242.247 104.667 242.921C103.076 243.626 101.371 244.072 99.8506 244.935C98.4744 245.717 97.2871 246.788 96.4264 248.12C94.7657 250.689 94.3551 253.825 93.821 256.772C93.5458 258.293 93.2449 259.815 92.776 261.287C92.3072 262.752 91.6821 264.323 90.6978 265.524C88.4399 268.275 84.7149 269.339 81.4657 270.392C77.6707 271.621 74.0646 273.336 70.6171 275.343C66.9411 277.48 63.4493 280.035 60.6317 283.241C57.9073 286.34 55.976 290.083 54.9566 294.077C53.9537 298.007 53.8487 302.188 54.8307 306.134C55.801 310.03 57.863 313.575 60.725 316.386C66.3253 321.893 74.3538 323.862 82.0185 323.083C85.5336 322.726 88.9717 321.73 92.1206 320.122C95.1132 318.594 97.7793 316.512 100.226 314.219C117.433 298.086 122.688 276.834 125.578 266.147C126.81 261.59 130.917 259.973 131.636 255.372C132.513 249.756 132.45 249.448 136.744 245.726C138.752 243.985 140.625 239.701 139.8 236.507C139.557 234.969 138.981 233.492 137.992 232.288H137.987Z" fill="black"/>
<path d="M135.608 243.283C135.608 243.283 126.061 246.762 126.95 251.524C127.838 256.286 127.866 258.694 125.639 260.722C125.639 260.722 117.314 258.123 116.402 263.898C115.49 269.673 121.669 271.875 126.259 270.186C126.259 270.186 131.176 275.361 138.857 271.56C146.538 267.759 142.258 255.232 135.613 243.28L135.608 243.283Z" fill="white"/>
<path d="M133.341 273.46C129.504 273.46 126.917 271.467 126.133 270.776C123.241 271.731 119.968 271.252 117.9 269.554C116.236 268.186 115.523 266.152 115.891 263.821C116.124 262.344 116.822 261.236 117.967 260.526C120.486 258.963 124.391 259.852 125.497 260.151C127.335 258.326 127.279 256.088 126.444 251.622C125.487 246.491 135.025 242.949 135.431 242.802C135.669 242.716 135.932 242.814 136.056 243.035C142.239 254.154 144.572 262.363 142.993 267.438C142.344 269.519 141.029 271.063 139.081 272.027C136.959 273.077 135.027 273.464 133.338 273.464L133.341 273.46ZM126.257 269.673C126.395 269.673 126.53 269.729 126.63 269.834C126.821 270.032 131.395 274.682 138.626 271.101C140.336 270.254 141.444 268.954 142.013 267.127C143.466 262.458 141.173 254.441 135.377 243.924C133.611 244.641 126.756 247.679 127.456 251.431C128.375 256.357 128.38 258.923 125.984 261.105C125.849 261.228 125.66 261.268 125.485 261.214C125.441 261.2 121.002 259.847 118.508 261.399C117.617 261.952 117.095 262.796 116.906 263.982C116.593 265.965 117.162 267.619 118.55 268.76C120.391 270.272 123.486 270.662 126.077 269.708C126.136 269.687 126.194 269.675 126.255 269.675L126.257 269.673Z" fill="black"/>
<path d="M125.574 266.663C125.459 266.663 125.345 266.626 125.249 266.549C123.955 265.496 122.047 265.214 120.503 265.851C120.239 265.958 119.94 265.835 119.831 265.571C119.724 265.307 119.847 265.009 120.111 264.899C121.993 264.122 124.319 264.465 125.898 265.748C126.117 265.928 126.152 266.25 125.972 266.472C125.87 266.598 125.723 266.661 125.574 266.661V266.663Z" fill="black"/>
<path d="M679.917 415.427H505.906C505.622 415.427 505.393 415.196 505.393 414.913C505.393 414.631 505.624 414.4 505.906 414.4H679.403V284.874H640.537C640.252 284.874 640.024 284.643 640.024 284.361C640.024 284.079 640.255 283.848 640.537 283.848H679.917C680.201 283.848 680.43 284.079 680.43 284.361V414.916C680.43 415.2 680.199 415.429 679.917 415.429V415.427Z" fill="black"/>
<path d="M376.02 415.427H165.056C164.771 415.427 164.543 415.196 164.543 414.913C164.543 414.631 164.774 414.4 165.056 414.4H376.02C376.305 414.4 376.533 414.631 376.533 414.913C376.533 415.196 376.303 415.427 376.02 415.427Z" fill="black"/>
<path d="M404.678 426.643C411.468 426.643 416.972 421.126 416.972 414.32C416.972 407.515 411.468 401.998 404.678 401.998C397.887 401.998 392.383 407.515 392.383 414.32C392.383 421.126 397.887 426.643 404.678 426.643Z" fill="#3BAB22"/>
<path d="M440.556 426.643C447.346 426.643 452.851 421.126 452.851 414.32C452.851 407.515 447.346 401.998 440.556 401.998C433.766 401.998 428.262 407.515 428.262 414.32C428.262 421.126 433.766 426.643 440.556 426.643Z" fill="#CBECC3"/>
<path d="M476.435 426.643C483.225 426.643 488.73 421.126 488.73 414.32C488.73 407.515 483.225 401.998 476.435 401.998C469.645 401.998 464.14 407.515 464.14 414.32C464.14 421.126 469.645 426.643 476.435 426.643Z" fill="white"/>
<path d="M476.435 427.156C469.372 427.156 463.627 421.398 463.627 414.321C463.627 407.244 469.372 401.485 476.435 401.485C483.498 401.485 489.243 407.244 489.243 414.321C489.243 421.398 483.498 427.156 476.435 427.156ZM476.435 402.514C469.939 402.514 464.654 407.811 464.654 414.321C464.654 420.831 469.939 426.127 476.435 426.127C482.931 426.127 488.217 420.831 488.217 414.321C488.217 407.811 482.931 402.514 476.435 402.514Z" fill="black"/>
<path d="M74.7431 138.57H7.23983C3.34755 138.57 0.189087 141.726 0.189087 145.617V164.919C0.189087 168.811 3.34518 171.966 7.23983 171.966H53.6241L64.8165 184.703C65.7522 185.769 67.5095 185.107 67.5095 183.69V171.968C73.3705 172.025 81.4163 173.094 81.7939 164.922V145.619C81.7939 141.728 78.6378 138.573 74.7431 138.573V138.57Z" fill="#3BAB22"/>
<path d="M22.7757 155.463C22.7543 160.045 15.7843 160.045 15.7629 155.463C15.7843 150.88 22.7543 150.88 22.7757 155.463Z" fill="#D1F9B2"/>
<path d="M43.5194 155.463C43.4981 160.045 36.5281 160.045 36.5067 155.463C36.5281 150.88 43.4981 150.88 43.5194 155.463Z" fill="#D1F9B2"/>
<path d="M64.2632 155.463C64.2418 160.045 57.2718 160.045 57.2504 155.463C57.2718 150.88 64.2418 150.88 64.2632 155.463Z" fill="#D1F9B2"/>
<path d="M681 114.013C680.202 160.704 610.72 160.697 609.93 114.013C610.728 67.3247 680.209 67.3318 681 114.013Z" fill="#3BAB22"/>
<path d="M637.135 115.464C635.28 113.838 632.191 107.84 629.108 110.625L626.883 112.593C625.724 113.619 625.615 115.39 626.641 116.551L636.394 127.57C637.42 128.729 639.192 128.838 640.353 127.812C642.78 125.649 665.54 105.552 668.539 102.888C670.895 100.694 668.364 98.3886 666.813 96.7077C665.787 95.5491 664.015 95.4399 662.854 96.4655L641.094 115.708C639.935 116.734 638.161 116.625 637.135 115.466V115.464Z" fill="white"/>
</svg>
