<svg width="730" height="340" viewBox="0 0 730 340" fill="none" xmlns="http://www.w3.org/2000/svg">
<g filter="url(#filter0_d_133_62245)">
<rect x="229.5" y="116" width="452" height="100" rx="50" fill="#1A1A1B" shape-rendering="crispEdges"/>
<rect x="343.5" y="142" width="48" height="48" rx="24" fill="white"/>
<path fill-rule="evenodd" clip-rule="evenodd" d="M378.401 157.017C378.944 157.515 378.98 158.358 378.483 158.901L363.816 174.901C363.57 175.169 363.226 175.325 362.862 175.333C362.499 175.341 362.148 175.2 361.891 174.943L355.891 168.943C355.37 168.422 355.37 167.578 355.891 167.057C356.411 166.536 357.255 166.536 357.776 167.057L362.791 172.072L376.517 157.099C377.015 156.556 377.858 156.519 378.401 157.017Z" fill="#3BAB22"/>
<path d="M408.964 155V145.2H412.758C413.728 145.2 414.498 145.475 415.068 146.026C415.637 146.567 415.922 147.277 415.922 148.154C415.922 149.031 415.637 149.745 415.068 150.296C414.498 150.837 413.728 151.108 412.758 151.108H410.42V155H408.964ZM412.716 149.848C413.304 149.848 413.742 149.689 414.032 149.372C414.321 149.055 414.466 148.649 414.466 148.154C414.466 147.659 414.321 147.253 414.032 146.936C413.742 146.619 413.304 146.46 412.716 146.46H410.42V149.848H412.716ZM420.053 147.02L418.457 151.234H421.649L420.053 147.02ZM415.531 155L419.381 145.2H420.725L424.575 155H423.063L422.125 152.508H417.981L417.043 155H415.531ZM427.152 155V150.912L423.722 145.2H425.346L427.88 149.526L430.428 145.2H432.052L428.608 150.912V155H427.152ZM436.956 155.112C435.556 155.112 434.394 154.636 433.47 153.684C432.546 152.732 432.084 151.537 432.084 150.1C432.084 148.663 432.546 147.468 433.47 146.516C434.394 145.564 435.556 145.088 436.956 145.088C438.347 145.088 439.504 145.564 440.428 146.516C441.352 147.468 441.814 148.663 441.814 150.1C441.814 151.537 441.352 152.732 440.428 153.684C439.504 154.636 438.347 155.112 436.956 155.112ZM436.942 153.824C437.922 153.824 438.729 153.474 439.364 152.774C440.008 152.065 440.33 151.173 440.33 150.1C440.33 149.027 440.008 148.14 439.364 147.44C438.729 146.731 437.922 146.376 436.942 146.376C435.971 146.376 435.164 146.731 434.52 147.44C433.885 148.14 433.568 149.027 433.568 150.1C433.568 151.173 433.885 152.065 434.52 152.774C435.164 153.474 435.971 153.824 436.942 153.824ZM449.938 154.174C449.257 154.799 448.347 155.112 447.208 155.112C446.07 155.112 445.155 154.799 444.464 154.174C443.783 153.539 443.442 152.671 443.442 151.57V145.2H444.842V151.612C444.842 152.303 445.057 152.844 445.486 153.236C445.916 153.619 446.49 153.81 447.208 153.81C447.927 153.81 448.501 153.619 448.93 153.236C449.36 152.844 449.574 152.303 449.574 151.612V145.2H450.96V151.57C450.96 152.671 450.62 153.539 449.938 154.174ZM455.21 155V146.488H452.144V145.2H459.732V146.488H456.666V155H455.21ZM463.788 155V145.2H467.624C468.604 145.2 469.379 145.471 469.948 146.012C470.517 146.544 470.802 147.253 470.802 148.14C470.802 149.129 470.321 149.867 469.36 150.352C470.125 150.8 470.536 151.514 470.592 152.494L470.788 155H469.374L469.178 152.62C469.141 152.181 468.987 151.827 468.716 151.556C468.445 151.276 468.105 151.136 467.694 151.136H465.244V155H463.788ZM467.582 149.848C468.179 149.848 468.623 149.685 468.912 149.358C469.201 149.031 469.346 148.625 469.346 148.14C469.346 147.655 469.201 147.253 468.912 146.936C468.623 146.619 468.179 146.46 467.582 146.46H465.244V149.848H467.582ZM472.702 155V145.2H478.988V146.488H474.158V149.302H478.064V150.59H474.158V153.712H479.142V155H472.702ZM484.751 155.112C483.407 155.112 482.273 154.678 481.349 153.81C480.435 152.933 479.977 151.696 479.977 150.1C479.977 149.288 480.108 148.56 480.369 147.916C480.631 147.263 480.985 146.735 481.433 146.334C481.881 145.923 482.385 145.615 482.945 145.41C483.515 145.195 484.117 145.088 484.751 145.088C485.862 145.088 486.814 145.391 487.607 145.998C488.41 146.605 488.877 147.389 489.007 148.35H487.481C487.397 147.781 487.099 147.309 486.585 146.936C486.072 146.563 485.461 146.376 484.751 146.376C483.771 146.376 482.978 146.703 482.371 147.356C481.765 148.009 481.461 148.924 481.461 150.1C481.461 151.285 481.76 152.205 482.357 152.858C482.964 153.502 483.762 153.824 484.751 153.824C485.479 153.824 486.1 153.642 486.613 153.278C487.136 152.905 487.435 152.429 487.509 151.85H488.993C488.891 152.811 488.443 153.595 487.649 154.202C486.856 154.809 485.89 155.112 484.751 155.112ZM490.612 155V145.2H496.898V146.488H492.068V149.302H495.974V150.59H492.068V153.712H497.052V155H490.612ZM498.692 155V145.2H500.148V155H498.692ZM505.1 155L501.446 145.2H502.93L505.814 153.25L508.726 145.2H510.21L506.556 155H505.1ZM511.516 155V145.2H517.802V146.488H512.972V149.302H516.878V150.59H512.972V153.712H517.956V155H511.516ZM519.597 155V145.2H522.607C524.035 145.2 525.215 145.634 526.149 146.502C527.082 147.361 527.549 148.56 527.549 150.1C527.549 151.64 527.082 152.844 526.149 153.712C525.215 154.571 524.035 155 522.607 155H519.597ZM522.523 153.712C523.521 153.712 524.357 153.413 525.029 152.816C525.71 152.219 526.051 151.313 526.051 150.1C526.051 148.887 525.71 147.981 525.029 147.384C524.357 146.787 523.521 146.488 522.523 146.488H521.053V153.712H522.523Z" fill="white" fill-opacity="0.8"/>
<path d="M415.658 191.648V188.16C413.567 187.883 411.892 187.072 410.634 185.728C409.375 184.384 408.692 182.667 408.586 180.576H411.818C411.946 182.027 412.468 183.179 413.386 184.032C414.324 184.885 415.572 185.312 417.13 185.312C418.623 185.312 419.807 185.024 420.682 184.448C421.556 183.851 421.994 182.965 421.994 181.792C421.994 181.067 421.759 180.459 421.29 179.968C420.82 179.477 420.212 179.093 419.466 178.816C418.719 178.539 417.898 178.283 417.002 178.048C416.106 177.813 415.21 177.547 414.314 177.248C413.418 176.949 412.596 176.587 411.85 176.16C411.103 175.712 410.495 175.083 410.026 174.272C409.556 173.461 409.322 172.501 409.322 171.392C409.322 169.792 409.898 168.459 411.05 167.392C412.202 166.304 413.738 165.643 415.658 165.408V162.112H418.538V165.44C420.394 165.717 421.898 166.453 423.05 167.648C424.202 168.821 424.831 170.304 424.938 172.096H421.738C421.61 170.944 421.119 170.027 420.266 169.344C419.412 168.64 418.314 168.288 416.97 168.288C415.626 168.288 414.559 168.565 413.77 169.12C413.002 169.675 412.618 170.432 412.618 171.392C412.618 172.117 412.852 172.725 413.322 173.216C413.791 173.707 414.399 174.08 415.146 174.336C415.914 174.592 416.746 174.827 417.642 175.04C418.559 175.253 419.466 175.509 420.362 175.808C421.279 176.107 422.111 176.48 422.858 176.928C423.626 177.355 424.244 177.984 424.714 178.816C425.183 179.627 425.418 180.608 425.418 181.76C425.418 183.552 424.788 185.013 423.53 186.144C422.292 187.275 420.628 187.957 418.538 188.192V191.648H415.658ZM435.811 188.256C433.486 188.256 431.545 187.584 429.987 186.24C428.451 184.896 427.683 183.136 427.683 180.96H430.947C430.947 182.283 431.406 183.339 432.323 184.128C433.241 184.917 434.403 185.312 435.811 185.312C437.262 185.312 438.403 184.981 439.235 184.32C440.089 183.637 440.515 182.709 440.515 181.536C440.515 180.363 440.099 179.456 439.267 178.816C438.435 178.176 437.283 177.856 435.811 177.856H433.923V175.008H435.779C436.953 175.008 437.891 174.688 438.595 174.048C439.299 173.387 439.651 172.544 439.651 171.52C439.651 170.517 439.278 169.728 438.531 169.152C437.806 168.576 436.835 168.288 435.619 168.288C434.425 168.288 433.465 168.619 432.739 169.28C432.014 169.92 431.619 170.859 431.555 172.096H428.355C428.419 170.048 429.134 168.416 430.499 167.2C431.886 165.963 433.603 165.344 435.651 165.344C437.763 165.344 439.513 165.909 440.899 167.04C442.286 168.171 442.979 169.589 442.979 171.296C442.979 172.363 442.691 173.344 442.115 174.24C441.539 175.136 440.803 175.797 439.907 176.224C441.102 176.629 442.062 177.301 442.787 178.24C443.513 179.179 443.875 180.288 443.875 181.568C443.875 183.637 443.097 185.269 441.539 186.464C439.982 187.659 438.073 188.256 435.811 188.256ZM458.113 188V182.752H446.305V179.808L457.665 165.6H461.441V179.808H464.673V182.752H461.441V188H458.113ZM449.729 179.808H458.113V169.408L449.729 179.808ZM465.168 189.952C465.637 189.952 466.01 189.792 466.288 189.472C466.565 189.152 466.704 188.725 466.704 188.192V184.576H469.872V188.416C469.872 189.675 469.498 190.688 468.752 191.456C468.026 192.224 467.077 192.608 465.904 192.608H464.623V189.952H465.168ZM480.116 188.256C478.026 188.256 476.266 187.627 474.836 186.368C473.407 185.109 472.607 183.509 472.436 181.568H475.604C475.754 182.763 476.223 183.691 477.012 184.352C477.823 184.992 478.858 185.312 480.116 185.312C481.631 185.312 482.826 184.896 483.7 184.064C484.596 183.211 485.044 182.059 485.044 180.608C485.044 179.157 484.596 177.995 483.7 177.12C482.826 176.224 481.642 175.776 480.148 175.776C477.866 175.776 476.372 176.565 475.668 178.144H472.852L474.644 165.6H486.868V168.544H477.14L476.244 174.592C477.439 173.504 478.911 172.96 480.66 172.96C482.943 172.96 484.81 173.675 486.26 175.104C487.711 176.533 488.436 178.368 488.436 180.608C488.436 182.869 487.658 184.715 486.1 186.144C484.543 187.552 482.548 188.256 480.116 188.256ZM494.045 188C494.066 185.973 494.301 184.096 494.749 182.368C495.218 180.64 496.114 178.709 497.437 176.576L502.429 168.544H489.885V165.6H506.173V168.256L500.157 178.08C499.069 179.872 498.333 181.515 497.949 183.008C497.586 184.501 497.394 186.165 497.373 188H494.045ZM516.069 188.256C513.381 188.256 511.397 187.371 510.117 185.6C508.858 183.808 508.229 181.163 508.229 177.664V175.936C508.229 172.437 508.858 169.803 510.117 168.032C511.397 166.24 513.381 165.344 516.069 165.344H517.221C519.93 165.344 521.914 166.24 523.173 168.032C524.431 169.803 525.061 172.437 525.061 175.936V177.664C525.061 181.163 524.431 183.808 523.173 185.6C521.914 187.371 519.93 188.256 517.221 188.256H516.069ZM517.125 185.312C520.197 185.312 521.733 182.976 521.733 178.304V175.296C521.733 170.624 520.197 168.288 517.125 168.288H516.197C513.125 168.288 511.589 170.624 511.589 175.296V178.304C511.589 182.976 513.125 185.312 516.197 185.312H517.125ZM527.919 184.576H531.375V188H527.919V184.576ZM534.915 173.056C534.829 170.688 535.48 168.811 536.867 167.424C538.253 166.037 540.131 165.344 542.499 165.344C544.717 165.344 546.52 165.973 547.907 167.232C549.293 168.469 549.987 170.101 549.987 172.128C549.987 175.093 548.237 177.472 544.739 179.264L541.443 180.928C540.483 181.397 539.661 181.995 538.979 182.72C538.317 183.424 537.987 184.203 537.987 185.056H550.051V188H534.723V185.6C534.723 184.405 535.021 183.285 535.619 182.24C536.216 181.195 536.877 180.373 537.603 179.776C538.349 179.157 539.16 178.635 540.035 178.208L543.523 176.448C545.571 175.403 546.595 173.952 546.595 172.096C546.595 170.923 546.211 169.984 545.443 169.28C544.696 168.555 543.715 168.192 542.499 168.192C541.155 168.192 540.099 168.64 539.331 169.536C538.584 170.411 538.243 171.584 538.307 173.056H534.915ZM559.85 165.6V188H556.522V170.784C556.116 171.317 555.359 171.584 554.25 171.584H552.266V168.64H553.994C554.804 168.64 555.423 168.427 555.85 168C556.276 167.552 556.532 166.752 556.618 165.6H559.85Z" fill="white"/>
</g>
<g filter="url(#filter1_d_133_62245)">
<rect x="48.5" y="116" width="276" height="100" rx="50" fill="white" shape-rendering="crispEdges"/>
<rect x="72.5" y="142" width="48" height="48" rx="24" fill="#3BAB22" fill-opacity="0.15"/>
<path d="M105.369 152.632C106.628 152.247 107.868 152.134 108.91 152.908C109.958 153.687 110.193 154.906 110.168 156.215C110.143 157.505 109.856 159.208 109.499 161.324L108.198 169.037C107.968 170.406 107.777 171.539 107.5 172.402C107.21 173.309 106.774 174.093 105.937 174.582C105.103 175.07 104.204 175.071 103.265 174.887C102.38 174.714 101.3 174.342 99.995 173.89L99.9859 173.903L98.8714 175.509C98.8635 175.52 98.8555 175.531 98.8471 175.542L98.7991 175.606C97.8427 176.869 97.0634 177.898 96.4006 178.571C95.7803 179.201 94.9178 179.886 93.8539 179.602C92.725 179.301 92.4141 178.212 92.2931 177.371C92.1645 176.477 92.1645 175.232 92.1645 173.724V171.182L103.165 159.333L89.1646 170.138C87.6309 169.593 86.3679 169.109 85.4103 168.619C84.0628 167.931 82.9167 167.035 82.8355 165.571C82.7543 164.105 83.7958 163.089 85.0595 162.26C86.3458 161.415 88.256 160.512 90.6674 159.372L100.588 154.683C102.549 153.757 104.123 153.013 105.369 152.632Z" fill="#3BAB22"/>
<path d="M137.995 155V145.2H141.789C142.76 145.2 143.53 145.475 144.099 146.026C144.668 146.567 144.953 147.277 144.953 148.154C144.953 149.031 144.668 149.745 144.099 150.296C143.53 150.837 142.76 151.108 141.789 151.108H139.451V155H137.995ZM141.747 149.848C142.335 149.848 142.774 149.689 143.063 149.372C143.352 149.055 143.497 148.649 143.497 148.154C143.497 147.659 143.352 147.253 143.063 146.936C142.774 146.619 142.335 146.46 141.747 146.46H139.451V149.848H141.747ZM149.084 147.02L147.488 151.234H150.68L149.084 147.02ZM144.562 155L148.412 145.2H149.756L153.606 155H152.094L151.156 152.508H147.012L146.074 155H144.562ZM156.184 155V150.912L152.754 145.2H154.378L156.912 149.526L159.46 145.2H161.084L157.64 150.912V155H156.184ZM165.987 155.112C164.587 155.112 163.425 154.636 162.501 153.684C161.577 152.732 161.115 151.537 161.115 150.1C161.115 148.663 161.577 147.468 162.501 146.516C163.425 145.564 164.587 145.088 165.987 145.088C167.378 145.088 168.535 145.564 169.459 146.516C170.383 147.468 170.845 148.663 170.845 150.1C170.845 151.537 170.383 152.732 169.459 153.684C168.535 154.636 167.378 155.112 165.987 155.112ZM165.973 153.824C166.953 153.824 167.761 153.474 168.395 152.774C169.039 152.065 169.361 151.173 169.361 150.1C169.361 149.027 169.039 148.14 168.395 147.44C167.761 146.731 166.953 146.376 165.973 146.376C165.003 146.376 164.195 146.731 163.551 147.44C162.917 148.14 162.599 149.027 162.599 150.1C162.599 151.173 162.917 152.065 163.551 152.774C164.195 153.474 165.003 153.824 165.973 153.824ZM178.97 154.174C178.288 154.799 177.378 155.112 176.24 155.112C175.101 155.112 174.186 154.799 173.495 154.174C172.814 153.539 172.474 152.671 172.474 151.57V145.2H173.874V151.612C173.874 152.303 174.088 152.844 174.518 153.236C174.947 153.619 175.521 153.81 176.24 153.81C176.958 153.81 177.532 153.619 177.962 153.236C178.391 152.844 178.606 152.303 178.606 151.612V145.2H179.992V151.57C179.992 152.671 179.651 153.539 178.97 154.174ZM184.241 155V146.488H181.175V145.2H188.763V146.488H185.697V155H184.241ZM195.927 155.112C194.835 155.112 193.953 154.809 193.281 154.202C192.609 153.586 192.245 152.769 192.189 151.752H193.603C193.659 152.387 193.888 152.891 194.289 153.264C194.7 153.637 195.246 153.824 195.927 153.824C196.581 153.824 197.099 153.698 197.481 153.446C197.864 153.185 198.055 152.797 198.055 152.284C198.055 151.967 197.953 151.701 197.747 151.486C197.542 151.271 197.276 151.103 196.949 150.982C196.623 150.861 196.263 150.749 195.871 150.646C195.479 150.543 195.087 150.427 194.695 150.296C194.303 150.165 193.944 150.007 193.617 149.82C193.291 149.624 193.025 149.349 192.819 148.994C192.614 148.639 192.511 148.219 192.511 147.734C192.511 146.95 192.819 146.315 193.435 145.83C194.061 145.335 194.868 145.088 195.857 145.088C196.856 145.088 197.673 145.359 198.307 145.9C198.942 146.432 199.287 147.146 199.343 148.042H197.943C197.887 147.538 197.673 147.137 197.299 146.838C196.926 146.53 196.445 146.376 195.857 146.376C195.269 146.376 194.803 146.497 194.457 146.74C194.121 146.983 193.953 147.314 193.953 147.734C193.953 148.051 194.056 148.317 194.261 148.532C194.467 148.747 194.733 148.91 195.059 149.022C195.395 149.134 195.759 149.237 196.151 149.33C196.553 149.423 196.949 149.535 197.341 149.666C197.743 149.797 198.107 149.96 198.433 150.156C198.769 150.343 199.04 150.618 199.245 150.982C199.451 151.337 199.553 151.766 199.553 152.27C199.553 153.147 199.217 153.843 198.545 154.356C197.873 154.86 197.001 155.112 195.927 155.112ZM201.241 155V145.2H207.527V146.488H202.697V149.302H206.603V150.59H202.697V153.712H207.681V155H201.241ZM209.321 155V145.2H210.945L215.663 152.746V145.2H217.119V155H215.509L210.777 147.468V155H209.321ZM221.456 155V146.488H218.39V145.2H225.978V146.488H222.912V155H221.456Z" fill="#454745"/>
<path d="M144.658 191.648V188.16C142.567 187.883 140.892 187.072 139.634 185.728C138.375 184.384 137.692 182.667 137.586 180.576H140.818C140.946 182.027 141.468 183.179 142.386 184.032C143.324 184.885 144.572 185.312 146.13 185.312C147.623 185.312 148.807 185.024 149.682 184.448C150.556 183.851 150.994 182.965 150.994 181.792C150.994 181.067 150.759 180.459 150.29 179.968C149.82 179.477 149.212 179.093 148.466 178.816C147.719 178.539 146.898 178.283 146.002 178.048C145.106 177.813 144.21 177.547 143.314 177.248C142.418 176.949 141.596 176.587 140.85 176.16C140.103 175.712 139.495 175.083 139.026 174.272C138.556 173.461 138.322 172.501 138.322 171.392C138.322 169.792 138.898 168.459 140.05 167.392C141.202 166.304 142.738 165.643 144.658 165.408V162.112H147.538V165.44C149.394 165.717 150.898 166.453 152.05 167.648C153.202 168.821 153.831 170.304 153.938 172.096H150.738C150.61 170.944 150.119 170.027 149.266 169.344C148.412 168.64 147.314 168.288 145.97 168.288C144.626 168.288 143.559 168.565 142.77 169.12C142.002 169.675 141.618 170.432 141.618 171.392C141.618 172.117 141.852 172.725 142.322 173.216C142.791 173.707 143.399 174.08 144.146 174.336C144.914 174.592 145.746 174.827 146.642 175.04C147.559 175.253 148.466 175.509 149.362 175.808C150.279 176.107 151.111 176.48 151.858 176.928C152.626 177.355 153.244 177.984 153.714 178.816C154.183 179.627 154.418 180.608 154.418 181.76C154.418 183.552 153.788 185.013 152.53 186.144C151.292 187.275 149.628 187.957 147.538 188.192V191.648H144.658ZM164.811 188.256C162.486 188.256 160.545 187.584 158.987 186.24C157.451 184.896 156.683 183.136 156.683 180.96H159.947C159.947 182.283 160.406 183.339 161.323 184.128C162.241 184.917 163.403 185.312 164.811 185.312C166.262 185.312 167.403 184.981 168.235 184.32C169.089 183.637 169.515 182.709 169.515 181.536C169.515 180.363 169.099 179.456 168.267 178.816C167.435 178.176 166.283 177.856 164.811 177.856H162.923V175.008H164.779C165.953 175.008 166.891 174.688 167.595 174.048C168.299 173.387 168.651 172.544 168.651 171.52C168.651 170.517 168.278 169.728 167.531 169.152C166.806 168.576 165.835 168.288 164.619 168.288C163.425 168.288 162.465 168.619 161.739 169.28C161.014 169.92 160.619 170.859 160.555 172.096H157.355C157.419 170.048 158.134 168.416 159.499 167.2C160.886 165.963 162.603 165.344 164.651 165.344C166.763 165.344 168.513 165.909 169.899 167.04C171.286 168.171 171.979 169.589 171.979 171.296C171.979 172.363 171.691 173.344 171.115 174.24C170.539 175.136 169.803 175.797 168.907 176.224C170.102 176.629 171.062 177.301 171.787 178.24C172.513 179.179 172.875 180.288 172.875 181.568C172.875 183.637 172.097 185.269 170.539 186.464C168.982 187.659 167.073 188.256 164.811 188.256ZM187.113 188V182.752H175.305V179.808L186.665 165.6H190.441V179.808H193.673V182.752H190.441V188H187.113ZM178.729 179.808H187.113V169.408L178.729 179.808ZM194.168 189.952C194.637 189.952 195.01 189.792 195.288 189.472C195.565 189.152 195.704 188.725 195.704 188.192V184.576H198.872V188.416C198.872 189.675 198.498 190.688 197.752 191.456C197.026 192.224 196.077 192.608 194.904 192.608H193.623V189.952H194.168ZM209.116 188.256C207.026 188.256 205.266 187.627 203.836 186.368C202.407 185.109 201.607 183.509 201.436 181.568H204.604C204.754 182.763 205.223 183.691 206.012 184.352C206.823 184.992 207.858 185.312 209.116 185.312C210.631 185.312 211.826 184.896 212.7 184.064C213.596 183.211 214.044 182.059 214.044 180.608C214.044 179.157 213.596 177.995 212.7 177.12C211.826 176.224 210.642 175.776 209.148 175.776C206.866 175.776 205.372 176.565 204.668 178.144H201.852L203.644 165.6H215.868V168.544H206.14L205.244 174.592C206.439 173.504 207.911 172.96 209.66 172.96C211.943 172.96 213.81 173.675 215.26 175.104C216.711 176.533 217.436 178.368 217.436 180.608C217.436 182.869 216.658 184.715 215.1 186.144C213.543 187.552 211.548 188.256 209.116 188.256ZM223.045 188C223.066 185.973 223.301 184.096 223.749 182.368C224.218 180.64 225.114 178.709 226.437 176.576L231.429 168.544H218.885V165.6H235.173V168.256L229.157 178.08C228.069 179.872 227.333 181.515 226.949 183.008C226.586 184.501 226.394 186.165 226.373 188H223.045ZM245.069 188.256C242.381 188.256 240.397 187.371 239.117 185.6C237.858 183.808 237.229 181.163 237.229 177.664V175.936C237.229 172.437 237.858 169.803 239.117 168.032C240.397 166.24 242.381 165.344 245.069 165.344H246.221C248.93 165.344 250.914 166.24 252.173 168.032C253.431 169.803 254.061 172.437 254.061 175.936V177.664C254.061 181.163 253.431 183.808 252.173 185.6C250.914 187.371 248.93 188.256 246.221 188.256H245.069ZM246.125 185.312C249.197 185.312 250.733 182.976 250.733 178.304V175.296C250.733 170.624 249.197 168.288 246.125 168.288H245.197C242.125 168.288 240.589 170.624 240.589 175.296V178.304C240.589 182.976 242.125 185.312 245.197 185.312H246.125ZM256.919 184.576H260.375V188H256.919V184.576ZM263.915 173.056C263.829 170.688 264.48 168.811 265.867 167.424C267.253 166.037 269.131 165.344 271.499 165.344C273.717 165.344 275.52 165.973 276.907 167.232C278.293 168.469 278.987 170.101 278.987 172.128C278.987 175.093 277.237 177.472 273.739 179.264L270.443 180.928C269.483 181.397 268.661 181.995 267.979 182.72C267.317 183.424 266.987 184.203 266.987 185.056H279.051V188H263.723V185.6C263.723 184.405 264.021 183.285 264.619 182.24C265.216 181.195 265.877 180.373 266.603 179.776C267.349 179.157 268.16 178.635 269.035 178.208L272.523 176.448C274.571 175.403 275.595 173.952 275.595 172.096C275.595 170.923 275.211 169.984 274.443 169.28C273.696 168.555 272.715 168.192 271.499 168.192C270.155 168.192 269.099 168.64 268.331 169.536C267.584 170.411 267.243 171.584 267.307 173.056H263.915ZM288.85 165.6V188H285.522V170.784C285.116 171.317 284.359 171.584 283.25 171.584H281.266V168.64H282.994C283.804 168.64 284.423 168.427 284.85 168C285.276 167.552 285.532 166.752 285.618 165.6H288.85Z" fill="#1A1A1B"/>
</g>
<rect x="581.5" y="116" width="100" height="100" rx="50" fill="#3BAB22"/>
<path d="M629.337 179.925C626.846 179.498 624.854 178.433 623.36 176.728C621.891 175.023 621.105 172.879 621 170.295H626.663C626.794 171.734 627.292 172.866 628.157 173.691C629.049 174.517 630.228 174.93 631.697 174.93C633.034 174.93 634.096 174.65 634.882 174.091C635.669 173.532 636.062 172.733 636.062 171.694C636.062 170.974 635.826 170.402 635.354 169.976C634.908 169.523 634.345 169.176 633.663 168.937C632.981 168.697 632.011 168.417 630.753 168.098C628.891 167.645 627.358 167.165 626.152 166.659C624.972 166.127 623.949 165.287 623.084 164.142C622.219 162.997 621.787 161.425 621.787 159.427C621.787 157.403 622.468 155.698 623.831 154.313C625.221 152.901 627.056 152.022 629.337 151.676V148H634.41V151.876C636.534 152.382 638.212 153.381 639.444 154.872C640.702 156.337 641.358 158.149 641.41 160.306H635.826C635.695 159.188 635.236 158.309 634.449 157.669C633.663 157.003 632.627 156.67 631.343 156.67C630.163 156.67 629.232 156.923 628.551 157.43C627.869 157.936 627.528 158.602 627.528 159.427C627.528 160.2 627.764 160.812 628.236 161.265C628.708 161.718 629.311 162.078 630.045 162.344C630.779 162.584 631.788 162.85 633.073 163.143C634.961 163.596 636.494 164.062 637.674 164.542C638.854 165.021 639.863 165.834 640.702 166.979C641.567 168.098 642 169.643 642 171.614C642 173.798 641.318 175.623 639.955 177.088C638.592 178.526 636.743 179.458 634.41 179.885V184L629.337 183.96V179.925Z" fill="white"/>
<g filter="url(#filter2_d_133_62245)">
<rect x="141.5" y="44" width="452" height="72" rx="36" fill="url(#paint0_linear_133_62245)" shape-rendering="crispEdges"/>
</g>
<rect x="521.5" y="44" width="72" height="72" rx="36" fill="white"/>
<g filter="url(#filter3_d_133_62245)">
<rect x="48.5" y="216" width="452" height="72" rx="36" fill="url(#paint1_linear_133_62245)" shape-rendering="crispEdges"/>
</g>
<rect x="428.5" y="216" width="72" height="72" rx="36" fill="white"/>
<defs>
<filter id="filter0_d_133_62245" x="181.5" y="72" width="548" height="196" filterUnits="userSpaceOnUse" color-interpolation-filters="sRGB">
<feFlood flood-opacity="0" result="BackgroundImageFix"/>
<feColorMatrix in="SourceAlpha" type="matrix" values="0 0 0 0 0 0 0 0 0 0 0 0 0 0 0 0 0 0 127 0" result="hardAlpha"/>
<feOffset dy="4"/>
<feGaussianBlur stdDeviation="24"/>
<feComposite in2="hardAlpha" operator="out"/>
<feColorMatrix type="matrix" values="0 0 0 0 0.101961 0 0 0 0 0.101961 0 0 0 0 0.105882 0 0 0 0.07 0"/>
<feBlend mode="normal" in2="BackgroundImageFix" result="effect1_dropShadow_133_62245"/>
<feBlend mode="normal" in="SourceGraphic" in2="effect1_dropShadow_133_62245" result="shape"/>
</filter>
<filter id="filter1_d_133_62245" x="0.5" y="72" width="372" height="196" filterUnits="userSpaceOnUse" color-interpolation-filters="sRGB">
<feFlood flood-opacity="0" result="BackgroundImageFix"/>
<feColorMatrix in="SourceAlpha" type="matrix" values="0 0 0 0 0 0 0 0 0 0 0 0 0 0 0 0 0 0 127 0" result="hardAlpha"/>
<feOffset dy="4"/>
<feGaussianBlur stdDeviation="24"/>
<feComposite in2="hardAlpha" operator="out"/>
<feColorMatrix type="matrix" values="0 0 0 0 0.101961 0 0 0 0 0.101961 0 0 0 0 0.105882 0 0 0 0.07 0"/>
<feBlend mode="normal" in2="BackgroundImageFix" result="effect1_dropShadow_133_62245"/>
<feBlend mode="normal" in="SourceGraphic" in2="effect1_dropShadow_133_62245" result="shape"/>
</filter>
<filter id="filter2_d_133_62245" x="93.5" y="0" width="548" height="168" filterUnits="userSpaceOnUse" color-interpolation-filters="sRGB">
<feFlood flood-opacity="0" result="BackgroundImageFix"/>
<feColorMatrix in="SourceAlpha" type="matrix" values="0 0 0 0 0 0 0 0 0 0 0 0 0 0 0 0 0 0 127 0" result="hardAlpha"/>
<feOffset dy="4"/>
<feGaussianBlur stdDeviation="24"/>
<feComposite in2="hardAlpha" operator="out"/>
<feColorMatrix type="matrix" values="0 0 0 0 0.101961 0 0 0 0 0.101961 0 0 0 0 0.105882 0 0 0 0.07 0"/>
<feBlend mode="normal" in2="BackgroundImageFix" result="effect1_dropShadow_133_62245"/>
<feBlend mode="normal" in="SourceGraphic" in2="effect1_dropShadow_133_62245" result="shape"/>
</filter>
<filter id="filter3_d_133_62245" x="0.5" y="172" width="548" height="168" filterUnits="userSpaceOnUse" color-interpolation-filters="sRGB">
<feFlood flood-opacity="0" result="BackgroundImageFix"/>
<feColorMatrix in="SourceAlpha" type="matrix" values="0 0 0 0 0 0 0 0 0 0 0 0 0 0 0 0 0 0 127 0" result="hardAlpha"/>
<feOffset dy="4"/>
<feGaussianBlur stdDeviation="24"/>
<feComposite in2="hardAlpha" operator="out"/>
<feColorMatrix type="matrix" values="0 0 0 0 0.101961 0 0 0 0 0.101961 0 0 0 0 0.105882 0 0 0 0.07 0"/>
<feBlend mode="normal" in2="BackgroundImageFix" result="effect1_dropShadow_133_62245"/>
<feBlend mode="normal" in="SourceGraphic" in2="effect1_dropShadow_133_62245" result="shape"/>
</filter>
<linearGradient id="paint0_linear_133_62245" x1="245.5" y1="80" x2="593.5" y2="80" gradientUnits="userSpaceOnUse">
<stop stop-color="#3BAB22" stop-opacity="0"/>
<stop offset="1" stop-color="#3BAB22"/>
</linearGradient>
<linearGradient id="paint1_linear_133_62245" x1="152.5" y1="252" x2="500.5" y2="252" gradientUnits="userSpaceOnUse">
<stop stop-color="#3BAB22" stop-opacity="0"/>
<stop offset="1" stop-color="#3BAB22"/>
</linearGradient>
</defs>
</svg>
