<svg width="44" height="44" viewBox="0 0 44 44" fill="none" xmlns="http://www.w3.org/2000/svg">
<path fill-rule="evenodd" clip-rule="evenodd" d="M21.9993 5.04175C23.265 5.04175 24.291 6.06776 24.291 7.33341L24.291 19.7084H36.666C37.9317 19.7084 38.9577 20.7344 38.9577 22.0001C38.9577 23.2657 37.9317 24.2917 36.666 24.2917L24.291 24.2917L24.291 36.6667C24.291 37.9324 23.265 38.9584 21.9993 38.9584C20.7337 38.9584 19.7077 37.9324 19.7077 36.6667V24.2917L7.33268 24.2917C6.06703 24.2917 5.04102 23.2657 5.04102 22.0001C5.04102 20.7344 6.06703 19.7084 7.33268 19.7084L19.7077 19.7084L19.7077 7.33341C19.7077 6.06776 20.7337 5.04175 21.9993 5.04175Z" fill="#1A1A1B"/>
</svg>
