<svg width="56" height="56" viewBox="0 0 56 56" fill="none" xmlns="http://www.w3.org/2000/svg">
<path opacity="0.4" d="M28.1335 4.08301C33.2451 4.08298 37.2601 4.08296 40.3947 4.50438C43.607 4.93626 46.1557 5.83935 48.1579 7.8418C50.1604 9.84426 51.0636 12.3929 51.4955 15.6051C51.9169 18.7397 51.9169 22.7546 51.9169 27.8663V28.133C51.9169 33.2446 51.9169 37.2596 51.4955 40.3942C51.0636 43.6065 50.1604 46.1552 48.1579 48.1574C46.1557 50.1599 43.607 51.0631 40.3947 51.495C37.2601 51.9164 33.2454 51.9164 28.1337 51.9164H27.8668C22.7552 51.9164 18.7402 51.9164 15.6055 51.495C12.3934 51.0631 9.84475 50.1599 7.84229 48.1574C5.83984 46.1552 4.93675 43.6065 4.50487 40.3942C4.08345 37.2596 4.08347 33.2446 4.0835 28.133V27.8663C4.08347 22.7546 4.08345 18.7397 4.50487 15.6051C4.93675 12.3929 5.83984 9.84426 7.84229 7.8418C9.84475 5.83935 12.3934 4.93626 15.6055 4.50438C18.7402 4.08296 22.7551 4.08298 27.8668 4.08301H28.1335Z" fill="#3BAB22"/>
<path fill-rule="evenodd" clip-rule="evenodd" d="M40.8192 19.683C41.5467 20.3195 41.6205 21.425 40.9839 22.1524L33.1234 31.1359C33.9354 32.2108 34.417 33.5492 34.417 35.0001C34.417 38.544 31.544 41.4168 28.0003 41.4168C24.4565 41.4168 21.5836 38.544 21.5836 35.0001C21.5836 31.4562 24.4565 28.5834 28.0003 28.5834C28.8205 28.5834 29.605 28.7372 30.326 29.0179L38.3498 19.8476C38.9864 19.1203 40.0919 19.0466 40.8192 19.683ZM15.7502 28.0001C15.7502 21.2345 21.2348 15.75 28.0003 15.75C30.2345 15.75 32.324 16.3465 34.1239 17.3878C34.9607 17.8717 36.0312 17.5858 36.5151 16.7492C36.9991 15.9126 36.7132 14.8421 35.8765 14.3581C33.5581 13.017 30.8661 12.25 28.0003 12.25C19.3018 12.25 12.2502 19.3015 12.2502 28.0001C12.2502 28.9666 13.0338 29.7501 14.0002 29.7501C14.9667 29.7501 15.7502 28.9666 15.7502 28.0001Z" fill="#3BAB22"/>
</svg>
