<svg width="57" height="56" viewBox="0 0 57 56" fill="none" xmlns="http://www.w3.org/2000/svg">
<path d="M34.094 37.2238C32.4285 38.8891 29.4747 39.0371 25.0768 39.0483C24.1185 39.0506 23.6394 39.0518 23.2122 39.2293C22.785 39.4069 22.4489 39.7431 21.7765 40.4156L10.9585 51.2353C9.1951 52.9986 6.336 52.9986 4.57258 51.2353C2.80914 49.4717 2.80914 46.6127 4.57258 44.8492L15.3924 34.0288C16.0647 33.3566 16.4008 33.0203 16.5784 32.5931C16.7559 32.1661 16.7572 31.6868 16.7596 30.7288C16.7708 26.3335 16.9188 23.3785 18.5843 21.7133C20.4833 19.8147 21.3219 19.8915 29.7342 19.8915C30.5471 19.8881 30.9561 20.8712 30.3814 21.446L26.0501 25.7777C24.9508 26.8771 24.9478 28.6596 26.0473 29.7588C27.1467 30.8583 28.9294 30.8583 30.0291 29.759L34.3614 25.4286C34.9363 24.8539 35.9196 25.2629 35.9163 26.0759C35.9163 34.4866 35.9931 35.3252 34.094 37.2238Z" fill="#3BAB22"/>
<path opacity="0.4" fill-rule="evenodd" clip-rule="evenodd" d="M36.4265 9.60085C36.4834 9.63333 36.5443 9.66821 36.6101 9.7059L40.543 11.9566C40.6148 11.9977 40.6809 12.0355 40.7422 12.0708C40.6986 12.2461 40.6475 12.4448 40.5873 12.6784C39.115 18.3936 42.6724 24.2986 48.2875 25.8249C48.5055 25.8839 48.6917 25.9348 48.8559 25.9807C48.8559 26.0491 48.8559 26.1226 48.8559 26.2019V30.6465C48.8559 30.7258 48.8559 30.7993 48.8559 30.8677C48.6917 30.9136 48.5052 30.9645 48.2873 31.0238C42.6721 32.55 39.118 38.4557 40.5908 44.1702C40.651 44.4036 40.7021 44.6021 40.746 44.7774C40.6844 44.8126 40.6183 44.8504 40.5467 44.8915L36.6139 47.1422C36.5481 47.18 36.4869 47.2148 36.43 47.2472C36.3124 47.1305 36.1803 46.9978 36.0263 46.8428C31.1683 41.9566 22.6421 42.6904 18.9114 49.0957C18.2738 50.1905 18.6373 51.5989 19.7233 52.2415C20.8094 52.8841 22.2067 52.5177 22.8443 51.4229C25.0065 47.7108 29.9765 47.2519 32.8049 50.0967L32.86 50.1522C33.2413 50.5358 33.6237 50.9206 33.9618 51.2073C34.2752 51.4731 34.9042 51.9769 35.7809 52.0959C36.5821 52.2048 37.2441 51.9671 37.6538 51.7858C38.0241 51.6217 38.4343 51.3868 38.7997 51.1775L42.7984 48.8892C42.8205 48.8766 42.8427 48.8637 42.8651 48.8509C43.238 48.6376 43.654 48.3999 43.9867 48.1612C44.3517 47.8991 44.9021 47.4434 45.2208 46.6839C45.5711 45.8493 45.4504 45.0289 45.3814 44.6243C45.3048 44.1768 45.1653 43.6364 45.0246 43.0908L45.005 43.0143C44.182 39.8216 46.1952 36.3536 49.4747 35.462L49.5506 35.4415C50.0793 35.2977 50.6073 35.1545 51.0269 35.0009C51.4121 34.86 52.1688 34.5602 52.7115 33.8462C53.2071 33.194 53.3292 32.49 53.3751 32.0402C53.4169 31.6318 53.4169 31.1521 53.4167 30.7235C53.4167 30.6976 53.4167 30.6719 53.4167 30.6465V26.2019C53.4167 26.1765 53.4167 26.1508 53.4167 26.1249C53.4169 25.6963 53.4169 25.2166 53.3751 24.8082C53.3292 24.3584 53.2071 23.6544 52.7115 23.0022C52.1686 22.2881 51.4121 21.9882 51.0269 21.8474C50.6071 21.6939 50.0791 21.5505 49.5503 21.4069C49.5251 21.4 49.4999 21.3932 49.4747 21.3863C46.1936 20.4946 44.1792 17.0258 45.0015 13.8337C45.008 13.8081 45.0148 13.7826 45.0213 13.7571C45.1618 13.2116 45.3011 12.6711 45.3776 12.2235C45.4469 11.8191 45.5673 10.9986 45.2171 10.164C44.8984 9.40457 44.3479 8.94884 43.983 8.687C43.6503 8.44827 43.2345 8.21046 42.8614 7.99717C42.839 7.98438 42.8168 7.97169 42.7949 7.95907L38.862 5.70833C38.8401 5.69585 38.8182 5.68325 38.796 5.67056C38.4306 5.46135 38.0204 5.22636 37.6501 5.06251C37.2406 4.88121 36.5786 4.64349 35.7776 4.7523C34.901 4.87132 34.2717 5.37504 33.9585 5.64053C33.6202 5.92732 33.2378 6.31204 32.8565 6.69554C32.8381 6.71407 32.8196 6.73257 32.8014 6.75108C30.3638 9.20217 26.2991 9.20222 23.8617 6.75129L23.8064 6.69575C23.4252 6.31225 23.0428 5.92753 22.7045 5.64074C22.3913 5.37525 21.762 4.87153 20.8855 4.75251C20.0844 4.64373 19.4225 4.88145 19.0128 5.06272C18.6426 5.22657 18.2323 5.46156 17.8671 5.67077C17.8449 5.68346 17.8229 5.69608 17.8011 5.70857L13.8683 7.9593C13.8462 7.9719 13.824 7.98462 13.8017 7.9974C13.4287 8.21069 13.0128 8.44851 12.6799 8.68728C12.3149 8.94915 11.7645 9.40494 11.4458 10.1645C11.0956 10.9991 11.2161 11.8196 11.2853 12.224C11.3619 12.6717 11.5013 13.2121 11.642 13.7575L11.6617 13.8341C12.4846 17.0269 10.4715 20.4948 7.19184 21.3863L7.11612 21.4069C6.58736 21.5505 6.05933 21.694 5.63968 21.8474C5.25456 21.9883 4.49791 22.2882 3.95518 23.0023C3.45958 23.6544 3.3374 24.3584 3.29141 24.8082C3.24969 25.2166 3.24986 25.6963 3.25002 26.1249C3.25002 26.1508 3.25004 26.1765 3.25004 26.2019V30.6465C3.25004 30.6719 3.25002 30.6976 3.25002 30.7235C3.24986 31.1521 3.24969 31.6318 3.29141 32.0402C3.3374 32.4903 3.45958 33.194 3.95522 33.8462C4.49789 34.5602 5.25428 34.8602 5.63952 35.0009C6.05905 35.1545 6.5869 35.2977 7.11535 35.4412L7.19111 35.462L7.22166 35.4704C8.4359 35.8071 9.69109 35.088 10.0252 33.8639C10.3593 32.6401 9.64578 31.3749 8.43154 31.038L8.37843 31.0235C8.1608 30.9643 7.97476 30.9136 7.81075 30.8679C7.81064 30.7993 7.81064 30.7258 7.81064 30.6465V26.2019C7.81064 26.1226 7.81064 26.0491 7.81075 25.9807C7.975 25.9345 8.16134 25.8839 8.37934 25.8246C13.9946 24.2982 17.5486 18.3927 16.0758 12.6783C16.0156 12.4448 15.9645 12.2462 15.9208 12.071C15.9822 12.0357 16.0483 11.9979 16.12 11.9568L20.0529 9.7061C20.1187 9.66844 20.1797 9.63356 20.2366 9.60106C20.3543 9.71775 20.4865 9.85061 20.6408 10.0057C24.8583 14.2468 31.8049 14.2465 36.0224 10.0055C36.1766 9.85037 36.3087 9.71754 36.4265 9.60085Z" fill="#3BAB22"/>
</svg>
