<svg width="658" height="658" viewBox="0 0 658 658" fill="none" xmlns="http://www.w3.org/2000/svg">
<g filter="url(#filter0_d_1040_36606)">
<path d="M608.827 325.184C608.827 170.646 483.549 45.3682 329.011 45.3682C174.473 45.3682 49.1953 170.646 49.1953 325.184C49.1953 479.722 174.473 605 329.011 605C483.549 605 608.827 479.722 608.827 325.184Z" stroke="#3BAB22" stroke-opacity="0.15" stroke-width="2"/>
</g>
<g filter="url(#filter1_d_1040_36606)">
<path d="M608.827 325.184C608.827 170.646 483.549 45.3682 329.011 45.3682C174.473 45.3682 49.1953 170.646 49.1953 325.184C49.1953 479.722 174.473 605 329.011 605C483.549 605 608.827 479.722 608.827 325.184Z" stroke="#3BAB22" stroke-opacity="0.15" stroke-width="2"/>
</g>
<path d="M329.125 500.784C426.043 500.784 504.611 422.216 504.611 325.298C504.611 228.38 426.043 149.812 329.125 149.812C232.206 149.812 153.639 228.38 153.639 325.298C153.639 422.216 232.206 500.784 329.125 500.784Z" stroke="#3BAB22" stroke-opacity="0.15" stroke-width="2"/>
<path d="M281.999 156.047C188.293 182.426 133.713 279.775 160.093 373.482" stroke="url(#paint0_linear_1040_36606)" stroke-width="2"/>
<path d="M181.699 332.199H329.791" stroke="url(#paint1_linear_1040_36606)" stroke-width="2" stroke-dasharray="4 4"/>
<path d="M321.996 332.199H470.088" stroke="url(#paint2_linear_1040_36606)" stroke-width="2" stroke-dasharray="4 4"/>
<path d="M343.685 314.409L448.401 209.692" stroke="url(#paint3_linear_1040_36606)" stroke-width="2" stroke-dasharray="4 4"/>
<path d="M343.685 349.99L448.401 454.706" stroke="url(#paint4_linear_1040_36606)" stroke-width="2" stroke-dasharray="4 4"/>
<path d="M163.772 279.198H160.654C132.244 279.198 109.212 302.229 109.212 330.64V333.758C109.212 362.169 132.244 385.2 160.654 385.2H163.772C192.183 385.2 215.215 362.169 215.215 333.758V330.64C215.215 302.229 192.183 279.198 163.772 279.198Z" fill="#1A1A1B"/>
<path d="M163.772 279.198H160.654C132.244 279.198 109.212 302.229 109.212 330.64V333.758C109.212 362.169 132.244 385.2 160.654 385.2H163.772C192.183 385.2 215.215 362.169 215.215 333.758V330.64C215.215 302.229 192.183 279.198 163.772 279.198Z" stroke="#D0D0D0" stroke-width="8"/>
<path fill-rule="evenodd" clip-rule="evenodd" d="M157.985 310.115H158.126C159.483 310.115 160.602 310.115 161.488 310.235C162.418 310.362 163.239 310.638 163.896 311.305C164.554 311.971 164.827 312.804 164.952 313.746C165.071 314.643 165.071 315.777 165.071 317.153V332.459H157.985C156.628 332.459 155.509 332.459 154.623 332.338C153.693 332.211 152.873 331.936 152.215 331.269C151.557 330.603 151.285 329.77 151.159 328.828C151.041 327.93 151.041 326.796 151.041 325.421V317.153C151.041 315.777 151.041 314.643 151.159 313.746C151.285 312.804 151.557 311.971 152.215 311.305C152.873 310.638 153.693 310.362 154.623 310.235C155.509 310.115 156.628 310.115 157.985 310.115ZM154.891 312.249C154.183 312.345 153.855 312.515 153.632 312.741C153.409 312.967 153.241 313.299 153.146 314.016C153.047 314.763 153.045 315.759 153.045 317.225V325.349C153.045 326.815 153.047 327.811 153.146 328.557C153.241 329.275 153.409 329.607 153.632 329.833C153.855 330.059 154.183 330.229 154.891 330.325C155.627 330.425 156.61 330.427 158.056 330.427H163.066V317.225C163.066 315.759 163.065 314.763 162.966 314.016C162.87 313.299 162.702 312.967 162.479 312.741C162.256 312.515 161.929 312.345 161.221 312.249C160.485 312.148 159.501 312.147 158.056 312.147C156.61 312.147 155.627 312.148 154.891 312.249Z" fill="white"/>
<path opacity="0.4" fill-rule="evenodd" clip-rule="evenodd" d="M154.419 316.09C154.419 315.517 154.884 315.051 155.458 315.051H156.498C157.071 315.051 157.537 315.517 157.537 316.09C157.537 316.665 157.071 317.13 156.498 317.13H155.458C154.884 317.13 154.419 316.665 154.419 316.09ZM158.576 316.09C158.576 315.517 159.041 315.051 159.615 315.051H160.654C161.228 315.051 161.693 315.517 161.693 316.09C161.693 316.665 161.228 317.13 160.654 317.13H159.615C159.041 317.13 158.576 316.665 158.576 316.09ZM154.419 320.248C154.419 319.673 154.884 319.208 155.458 319.208H156.498C157.071 319.208 157.537 319.673 157.537 320.248C157.537 320.821 157.071 321.287 156.498 321.287H155.458C154.884 321.287 154.419 320.821 154.419 320.248ZM158.576 320.248C158.576 319.673 159.041 319.208 159.615 319.208H160.654C161.228 319.208 161.693 319.673 161.693 320.248C161.693 320.821 161.228 321.287 160.654 321.287H159.615C159.041 321.287 158.576 320.821 158.576 320.248ZM154.419 324.404C154.419 323.831 154.884 323.365 155.458 323.365H156.498C157.071 323.365 157.537 323.831 157.537 324.404C157.537 324.978 157.071 325.443 156.498 325.443H155.458C154.884 325.443 154.419 324.978 154.419 324.404ZM158.576 324.404C158.576 323.831 159.041 323.365 159.615 323.365H160.654C161.228 323.365 161.693 323.831 161.693 324.404C161.693 324.978 161.228 325.443 160.654 325.443H159.615C159.041 325.443 158.576 324.978 158.576 324.404Z" fill="white"/>
<path opacity="0.4" d="M170.832 316.433C171.485 316.521 172.074 316.714 172.547 317.187C173.021 317.661 173.213 318.249 173.301 318.903C173.385 319.521 173.384 320.299 173.384 321.233V327.576C173.384 328.51 173.385 329.289 173.301 329.907C173.213 330.559 173.021 331.148 172.547 331.621C172.074 332.095 171.485 332.288 170.832 332.376C170.214 332.458 169.435 332.458 168.502 332.458H163.512V316.351H168.502C169.435 316.35 170.214 316.35 170.832 316.433Z" fill="white"/>
<path fill-rule="evenodd" clip-rule="evenodd" d="M167.149 320.248C167.149 319.817 167.499 319.468 167.929 319.468H168.969C169.399 319.468 169.748 319.817 169.748 320.248C169.748 320.678 169.399 321.027 168.969 321.027H167.929C167.499 321.027 167.149 320.678 167.149 320.248ZM167.149 324.404C167.149 323.974 167.499 323.625 167.929 323.625H168.969C169.399 323.625 169.748 323.974 169.748 324.404C169.748 324.835 169.399 325.184 168.969 325.184H167.929C167.499 325.184 167.149 324.835 167.149 324.404Z" fill="white"/>
<path d="M138.269 350.905V342.176H141.499C142.33 342.176 142.986 342.375 143.469 342.774C143.951 343.165 144.192 343.714 144.192 344.421C144.192 344.803 144.08 345.152 143.856 345.468C143.64 345.776 143.378 345.996 143.07 346.129C143.527 346.295 143.893 346.566 144.167 346.94C144.45 347.314 144.591 347.784 144.591 348.349C144.591 349.138 144.329 349.762 143.806 350.22C143.282 350.677 142.567 350.905 141.661 350.905H138.269ZM141.486 349.758C142.7 349.758 143.307 349.272 143.307 348.299C143.307 347.326 142.7 346.84 141.486 346.84H139.553V349.758H141.486ZM141.436 345.705C142.434 345.705 142.933 345.297 142.933 344.483C142.933 343.668 142.43 343.261 141.424 343.261H139.553V345.705H141.436ZM151.463 344.62V350.905H150.253V349.796C150.086 350.186 149.824 350.485 149.467 350.693C149.11 350.902 148.694 351.005 148.22 351.005C147.513 351.005 146.944 350.772 146.512 350.307C146.088 349.842 145.876 349.234 145.876 348.486V344.62H147.085V348.249C147.085 348.748 147.218 349.151 147.485 349.459C147.759 349.767 148.116 349.92 148.557 349.92C149.047 349.92 149.45 349.742 149.767 349.384C150.091 349.026 150.253 348.573 150.253 348.025V344.62H151.463ZM155.304 351.005C154.564 351.005 153.966 350.814 153.508 350.432C153.05 350.049 152.801 349.525 152.76 348.86H153.895C153.928 349.218 154.065 349.496 154.306 349.696C154.556 349.895 154.888 349.995 155.304 349.995C155.653 349.995 155.936 349.912 156.152 349.746C156.376 349.58 156.489 349.38 156.489 349.147C156.489 348.848 156.364 348.627 156.114 348.486C155.874 348.336 155.578 348.241 155.229 348.199C154.88 348.149 154.531 348.087 154.181 348.012C153.832 347.929 153.533 347.754 153.284 347.488C153.043 347.214 152.922 346.827 152.922 346.329C152.922 345.788 153.13 345.352 153.545 345.019C153.961 344.686 154.497 344.52 155.154 344.52C155.861 344.52 156.435 344.704 156.875 345.069C157.324 345.427 157.57 345.901 157.611 346.491H156.464C156.422 346.158 156.268 345.909 156.002 345.743C155.744 345.568 155.462 345.481 155.154 345.481C154.821 345.481 154.556 345.555 154.356 345.705C154.156 345.855 154.057 346.05 154.057 346.291C154.057 346.574 154.181 346.778 154.431 346.902C154.68 347.027 154.98 347.11 155.329 347.152C155.678 347.185 156.027 347.243 156.376 347.326C156.734 347.41 157.037 347.597 157.287 347.888C157.536 348.178 157.661 348.59 157.661 349.122C157.661 349.696 157.445 350.153 157.012 350.494C156.588 350.835 156.019 351.005 155.304 351.005ZM159.03 350.905V344.62H160.24V350.905H159.03ZM158.955 341.989H160.302V343.51H158.955V341.989ZM162.002 350.905V344.62H163.212V345.73C163.378 345.34 163.636 345.04 163.985 344.832C164.342 344.624 164.758 344.52 165.232 344.52C165.938 344.52 166.504 344.753 166.928 345.219C167.36 345.684 167.577 346.291 167.577 347.039V350.905H166.367V347.276C166.367 346.778 166.23 346.375 165.956 346.067C165.689 345.759 165.336 345.605 164.896 345.605C164.404 345.605 164.001 345.784 163.686 346.142C163.369 346.499 163.212 346.952 163.212 347.501V350.905H162.002ZM171.991 351.005C171.052 351.005 170.292 350.685 169.709 350.045C169.128 349.405 168.836 348.632 168.836 347.725C168.836 346.811 169.107 346.05 169.647 345.443C170.188 344.828 170.928 344.52 171.867 344.52C172.798 344.52 173.525 344.807 174.049 345.381C174.582 345.955 174.847 346.661 174.847 347.501C174.847 347.667 174.839 347.825 174.822 347.975H170.021C170.071 348.573 170.275 349.056 170.632 349.421C170.99 349.787 171.443 349.97 171.991 349.97C172.939 349.97 173.505 349.6 173.687 348.86H174.897C174.781 349.509 174.461 350.029 173.937 350.419C173.413 350.81 172.765 351.005 171.991 351.005ZM170.058 347.089H173.625C173.584 346.607 173.409 346.22 173.101 345.93C172.794 345.639 172.383 345.493 171.867 345.493C170.853 345.493 170.25 346.025 170.058 347.089ZM178.334 351.005C177.594 351.005 176.995 350.814 176.538 350.432C176.08 350.049 175.831 349.525 175.79 348.86H176.924C176.958 349.218 177.095 349.496 177.336 349.696C177.585 349.895 177.918 349.995 178.334 349.995C178.683 349.995 178.966 349.912 179.182 349.746C179.406 349.58 179.518 349.38 179.518 349.147C179.518 348.848 179.394 348.627 179.144 348.486C178.903 348.336 178.608 348.241 178.259 348.199C177.91 348.149 177.56 348.087 177.211 348.012C176.862 347.929 176.563 347.754 176.313 347.488C176.073 347.214 175.952 346.827 175.952 346.329C175.952 345.788 176.16 345.352 176.575 345.019C176.991 344.686 177.527 344.52 178.184 344.52C178.891 344.52 179.465 344.704 179.905 345.069C180.354 345.427 180.599 345.901 180.641 346.491H179.493C179.452 346.158 179.298 345.909 179.032 345.743C178.774 345.568 178.492 345.481 178.184 345.481C177.851 345.481 177.585 345.555 177.386 345.705C177.186 345.855 177.087 346.05 177.087 346.291C177.087 346.574 177.211 346.778 177.461 346.902C177.71 347.027 178.009 347.11 178.359 347.152C178.708 347.185 179.057 347.243 179.406 347.326C179.764 347.41 180.067 347.597 180.317 347.888C180.566 348.178 180.691 348.59 180.691 349.122C180.691 349.696 180.475 350.153 180.042 350.494C179.618 350.835 179.048 351.005 178.334 351.005ZM184.143 351.005C183.403 351.005 182.805 350.814 182.347 350.432C181.889 350.049 181.64 349.525 181.599 348.86H182.734C182.767 349.218 182.904 349.496 183.145 349.696C183.395 349.895 183.727 349.995 184.143 349.995C184.492 349.995 184.775 349.912 184.991 349.746C185.215 349.58 185.328 349.38 185.328 349.147C185.328 348.848 185.203 348.627 184.953 348.486C184.713 348.336 184.417 348.241 184.068 348.199C183.719 348.149 183.37 348.087 183.02 348.012C182.671 347.929 182.372 347.754 182.123 347.488C181.882 347.214 181.761 346.827 181.761 346.329C181.761 345.788 181.969 345.352 182.384 345.019C182.8 344.686 183.336 344.52 183.993 344.52C184.7 344.52 185.274 344.704 185.714 345.069C186.163 345.427 186.409 345.901 186.45 346.491H185.303C185.261 346.158 185.107 345.909 184.841 345.743C184.583 345.568 184.301 345.481 183.993 345.481C183.66 345.481 183.395 345.555 183.195 345.705C182.995 345.855 182.896 346.05 182.896 346.291C182.896 346.574 183.02 346.778 183.27 346.902C183.519 347.027 183.819 347.11 184.168 347.152C184.517 347.185 184.866 347.243 185.215 347.326C185.573 347.41 185.876 347.597 186.126 347.888C186.375 348.178 186.5 348.59 186.5 349.122C186.5 349.696 186.284 350.153 185.851 350.494C185.427 350.835 184.858 351.005 184.143 351.005Z" fill="white"/>
<path d="M447.484 152.15H444.367C417.678 152.15 396.042 173.786 396.042 200.475V203.593C396.042 230.282 417.678 251.918 444.367 251.918H447.484C474.174 251.918 495.809 230.282 495.809 203.593V200.475C495.809 173.786 474.174 152.15 447.484 152.15Z" fill="#1A1A1B"/>
<path opacity="0.4" d="M442.288 188.524C442.288 186.514 443.917 184.886 445.926 184.886C447.934 184.886 449.563 186.514 449.563 188.524C449.563 190.532 447.934 192.161 445.926 192.161C443.917 192.161 442.288 190.532 442.288 188.524Z" fill="white"/>
<path opacity="0.4" d="M439.077 196.99C440.141 195.129 442.12 193.98 444.265 193.98H447.587C449.732 193.98 451.711 195.129 452.775 196.99L453.835 199.013C451.812 201.039 449.015 202.293 445.926 202.293C442.837 202.293 440.04 201.039 438.018 199.013L439.077 196.99Z" fill="white"/>
<path fill-rule="evenodd" clip-rule="evenodd" d="M445.926 181.981C440.878 181.981 436.786 186.073 436.786 191.122C436.786 196.17 440.878 200.262 445.926 200.262C450.975 200.262 455.067 196.17 455.067 191.122C455.067 186.073 450.975 181.981 445.926 181.981ZM434.755 191.122C434.755 184.952 439.757 179.95 445.926 179.95C452.096 179.95 457.098 184.952 457.098 191.122C457.098 197.292 452.096 202.293 445.926 202.293C439.757 202.293 434.755 197.292 434.755 191.122Z" fill="white"/>
<path d="M419.644 220.74V212.011H423.061C423.934 212.011 424.623 212.252 425.131 212.734C425.638 213.208 425.891 213.84 425.891 214.63C425.891 215.511 425.464 216.167 424.607 216.6C425.289 216.999 425.655 217.635 425.704 218.508L425.879 220.74H424.619L424.445 218.62C424.411 218.23 424.274 217.913 424.033 217.673C423.792 217.423 423.488 217.298 423.123 217.298H420.94V220.74H419.644ZM423.023 216.151C423.556 216.151 423.95 216.005 424.208 215.715C424.466 215.424 424.594 215.062 424.594 214.63C424.594 214.197 424.466 213.84 424.208 213.557C423.95 213.274 423.556 213.133 423.023 213.133H420.94V216.151H423.023ZM430.106 220.84C429.166 220.84 428.405 220.52 427.824 219.88C427.241 219.24 426.951 218.467 426.951 217.56C426.951 216.646 427.22 215.885 427.761 215.278C428.301 214.663 429.041 214.355 429.981 214.355C430.912 214.355 431.64 214.642 432.164 215.216C432.695 215.789 432.962 216.496 432.962 217.336C432.962 217.502 432.953 217.66 432.937 217.81H428.135C428.185 218.408 428.389 218.891 428.747 219.256C429.103 219.622 429.557 219.805 430.106 219.805C431.054 219.805 431.619 219.435 431.802 218.695H433.012C432.895 219.344 432.575 219.864 432.051 220.254C431.528 220.645 430.879 220.84 430.106 220.84ZM428.173 216.924H431.74C431.697 216.442 431.523 216.055 431.216 215.765C430.908 215.474 430.496 215.328 429.981 215.328C428.966 215.328 428.364 215.86 428.173 216.924ZM437.058 220.84C436.111 220.84 435.355 220.528 434.789 219.905C434.232 219.273 433.953 218.504 433.953 217.598C433.953 216.691 434.232 215.927 434.789 215.303C435.355 214.671 436.111 214.355 437.058 214.355C437.815 214.355 438.468 214.563 439.016 214.979C439.574 215.394 439.894 215.952 439.977 216.65H438.767C438.709 216.292 438.522 215.998 438.206 215.765C437.89 215.531 437.516 215.415 437.083 215.415C436.485 215.415 436.023 215.623 435.699 216.039C435.375 216.447 435.213 216.966 435.213 217.598C435.213 218.23 435.375 218.754 435.699 219.169C436.032 219.577 436.497 219.78 437.096 219.78C437.52 219.78 437.881 219.677 438.181 219.468C438.48 219.26 438.68 218.978 438.779 218.62H439.977C439.877 219.285 439.565 219.821 439.041 220.229C438.517 220.637 437.857 220.84 437.058 220.84ZM441.27 220.74V214.455H442.48V220.74H441.27ZM441.196 211.824H442.542V213.345H441.196V211.824ZM444.242 223.285V214.455H445.451V215.39C445.642 215.075 445.917 214.825 446.274 214.642C446.632 214.451 447.027 214.355 447.459 214.355C448.391 214.355 449.118 214.659 449.642 215.266C450.174 215.864 450.44 216.641 450.44 217.598C450.44 218.554 450.165 219.335 449.617 219.942C449.076 220.541 448.336 220.84 447.397 220.84C446.981 220.84 446.599 220.753 446.249 220.578C445.9 220.395 445.634 220.154 445.451 219.855V223.285H444.242ZM445.875 219.182C446.233 219.581 446.702 219.78 447.285 219.78C447.867 219.78 448.332 219.581 448.681 219.182C449.039 218.782 449.218 218.255 449.218 217.598C449.218 216.941 449.039 216.413 448.681 216.014C448.332 215.615 447.867 215.415 447.285 215.415C446.702 215.415 446.233 215.615 445.875 216.014C445.526 216.413 445.352 216.941 445.352 217.598C445.352 218.255 445.526 218.782 445.875 219.182ZM451.817 220.74V214.455H453.027V220.74H451.817ZM451.742 211.824H453.089V213.345H451.742V211.824ZM457.519 220.84C456.58 220.84 455.819 220.52 455.237 219.88C454.656 219.24 454.364 218.467 454.364 217.56C454.364 216.646 454.635 215.885 455.175 215.278C455.716 214.663 456.455 214.355 457.395 214.355C458.326 214.355 459.053 214.642 459.577 215.216C460.109 215.789 460.375 216.496 460.375 217.336C460.375 217.502 460.367 217.66 460.35 217.81H455.549C455.599 218.408 455.803 218.891 456.16 219.256C456.518 219.622 456.971 219.805 457.519 219.805C458.467 219.805 459.033 219.435 459.215 218.695H460.425C460.309 219.344 459.988 219.864 459.465 220.254C458.941 220.645 458.292 220.84 457.519 220.84ZM455.586 216.924H459.153C459.112 216.442 458.937 216.055 458.629 215.765C458.322 215.474 457.91 215.328 457.395 215.328C456.38 215.328 455.778 215.86 455.586 216.924ZM461.779 220.74V214.455H462.988V215.565C463.155 215.174 463.413 214.875 463.762 214.667C464.119 214.459 464.535 214.355 465.009 214.355C465.716 214.355 466.281 214.588 466.705 215.054C467.137 215.519 467.353 216.126 467.353 216.874V220.74H466.144V217.111C466.144 216.613 466.006 216.21 465.732 215.902C465.466 215.594 465.112 215.44 464.672 215.44C464.182 215.44 463.778 215.619 463.462 215.977C463.147 216.334 462.988 216.787 462.988 217.336V220.74H461.779ZM471.572 220.74C470.931 220.74 470.42 220.557 470.038 220.192C469.664 219.826 469.477 219.323 469.477 218.683V215.503H468.192V214.455H469.115C469.356 214.455 469.477 214.334 469.477 214.093V212.485H470.686V214.455H472.544V215.503H470.686V218.645C470.686 218.978 470.773 219.235 470.948 219.419C471.123 219.602 471.36 219.693 471.659 219.693H472.544V220.74H471.572Z" fill="white"/>
<path d="M497.368 282.315H494.251C467.562 282.315 445.926 303.951 445.926 330.64V333.758C445.926 360.447 467.562 382.083 494.251 382.083H497.368C524.057 382.083 545.693 360.447 545.693 333.758V330.64C545.693 303.951 524.057 282.315 497.368 282.315Z" fill="#1A1A1B"/>
<path opacity="0.4" d="M492.172 318.689C492.172 316.679 493.801 315.051 495.809 315.051C497.818 315.051 499.447 316.679 499.447 318.689C499.447 320.697 497.818 322.326 495.809 322.326C493.801 322.326 492.172 320.697 492.172 318.689Z" fill="white"/>
<path opacity="0.4" d="M488.961 327.155C490.024 325.294 492.004 324.145 494.148 324.145H497.471C499.615 324.145 501.595 325.294 502.659 327.155L503.718 329.178C501.696 331.204 498.899 332.458 495.81 332.458C492.721 332.458 489.924 331.204 487.901 329.178L488.961 327.155Z" fill="white"/>
<path fill-rule="evenodd" clip-rule="evenodd" d="M495.809 312.146C490.761 312.146 486.669 316.238 486.669 321.287C486.669 326.335 490.761 330.427 495.809 330.427C500.858 330.427 504.95 326.335 504.95 321.287C504.95 316.238 500.858 312.146 495.809 312.146ZM484.638 321.287C484.638 315.117 489.639 310.115 495.809 310.115C501.979 310.115 506.981 315.117 506.981 321.287C506.981 327.457 501.979 332.458 495.809 332.458C489.639 332.458 484.638 327.457 484.638 321.287Z" fill="white"/>
<path d="M469.527 350.905V342.176H472.944C473.817 342.176 474.507 342.417 475.015 342.899C475.522 343.373 475.775 344.005 475.775 344.795C475.775 345.676 475.347 346.333 474.491 346.765C475.173 347.164 475.538 347.8 475.588 348.673L475.763 350.905H474.503L474.329 348.785C474.295 348.395 474.158 348.078 473.917 347.838C473.676 347.588 473.372 347.464 473.007 347.464H470.824V350.905H469.527ZM472.907 346.316C473.439 346.316 473.834 346.17 474.092 345.88C474.35 345.589 474.478 345.227 474.478 344.795C474.478 344.362 474.35 344.005 474.092 343.722C473.834 343.439 473.439 343.298 472.907 343.298H470.824V346.316H472.907ZM479.99 351.005C479.05 351.005 478.289 350.685 477.707 350.045C477.125 349.405 476.835 348.632 476.835 347.725C476.835 346.811 477.104 346.05 477.645 345.443C478.185 344.828 478.925 344.52 479.865 344.52C480.796 344.52 481.524 344.807 482.047 345.381C482.579 345.955 482.845 346.661 482.845 347.501C482.845 347.667 482.837 347.825 482.821 347.975H478.018C478.069 348.573 478.273 349.056 478.63 349.421C478.987 349.787 479.441 349.97 479.99 349.97C480.937 349.97 481.503 349.6 481.686 348.86H482.895C482.778 349.509 482.459 350.029 481.935 350.419C481.411 350.81 480.763 351.005 479.99 351.005ZM478.057 347.089H481.623C481.581 346.607 481.407 346.22 481.1 345.93C480.792 345.639 480.38 345.493 479.865 345.493C478.85 345.493 478.248 346.025 478.057 347.089ZM486.942 351.005C485.994 351.005 485.238 350.693 484.672 350.07C484.116 349.438 483.837 348.669 483.837 347.763C483.837 346.856 484.116 346.092 484.672 345.468C485.238 344.836 485.994 344.52 486.942 344.52C487.699 344.52 488.351 344.728 488.9 345.144C489.457 345.559 489.778 346.117 489.86 346.815H488.651C488.593 346.457 488.406 346.163 488.089 345.93C487.774 345.697 487.4 345.58 486.967 345.58C486.369 345.58 485.907 345.788 485.583 346.204C485.259 346.612 485.096 347.131 485.096 347.763C485.096 348.395 485.259 348.919 485.583 349.334C485.916 349.742 486.381 349.945 486.98 349.945C487.404 349.945 487.765 349.842 488.065 349.633C488.364 349.425 488.563 349.143 488.663 348.785H489.86C489.761 349.45 489.449 349.987 488.925 350.394C488.401 350.802 487.74 351.005 486.942 351.005ZM491.154 350.905V344.62H492.364V350.905H491.154ZM491.079 341.989H492.426V343.51H491.079V341.989ZM494.125 353.45V344.62H495.335V345.555C495.526 345.24 495.8 344.99 496.158 344.807C496.516 344.616 496.91 344.52 497.343 344.52C498.274 344.52 499.002 344.824 499.525 345.431C500.058 346.029 500.323 346.806 500.323 347.763C500.323 348.719 500.049 349.5 499.5 350.107C498.96 350.706 498.22 351.005 497.281 351.005C496.865 351.005 496.482 350.918 496.133 350.743C495.784 350.56 495.518 350.319 495.335 350.02V353.45H494.125ZM495.759 349.347C496.117 349.746 496.586 349.945 497.168 349.945C497.751 349.945 498.216 349.746 498.565 349.347C498.923 348.948 499.101 348.42 499.101 347.763C499.101 347.106 498.923 346.578 498.565 346.179C498.216 345.78 497.751 345.58 497.168 345.58C496.586 345.58 496.117 345.78 495.759 346.179C495.41 346.578 495.235 347.106 495.235 347.763C495.235 348.42 495.41 348.948 495.759 349.347ZM501.701 350.905V344.62H502.91V350.905H501.701ZM501.626 341.989H502.973V343.51H501.626V341.989ZM507.403 351.005C506.464 351.005 505.703 350.685 505.121 350.045C504.539 349.405 504.248 348.632 504.248 347.725C504.248 346.811 504.518 346.05 505.059 345.443C505.599 344.828 506.339 344.52 507.278 344.52C508.21 344.52 508.937 344.807 509.461 345.381C509.993 345.955 510.259 346.661 510.259 347.501C510.259 347.667 510.251 347.825 510.234 347.975H505.433C505.483 348.573 505.687 349.056 506.044 349.421C506.401 349.787 506.854 349.97 507.403 349.97C508.351 349.97 508.917 349.6 509.099 348.86H510.309C510.193 349.509 509.872 350.029 509.348 350.419C508.825 350.81 508.176 351.005 507.403 351.005ZM505.47 347.089H509.037C508.995 346.607 508.821 346.22 508.513 345.93C508.206 345.639 507.794 345.493 507.278 345.493C506.264 345.493 505.662 346.025 505.47 347.089ZM511.663 350.905V344.62H512.872V345.73C513.038 345.34 513.296 345.04 513.645 344.832C514.003 344.624 514.419 344.52 514.893 344.52C515.6 344.52 516.165 344.753 516.589 345.219C517.021 345.684 517.237 346.291 517.237 347.039V350.905H516.027V347.276C516.027 346.778 515.89 346.375 515.616 346.067C515.35 345.759 514.996 345.605 514.556 345.605C514.066 345.605 513.662 345.784 513.346 346.142C513.031 346.499 512.872 346.952 512.872 347.501V350.905H511.663ZM521.455 350.905C520.815 350.905 520.303 350.722 519.921 350.357C519.547 349.991 519.36 349.488 519.36 348.848V345.668H518.076V344.62H518.999C519.239 344.62 519.36 344.499 519.36 344.258V342.65H520.57V344.62H522.428V345.668H520.57V348.81C520.57 349.143 520.657 349.4 520.832 349.584C521.006 349.767 521.243 349.858 521.543 349.858H522.428V350.905H521.455Z" fill="white"/>
<path d="M447.484 412.48H444.367C417.678 412.48 396.042 434.116 396.042 460.805V463.923C396.042 490.612 417.678 512.248 444.367 512.248H447.484C474.174 512.248 495.809 490.612 495.809 463.923V460.805C495.809 434.116 474.174 412.48 447.484 412.48Z" fill="#1A1A1B"/>
<path opacity="0.4" d="M442.288 448.854C442.288 446.845 443.917 445.216 445.926 445.216C447.934 445.216 449.563 446.845 449.563 448.854C449.563 450.863 447.934 452.491 445.926 452.491C443.917 452.491 442.288 450.863 442.288 448.854Z" fill="white"/>
<path opacity="0.4" d="M439.077 457.32C440.141 455.459 442.12 454.31 444.265 454.31H447.587C449.732 454.31 451.711 455.459 452.775 457.32L453.835 459.343C451.812 461.369 449.015 462.623 445.926 462.623C442.837 462.623 440.04 461.369 438.018 459.343L439.077 457.32Z" fill="white"/>
<path fill-rule="evenodd" clip-rule="evenodd" d="M445.926 442.311C440.878 442.311 436.786 446.403 436.786 451.452C436.786 456.5 440.878 460.592 445.926 460.592C450.975 460.592 455.067 456.5 455.067 451.452C455.067 446.403 450.975 442.311 445.926 442.311ZM434.755 451.452C434.755 445.282 439.757 440.28 445.926 440.28C452.096 440.28 457.098 445.282 457.098 451.452C457.098 457.622 452.096 462.623 445.926 462.623C439.757 462.623 434.755 457.622 434.755 451.452Z" fill="white"/>
<path d="M419.644 481.071V472.341H423.061C423.934 472.341 424.623 472.582 425.131 473.064C425.638 473.538 425.891 474.17 425.891 474.96C425.891 475.841 425.464 476.498 424.607 476.93C425.289 477.329 425.655 477.965 425.704 478.838L425.879 481.071H424.619L424.445 478.95C424.411 478.56 424.274 478.244 424.033 478.003C423.792 477.753 423.488 477.629 423.123 477.629H420.94V481.071H419.644ZM423.023 476.481C423.556 476.481 423.95 476.335 424.208 476.045C424.466 475.754 424.594 475.392 424.594 474.96C424.594 474.527 424.466 474.17 424.208 473.887C423.95 473.604 423.556 473.463 423.023 473.463H420.94V476.481H423.023ZM430.106 481.17C429.166 481.17 428.405 480.85 427.824 480.21C427.241 479.57 426.951 478.797 426.951 477.89C426.951 476.976 427.22 476.215 427.761 475.608C428.301 474.993 429.041 474.685 429.981 474.685C430.912 474.685 431.64 474.972 432.164 475.546C432.695 476.12 432.962 476.827 432.962 477.666C432.962 477.832 432.953 477.99 432.937 478.14H428.135C428.185 478.738 428.389 479.221 428.747 479.586C429.103 479.952 429.557 480.135 430.106 480.135C431.054 480.135 431.619 479.765 431.802 479.025H433.012C432.895 479.674 432.575 480.194 432.051 480.584C431.528 480.975 430.879 481.17 430.106 481.17ZM428.173 477.254H431.74C431.697 476.772 431.523 476.385 431.216 476.095C430.908 475.804 430.496 475.658 429.981 475.658C428.966 475.658 428.364 476.19 428.173 477.254ZM437.058 481.17C436.111 481.17 435.355 480.858 434.789 480.235C434.232 479.603 433.953 478.834 433.953 477.928C433.953 477.021 434.232 476.257 434.789 475.633C435.355 475.001 436.111 474.685 437.058 474.685C437.815 474.685 438.468 474.893 439.016 475.309C439.574 475.724 439.894 476.282 439.977 476.98H438.767C438.709 476.622 438.522 476.328 438.206 476.095C437.89 475.862 437.516 475.745 437.083 475.745C436.485 475.745 436.023 475.954 435.699 476.369C435.375 476.777 435.213 477.296 435.213 477.928C435.213 478.56 435.375 479.084 435.699 479.499C436.032 479.907 436.497 480.11 437.096 480.11C437.52 480.11 437.881 480.007 438.181 479.798C438.48 479.59 438.68 479.308 438.779 478.95H439.977C439.877 479.615 439.565 480.152 439.041 480.559C438.517 480.967 437.857 481.17 437.058 481.17ZM441.27 481.071V474.785H442.48V481.071H441.27ZM441.196 472.154H442.542V473.675H441.196V472.154ZM444.242 483.615V474.785H445.451V475.72C445.642 475.405 445.917 475.155 446.274 474.972C446.632 474.781 447.027 474.685 447.459 474.685C448.391 474.685 449.118 474.989 449.642 475.596C450.174 476.194 450.44 476.971 450.44 477.928C450.44 478.884 450.165 479.665 449.617 480.272C449.076 480.871 448.336 481.17 447.397 481.17C446.981 481.17 446.599 481.083 446.249 480.908C445.9 480.725 445.634 480.484 445.451 480.185V483.615H444.242ZM445.875 479.512C446.233 479.911 446.702 480.11 447.285 480.11C447.867 480.11 448.332 479.911 448.681 479.512C449.039 479.113 449.218 478.585 449.218 477.928C449.218 477.271 449.039 476.743 448.681 476.344C448.332 475.945 447.867 475.745 447.285 475.745C446.702 475.745 446.233 475.945 445.875 476.344C445.526 476.743 445.352 477.271 445.352 477.928C445.352 478.585 445.526 479.113 445.875 479.512ZM451.817 481.071V474.785H453.027V481.071H451.817ZM451.742 472.154H453.089V473.675H451.742V472.154ZM457.519 481.17C456.58 481.17 455.819 480.85 455.237 480.21C454.656 479.57 454.364 478.797 454.364 477.89C454.364 476.976 454.635 476.215 455.175 475.608C455.716 474.993 456.455 474.685 457.395 474.685C458.326 474.685 459.053 474.972 459.577 475.546C460.109 476.12 460.375 476.827 460.375 477.666C460.375 477.832 460.367 477.99 460.35 478.14H455.549C455.599 478.738 455.803 479.221 456.16 479.586C456.518 479.952 456.971 480.135 457.519 480.135C458.467 480.135 459.033 479.765 459.215 479.025H460.425C460.309 479.674 459.988 480.194 459.465 480.584C458.941 480.975 458.292 481.17 457.519 481.17ZM455.586 477.254H459.153C459.112 476.772 458.937 476.385 458.629 476.095C458.322 475.804 457.91 475.658 457.395 475.658C456.38 475.658 455.778 476.19 455.586 477.254ZM461.779 481.071V474.785H462.988V475.895C463.155 475.505 463.413 475.205 463.762 474.997C464.119 474.789 464.535 474.685 465.009 474.685C465.716 474.685 466.281 474.918 466.705 475.384C467.137 475.849 467.353 476.456 467.353 477.205V481.071H466.144V477.441C466.144 476.943 466.006 476.54 465.732 476.232C465.466 475.924 465.112 475.77 464.672 475.77C464.182 475.77 463.778 475.949 463.462 476.307C463.147 476.664 462.988 477.117 462.988 477.666V481.071H461.779ZM471.572 481.071C470.931 481.071 470.42 480.887 470.038 480.522C469.664 480.156 469.477 479.653 469.477 479.013V475.833H468.192V474.785H469.115C469.356 474.785 469.477 474.664 469.477 474.424V472.815H470.686V474.785H472.544V475.833H470.686V478.975C470.686 479.308 470.773 479.565 470.948 479.749C471.123 479.932 471.36 480.023 471.659 480.023H472.544V481.071H471.572Z" fill="white"/>
<path d="M365.275 332.014C365.275 311.884 348.956 295.565 328.826 295.565C308.696 295.565 292.378 311.884 292.378 332.014C292.378 352.144 308.696 368.462 328.826 368.462C348.956 368.462 365.275 352.144 365.275 332.014Z" fill="#1C5210"/>
<path d="M325.946 348.764C322.903 348.251 320.469 346.97 318.644 344.92C316.85 342.87 315.889 340.292 315.761 337.185H322.68C322.84 338.915 323.448 340.276 324.505 341.269C325.594 342.262 327.035 342.758 328.829 342.758C330.463 342.758 331.76 342.422 332.721 341.749C333.682 341.077 334.162 340.116 334.162 338.866C334.162 338.002 333.874 337.313 333.298 336.8C332.753 336.256 332.064 335.84 331.232 335.551C330.398 335.263 329.214 334.926 327.676 334.542C325.402 333.998 323.529 333.421 322.055 332.812C320.613 332.172 319.364 331.163 318.307 329.786C317.25 328.409 316.722 326.519 316.722 324.116C316.722 321.682 317.554 319.632 319.22 317.967C320.917 316.268 323.16 315.211 325.946 314.795V310.375H332.144V315.035C334.739 315.644 336.789 316.845 338.294 318.639C339.832 320.401 340.632 322.579 340.697 325.173H333.874C333.714 323.828 333.154 322.771 332.193 322.003C331.232 321.201 329.967 320.801 328.397 320.801C326.956 320.801 325.819 321.105 324.985 321.714C324.153 322.322 323.737 323.123 323.737 324.116C323.737 325.045 324.025 325.782 324.601 326.326C325.178 326.871 325.914 327.303 326.812 327.624C327.708 327.912 328.942 328.233 330.511 328.585C332.817 329.129 334.691 329.689 336.132 330.266C337.574 330.843 338.807 331.82 339.832 333.197C340.889 334.542 341.417 336.4 341.417 338.77C341.417 341.397 340.585 343.591 338.919 345.353C337.254 347.082 334.996 348.203 332.144 348.716V353.665L325.946 353.616V348.764Z" fill="white"/>
<path d="M214.435 163.062H94.4021C85.7927 163.062 78.8135 170.041 78.8135 178.651C78.8135 187.26 85.7927 194.239 94.4021 194.239H214.435C223.044 194.239 230.023 187.26 230.023 178.651C230.023 170.041 223.044 163.062 214.435 163.062Z" fill="#3BAB22"/>
<path d="M96.9358 172.958C96.9358 172.336 96.4307 171.831 95.8087 171.831C95.4946 171.831 95.1953 171.961 94.9825 172.191L90.3426 177.188C90.0713 177.48 89.9209 177.863 89.9209 178.261C89.9209 178.66 90.0713 179.042 90.3426 179.335L94.9825 184.332C95.1953 184.561 95.4946 184.692 95.8087 184.692C96.4307 184.692 96.9358 184.187 96.9358 183.565V181.205C100.584 181.468 102.584 184.136 103.115 184.958C103.312 185.263 103.655 185.471 104.046 185.471C104.639 185.471 105.12 184.99 105.12 184.397V183.717C105.12 179.155 101.474 175.445 96.9358 175.341V172.958Z" fill="white"/>
<path d="M114.106 183.327V174.598H117.523C118.396 174.598 119.086 174.839 119.594 175.321C120.101 175.795 120.354 176.427 120.354 177.217C120.354 178.098 119.926 178.754 119.07 179.187C119.752 179.586 120.117 180.222 120.167 181.095L120.342 183.327H119.082L118.908 181.207C118.874 180.817 118.737 180.5 118.496 180.259C118.255 180.01 117.951 179.885 117.586 179.885H115.403V183.327H114.106ZM117.486 178.738C118.018 178.738 118.413 178.592 118.671 178.302C118.929 178.011 119.057 177.649 119.057 177.217C119.057 176.784 118.929 176.427 118.671 176.144C118.413 175.861 118.018 175.72 117.486 175.72H115.403V178.738H117.486ZM124.569 183.427C123.629 183.427 122.868 183.107 122.287 182.467C121.704 181.827 121.414 181.054 121.414 180.147C121.414 179.233 121.683 178.472 122.224 177.865C122.764 177.25 123.504 176.942 124.444 176.942C125.375 176.942 126.103 177.229 126.626 177.803C127.158 178.376 127.425 179.083 127.425 179.923C127.425 180.089 127.416 180.247 127.4 180.397H122.598C122.648 180.995 122.852 181.478 123.209 181.843C123.566 182.209 124.02 182.392 124.569 182.392C125.517 182.392 126.082 182.022 126.265 181.282H127.474C127.358 181.931 127.038 182.45 126.514 182.841C125.99 183.231 125.342 183.427 124.569 183.427ZM122.636 179.511H126.202C126.16 179.029 125.986 178.642 125.679 178.351C125.371 178.061 124.959 177.915 124.444 177.915C123.429 177.915 122.827 178.447 122.636 179.511ZM131.362 183.327C130.722 183.327 130.21 183.144 129.828 182.779C129.453 182.413 129.266 181.91 129.266 181.27V178.09H127.982V177.042H128.905C129.146 177.042 129.266 176.921 129.266 176.68V175.072H130.476V177.042H132.334V178.09H130.476V181.232C130.476 181.565 130.563 181.822 130.738 182.005C130.913 182.189 131.149 182.28 131.449 182.28H132.334V183.327H131.362ZM139.029 177.042V183.327H137.819V182.217C137.652 182.608 137.39 182.907 137.033 183.115C136.676 183.323 136.26 183.427 135.786 183.427C135.079 183.427 134.51 183.194 134.078 182.729C133.654 182.263 133.442 181.656 133.442 180.908V177.042H134.651V180.671C134.651 181.17 134.784 181.573 135.051 181.881C135.325 182.189 135.682 182.342 136.123 182.342C136.613 182.342 137.016 182.164 137.333 181.806C137.657 181.448 137.819 180.995 137.819 180.447V177.042H139.029ZM143.518 178.09C142.504 178.09 141.997 178.888 141.997 180.484V183.327H140.787V177.042H141.997V178.252C142.138 177.828 142.342 177.52 142.608 177.329C142.874 177.138 143.228 177.042 143.668 177.042H144.429V178.09H143.518ZM145.476 183.327V177.042H146.686V178.152C146.852 177.761 147.11 177.462 147.459 177.254C147.816 177.046 148.232 176.942 148.706 176.942C149.412 176.942 149.978 177.175 150.402 177.641C150.834 178.106 151.051 178.713 151.051 179.461V183.327H149.841V179.698C149.841 179.199 149.704 178.797 149.43 178.489C149.163 178.181 148.81 178.027 148.369 178.027C147.878 178.027 147.475 178.206 147.16 178.563C146.843 178.921 146.686 179.374 146.686 179.923V183.327H145.476ZM155.465 183.427C154.526 183.427 153.765 183.107 153.183 182.467C152.601 181.827 152.31 181.054 152.31 180.147C152.31 179.233 152.581 178.472 153.121 177.865C153.661 177.25 154.402 176.942 155.341 176.942C156.272 176.942 156.999 177.229 157.523 177.803C158.055 178.376 158.321 179.083 158.321 179.923C158.321 180.089 158.313 180.247 158.296 180.397H153.495C153.545 180.995 153.748 181.478 154.106 181.843C154.464 182.209 154.917 182.392 155.465 182.392C156.413 182.392 156.978 182.022 157.161 181.282H158.371C158.255 181.931 157.935 182.45 157.411 182.841C156.887 183.231 156.239 183.427 155.465 183.427ZM153.532 179.511H157.099C157.058 179.029 156.883 178.642 156.575 178.351C156.267 178.061 155.856 177.915 155.341 177.915C154.327 177.915 153.723 178.447 153.532 179.511ZM162.344 183.427C161.396 183.427 160.656 183.128 160.124 182.529C159.592 181.931 159.326 181.149 159.326 180.185C159.326 179.228 159.592 178.451 160.124 177.853C160.656 177.245 161.392 176.942 162.331 176.942C162.755 176.942 163.142 177.038 163.491 177.229C163.849 177.412 164.123 177.657 164.314 177.965V174.411H165.524V183.327H164.314V182.392C164.123 182.708 163.849 182.962 163.491 183.153C163.133 183.336 162.752 183.427 162.344 183.427ZM161.072 181.768C161.43 182.168 161.899 182.367 162.481 182.367C163.063 182.367 163.529 182.168 163.878 181.768C164.236 181.369 164.414 180.842 164.414 180.185C164.414 179.528 164.236 179 163.878 178.601C163.529 178.202 163.063 178.002 162.481 178.002C161.899 178.002 161.43 178.202 161.072 178.601C160.723 179 160.548 179.528 160.548 180.185C160.548 180.842 160.723 181.369 161.072 181.768ZM170.187 185.871V177.042H171.396V177.977C171.587 177.662 171.862 177.412 172.219 177.229C172.576 177.038 172.971 176.942 173.404 176.942C174.335 176.942 175.063 177.245 175.586 177.853C176.118 178.451 176.385 179.228 176.385 180.185C176.385 181.141 176.11 181.922 175.562 182.529C175.021 183.128 174.281 183.427 173.342 183.427C172.925 183.427 172.544 183.34 172.194 183.165C171.845 182.982 171.579 182.741 171.396 182.442V185.871H170.187ZM171.82 181.768C172.177 182.168 172.647 182.367 173.229 182.367C173.811 182.367 174.277 182.168 174.626 181.768C174.983 181.369 175.162 180.842 175.162 180.185C175.162 179.528 174.983 179 174.626 178.601C174.277 178.202 173.811 178.002 173.229 178.002C172.647 178.002 172.177 178.202 171.82 178.601C171.471 179 171.296 179.528 171.296 180.185C171.296 180.842 171.471 181.369 171.82 181.768ZM180.381 183.427C179.433 183.427 178.692 183.128 178.161 182.529C177.629 181.931 177.363 181.149 177.363 180.185C177.363 179.228 177.629 178.451 178.161 177.853C178.692 177.245 179.428 176.942 180.368 176.942C180.767 176.942 181.149 177.03 181.516 177.204C181.881 177.379 182.159 177.603 182.351 177.878V177.042H183.561V183.327H182.351V182.479C182.201 182.754 181.944 182.982 181.578 183.165C181.212 183.34 180.813 183.427 180.381 183.427ZM179.109 181.768C179.466 182.168 179.936 182.367 180.518 182.367C181.099 182.367 181.565 182.168 181.915 181.768C182.272 181.369 182.451 180.842 182.451 180.185C182.451 179.528 182.272 179 181.915 178.601C181.565 178.202 181.099 178.002 180.518 178.002C179.936 178.002 179.466 178.202 179.109 178.601C178.76 179 178.585 179.528 178.585 180.185C178.585 180.842 178.76 181.369 179.109 181.768ZM186.147 185.871L186.983 183.39L184.65 177.042H185.898L187.556 181.756L189.202 177.042H190.462L188.467 182.479L187.307 185.871H186.147ZM191.548 183.327V177.042H192.757V178.164C192.891 177.799 193.119 177.503 193.443 177.279C193.776 177.054 194.167 176.942 194.616 176.942C195.131 176.942 195.567 177.054 195.925 177.279C196.283 177.503 196.524 177.819 196.648 178.227C196.773 177.861 197.026 177.557 197.409 177.316C197.792 177.067 198.22 176.942 198.693 176.942C199.375 176.942 199.912 177.158 200.302 177.591C200.701 178.023 200.901 178.605 200.901 179.337V183.327H199.691V179.673C199.691 179.166 199.57 178.763 199.329 178.464C199.096 178.156 198.772 178.002 198.357 178.002C197.883 178.002 197.509 178.156 197.234 178.464C196.96 178.763 196.823 179.166 196.823 179.673V183.327H195.613V179.673C195.613 179.166 195.492 178.763 195.252 178.464C195.018 178.156 194.699 178.002 194.291 178.002C193.817 178.002 193.443 178.156 193.169 178.464C192.895 178.763 192.757 179.166 192.757 179.673V183.327H191.548ZM205.312 183.427C204.373 183.427 203.612 183.107 203.03 182.467C202.449 181.827 202.157 181.054 202.157 180.147C202.157 179.233 202.428 178.472 202.968 177.865C203.509 177.25 204.248 176.942 205.188 176.942C206.119 176.942 206.846 177.229 207.37 177.803C207.902 178.376 208.168 179.083 208.168 179.923C208.168 180.089 208.16 180.247 208.143 180.397H203.342C203.392 180.995 203.596 181.478 203.953 181.843C204.311 182.209 204.764 182.392 205.312 182.392C206.26 182.392 206.826 182.022 207.008 181.282H208.218C208.102 181.931 207.782 182.45 207.258 182.841C206.734 183.231 206.086 183.427 205.312 183.427ZM203.379 179.511H206.946C206.905 179.029 206.73 178.642 206.422 178.351C206.115 178.061 205.704 177.915 205.188 177.915C204.174 177.915 203.571 178.447 203.379 179.511ZM209.572 183.327V177.042H210.782V178.152C210.948 177.761 211.206 177.462 211.555 177.254C211.913 177.046 212.328 176.942 212.802 176.942C213.509 176.942 214.074 177.175 214.498 177.641C214.931 178.106 215.147 178.713 215.147 179.461V183.327H213.937V179.698C213.937 179.199 213.8 178.797 213.525 178.489C213.26 178.181 212.906 178.027 212.465 178.027C211.975 178.027 211.571 178.206 211.256 178.563C210.94 178.921 210.782 179.374 210.782 179.923V183.327H209.572ZM219.365 183.327C218.724 183.327 218.213 183.144 217.831 182.779C217.457 182.413 217.27 181.91 217.27 181.27V178.09H215.985V177.042H216.908C217.149 177.042 217.27 176.921 217.27 176.68V175.072H218.479V177.042H220.338V178.09H218.479V181.232C218.479 181.565 218.567 181.822 218.741 182.005C218.916 182.189 219.153 182.28 219.452 182.28H220.338V183.327H219.365Z" fill="white"/>
<path d="M364.086 29H293.937C285.328 29 278.349 35.9793 278.349 44.5886C278.349 53.198 285.328 60.1773 293.937 60.1773H364.086C372.695 60.1773 379.675 53.198 379.675 44.5886C379.675 35.9793 372.695 29 364.086 29Z" fill="#3BAB22"/>
<path d="M296.645 48.7242C298.993 46.2114 301.261 44.5068 304.109 42.0928C304.961 41.3702 305.093 40.1037 304.424 39.2064C303.714 38.2527 302.363 38.0621 301.449 38.8202C298.841 40.984 296.811 43.0674 294.886 45.2942C294.784 45.411 294.734 45.4695 294.682 45.5024C294.549 45.5858 294.382 45.5866 294.249 45.5046C294.196 45.4723 294.145 45.415 294.044 45.3004L293.018 44.1389C292.082 43.0791 290.403 43.1964 289.621 44.3763C289.075 45.2019 289.156 46.2961 289.819 47.031L291.427 48.8155C292.63 50.1502 293.232 50.8176 293.954 50.8241C294.676 50.8307 295.332 50.1285 296.645 48.7242Z" fill="white"/>
<path d="M316.796 42.1569L315.374 45.9107H318.217L316.796 42.1569ZM312.768 49.2653L316.197 40.5357H317.394L320.824 49.2653H319.477L318.641 47.0455H314.95L314.114 49.2653H312.768ZM321.834 51.8094V42.98H323.044V43.9153C323.235 43.5994 323.51 43.35 323.867 43.1671C324.224 42.9759 324.62 42.8802 325.051 42.8802C325.983 42.8802 326.71 43.1837 327.234 43.7906C327.766 44.3892 328.032 45.1665 328.032 46.1227C328.032 47.0788 327.758 47.8602 327.209 48.4672C326.669 49.0658 325.929 49.3651 324.989 49.3651C324.574 49.3651 324.191 49.2778 323.842 49.1032C323.493 48.9203 323.227 48.6792 323.044 48.3799V51.8094H321.834ZM323.468 47.7065C323.825 48.1055 324.295 48.3051 324.877 48.3051C325.459 48.3051 325.924 48.1055 326.274 47.7065C326.631 47.3074 326.81 46.7795 326.81 46.1227C326.81 45.4658 326.631 44.9379 326.274 44.5389C325.924 44.1398 325.459 43.9403 324.877 43.9403C324.295 43.9403 323.825 44.1398 323.468 44.5389C323.118 44.9379 322.944 45.4658 322.944 46.1227C322.944 46.7795 323.118 47.3074 323.468 47.7065ZM329.409 51.8094V42.98H330.619V43.9153C330.81 43.5994 331.084 43.35 331.442 43.1671C331.8 42.9759 332.194 42.8802 332.627 42.8802C333.558 42.8802 334.285 43.1837 334.809 43.7906C335.341 44.3892 335.607 45.1665 335.607 46.1227C335.607 47.0788 335.333 47.8602 334.784 48.4672C334.244 49.0658 333.504 49.3651 332.564 49.3651C332.149 49.3651 331.766 49.2778 331.417 49.1032C331.068 48.9203 330.802 48.6792 330.619 48.3799V51.8094H329.409ZM331.043 47.7065C331.401 48.1055 331.87 48.3051 332.452 48.3051C333.034 48.3051 333.5 48.1055 333.849 47.7065C334.207 47.3074 334.385 46.7795 334.385 46.1227C334.385 45.4658 334.207 44.9379 333.849 44.5389C333.5 44.1398 333.034 43.9403 332.452 43.9403C331.87 43.9403 331.401 44.1398 331.043 44.5389C330.694 44.9379 330.519 45.4658 330.519 46.1227C330.519 46.7795 330.694 47.3074 331.043 47.7065ZM339.716 44.0275C338.701 44.0275 338.194 44.8257 338.194 46.422V49.2653H336.985V42.98H338.194V44.1897C338.335 43.7657 338.539 43.458 338.805 43.2668C339.071 43.0756 339.424 42.98 339.865 42.98H340.626V44.0275H339.716ZM346.58 48.4547C345.973 49.0617 345.2 49.3651 344.261 49.3651C343.321 49.3651 342.543 49.0617 341.928 48.4547C341.321 47.8395 341.018 47.0621 341.018 46.1227C341.018 45.1832 341.321 44.41 341.928 43.8031C342.543 43.1879 343.321 42.8802 344.261 42.8802C345.2 42.8802 345.973 43.1879 346.58 43.8031C347.186 44.41 347.49 45.1832 347.49 46.1227C347.49 47.0621 347.186 47.8395 346.58 48.4547ZM344.261 48.3051C344.851 48.3051 345.328 48.1014 345.695 47.694C346.069 47.2866 346.256 46.7628 346.256 46.1227C346.256 45.4825 346.069 44.9587 345.695 44.5513C345.328 44.1439 344.851 43.9403 344.261 43.9403C343.662 43.9403 343.176 44.1439 342.801 44.5513C342.435 44.9587 342.253 45.4825 342.253 46.1227C342.253 46.7628 342.435 47.2866 342.801 47.694C343.176 48.1014 343.662 48.3051 344.261 48.3051ZM350.297 49.2653L347.99 42.98H349.237L350.896 47.7439L352.542 42.98H353.802L351.494 49.2653H350.297ZM357.36 49.3651C356.412 49.3651 355.672 49.0658 355.14 48.4672C354.607 47.8686 354.342 47.0871 354.342 46.1227C354.342 45.1665 354.607 44.3892 355.14 43.7906C355.672 43.1837 356.408 42.8802 357.347 42.8802C357.746 42.8802 358.129 42.9675 358.494 43.1421C358.86 43.3167 359.139 43.5412 359.33 43.8155V42.98H360.54V49.2653H359.33V48.4173C359.18 48.6917 358.922 48.9203 358.557 49.1032C358.191 49.2778 357.792 49.3651 357.36 49.3651ZM356.088 47.7065C356.445 48.1055 356.915 48.3051 357.497 48.3051C358.079 48.3051 358.544 48.1055 358.894 47.7065C359.251 47.3074 359.43 46.7795 359.43 46.1227C359.43 45.4658 359.251 44.9379 358.894 44.5389C358.544 44.1398 358.079 43.9403 357.497 43.9403C356.915 43.9403 356.445 44.1398 356.088 44.5389C355.738 44.9379 355.564 45.4658 355.564 46.1227C355.564 46.7795 355.738 47.3074 356.088 47.7065ZM362.316 49.2653V40.3486H363.526V49.2653H362.316ZM367.37 49.3651C366.63 49.3651 366.032 49.1739 365.574 48.7914C365.117 48.409 364.868 47.8852 364.826 47.2201H365.961C365.994 47.5776 366.131 47.8561 366.372 48.0557C366.622 48.2552 366.954 48.355 367.37 48.355C367.719 48.355 368.002 48.2718 368.218 48.1055C368.442 47.9393 368.555 47.7397 368.555 47.5069C368.555 47.2076 368.43 46.9873 368.18 46.846C367.94 46.6963 367.644 46.6007 367.295 46.5591C366.946 46.5093 366.597 46.4469 366.247 46.3721C365.898 46.2889 365.599 46.1143 365.35 45.8483C365.109 45.5739 364.988 45.1873 364.988 44.6885C364.988 44.1481 365.196 43.7116 365.611 43.3791C366.028 43.0465 366.564 42.8802 367.22 42.8802C367.927 42.8802 368.501 43.0632 368.941 43.4289C369.39 43.7865 369.636 44.2604 369.677 44.8506H368.53C368.488 44.518 368.335 44.2686 368.068 44.1024C367.811 43.9278 367.528 43.8405 367.22 43.8405C366.888 43.8405 366.622 43.9153 366.422 44.065C366.223 44.2146 366.123 44.41 366.123 44.6511C366.123 44.9338 366.247 45.1375 366.497 45.2622C366.746 45.3869 367.046 45.47 367.395 45.5116C367.744 45.5449 368.093 45.603 368.442 45.6862C368.8 45.7693 369.103 45.9564 369.353 46.2474C369.602 46.5383 369.727 46.9499 369.727 47.482C369.727 48.0557 369.511 48.5129 369.078 48.8538C368.654 49.1946 368.085 49.3651 367.37 49.3651Z" fill="white"/>
<path d="M204.302 520.042H134.153C125.544 520.042 118.564 527.021 118.564 535.631C118.564 544.24 125.544 551.219 134.153 551.219H204.302C212.911 551.219 219.891 544.24 219.891 535.631C219.891 527.021 212.911 520.042 204.302 520.042Z" fill="#3BAB22"/>
<path fill-rule="evenodd" clip-rule="evenodd" d="M141.169 538.748C140.178 538.748 139.346 539.483 139.212 540.418C139.164 540.755 138.902 541.022 138.565 541.076C138.229 541.131 137.896 540.96 137.744 540.656L136.964 539.097C136.772 538.712 136.928 538.244 137.313 538.052C137.698 537.859 138.165 538.015 138.358 538.4L138.411 538.505C139.063 537.701 140.065 537.189 141.169 537.189C142.361 537.189 143.414 537.786 144.047 538.692C144.293 539.045 144.207 539.531 143.854 539.777C143.501 540.023 143.014 539.937 142.768 539.584C142.415 539.077 141.83 538.748 141.169 538.748ZM143.772 540.317C144.109 540.263 144.441 540.433 144.593 540.738L145.373 542.297C145.565 542.682 145.409 543.15 145.024 543.342C144.639 543.535 144.172 543.379 143.979 542.994L143.926 542.889C143.274 543.693 142.272 544.204 141.169 544.204C140.048 544.204 139.05 543.678 138.409 542.862C138.144 542.524 138.202 542.034 138.54 541.768C138.879 541.502 139.369 541.561 139.635 541.9C139.993 542.355 140.547 542.645 141.169 542.645C142.159 542.645 142.992 541.91 143.125 540.976C143.173 540.638 143.435 540.372 143.772 540.317Z" fill="white" fill-opacity="0.4"/>
<path fill-rule="evenodd" clip-rule="evenodd" d="M143.117 534.669V530.174C143.117 529.548 142.776 529.046 142.365 528.681C141.952 528.315 141.4 528.022 140.785 527.791C139.548 527.327 137.892 527.057 136.102 527.057C134.311 527.057 132.655 527.327 131.419 527.791C130.804 528.022 130.251 528.315 129.839 528.681C129.428 529.046 129.087 529.548 129.087 530.174V534.917C129.898 535.571 130.737 536.114 131.767 536.505C132.877 536.927 134.248 537.188 136.098 537.188C136.235 537.187 136.371 537.185 136.504 537.18C136.592 537.114 136.688 537.056 136.789 537.005C137.305 536.747 137.88 536.74 138.377 536.936C139.161 536.36 140.13 536.02 141.168 536.02C141.243 536.02 141.317 536.022 141.39 536.026C142.059 535.653 142.621 535.199 143.109 534.677L143.117 534.669ZM130.646 530.174C130.646 530.154 130.654 530.042 130.873 529.848C131.092 529.654 131.453 529.443 131.966 529.251C132.986 528.868 134.449 528.616 136.102 528.616C137.755 528.616 139.217 528.868 140.237 529.251C140.75 529.443 141.111 529.654 141.33 529.848C141.55 530.042 141.558 530.154 141.558 530.174C141.558 530.195 141.55 530.307 141.33 530.501C141.111 530.695 140.75 530.905 140.237 531.098C139.217 531.481 137.755 531.733 136.102 531.733C134.449 531.733 132.986 531.481 131.966 531.098C131.453 530.905 131.092 530.695 130.873 530.501C130.654 530.307 130.646 530.195 130.646 530.174ZM131.645 534.683C131.738 534.373 132.064 534.198 132.373 534.291L132.442 534.312C132.898 534.45 133.36 534.588 133.852 534.662C134.17 534.711 134.39 535.009 134.342 535.328C134.294 535.648 133.995 535.867 133.676 535.818C133.099 535.731 132.565 535.57 132.121 535.436L132.036 535.411C131.728 535.318 131.552 534.992 131.645 534.683Z" fill="white"/>
<path fill-rule="evenodd" clip-rule="evenodd" d="M135.712 538.744C135.711 539.039 135.778 539.338 135.918 539.62L136.697 541.179C136.815 541.414 136.976 541.617 137.167 541.783C136.976 542.378 137.074 543.056 137.49 543.585C137.635 543.769 137.793 543.943 137.964 544.103C137.369 544.169 136.744 544.204 136.102 544.204C134.311 544.204 132.655 543.933 131.419 543.469C130.804 543.239 130.251 542.946 129.839 542.58C129.428 542.215 129.087 541.713 129.087 541.087V536.856C129.721 537.282 130.415 537.66 131.213 537.963C132.447 538.431 133.894 538.709 135.712 538.744ZM131.645 540.139C131.738 539.829 132.064 539.654 132.373 539.747L132.442 539.768C132.898 539.905 133.36 540.044 133.852 540.119C134.17 540.167 134.39 540.465 134.342 540.784C134.294 541.104 133.995 541.323 133.676 541.275C133.099 541.187 132.565 541.026 132.121 540.893L132.036 540.867C131.728 540.774 131.552 540.448 131.645 540.139Z" fill="white"/>
<path d="M153.857 540.307V531.577H156.539C157.811 531.577 158.862 531.964 159.694 532.737C160.525 533.502 160.941 534.57 160.941 535.942C160.941 537.314 160.525 538.386 159.694 539.159C158.862 539.924 157.811 540.307 156.539 540.307H153.857ZM156.464 539.159C157.353 539.159 158.098 538.894 158.696 538.361C159.303 537.829 159.607 537.023 159.607 535.942C159.607 534.861 159.303 534.055 158.696 533.523C158.098 532.99 157.353 532.724 156.464 532.724H155.154V539.159H156.464ZM164.962 540.407C164.014 540.407 163.275 540.107 162.742 539.509C162.211 538.91 161.944 538.128 161.944 537.164C161.944 536.208 162.211 535.431 162.742 534.832C163.275 534.225 164.01 533.922 164.95 533.922C165.349 533.922 165.731 534.009 166.097 534.184C166.463 534.358 166.741 534.583 166.932 534.857V534.021H168.142V540.307H166.932V539.459C166.783 539.733 166.526 539.961 166.159 540.145C165.794 540.319 165.395 540.407 164.962 540.407ZM163.69 538.748C164.048 539.147 164.518 539.347 165.099 539.347C165.681 539.347 166.147 539.147 166.496 538.748C166.854 538.349 167.032 537.821 167.032 537.164C167.032 536.507 166.854 535.979 166.496 535.58C166.147 535.181 165.681 534.982 165.099 534.982C164.518 534.982 164.048 535.181 163.69 535.58C163.341 535.979 163.166 536.507 163.166 537.164C163.166 537.821 163.341 538.349 163.69 538.748ZM172.55 540.307C171.91 540.307 171.399 540.124 171.016 539.758C170.642 539.393 170.455 538.889 170.455 538.249V535.069H169.17V534.021H170.093C170.334 534.021 170.455 533.901 170.455 533.66V532.051H171.664V534.021H173.522V535.069H171.664V538.212C171.664 538.545 171.752 538.802 171.926 538.985C172.101 539.168 172.338 539.259 172.637 539.259H173.522V540.307H172.55ZM177.275 540.407C176.327 540.407 175.587 540.107 175.055 539.509C174.522 538.91 174.257 538.128 174.257 537.164C174.257 536.208 174.522 535.431 175.055 534.832C175.587 534.225 176.323 533.922 177.262 533.922C177.661 533.922 178.044 534.009 178.41 534.184C178.775 534.358 179.054 534.583 179.245 534.857V534.021H180.455V540.307H179.245V539.459C179.095 539.733 178.837 539.961 178.472 540.145C178.106 540.319 177.707 540.407 177.275 540.407ZM176.003 538.748C176.36 539.147 176.83 539.347 177.412 539.347C177.994 539.347 178.459 539.147 178.809 538.748C179.166 538.349 179.345 537.821 179.345 537.164C179.345 536.507 179.166 535.979 178.809 535.58C178.459 535.181 177.994 534.982 177.412 534.982C176.83 534.982 176.36 535.181 176.003 535.58C175.653 535.979 175.479 536.507 175.479 537.164C175.479 537.821 175.653 538.349 176.003 538.748ZM187.2 540.407C186.46 540.407 185.862 540.216 185.404 539.833C184.947 539.45 184.697 538.926 184.656 538.262H185.791C185.824 538.619 185.961 538.898 186.202 539.097C186.452 539.297 186.785 539.396 187.2 539.396C187.549 539.396 187.832 539.313 188.048 539.147C188.272 538.981 188.385 538.781 188.385 538.548C188.385 538.249 188.26 538.029 188.011 537.887C187.77 537.738 187.474 537.642 187.125 537.601C186.776 537.551 186.427 537.488 186.078 537.414C185.728 537.33 185.429 537.156 185.18 536.89C184.939 536.615 184.818 536.229 184.818 535.73C184.818 535.19 185.026 534.753 185.442 534.421C185.857 534.088 186.393 533.922 187.05 533.922C187.757 533.922 188.331 534.105 188.771 534.47C189.22 534.828 189.466 535.302 189.507 535.892H188.36C188.318 535.559 188.164 535.31 187.898 535.144C187.64 534.969 187.358 534.882 187.05 534.882C186.717 534.882 186.452 534.957 186.252 535.106C186.053 535.256 185.953 535.452 185.953 535.693C185.953 535.976 186.078 536.179 186.327 536.304C186.576 536.428 186.876 536.512 187.225 536.553C187.574 536.587 187.923 536.644 188.272 536.728C188.63 536.811 188.933 536.998 189.183 537.289C189.432 537.58 189.557 537.991 189.557 538.523C189.557 539.097 189.341 539.555 188.908 539.895C188.484 540.236 187.915 540.407 187.2 540.407ZM191.579 542.851L192.414 540.369L190.082 534.021H191.329L192.988 538.735L194.634 534.021H195.894L193.898 539.459L192.739 542.851H191.579ZM196.979 540.307V534.021H198.189V535.131C198.355 534.741 198.613 534.442 198.962 534.233C199.319 534.025 199.736 533.922 200.209 533.922C200.916 533.922 201.481 534.155 201.905 534.62C202.337 535.085 202.554 535.693 202.554 536.441V540.307H201.344V536.678C201.344 536.179 201.207 535.776 200.933 535.468C200.666 535.16 200.313 535.007 199.873 535.007C199.382 535.007 198.979 535.185 198.663 535.543C198.347 535.901 198.189 536.354 198.189 536.902V540.307H196.979ZM206.931 540.407C205.983 540.407 205.227 540.095 204.662 539.471C204.105 538.839 203.826 538.071 203.826 537.164C203.826 536.258 204.105 535.493 204.662 534.869C205.227 534.237 205.983 533.922 206.931 533.922C207.688 533.922 208.34 534.13 208.889 534.545C209.446 534.961 209.767 535.518 209.849 536.216H208.64C208.582 535.859 208.395 535.564 208.079 535.331C207.763 535.098 207.389 534.982 206.956 534.982C206.358 534.982 205.896 535.19 205.572 535.605C205.248 536.013 205.086 536.532 205.086 537.164C205.086 537.796 205.248 538.32 205.572 538.735C205.905 539.143 206.37 539.347 206.969 539.347C207.393 539.347 207.754 539.243 208.054 539.035C208.353 538.827 208.552 538.545 208.652 538.187H209.849C209.75 538.852 209.438 539.388 208.914 539.795C208.39 540.203 207.729 540.407 206.931 540.407Z" fill="white"/>
<path d="M572.824 187.347C648.888 322.364 601.096 493.478 466.078 569.542" stroke="url(#paint5_linear_1040_36606)" stroke-width="2"/>
<path d="M459.956 566.808H406.955C398.345 566.808 391.366 573.787 391.366 582.396C391.366 591.006 398.345 597.985 406.955 597.985H459.956C468.566 597.985 475.545 591.006 475.545 582.396C475.545 573.787 468.566 566.808 459.956 566.808Z" fill="#3BAB22"/>
<path opacity="0.4" d="M416.537 579.146C417.026 579.212 417.468 579.357 417.823 579.711C418.178 580.067 418.323 580.509 418.388 580.998C418.451 581.461 418.451 582.046 418.451 582.746V585.165C418.451 585.866 418.451 586.45 418.388 586.913C418.323 587.402 418.178 587.844 417.823 588.199C417.468 588.554 417.026 588.699 416.537 588.765C416.073 588.827 415.49 588.827 414.789 588.827H407.693C406.993 588.827 406.409 588.827 405.946 588.765C405.456 588.699 405.014 588.554 404.659 588.199C404.304 587.844 404.159 587.402 404.094 586.913C404.031 586.45 404.031 585.866 404.031 585.165V581.385C404.031 581.218 404.102 581.06 404.226 580.949C404.35 580.838 404.515 580.785 404.681 580.803C405.069 580.846 405.469 580.717 405.762 580.425C405.99 580.196 406.359 580.196 406.588 580.425L407.757 581.594C407.96 581.796 408.287 581.796 408.49 581.594C408.691 581.391 408.691 581.064 408.49 580.861L407.71 580.082C407.543 579.915 407.493 579.663 407.583 579.445C407.674 579.227 407.887 579.084 408.123 579.084H414.789C415.49 579.084 416.073 579.084 416.537 579.146Z" fill="white"/>
<path d="M401.693 576.551C401.693 576.228 401.955 575.966 402.278 575.966H407.545C408.32 575.966 409.064 576.274 409.612 576.822L411.873 579.084H408.366L409.316 580.035C409.976 580.694 409.976 581.761 409.316 582.42C408.658 583.079 407.59 583.079 406.931 582.42L406.126 581.616C405.496 582.001 404.726 582.085 404.032 581.851V584.15H402.278C401.955 584.15 401.693 583.888 401.693 583.566V576.551Z" fill="white"/>
<path d="M412.8 583.955C412.8 584.817 412.103 585.514 411.241 585.514C410.38 585.514 409.683 584.817 409.683 583.955C409.683 583.094 410.38 582.396 411.241 582.396C412.103 582.396 412.8 583.094 412.8 583.955Z" fill="white"/>
<path d="M426.658 587.073V578.343H430.038C430.902 578.343 431.588 578.589 432.095 579.079C432.603 579.562 432.856 580.193 432.856 580.975C432.856 581.756 432.603 582.392 432.095 582.883C431.588 583.365 430.902 583.606 430.038 583.606H427.955V587.073H426.658ZM430 582.484C430.524 582.484 430.915 582.343 431.173 582.06C431.431 581.777 431.559 581.415 431.559 580.975C431.559 580.534 431.431 580.173 431.173 579.89C430.915 579.607 430.524 579.466 430 579.466H427.955V582.484H430ZM436.448 587.173C435.5 587.173 434.76 586.873 434.228 586.275C433.696 585.676 433.43 584.894 433.43 583.93C433.43 582.974 433.696 582.197 434.228 581.598C434.76 580.991 435.495 580.688 436.435 580.688C436.834 580.688 437.216 580.775 437.583 580.95C437.948 581.124 438.226 581.349 438.418 581.623V580.788H439.628V587.073H438.418V586.225C438.269 586.499 438.011 586.728 437.645 586.911C437.279 587.085 436.88 587.173 436.448 587.173ZM435.176 585.514C435.533 585.913 436.003 586.113 436.585 586.113C437.166 586.113 437.633 585.913 437.982 585.514C438.339 585.115 438.518 584.587 438.518 583.93C438.518 583.273 438.339 582.745 437.982 582.346C437.633 581.947 437.166 581.748 436.585 581.748C436.003 581.748 435.533 581.947 435.176 582.346C434.827 582.745 434.652 583.273 434.652 583.93C434.652 584.587 434.827 585.115 435.176 585.514ZM442.215 589.617L443.05 587.135L440.718 580.788H441.965L443.624 585.502L445.27 580.788H446.53L444.534 586.225L443.375 589.617H442.215ZM452.595 586.262C451.987 586.869 451.214 587.173 450.275 587.173C449.336 587.173 448.558 586.869 447.943 586.262C447.336 585.647 447.033 584.869 447.033 583.93C447.033 582.991 447.336 582.218 447.943 581.611C448.558 580.996 449.336 580.688 450.275 580.688C451.214 580.688 451.987 580.996 452.595 581.611C453.202 582.218 453.505 582.991 453.505 583.93C453.505 584.869 453.202 585.647 452.595 586.262ZM450.275 586.113C450.865 586.113 451.344 585.909 451.709 585.502C452.083 585.094 452.27 584.57 452.27 583.93C452.27 583.29 452.083 582.767 451.709 582.359C451.344 581.951 450.865 581.748 450.275 581.748C449.676 581.748 449.19 581.951 448.816 582.359C448.45 582.767 448.267 583.29 448.267 583.93C448.267 584.57 448.45 585.094 448.816 585.502C449.19 585.909 449.676 586.113 450.275 586.113ZM460.349 580.788V587.073H459.139V585.963C458.973 586.353 458.711 586.653 458.354 586.861C457.996 587.069 457.581 587.173 457.107 587.173C456.4 587.173 455.83 586.94 455.398 586.474C454.974 586.009 454.762 585.402 454.762 584.654V580.788H455.972V584.417C455.972 584.915 456.104 585.318 456.371 585.626C456.645 585.934 457.002 586.088 457.443 586.088C457.934 586.088 458.337 585.909 458.653 585.551C458.977 585.194 459.139 584.741 459.139 584.192V580.788H460.349ZM464.739 587.073C464.099 587.073 463.588 586.89 463.205 586.524C462.831 586.159 462.644 585.655 462.644 585.015V581.835H461.359V580.788H462.282C462.523 580.788 462.644 580.667 462.644 580.426V578.817H463.853V580.788H465.712V581.835H463.853V584.978C463.853 585.311 463.941 585.568 464.115 585.751C464.29 585.934 464.527 586.025 464.826 586.025H465.712V587.073H464.739Z" fill="white"/>
<defs>
<filter id="filter0_d_1040_36606" x="0.195312" y="0.368164" width="657.632" height="657.632" filterUnits="userSpaceOnUse" color-interpolation-filters="sRGB">
<feFlood flood-opacity="0" result="BackgroundImageFix"/>
<feColorMatrix in="SourceAlpha" type="matrix" values="0 0 0 0 0 0 0 0 0 0 0 0 0 0 0 0 0 0 127 0" result="hardAlpha"/>
<feOffset dy="4"/>
<feGaussianBlur stdDeviation="24"/>
<feComposite in2="hardAlpha" operator="out"/>
<feColorMatrix type="matrix" values="0 0 0 0 0.101961 0 0 0 0 0.101961 0 0 0 0 0.105882 0 0 0 0.07 0"/>
<feBlend mode="normal" in2="BackgroundImageFix" result="effect1_dropShadow_1040_36606"/>
<feBlend mode="normal" in="SourceGraphic" in2="effect1_dropShadow_1040_36606" result="shape"/>
</filter>
<filter id="filter1_d_1040_36606" x="0.195312" y="0.368164" width="657.632" height="657.632" filterUnits="userSpaceOnUse" color-interpolation-filters="sRGB">
<feFlood flood-opacity="0" result="BackgroundImageFix"/>
<feColorMatrix in="SourceAlpha" type="matrix" values="0 0 0 0 0 0 0 0 0 0 0 0 0 0 0 0 0 0 127 0" result="hardAlpha"/>
<feOffset dy="4"/>
<feGaussianBlur stdDeviation="24"/>
<feComposite in2="hardAlpha" operator="out"/>
<feColorMatrix type="matrix" values="0 0 0 0 0.101961 0 0 0 0 0.101961 0 0 0 0 0.105882 0 0 0 0.07 0"/>
<feBlend mode="normal" in2="BackgroundImageFix" result="effect1_dropShadow_1040_36606"/>
<feBlend mode="normal" in="SourceGraphic" in2="effect1_dropShadow_1040_36606" result="shape"/>
</filter>
<linearGradient id="paint0_linear_1040_36606" x1="281.855" y1="156.047" x2="165.33" y2="279.587" gradientUnits="userSpaceOnUse">
<stop stop-color="#3BAB22"/>
<stop offset="1" stop-color="#18450E" stop-opacity="0"/>
</linearGradient>
<linearGradient id="paint1_linear_1040_36606" x1="299.489" y1="332" x2="213.489" y2="332" gradientUnits="userSpaceOnUse">
<stop stop-color="#3BAB22"/>
<stop offset="1" stop-color="#3BAB22" stop-opacity="0"/>
</linearGradient>
<linearGradient id="paint2_linear_1040_36606" x1="nan" y1="nan" x2="nan" y2="nan" gradientUnits="userSpaceOnUse">
<stop stop-color="#3BAB22"/>
<stop offset="1" stop-color="#3BAB22" stop-opacity="0"/>
</linearGradient>
<linearGradient id="paint3_linear_1040_36606" x1="366.006" y1="292.087" x2="430.214" y2="227.88" gradientUnits="userSpaceOnUse">
<stop stop-color="#3BAB22"/>
<stop offset="1" stop-color="#3BAB22" stop-opacity="0"/>
</linearGradient>
<linearGradient id="paint4_linear_1040_36606" x1="366.006" y1="372.311" x2="430.214" y2="436.519" gradientUnits="userSpaceOnUse">
<stop stop-color="#3BAB22"/>
<stop offset="1" stop-color="#3BAB22" stop-opacity="0"/>
</linearGradient>
<linearGradient id="paint5_linear_1040_36606" x1="637.198" y1="197.601" x2="536.703" y2="529.755" gradientUnits="userSpaceOnUse">
<stop stop-color="#3BAB22" stop-opacity="0"/>
<stop offset="1" stop-color="#3BAB22"/>
</linearGradient>
</defs>
</svg>
