<svg width="56" height="56" viewBox="0 0 56 56" fill="none" xmlns="http://www.w3.org/2000/svg">
<path d="M33.25 11.667C33.25 6.8345 37.1674 2.91699 42 2.91699C46.8326 2.91699 50.75 6.8345 50.75 11.667C50.75 16.4995 46.8326 20.417 42 20.417C37.1674 20.417 33.25 16.4995 33.25 11.667Z" fill="#3BAB22"/>
<path d="M5.25 44.333C5.25 39.5004 9.1675 35.583 14 35.583C18.8325 35.583 22.75 39.5004 22.75 44.333C22.75 49.1656 18.8325 53.083 14 53.083C9.1675 53.083 5.25 49.1656 5.25 44.333Z" fill="#3BAB22"/>
<path opacity="0.4" fill-rule="evenodd" clip-rule="evenodd" d="M9.33325 19.833C9.33325 14.034 14.0343 9.33301 19.8333 9.33301H27.9999C29.2886 9.33301 30.3333 10.3777 30.3333 11.6663C30.3333 12.955 29.2886 13.9997 27.9999 13.9997H19.8333C16.6116 13.9997 13.9999 16.6114 13.9999 19.833C13.9999 23.0547 16.6116 25.6663 19.8333 25.6663H36.1666C41.9656 25.6663 46.6666 30.3673 46.6666 36.1663C46.6666 41.9654 41.9656 46.6663 36.1666 46.6663H27.9999C26.7112 46.6663 25.6666 45.6217 25.6666 44.333C25.6666 43.0443 26.7112 41.9997 27.9999 41.9997H36.1666C39.3882 41.9997 41.9999 39.388 41.9999 36.1663C41.9999 32.9447 39.3882 30.333 36.1666 30.333H19.8333C14.0343 30.333 9.33325 25.632 9.33325 19.833Z" fill="#3BAB22"/>
</svg>
