<svg width="96" height="96" viewBox="0 0 96 96" fill="none" xmlns="http://www.w3.org/2000/svg">
<path opacity="0.4" d="M48.2288 7C56.9916 6.99996 63.8744 6.99992 69.248 7.72236C74.7544 8.46272 79.1236 10.0109 82.5564 13.4436C85.9892 16.8764 87.5372 21.2455 88.2776 26.7521C89 32.1258 89 39.0084 89 47.7712V48.2288C89 56.9916 89 63.8744 88.2776 69.248C87.5372 74.7544 85.9892 79.1236 82.5564 82.5564C79.1236 85.9892 74.7544 87.5372 69.248 88.2776C63.8744 89 56.9916 89 48.2288 89H47.7712C39.0084 89 32.1258 89 26.7521 88.2776C21.2455 87.5372 16.8764 85.9892 13.4436 82.5564C10.0109 79.1236 8.46272 74.7544 7.72236 69.248C6.99992 63.8744 6.99996 56.9916 7 48.2288V47.7712C6.99996 39.0085 6.99992 32.1258 7.72236 26.7521C8.46272 21.2455 10.0109 16.8764 13.4436 13.4436C16.8764 10.0109 21.2455 8.46272 26.7521 7.72236C32.1258 6.99992 39.0085 6.99996 47.7712 7H48.2288Z" fill="#3BAB22"/>
<path fill-rule="evenodd" clip-rule="evenodd" d="M31.0374 33.0017C32.2878 33.0169 33.3977 33.8063 33.8225 34.9825L40.298 52.9144L42.77 58.8476C43.4072 60.3772 42.684 62.1336 41.1548 62.7708C39.6252 63.408 37.8688 62.6848 37.2316 61.1552L35.5008 57.0016H26.1631L24.8469 60.95C24.3229 62.522 22.624 63.3716 21.0521 62.8476C19.4803 62.3236 18.6308 60.6248 19.1548 59.0528L21.1548 53.0528C21.1703 53.006 21.187 52.96 21.2048 52.914L28.2048 34.9141C28.6581 33.7486 29.7868 32.9865 31.0374 33.0017ZM28.3864 51.0016H33.2279L30.8968 44.546L28.3864 51.0016Z" fill="#3BAB22"/>
<path fill-rule="evenodd" clip-rule="evenodd" d="M52.6408 33.0009C52.6984 33.0012 52.752 33.0016 52.8016 33.0016H58.0016C62.972 33.0016 67.0016 37.031 67.0016 42.0016C67.0016 46.972 62.972 51.0016 58.0016 51.0016H53.0016V60.0016C53.0016 61.6584 51.6584 63.0016 50.0016 63.0016C48.3448 63.0016 47.0016 61.6584 47.0016 60.0016V38.8016C47.0016 38.7522 47.0012 38.6984 47.0008 38.641C46.9976 38.1044 46.992 37.2397 47.2464 36.4565C47.7408 34.9343 48.9344 33.7409 50.4564 33.2463C51.2396 32.9918 52.1044 32.9974 52.6408 33.0009ZM53.0016 45.0016H58.0016C59.6584 45.0016 61.0016 43.6584 61.0016 42.0016C61.0016 40.3448 59.6584 39.0016 58.0016 39.0016H53.0016V45.0016Z" fill="#3BAB22"/>
<path fill-rule="evenodd" clip-rule="evenodd" d="M74 33.0015C75.6568 33.0015 77 34.3446 77 36.0015V60.0016C77 61.6584 75.6568 63.0016 74 63.0016C72.3432 63.0016 71 61.6584 71 60.0016V36.0015C71 34.3446 72.3432 33.0015 74 33.0015Z" fill="#3BAB22"/>
</svg>
