<svg width="96" height="96" viewBox="0 0 96 96" fill="none" xmlns="http://www.w3.org/2000/svg">
<path fill-rule="evenodd" clip-rule="evenodd" d="M23.0979 20.9688L26.2652 24.7758C26.913 25.5544 27.9099 25.9536 28.9161 25.8373C29.9222 25.7209 30.8018 25.1047 31.2547 24.1988L34.6833 17.3416C35.1483 16.4117 35.0986 15.3072 34.552 14.4228C34.0053 13.5384 33.0397 13 32 13C28.8498 13 25.8201 13.5391 23.0021 14.5331C12.5105 18.2337 5 28.2278 5 40C5 41.6568 6.34316 43 8 43C9.65684 43 11 41.6568 11 40C11 31.5742 15.9442 24.3152 23.0979 20.9688Z" fill="#3BAB22"/>
<path fill-rule="evenodd" clip-rule="evenodd" d="M72.902 75.0312L69.7348 71.224C69.0872 70.4456 68.09 70.0464 67.084 70.1628C66.0776 70.2792 65.1984 70.8952 64.7452 71.8012L61.3168 78.6584C60.8516 79.5884 60.9016 80.6928 61.448 81.5772C61.9948 82.4616 62.9604 83 64 83C67.15 83 70.18 82.4608 72.998 81.4668C83.4896 77.7664 91 67.772 91 56C91 54.3432 89.6568 53 88 53C86.3432 53 85 54.3432 85 56C85 64.4256 80.056 71.6848 72.902 75.0312Z" fill="#3BAB22"/>
<path opacity="0.4" d="M86.8016 5.73863C83.1616 5.07131 76.0024 3.9301 67.8564 7.28899C61.0568 10.0927 54.168 10.698 50.2624 10.6226C47.1944 10.5634 45 13.1802 45 15.9788V41.8276C45 44.1412 46.6368 46.8844 49.7072 46.9816C54.142 47.1224 62.1456 46.5052 70.1436 43.2076C76.342 40.6516 81.8488 41.3256 85.2404 41.9252C88.676 42.5328 91 39.5972 91 36.8171V10.9812C91 8.63787 89.4432 6.22295 86.8016 5.73863Z" fill="#3BAB22"/>
<path fill-rule="evenodd" clip-rule="evenodd" d="M67.9732 20C64.6744 20 62 22.6863 62 26C62 29.3137 64.6744 32 67.9732 32H68.0268C71.3256 32 74 29.3137 74 26C74 22.6863 71.3256 20 68.0268 20H67.9732Z" fill="#3BAB22"/>
<path opacity="0.4" d="M46.8016 49.7389C43.1616 49.0713 36.0023 47.9301 27.8564 51.2889C21.0568 54.0929 14.1679 54.6981 10.2625 54.6229C7.1944 54.5637 5 57.1805 5 59.9789V85.8277C5 88.1413 6.63668 90.8845 9.70704 90.9817C14.142 91.1225 22.1455 90.5053 30.1436 87.2077C36.3421 84.6517 41.8488 85.3257 45.2404 85.9253C48.676 86.5329 51 83.5973 51 80.8173V54.9813C51 52.6381 49.4432 50.2229 46.8016 49.7389Z" fill="#3BAB22"/>
<path fill-rule="evenodd" clip-rule="evenodd" d="M27.9732 64C24.6743 64 22 66.6864 22 70C22 73.3136 24.6743 76 27.9732 76H28.0268C31.3257 76 34 73.3136 34 70C34 66.6864 31.3257 64 28.0268 64H27.9732Z" fill="#3BAB22"/>
</svg>
