<svg width="56" height="56" viewBox="0 0 56 56" fill="none" xmlns="http://www.w3.org/2000/svg">
<path opacity="0.4" d="M46.6669 18.0868C47.9556 18.0868 49.0002 17.0422 49.0002 15.7535C49.0002 14.4648 47.9556 13.4202 46.6669 13.4202H18.667L18.667 18.0868H46.6669Z" fill="#3BAB22"/>
<path opacity="0.4" d="M45.3339 9.66984C46.6226 9.66984 47.6672 8.62516 47.6672 7.33651C47.6672 6.04783 46.6226 5.00317 45.3339 5.00317H37.334L37.334 9.66984H45.3339Z" fill="#3BAB22"/>
<path opacity="0.4" d="M29.3341 9.66667C28.0454 9.66667 27.0008 8.62199 27.0008 7.33333C27.0008 6.04466 28.0454 5 29.3341 5H37.334L37.334 9.66667H29.3341Z" fill="#3BAB22"/>
<path opacity="0.4" d="M41.3319 26.6698C42.6206 26.6698 43.6653 25.6252 43.6653 24.3365C43.6653 23.0478 42.6206 22.0032 41.3319 22.0032H33.3321L33.332 26.6698H41.3319Z" fill="#3BAB22"/>
<path opacity="0.4" d="M25.3321 26.6667C24.0434 26.6667 22.9988 25.622 22.9988 24.3333C22.9988 23.0447 24.0434 22 25.3321 22H33.332L33.332 26.6667H25.3321Z" fill="#3BAB22"/>
<path opacity="0.4" d="M30.3329 34.6698C31.6216 34.6698 32.6662 33.6252 32.6662 32.3365C32.6662 31.0478 31.6216 30.0032 30.3329 30.0032H22.333L22.333 34.6698H30.3329Z" fill="#3BAB22"/>
<path opacity="0.4" d="M14.3331 34.6667C13.0444 34.6667 11.9998 33.622 11.9998 32.3333C11.9998 31.0447 13.0444 30 14.3331 30H22.333L22.333 34.6667H14.3331Z" fill="#3BAB22"/>
<path opacity="0.4" d="M23.3329 50.6698C24.6216 50.6698 25.6662 49.6252 25.6662 48.3365C25.6662 47.0478 24.6216 46.0032 23.3329 46.0032H15.333L15.333 50.6698H23.3329Z" fill="#3BAB22"/>
<path opacity="0.4" d="M7.33312 50.6667C6.04442 50.6667 4.99979 49.622 4.99979 48.3333C4.99979 47.0447 6.04442 46 7.33312 46H15.333L15.333 50.6667H7.33312Z" fill="#3BAB22"/>
<path d="M7.38078 14.2089C7.20678 14.5696 7 15.1115 7 15.7534C7 16.3952 7.20678 16.9371 7.38078 17.2978C7.56602 17.6817 7.80164 18.0375 8.03441 18.3482C8.49947 18.9691 9.09862 19.6018 9.70139 20.1842C10.9169 21.3586 12.3764 22.547 13.4235 23.3655L13.4855 23.4142C13.734 23.6091 14.1006 23.8968 14.4518 24.0939C14.8442 24.3147 15.8923 24.8086 17.0862 24.2381C18.2889 23.6632 18.5412 22.5315 18.6074 22.1001C18.6679 21.7053 18.6672 21.2415 18.6667 20.9231L18.6666 20.8441V18.0868L18.6667 10.6628L18.6667 10.5838C18.6672 10.2654 18.668 9.80153 18.6074 9.40671C18.5412 8.97535 18.2889 7.84368 17.0862 7.26882C15.8924 6.6982 14.8443 7.19226 14.4518 7.41281C14.1007 7.61018 13.7341 7.89767 13.4856 8.0926L13.4236 8.14125C12.3765 8.95981 10.9169 10.1481 9.70142 11.3226C9.09865 11.905 8.49947 12.5376 8.03441 13.1585C7.80164 13.4693 7.566 13.825 7.38078 14.2089Z" fill="#3BAB22"/>
<path opacity="0.4" d="M9.33333 42.5868C8.04468 42.5868 7 41.5422 7 40.2535C7 38.9648 8.04468 37.9202 9.33333 37.9202H37.3333V42.5868H9.33333Z" fill="#3BAB22"/>
<path d="M48.6202 38.709C48.7942 39.0695 49.001 39.6116 49.001 40.2535C49.001 40.8954 48.794 41.4372 48.6202 41.7979C48.4349 42.1817 48.1992 42.5376 47.9666 42.8484C47.5013 43.4693 46.9024 44.1018 46.2994 44.6842C45.084 45.8586 43.6245 47.047 42.5775 47.8655L42.5155 47.9142C42.2667 48.1091 41.9004 48.3968 41.5492 48.594C41.1568 48.8147 40.1086 49.3086 38.9147 48.7381C37.7121 48.1632 37.4598 47.0315 37.3936 46.6001C37.3329 46.2053 37.3336 45.7414 37.3343 45.4232V45.3441V42.5868V35.1628L37.3341 35.0837C37.3336 34.7655 37.3329 34.3016 37.3936 33.9068C37.4596 33.4753 37.7121 32.3437 38.9147 31.7687C40.1084 31.1982 41.1565 31.6922 41.549 31.913C41.9002 32.1101 42.2667 32.3976 42.5152 32.5926L42.5773 32.6412C43.6245 33.46 45.084 34.6481 46.2994 35.8227C46.9024 36.4051 47.5013 37.0376 47.9664 37.6585C48.1992 37.9693 48.4349 38.325 48.6202 38.709Z" fill="#3BAB22"/>
</svg>
