<svg width="72" height="72" viewBox="0 0 72 72" fill="none" xmlns="http://www.w3.org/2000/svg">
<g clip-path="url(#clip0_269_3850)">
<g filter="url(#filter0_i_269_3850)">
<path d="M36 72C55.8823 72 72 55.8823 72 36C72 16.1177 55.8823 0 36 0C16.1177 0 0 16.1177 0 36C0 55.8823 16.1177 72 36 72Z" fill="white"/>
</g>
<path d="M34.4338 36.0002H71.999C71.999 32.751 71.5658 29.6032 70.7588 26.6089H34.4338V36.0002Z" fill="#D80027"/>
<path d="M34.4338 17.2156H66.7152C64.5114 13.6195 61.6937 10.441 58.4084 7.82422H34.4338V17.2156Z" fill="#D80027"/>
<path d="M35.9992 71.9999C44.4717 71.9999 52.2591 69.0715 58.4086 64.1738H13.5897C19.7393 69.0715 27.5266 71.9999 35.9992 71.9999Z" fill="#D80027"/>
<path d="M5.28317 54.7795H66.7155C68.4847 51.8926 69.8568 48.737 70.7592 45.3882H1.2395C2.14189 48.737 3.51397 51.8926 5.28317 54.7795Z" fill="#D80027"/>
<path d="M16.6759 5.62191H19.9565L16.905 7.83886L18.0706 11.4261L15.0192 9.20911L11.9677 11.4261L12.9746 8.32711C10.2878 10.5652 7.93294 13.1873 5.99231 16.1089H7.04348L5.10103 17.52C4.79841 18.0249 4.50816 18.5377 4.23 19.0582L5.15756 21.913L3.42703 20.6557C2.99686 21.5671 2.60339 22.499 2.24972 23.4503L3.27164 26.5958H7.04348L3.99192 28.8128L5.15756 32.4L2.10614 30.183L0.278297 31.5111C0.0953437 32.9818 0 34.4797 0 36H36C36 16.1179 36 13.7739 36 0C28.8883 0 22.2588 2.06297 16.6759 5.62191ZM18.0706 32.4L15.0192 30.183L11.9677 32.4L13.1334 28.8128L10.0818 26.5958H13.8537L15.0192 23.0086L16.1847 26.5958H19.9565L16.905 28.8128L18.0706 32.4ZM16.905 18.3258L18.0706 21.913L15.0192 19.6961L11.9677 21.913L13.1334 18.3258L10.0818 16.1089H13.8537L15.0192 12.5217L16.1847 16.1089H19.9565L16.905 18.3258ZM30.9836 32.4L27.9322 30.183L24.8808 32.4L26.0464 28.8128L22.9949 26.5958H26.7667L27.9322 23.0086L29.0977 26.5958H32.8695L29.818 28.8128L30.9836 32.4ZM29.818 18.3258L30.9836 21.913L27.9322 19.6961L24.8808 21.913L26.0464 18.3258L22.9949 16.1089H26.7667L27.9322 12.5217L29.0977 16.1089H32.8695L29.818 18.3258ZM29.818 7.83886L30.9836 11.4261L27.9322 9.20911L24.8808 11.4261L26.0464 7.83886L22.9949 5.62191H26.7667L27.9322 2.0347L29.0977 5.62191H32.8695L29.818 7.83886Z" fill="#0052B4"/>
</g>
<defs>
<filter id="filter0_i_269_3850" x="0" y="0" width="72" height="72" filterUnits="userSpaceOnUse" color-interpolation-filters="sRGB">
<feFlood flood-opacity="0" result="BackgroundImageFix"/>
<feBlend mode="normal" in="SourceGraphic" in2="BackgroundImageFix" result="shape"/>
<feColorMatrix in="SourceAlpha" type="matrix" values="0 0 0 0 0 0 0 0 0 0 0 0 0 0 0 0 0 0 127 0" result="hardAlpha"/>
<feOffset/>
<feGaussianBlur stdDeviation="2"/>
<feComposite in2="hardAlpha" operator="arithmetic" k2="-1" k3="1"/>
<feColorMatrix type="matrix" values="0 0 0 0 0 0 0 0 0 0 0 0 0 0 0 0 0 0 0.25 0"/>
<feBlend mode="normal" in2="shape" result="effect1_innerShadow_269_3850"/>
</filter>
<clipPath id="clip0_269_3850">
<rect width="72" height="72" fill="white"/>
</clipPath>
</defs>
</svg>
